<?xml version="1.0" encoding="utf-8"?>
<!-- Generator: Adobe Illustrator 25.4.1, SVG Export Plug-In . SVG Version: 6.00 Build 0)  -->
<svg version="1.1" id="Calque_1" xmlns="http://www.w3.org/2000/svg" xmlns:xlink="http://www.w3.org/1999/xlink" x="0px" y="0px"
	 viewBox="0 0 652 167.2" style="enable-background:new 0 0 652 167.2;" xml:space="preserve">
<style type="text/css">
	.st0{fill:#7289DA;}
</style>
<path class="st0" d="M204,48.8h-27.4v30.8l18.3,16.5V66.2h9.8c6.2,0,9.3,3,9.3,7.8v22.9c0,4.8-2.9,8-9.3,8h-28.2v17.4H204
	c14.7,0.1,28.5-7.3,28.5-24.1V73.6C232.6,56.3,218.7,48.8,204,48.8z M347.9,98.2V72.9c0-9.1,16.4-11.2,21.3-2.1l15.1-6.1
	c-6-13.1-16.8-16.9-25.8-16.9c-14.7,0-29.3,8.5-29.3,25.1v25.3c0,16.7,14.6,25.1,28.9,25.1c9.3,0,20.3-4.5,26.5-16.5l-16.2-7.4
	C364.5,109.5,347.9,107,347.9,98.2z M297.9,76.3c-5.7-1.2-9.5-3.3-9.8-6.9c0.3-8.5,13.5-8.8,21.2-0.7l12.2-9.3
	c-7.6-9.3-16.2-11.7-25.1-11.7c-13.5,0-26.5,7.6-26.5,22c0,14,10.7,21.5,22.6,23.3c6,0.8,12.7,3.2,12.6,7.4
	c-0.5,7.9-16.7,7.4-24.1-1.5l-11.7,11c6.9,8.8,16.2,13.3,25,13.3c13.5,0,28.4-7.8,29-22C324,83.3,310.9,78.7,297.9,76.3z
	 M242.5,122.2H261V48.8h-18.5V122.2z M554.7,48.8h-27.5v30.8l18.3,16.5V66.2h9.8c6.2,0,9.3,3,9.3,7.8v22.9c0,4.8-2.9,8-9.3,8h-28.1
	v17.4h27.5c14.7,0.1,28.5-7.3,28.5-24.1V73.6C583.2,56.3,569.4,48.8,554.7,48.8z M420.1,47.8c-15.2,0-30.3,8.3-30.3,25.2v25.1
	c0,16.8,15.2,25.2,30.5,25.2c15.2,0,30.3-8.4,30.3-25.2V73C450.6,56.2,435.3,47.8,420.1,47.8z M432,98.1c0,5.3-6,8-11.8,8
	c-6,0-11.9-2.6-11.9-8V73c0-5.4,5.8-8.3,11.6-8.3c6,0,12.2,2.6,12.2,8.3L432,98.1L432,98.1z M517,73c-0.4-17.2-12.2-24.1-27.3-24.1
	h-29.2v73.4h18.8V99h3.3l17,23.3h23.2l-20-25.2C511.5,94.3,517,86.6,517,73z M490,83h-10.9V66.2H490C501.7,66.2,501.7,83,490,83z"/>
<g>
	<path class="st0" d="M133.7,48.8H77.4c-4.7,0-8.6,3.9-8.6,8.6v56.3c0,4.7,3.9,8.6,8.6,8.6h47.7l-2.2-7.7l5.4,5l5.1,4.7l9,7.8V57.4
		C142.2,52.6,138.4,48.8,133.7,48.8z M117.5,103.2c0,0-1.5-1.8-2.8-3.4c5.5-1.6,7.6-5,7.6-5c-1.7,1.1-3.4,1.9-4.8,2.5
		c-2.1,0.9-4.1,1.4-6.1,1.8c-4,0.8-7.7,0.6-10.9-0.1c-2.4-0.5-4.5-1.1-6.2-1.8c-1-0.4-2-0.9-3-1.4c-0.1-0.1-0.3-0.1-0.4-0.2
		c-0.1-0.1-0.1-0.1-0.2-0.1c-0.8-0.4-1.2-0.7-1.2-0.7s2,3.3,7.4,4.9c-1.3,1.6-2.8,3.5-2.8,3.5c-9.3-0.3-12.8-6.4-12.8-6.4
		c0-13.4,6-24.3,6-24.3c6-4.5,11.8-4.4,11.8-4.4l0.4,0.5c-7.6,2.1-11,5.4-11,5.4s0.9-0.5,2.5-1.2c4.5-2,8.1-2.5,9.6-2.6
		c0.3-0.1,0.5-0.1,0.7-0.1c2.5-0.4,5.4-0.4,8.5-0.1c4,0.5,8.3,1.6,12.7,4c0,0-3.3-3.2-10.5-5.3l0.6-0.7c0,0,5.7-0.1,11.8,4.4
		c0,0,6,10.9,6,24.3C130.3,96.8,126.7,102.9,117.5,103.2z"/>
	<ellipse class="st0" cx="113.3" cy="88.3" rx="4.3" ry="4.6"/>
	<path class="st0" d="M97.9,83.7c-2.4,0-4.3,2.1-4.3,4.6c0,2.5,1.9,4.6,4.3,4.6c2.4,0,4.3-2.1,4.3-4.6
		C102.3,85.8,100.3,83.7,97.9,83.7z"/>
</g>
</svg>
