<?xml version="1.0" encoding="utf-8"?>
<!-- Generator: Adobe Illustrator 19.0.0, SVG Export Plug-In . SVG Version: 6.00 Build 0)  -->
<svg version="1.1" id="layer" xmlns="http://www.w3.org/2000/svg" xmlns:xlink="http://www.w3.org/1999/xlink" x="0px" y="0px"
	 viewBox="-153 -46 652 652" style="enable-background:new -153 -46 652 652;" xml:space="preserve">
<style type="text/css">
	.st0{fill:#7289DA;}
</style>
<path class="st0" d="M-43.6,261.8c-4.7,0-8.4,4.1-8.4,9.1s3.8,9.1,8.4,9.1c4.7,0,8.4-4.1,8.4-9.1S-39,261.8-43.6,261.8z
	 M-73.8,261.8c-4.7,0-8.4,4.1-8.4,9.1s3.8,9.1,8.4,9.1c4.7,0,8.4-4.1,8.4-9.1C-65.3,265.9-69.1,261.8-73.8,261.8z M-3.4,193h-110.8
	c-9.3,0-17,7.6-17,17v110.8c0,9.3,7.6,17,17,17h93.8l-4.4-15.1l10.6,9.8l10,9.2L13.6,357V210C13.5,200.6,5.9,193-3.4,193z
	 M-35.3,300.1c0,0-3-3.6-5.5-6.6c10.8-3.1,15-9.8,15-9.8c-3.4,2.2-6.6,3.8-9.5,4.9c-4.1,1.7-8.1,2.8-12,3.6
	c-7.9,1.5-15.2,1.1-21.4-0.1c-4.7-0.9-8.8-2.1-12.2-3.6c-1.9-0.7-4-1.7-6-2.8c-0.2-0.2-0.5-0.2-0.7-0.4c-0.2-0.1-0.2-0.2-0.3-0.2
	c-1.5-0.8-2.3-1.4-2.3-1.4s4,6.5,14.5,9.7c-2.5,3.1-5.5,6.8-5.5,6.8c-18.3-0.6-25.2-12.5-25.2-12.5c0-26.4,11.9-47.8,11.9-47.8
	c11.9-8.8,23.2-8.6,23.2-8.6l0.8,1c-14.9,4.2-21.7,10.7-21.7,10.7s1.8-1,4.9-2.3c8.8-3.9,15.9-4.9,18.8-5.2c0.5-0.1,0.9-0.2,1.4-0.2
	c5-0.7,10.7-0.8,16.7-0.2c7.9,0.9,16.3,3.2,24.9,7.9c0,0-6.5-6.2-20.6-10.4l1.2-1.3c0,0,11.3-0.2,23.2,8.6c0,0,11.9,21.4,11.9,47.8
	C-10.1,287.6-17.1,299.5-35.3,300.1z M89.5,228.4H62.1v30.8l18.3,16.5v-29.9h9.8c6.2,0,9.3,3,9.3,7.8v22.9c0,4.8-2.9,8-9.3,8H62
	v17.4h27.5c14.7,0.1,28.5-7.3,28.5-24.1v-24.6C118.1,235.9,104.2,228.4,89.5,228.4z M233.4,277.8v-25.3c0-9.1,16.4-11.2,21.3-2.1
	l15.1-6.1c-6-13.1-16.8-16.9-25.8-16.9c-14.7,0-29.3,8.5-29.3,25.1v25.3c0,16.7,14.6,25.1,28.9,25.1c9.3,0,20.3-4.5,26.5-16.5
	l-16.2-7.4C250,289.1,233.4,286.6,233.4,277.8z M183.4,255.9c-5.7-1.2-9.5-3.3-9.8-6.9c0.3-8.5,13.5-8.8,21.2-0.7l12.2-9.3
	c-7.6-9.3-16.2-11.7-25.1-11.7c-13.5,0-26.5,7.6-26.5,22c0,14,10.7,21.5,22.6,23.3c6,0.8,12.7,3.2,12.6,7.4
	c-0.5,7.9-16.7,7.4-24.1-1.5l-11.7,11c6.9,8.8,16.2,13.3,25,13.3c13.5,0,28.4-7.8,29-22C209.5,262.9,196.4,258.3,183.4,255.9z
	 M128,301.8h18.5v-73.4H128V301.8z M440.3,228.4h-27.5v30.8l18.3,16.5v-29.9h9.8c6.2,0,9.3,3,9.3,7.8v22.9c0,4.8-2.9,8-9.3,8h-28.1
	v17.4h27.5c14.7,0.1,28.5-7.3,28.5-24.1v-24.6C468.8,235.9,455,228.4,440.3,228.4z M305.6,227.4c-15.2,0-30.3,8.3-30.3,25.2v25.1
	c0,16.8,15.2,25.2,30.5,25.2c15.2,0,30.3-8.4,30.3-25.2v-25.1C336.1,235.8,320.8,227.4,305.6,227.4z M317.5,277.7c0,5.3-6,8-11.8,8
	c-6,0-11.9-2.6-11.9-8v-25.1c0-5.4,5.8-8.3,11.6-8.3c6,0,12.2,2.6,12.2,8.3V277.7z M402.6,252.6c-0.4-17.2-12.2-24.1-27.3-24.1H346
	v73.4h18.8v-23.3h3.3l17,23.3h23.2l-20-25.2C397.1,273.9,402.6,266.2,402.6,252.6z M375.6,262.6h-10.9v-16.8h10.9
	C387.3,245.8,387.3,262.6,375.6,262.6z"/>
</svg>
