<svg xmlns="http://www.w3.org/2000/svg" xmlns:xlink="http://www.w3.org/1999/xlink" width="652" zoomAndPan="magnify" viewBox="0 0 488.87997 488.999988" height="652" preserveAspectRatio="xMidYMid meet" version="1.0"><path fill="rgb(44.709778%, 53.729248%, 85.488892%)" d="M 82.03125 230.851562 C 78.503906 230.851562 75.730469 233.925781 75.730469 237.675781 C 75.730469 241.425781 78.582031 244.5 82.03125 244.5 C 85.554688 244.5 88.328125 241.425781 88.328125 237.675781 C 88.328125 233.925781 85.480469 230.851562 82.03125 230.851562 Z M 59.386719 230.851562 C 55.859375 230.851562 53.085938 233.925781 53.085938 237.675781 C 53.085938 241.425781 55.9375 244.5 59.386719 244.5 C 62.910156 244.5 65.683594 241.425781 65.683594 237.675781 C 65.757812 233.925781 62.910156 230.851562 59.386719 230.851562 Z M 112.171875 179.265625 L 29.09375 179.265625 C 22.121094 179.265625 16.347656 184.964844 16.347656 192.011719 L 16.347656 275.09375 C 16.347656 282.066406 22.042969 287.839844 29.09375 287.839844 L 99.425781 287.839844 L 96.125 276.515625 L 104.074219 283.867188 L 111.574219 290.761719 L 124.917969 302.234375 L 124.917969 192.011719 C 124.84375 184.964844 119.144531 179.265625 112.171875 179.265625 Z M 88.253906 259.570312 C 88.253906 259.570312 86.003906 256.871094 84.128906 254.621094 C 92.226562 252.296875 95.375 247.273438 95.375 247.273438 C 92.828125 248.925781 90.429688 250.125 88.253906 250.949219 C 85.179688 252.222656 82.179688 253.046875 79.253906 253.648438 C 73.332031 254.773438 67.859375 254.472656 63.210938 253.574219 C 59.683594 252.898438 56.609375 252 54.0625 250.875 C 52.636719 250.347656 51.0625 249.597656 49.5625 248.773438 C 49.414062 248.625 49.1875 248.625 49.039062 248.472656 C 48.886719 248.398438 48.886719 248.324219 48.8125 248.324219 C 47.6875 247.722656 47.089844 247.273438 47.089844 247.273438 C 47.089844 247.273438 50.085938 252.148438 57.960938 254.546875 C 56.085938 256.871094 53.835938 259.644531 53.835938 259.644531 C 40.113281 259.195312 34.941406 250.273438 34.941406 250.273438 C 34.941406 230.476562 43.863281 214.433594 43.863281 214.433594 C 52.785156 207.835938 61.261719 207.984375 61.261719 207.984375 L 61.859375 208.734375 C 50.6875 211.882812 45.589844 216.757812 45.589844 216.757812 C 45.589844 216.757812 46.9375 216.007812 49.261719 215.03125 C 55.859375 212.109375 61.183594 211.359375 63.359375 211.132812 C 63.734375 211.058594 64.035156 210.984375 64.410156 210.984375 C 68.160156 210.457031 72.433594 210.382812 76.929688 210.832031 C 82.855469 211.507812 89.152344 213.234375 95.601562 216.757812 C 95.601562 216.757812 90.726562 212.109375 80.15625 208.957031 L 81.054688 207.984375 C 81.054688 207.984375 89.527344 207.835938 98.449219 214.433594 C 98.449219 214.433594 107.375 230.476562 107.375 250.273438 C 107.148438 250.199219 101.898438 259.121094 88.253906 259.570312 Z M 181.832031 205.808594 L 161.285156 205.808594 L 161.285156 228.902344 L 175.007812 241.277344 L 175.007812 218.855469 L 182.355469 218.855469 C 187.003906 218.855469 189.328125 221.105469 189.328125 224.703125 L 189.328125 241.875 C 189.328125 245.476562 187.152344 247.875 182.355469 247.875 L 161.210938 247.875 L 161.210938 260.921875 L 181.832031 260.921875 C 192.851562 260.996094 203.199219 255.449219 203.199219 242.851562 L 203.199219 224.40625 C 203.273438 211.433594 192.851562 205.808594 181.832031 205.808594 Z M 289.730469 242.851562 L 289.730469 223.878906 C 289.730469 217.058594 302.027344 215.480469 305.699219 222.304688 L 317.023438 217.730469 C 312.523438 207.910156 304.425781 205.058594 297.675781 205.058594 C 286.65625 205.058594 275.707031 211.433594 275.707031 223.878906 L 275.707031 242.851562 C 275.707031 255.371094 286.65625 261.671875 297.378906 261.671875 C 304.351562 261.671875 312.597656 258.296875 317.246094 249.296875 L 305.101562 243.75 C 302.175781 251.324219 289.730469 249.449219 289.730469 242.851562 Z M 252.238281 226.429688 C 247.964844 225.53125 245.113281 223.953125 244.890625 221.253906 C 245.113281 214.882812 255.011719 214.65625 260.785156 220.730469 L 269.933594 213.757812 C 264.234375 206.785156 257.785156 204.984375 251.113281 204.984375 C 240.992188 204.984375 231.242188 210.683594 231.242188 221.480469 C 231.242188 231.976562 239.265625 237.601562 248.1875 238.953125 C 252.6875 239.550781 257.710938 241.351562 257.636719 244.5 C 257.261719 250.421875 245.113281 250.046875 239.566406 243.375 L 230.792969 251.625 C 235.96875 258.222656 242.941406 261.597656 249.539062 261.597656 C 259.660156 261.597656 270.832031 255.746094 271.285156 245.101562 C 271.808594 231.679688 261.984375 228.230469 252.238281 226.429688 Z M 210.699219 260.847656 L 224.570312 260.847656 L 224.570312 205.808594 L 210.699219 205.808594 Z M 444.867188 205.808594 L 424.246094 205.808594 L 424.246094 228.902344 L 437.96875 241.277344 L 437.96875 218.855469 L 445.316406 218.855469 C 449.964844 218.855469 452.289062 221.105469 452.289062 224.703125 L 452.289062 241.875 C 452.289062 245.476562 450.113281 247.875 445.316406 247.875 L 424.246094 247.875 L 424.246094 260.921875 L 444.867188 260.921875 C 455.886719 260.996094 466.234375 255.449219 466.234375 242.851562 L 466.234375 224.40625 C 466.234375 211.433594 455.886719 205.808594 444.867188 205.808594 Z M 343.867188 205.058594 C 332.46875 205.058594 321.144531 211.28125 321.144531 223.953125 L 321.144531 242.777344 C 321.144531 255.371094 332.542969 261.671875 344.015625 261.671875 C 355.414062 261.671875 366.734375 255.371094 366.734375 242.777344 L 366.734375 223.953125 C 366.734375 211.359375 355.261719 205.058594 343.867188 205.058594 Z M 352.789062 242.777344 C 352.789062 246.75 348.289062 248.773438 343.941406 248.773438 C 339.441406 248.773438 335.019531 246.824219 335.019531 242.777344 L 335.019531 223.953125 C 335.019531 219.90625 339.367188 217.730469 343.714844 217.730469 C 348.214844 217.730469 352.863281 219.679688 352.863281 223.953125 L 352.863281 242.777344 Z M 416.597656 223.953125 C 416.296875 211.058594 407.449219 205.882812 396.128906 205.882812 L 374.15625 205.882812 L 374.15625 260.921875 L 388.253906 260.921875 L 388.253906 243.449219 L 390.730469 243.449219 L 403.476562 260.921875 L 420.871094 260.921875 L 405.875 242.027344 C 412.472656 239.925781 416.597656 234.152344 416.597656 223.953125 Z M 396.351562 231.453125 L 388.179688 231.453125 L 388.179688 218.855469 L 396.351562 218.855469 C 405.125 218.855469 405.125 231.453125 396.351562 231.453125 Z M 396.351562 231.453125 " fill-opacity="1" fill-rule="nonzero"/></svg>