<?xml version="1.0" encoding="utf-8"?>
<!-- Generator: Adobe Illustrator 25.4.1, SVG Export Plug-In . SVG Version: 6.00 Build 0)  -->
<svg version="1.1" id="Calque_1" xmlns="http://www.w3.org/2000/svg" xmlns:xlink="http://www.w3.org/1999/xlink" x="0px" y="0px"
	 viewBox="0 0 652 167.2" style="enable-background:new 0 0 652 167.2;" xml:space="preserve">
<style type="text/css">
	.st0{fill:#7289DA;}
</style>
<path class="st0" d="M109.5,68.8c-4.7,0-8.4,4.1-8.4,9.1s3.8,9.1,8.4,9.1c4.7,0,8.4-4.1,8.4-9.1S114.1,68.8,109.5,68.8z M79.3,68.8
	c-4.7,0-8.4,4.1-8.4,9.1s3.8,9.1,8.4,9.1c4.7,0,8.4-4.1,8.4-9.1C87.8,72.9,84,68.8,79.3,68.8z M149.6,0H38.9c-9.3,0-17,7.6-17,17
	v110.8c0,9.3,7.6,17,17,17h93.8l-4.4-15.1l10.6,9.8l10,9.2l17.8,15.3V17C166.5,7.6,158.9,0,149.6,0z M117.8,107.1c0,0-3-3.6-5.5-6.6
	c10.8-3.1,15-9.8,15-9.8c-3.4,2.2-6.6,3.8-9.5,4.9c-4.1,1.7-8.1,2.8-12,3.6c-7.9,1.5-15.2,1.1-21.4-0.1c-4.7-0.9-8.8-2.1-12.2-3.6
	c-1.9-0.7-4-1.7-6-2.8c-0.2-0.2-0.5-0.2-0.7-0.4c-0.2-0.1-0.2-0.2-0.3-0.2c-1.5-0.8-2.3-1.4-2.3-1.4s4,6.5,14.5,9.7
	c-2.5,3.1-5.5,6.8-5.5,6.8c-18.3-0.6-25.2-12.5-25.2-12.5c0-26.4,11.9-47.8,11.9-47.8c11.9-8.8,23.2-8.6,23.2-8.6l0.8,1
	C67.7,43.5,60.9,50,60.9,50s1.8-1,4.9-2.3c8.8-3.9,15.9-4.9,18.8-5.2c0.5-0.1,0.9-0.2,1.4-0.2c5-0.7,10.7-0.8,16.7-0.2
	c7.9,0.9,16.3,3.2,24.9,7.9c0,0-6.5-6.2-20.6-10.4l1.2-1.3c0,0,11.3-0.2,23.2,8.6c0,0,11.9,21.4,11.9,47.8
	C142.9,94.6,135.9,106.5,117.8,107.1z M242.5,35.4h-27.4v30.8l18.3,16.5V52.8h9.8c6.2,0,9.3,3,9.3,7.8v22.9c0,4.8-2.9,8-9.3,8H215
	v17.4h27.5c14.7,0.1,28.5-7.3,28.5-24.1V60.2C271.1,42.9,257.2,35.4,242.5,35.4z M386.4,84.8V59.5c0-9.1,16.4-11.2,21.3-2.1
	l15.1-6.1c-6-13.1-16.8-16.9-25.8-16.9c-14.7,0-29.3,8.5-29.3,25.1v25.3c0,16.7,14.6,25.1,28.9,25.1c9.3,0,20.3-4.5,26.5-16.5
	L406.9,86C403,96.1,386.4,93.6,386.4,84.8z M336.4,62.9c-5.7-1.2-9.5-3.3-9.8-6.9c0.3-8.5,13.5-8.8,21.2-0.7L360,46
	c-7.6-9.3-16.2-11.7-25.1-11.7c-13.5,0-26.5,7.6-26.5,22c0,14,10.7,21.5,22.6,23.3c6,0.8,12.7,3.2,12.6,7.4
	c-0.5,7.9-16.7,7.4-24.1-1.5l-11.7,11c6.9,8.8,16.2,13.3,25,13.3c13.5,0,28.4-7.8,29-22C362.5,69.9,349.4,65.3,336.4,62.9z
	 M281,108.8h18.5V35.4H281V108.8z M593.2,35.4h-27.5v30.8L584,82.7V52.8h9.8c6.2,0,9.3,3,9.3,7.8v22.9c0,4.8-2.9,8-9.3,8h-28.1v17.4
	h27.5c14.7,0.1,28.5-7.3,28.5-24.1V60.2C621.7,42.9,607.9,35.4,593.2,35.4z M458.6,34.4c-15.2,0-30.3,8.3-30.3,25.2v25.1
	c0,16.8,15.2,25.2,30.5,25.2c15.2,0,30.3-8.4,30.3-25.2V59.6C489.1,42.8,473.8,34.4,458.6,34.4z M470.5,84.7c0,5.3-6,8-11.8,8
	c-6,0-11.9-2.6-11.9-8V59.6c0-5.4,5.8-8.3,11.6-8.3c6,0,12.2,2.6,12.2,8.3L470.5,84.7L470.5,84.7z M555.5,59.6
	c-0.4-17.2-12.2-24.1-27.3-24.1H499v73.4h18.8V85.6h3.3l17,23.3h23.2l-20-25.2C550,80.9,555.5,73.2,555.5,59.6z M528.5,69.6h-10.9
	V52.8h10.9C540.2,52.8,540.2,69.6,528.5,69.6z"/>
</svg>
