<?xml version="1.0" encoding="utf-8"?>
<!-- Generator: Adobe Illustrator 25.4.1, SVG Export Plug-In . SVG Version: 6.00 Build 0)  -->
<svg version="1.1" id="Calque_1" xmlns="http://www.w3.org/2000/svg" xmlns:xlink="http://www.w3.org/1999/xlink" x="0px" y="0px"
	 viewBox="0 0 554 391.3" style="enable-background:new 0 0 554 391.3;" xml:space="preserve">
<style type="text/css">
	.st0{fill:#1D1D1B;}
	.st1{fill:#3F3F3F;}
	.st2{fill:#BFBFBF;}
</style>
<g id="T8oxEr_00000021118510234228688110000002348886373935499427_">
	<g>
		<path class="st0" d="M128.2,46.1c7,0,14.1,0,21.1,0c1.6,0,2.8-0.4,4-1.4c10.4-8.5,21-16.9,31.4-25.4c1.8-1.5,3.6-1.8,5.8-1.3
			c11.9,3,23.8,5.9,35.6,8.9c1.8,0.5,3.4,0.4,5.2-0.4C247.9,19.7,264.5,12.9,281,6c2.7-1.1,5-1.1,7.6,0.5
			c11.6,7,23.3,13.7,34.9,20.7c1.6,1,3.1,1.3,5,1c12.9-2.1,25.9-4.1,38.8-6.2c2.7-0.4,4.7,0.2,6.6,2.1c9.5,9.2,19,18.3,28.5,27.5
			c1.3,1.2,2.6,1.6,4.3,1.8c9.6,0.9,19.1,1.8,28.7,2.7c5.8,0.5,11.6,1.1,17.4,1.6c2.4,0.2,4,1.3,5.3,3.4
			c10.2,16.5,20.4,33,30.6,49.5c13.3,21.4,26.5,42.8,39.8,64.1c1.6,2.6,1.5,4.9,0,7.5c-20.7,34.5-41.3,69-62,103.5
			c-18.5,31-37.1,61.9-55.6,93c-1.6,2.7-3.6,3.8-6.7,3.5c-15.1-1.3-30.2-2.4-45.4-3.6c-13.6-1-27.2-2-40.8-3.1
			c-13.5-1-27.1-2.1-40.6-3.2c-2.1-0.2-4.1-0.4-6.2,0.3c-0.4,0.1-0.8,0.1-1.3,0.1c-12-0.8-23.9,0.3-35.9,0.5c-6,0.1-12,0.3-18,0.4
			c-12.4,0.3-24.8,0.5-37.2,0.8c-16.8,0.4-33.5,0.8-50.3,1.4c-3.7,0.1-5.8-1.1-7.4-4.5c-15-30.1-30.1-60.1-45.2-90.1
			c-10.8-21.4-21.6-42.9-32.3-64.3c-8.7-17.3-17.3-34.6-26.1-51.8c-1.6-3.1-1.5-5.4,0.7-8.2c28.1-36.2,56.1-72.5,84.1-108.8
			c1.4-1.8,2.9-2.6,5.1-2.5c7,0.1,14,0,20.9,0C128.2,45.8,128.2,46,128.2,46.1z M251.4,346.9L251.4,346.9c0-0.3-0.2-0.6-0.3-0.8
			c-0.7-1.1-1.3-2.2-2-3.3c-19.5-29.2-39-58.4-58.6-87.5c-2.1-3.1-2.2-5.6-0.2-8.8c24.5-40.7,48.9-81.4,73.2-122.2
			c15.2-25.4,30.4-50.7,45.5-76.1c1.6-2.8,3.6-3.9,6.8-3.3c1.9,0.3,3.8,0.4,5.7,0.6c13.8,1.3,27.7,2.6,41.5,3.9
			c8.2,0.8,16.4,1.6,24.7,2.3c0.7,0.1,1.7,0.4,2-0.3c0.4-0.8-0.5-1.3-1-1.7c-6.2-6-12.4-11.9-18.5-17.8c-1.1-1.1-2.3-1.5-3.8-1.2
			c-5.6,0.9-11.1,1.8-16.7,2.6c-26.1,4.1-52.2,8.2-78.3,12.3c-11.7,1.8-23.4,3.7-35.2,5.5c-1.7,0.3-2.6,1-3,2.7
			c-0.7,2.7-1.6,5.4-2.4,8.1c-20.7,69.2-41.3,138.4-62,207.5c-0.7,2.2-0.2,3.5,1.4,4.9c6.6,5.8,13.1,11.6,19.6,17.5
			c18.7,16.8,37.5,33.7,56.2,50.5c1.6,1.4,2.9,3.1,4.9,4.1C251.1,346.4,251.3,346.7,251.4,346.9z M234.9,344c0.1,0,0.2,0,0.3,0
			c0,0-0.1-0.1-0.1-0.1c-0.3-0.7-0.9-1.2-1.4-1.7C222.4,332,211.2,322,200,311.9c-12.8-11.5-25.5-23-38.4-34.4
			c-2.3-2.1-2.7-4.2-1.8-7c6.8-22.4,13.4-44.9,20.1-67.3c11.3-37.7,22.5-75.4,33.8-113.1c4.2-14,8.4-27.9,12.5-41.9
			c0.8-2.9,2.4-4.5,5.4-4.8c3.6-0.4,7.1-1.1,10.7-1.6c22.7-3.6,45.3-7.1,68-10.7c0.6-0.1,1.6,0,1.8-0.7c0.1-0.7-0.8-0.9-1.4-1.2
			c-7.6-4.5-15.2-8.8-22.7-13.5c-2.5-1.6-4.6-1.7-7.3-0.5c-24.9,10.4-49.9,20.6-74.8,30.9c-15.1,6.2-30.2,12.4-45.3,18.6
			c-1.3,0.5-2.2,1.1-2.3,2.7c-0.3,7.2-0.7,14.4-1.1,21.6c-0.5,9.4-1.1,18.8-1.6,28.2c-0.6,10-1.1,19.9-1.7,29.9
			c-0.5,9.5-1.1,19.1-1.6,28.6c-0.6,10-1.1,20-1.7,30c-0.5,9.5-1.1,19.1-1.6,28.6c-0.6,10-1.1,20-1.7,30c-0.5,9.5-1,19.1-1.7,28.6
			c-0.1,1.9,0.3,3,2.1,3.9c23.6,12.8,47.2,25.6,70.8,38.4C223.9,338.1,229.4,341,234.9,344z M402.1,373.6c1.4,0.3,2.4-0.4,3.1-1.6
			c1.9-3.3,3.9-6.6,5.9-9.9c36.2-60.4,72.3-120.7,108.5-181.1c1.1-1.9,1.2-3.3,0-5.1c-9.2-14.6-18.2-29.3-27.3-44
			c-13.1-21.2-26.2-42.3-39.4-63.5c-0.9-1.4-1.8-2.6-3.7-2.8c-18.8-1.7-37.5-3.4-56.3-5.2c-24.8-2.3-49.6-4.6-74.3-7
			c-2.3-0.2-3.4,0.5-4.5,2.4c-13.8,23.2-27.7,46.3-41.5,69.5c-24.6,41-49.1,82.1-73.8,123.1c-1.1,1.8-1,3.1,0.1,4.8
			c5.3,7.7,10.4,15.4,15.6,23.2c19,28.4,38,56.8,56.9,85.2c1,1.5,2.1,2.4,4.1,2.5c9.8,0.7,19.6,1.5,29.5,2.3
			c11.7,0.9,23.4,1.8,35.1,2.7c10.6,0.8,21.2,1.6,31.8,2.4C381.9,372,392,372.8,402.1,373.6z M243.1,358.3c-0.1-0.7-0.8-0.8-1.3-1.1
			c-15.3-8.3-30.5-16.6-45.8-24.9c-18.5-10.1-37.1-20.2-55.7-30.2c-2.2-1.2-3.3-2.8-3.2-5.4c0.9-15.6,1.8-31.3,2.7-46.9
			c0.8-14.2,1.5-28.3,2.3-42.5c0.9-16.2,1.9-32.4,2.8-48.5c0.8-14.2,1.5-28.3,2.3-42.5c1-17.2,2-34.4,2.9-51.7
			c0.2-3.3,1.4-5.2,4.5-6.5c19.4-7.9,38.7-15.9,58.1-23.8c0.8-0.3,1.7-0.4,2.2-1.3c-0.5-0.7-1.3-0.7-2-0.8
			c-7.1-1.8-14.1-3.5-21.2-5.3c-1.7-0.4-3-0.2-4.4,1c-7.4,6.1-14.8,12-22.2,18c-26.7,21.6-53.4,43.1-80.1,64.7
			c-1.3,1-1.6,2.1-1.2,3.6c12.5,52.8,25,105.6,37.4,158.4c4.8,20.3,9.6,40.6,14.4,60.9c0.4,1.6,0.9,2.7,2.8,3.1
			c34.3,7.2,68.6,14.5,102.9,21.8C241.9,358.4,242.5,358.7,243.1,358.3z M230.9,364.8c-1.1-0.7-2-0.7-2.9-0.9
			c-31.3-6.6-62.6-13.3-93.9-19.9c-3.3-0.7-5-2.3-5.8-5.6c-9.8-41.8-19.7-83.6-29.6-125.4c-7.7-32.4-15.4-64.9-23-97.4
			c-1.6-6.9-2.4-6.4,3.8-11.4c20-16.1,40-32.3,60-48.4c0.4-0.3,1.2-0.6,1-1.2c-0.2-0.8-1-0.5-1.6-0.5c-9.4-0.1-18.8-0.2-28.3-0.4
			c-1.8,0-2.9,0.6-4,2c-26.6,34.6-53.3,69.1-80,103.6c-1.4,1.8-1.5,3.2-0.5,5.2C42,195.7,57.6,226.8,73.3,258
			c17.8,35.4,35.6,70.8,53.3,106.3c1.2,2.4,2.5,3.3,5.2,3.2c19.3-0.6,38.6-1.1,58-1.5c11.9-0.3,23.7-0.5,35.6-0.8
			C227.1,365.1,228.9,364.9,230.9,364.8z"/>
		<path class="st1" d="M402.1,373.6c-10.1-0.8-20.2-1.5-30.2-2.3c-10.6-0.8-21.2-1.6-31.8-2.4c-11.7-0.9-23.4-1.8-35.1-2.7
			c-9.8-0.8-19.6-1.6-29.5-2.3c-1.9-0.1-3.1-1-4.1-2.5c-18.9-28.4-37.9-56.8-56.9-85.2c-5.2-7.7-10.3-15.5-15.6-23.2
			c-1.2-1.7-1.2-3-0.1-4.8c24.6-41,49.2-82.1,73.8-123.1c13.9-23.1,27.7-46.3,41.5-69.5c1.1-1.9,2.2-2.6,4.5-2.4
			c24.8,2.4,49.6,4.7,74.3,7c18.8,1.8,37.5,3.5,56.3,5.2c2,0.2,2.8,1.4,3.7,2.8c13.1,21.2,26.2,42.3,39.4,63.5
			c9.1,14.7,18.1,29.3,27.3,44c1.2,1.9,1.1,3.2,0,5.1c-36.2,60.3-72.4,120.7-108.5,181.1c-2,3.3-4,6.6-5.9,9.9
			C404.5,373.2,403.5,373.8,402.1,373.6z M449.7,233.9c-0.3-57.2-45.4-102.1-101.6-102.5c-56.5-0.3-102.6,45.6-102.5,101.9
			c0.1,56.8,45.2,102.1,101.6,102.4C403.6,336,449.6,290,449.7,233.9z M441,85.8c-0.2-0.5,0.4-1.4-0.4-1.8c-0.6-0.3-1.1,0.3-1.6,0.6
			c-2.7,1.6-5.3,3.2-8,4.9c-1.4,0.9-2.6,1.1-4.1,0.3c-2.9-1.4-5.9-2.6-8.9-3.9c-0.5-0.2-1-0.6-1.5-0.2c-0.5,0.4-0.2,1-0.1,1.6
			c0.8,3.3,1.6,6.5,2.4,9.8c0.3,1.3,0.1,2.3-0.9,3.3c-2.2,2.4-4.3,4.8-6.5,7.2c-0.4,0.5-1.2,0.9-0.9,1.7c0.3,0.7,1.2,0.5,1.8,0.6
			c3.2,0.3,6.5,0.6,9.7,0.7c1.4,0.1,2.2,0.7,2.9,1.9c1.6,2.9,3.4,5.8,5.1,8.7c0.3,0.5,0.4,1.3,1.2,1.2c0.6-0.1,0.7-0.8,0.9-1.3
			c1.3-3.1,2.6-6.1,3.7-9.2c0.6-1.5,1.4-2.3,3-2.5c3.2-0.6,6.5-1.4,9.7-2.1c0.5-0.1,1.2-0.1,1.4-0.7c0.2-0.6-0.5-0.9-0.9-1.3
			c-2.6-2.2-5.2-4.5-7.8-6.7c-1.1-0.9-1.4-1.9-1.2-3.2C440.3,92.3,440.6,89.1,441,85.8z M461,113.8c0-0.4,0.2-1-0.3-1.3
			c-0.6-0.4-1,0.1-1.5,0.4c-1.6,0.9-3.1,1.9-4.7,2.9c-1,0.6-1.9,0.7-2.9,0.2c-1.8-0.8-3.6-1.6-5.4-2.4c-1.2-0.6-1.6-0.2-1.3,1.1
			c0.4,1.8,0.8,3.6,1.3,5.3c0.4,1.5,0.1,2.6-0.9,3.7c-1.1,1.1-2.1,2.4-3.2,3.6c-0.3,0.4-1,0.8-0.8,1.4c0.2,0.7,1,0.6,1.6,0.7
			c1.6,0.2,3.3,0.3,4.9,0.4c1.5,0.1,2.5,0.8,3.1,2.1c0.7,1.3,1.4,2.6,2.2,3.8c0.3,0.5,0.5,1.4,1.2,1.4c0.8,0,0.9-0.9,1.1-1.5
			c0.7-1.5,1.3-3,1.9-4.6c0.4-1.2,1.2-1.9,2.5-2.1c1.7-0.3,3.5-0.7,5.2-1.1c0.5-0.1,1.2-0.1,1.4-0.6c0.2-0.6-0.5-0.9-0.9-1.2
			c-1.4-1.2-2.8-2.4-4.2-3.6c-1-0.8-1.3-1.7-1.2-2.9C460.7,117.5,460.8,115.7,461,113.8z M407.4,80.5c0-0.5,0.2-1.1-0.3-1.5
			c-0.6-0.4-1,0.1-1.5,0.4c-1.4,0.8-2.8,1.6-4.1,2.5c-1.4,1-2.7,1-4.1,0.3c-1.4-0.7-2.9-1.3-4.4-1.9c-0.5-0.2-1-0.7-1.5-0.3
			c-0.6,0.5-0.2,1.1,0,1.7c0.3,1.5,0.6,3,1.1,4.4c0.5,1.6,0.3,2.9-1,4.2c-1.2,1.2-2.3,2.5-3.4,3.8c-0.9,1-0.6,1.5,0.7,1.6
			c1.8,0.1,3.7,0.3,5.5,0.4c1.3,0.1,2.2,0.6,2.8,1.7c0.9,1.7,1.9,3.3,2.9,4.9c0.2,0.4,0.4,0.8,0.9,0.9c0.6,0,0.7-0.6,0.9-1
			c0.7-1.6,1.4-3.1,1.9-4.7c0.5-1.5,1.4-2.3,3-2.6c1.6-0.2,3.2-0.7,4.8-1.1c0.5-0.1,1.2-0.2,1.3-0.8c0.1-0.5-0.4-0.8-0.8-1.2
			c-1.3-1.2-2.7-2.3-4.1-3.4c-1-0.8-1.4-1.8-1.2-3.1C407.2,84,407.3,82.3,407.4,80.5z"/>
		<path class="st1" d="M250.9,346.2c-2-0.9-3.4-2.6-4.9-4.1c-18.8-16.8-37.5-33.7-56.2-50.5c-6.5-5.8-13-11.7-19.6-17.5
			c-1.6-1.4-2.1-2.7-1.4-4.9c20.7-69.2,41.4-138.3,62-207.5c0.8-2.7,1.7-5.4,2.4-8.1c0.4-1.7,1.3-2.4,3-2.7
			c11.7-1.8,23.5-3.7,35.2-5.5c26.1-4.1,52.2-8.2,78.3-12.3c5.6-0.9,11.1-1.7,16.7-2.6c1.5-0.3,2.7,0.1,3.8,1.2
			c6.1,6,12.3,11.9,18.5,17.8c0.5,0.5,1.5,0.9,1,1.7c-0.4,0.7-1.3,0.4-2,0.3c-8.2-0.8-16.4-1.6-24.7-2.3
			c-13.8-1.3-27.6-2.6-41.5-3.9c-1.9-0.2-3.8-0.2-5.7-0.6c-3.2-0.6-5.1,0.6-6.8,3.3c-15.1,25.4-30.3,50.7-45.5,76.1
			c-24.4,40.7-48.8,81.5-73.2,122.2c-2,3.3-1.9,5.7,0.2,8.8c19.6,29.1,39.1,58.3,58.6,87.5c0.7,1.1,1.4,2.2,2,3.3
			C251.1,346.1,251,346.2,250.9,346.2z"/>
		<path class="st1" d="M243.1,358.3c-0.6,0.5-1.2,0.1-1.8,0c-34.3-7.3-68.6-14.5-102.9-21.8c-1.9-0.4-2.4-1.5-2.8-3.1
			c-4.8-20.3-9.6-40.6-14.4-60.9c-12.5-52.8-24.9-105.6-37.4-158.4c-0.4-1.6-0.1-2.6,1.2-3.6c26.7-21.5,53.4-43.1,80.1-64.7
			c7.4-6,14.9-12,22.2-18c1.4-1.1,2.7-1.4,4.4-1c7,1.8,14.1,3.5,21.2,5.3c0.7,0.2,1.5,0.1,2,0.8c-0.5,0.8-1.4,1-2.2,1.3
			c-19.3,8-38.7,16-58.1,23.8c-3.1,1.3-4.4,3.2-4.5,6.5c-0.9,17.2-1.9,34.4-2.9,51.7c-0.8,14.2-1.5,28.3-2.3,42.5
			c-0.9,16.2-1.9,32.4-2.8,48.5c-0.8,14.2-1.5,28.3-2.3,42.5c-0.9,15.6-1.7,31.3-2.7,46.9c-0.2,2.6,1,4.2,3.2,5.4
			c18.6,10.1,37.1,20.1,55.7,30.2c15.3,8.3,30.5,16.6,45.8,24.9C242.2,357.4,242.9,357.5,243.1,358.3z"/>
		<path class="st1" d="M234.9,344c-5.5-2.9-11-5.9-16.5-8.8c-23.6-12.8-47.2-25.7-70.8-38.4c-1.7-0.9-2.2-2-2.1-3.9
			c0.6-9.5,1.1-19,1.7-28.6c0.6-10,1.2-20,1.7-30c0.5-9.5,1.1-19.1,1.6-28.6c0.6-10,1.1-20,1.7-30c0.5-9.5,1.1-19.1,1.6-28.6
			c0.6-10,1.1-19.9,1.7-29.9c0.5-9.4,1.1-18.8,1.6-28.2c0.4-7.2,0.8-14.4,1.1-21.6c0.1-1.6,1-2.2,2.3-2.7
			c15.1-6.2,30.2-12.4,45.3-18.6c25-10.3,49.9-20.5,74.8-30.9c2.7-1.1,4.8-1,7.3,0.5c7.5,4.6,15.1,9,22.7,13.5
			c0.5,0.3,1.5,0.5,1.4,1.2c-0.1,0.7-1.1,0.6-1.8,0.7c-22.7,3.6-45.3,7.1-68,10.7c-3.6,0.6-7.1,1.3-10.7,1.6
			c-3.1,0.3-4.6,1.9-5.4,4.8c-4.1,14-8.3,27.9-12.5,41.9c-11.3,37.7-22.5,75.4-33.8,113.1c-6.7,22.5-13.4,44.9-20.1,67.3
			c-0.9,2.8-0.5,5,1.8,7c12.8,11.4,25.6,23,38.4,34.4c11.2,10.1,22.4,20.1,33.6,30.2c0.5,0.5,1.1,1,1.4,1.7
			C235,343.8,234.9,343.9,234.9,344z"/>
		<path class="st1" d="M230.9,364.8c-2,0.1-3.8,0.3-5.5,0.4c-11.9,0.3-23.7,0.5-35.6,0.8c-19.3,0.5-38.6,0.9-58,1.5
			c-2.7,0.1-4-0.8-5.2-3.2c-17.7-35.5-35.5-70.9-53.3-106.3c-15.7-31.2-31.3-62.3-47.1-93.4c-1-2-0.9-3.4,0.5-5.2
			c26.7-34.5,53.4-69,80-103.6c1.1-1.4,2.3-2,4-2c9.4,0.2,18.8,0.2,28.3,0.4c0.6,0,1.4-0.3,1.6,0.5c0.1,0.6-0.6,0.8-1,1.2
			c-20,16.2-40,32.3-60,48.4c-6.2,5-5.4,4.5-3.8,11.4c7.6,32.5,15.3,64.9,23,97.4c9.9,41.8,19.8,83.6,29.6,125.4
			c0.8,3.3,2.4,4.9,5.8,5.6c31.3,6.5,62.6,13.2,93.9,19.9C228.9,364,229.8,364.1,230.9,364.8z"/>
		<path class="st1" d="M235,343.8c0,0,0.1,0.1,0.1,0.1c-0.1,0-0.2,0-0.3,0C234.9,343.9,235,343.8,235,343.8z"/>
		<path class="st1" d="M251.4,346.9c-0.2-0.2-0.3-0.4-0.5-0.6c0.1-0.1,0.1-0.1,0.2-0.2C251.3,346.3,251.4,346.5,251.4,346.9
			L251.4,346.9z"/>
		<path class="st1" d="M251.5,346.8C251.5,346.8,251.4,346.9,251.5,346.8C251.4,346.9,251.5,346.8,251.5,346.8z"/>
		<path class="st0" d="M449.7,233.9c0,56.1-46,102.1-102.4,101.8c-56.4-0.3-101.6-45.6-101.6-102.4c-0.1-56.3,46-102.2,102.5-101.9
			C404.3,131.8,449.4,176.8,449.7,233.9z M250.3,233.3c-0.1,53.8,42.8,97.3,96.4,97.7c54.4,0.3,98.2-43.1,98.3-96.7
			c0.1-54.3-42.8-97.8-96.7-98.1C294,135.8,250.3,179.4,250.3,233.3z"/>
		<path class="st0" d="M441,85.8c-0.3,3.3-0.6,6.5-1,9.7c-0.2,1.4,0.2,2.3,1.2,3.2c2.6,2.2,5.2,4.4,7.8,6.7c0.4,0.3,1.1,0.6,0.9,1.3
			c-0.2,0.6-0.9,0.6-1.4,0.7c-3.2,0.7-6.4,1.5-9.7,2.1c-1.6,0.3-2.4,1.1-3,2.5c-1.2,3.1-2.5,6.1-3.7,9.2c-0.2,0.5-0.3,1.2-0.9,1.3
			c-0.7,0.1-0.9-0.7-1.2-1.2c-1.7-2.9-3.4-5.8-5.1-8.7c-0.7-1.2-1.5-1.8-2.9-1.9c-3.2-0.2-6.5-0.5-9.7-0.7c-0.7-0.1-1.5,0.1-1.8-0.6
			c-0.4-0.8,0.4-1.2,0.9-1.7c2.1-2.4,4.3-4.9,6.5-7.2c1-1,1.2-2,0.9-3.3c-0.8-3.3-1.6-6.5-2.4-9.8c-0.1-0.5-0.4-1.1,0.1-1.6
			c0.5-0.4,1.1,0,1.5,0.2c3,1.3,6,2.5,8.9,3.9c1.5,0.7,2.8,0.5,4.1-0.3c2.6-1.7,5.3-3.3,8-4.9c0.5-0.3,1-0.9,1.6-0.6
			C441.4,84.4,440.8,85.2,441,85.8z"/>
		<path class="st0" d="M461,113.8c-0.2,1.9-0.4,3.7-0.6,5.5c-0.1,1.2,0.2,2.1,1.2,2.9c1.4,1.1,2.8,2.4,4.2,3.6
			c0.4,0.3,1.1,0.6,0.9,1.2c-0.2,0.6-0.9,0.5-1.4,0.6c-1.7,0.4-3.5,0.8-5.2,1.1c-1.3,0.2-2.1,0.9-2.5,2.1c-0.6,1.5-1.2,3.1-1.9,4.6
			c-0.3,0.6-0.3,1.5-1.1,1.5c-0.8,0-0.9-0.9-1.2-1.4c-0.8-1.2-1.5-2.5-2.2-3.8c-0.7-1.3-1.6-2.1-3.1-2.1c-1.6-0.1-3.3-0.2-4.9-0.4
			c-0.6-0.1-1.3,0.1-1.6-0.7c-0.2-0.6,0.4-1,0.8-1.4c1-1.2,2.1-2.4,3.2-3.6c1.1-1.1,1.4-2.2,0.9-3.7c-0.5-1.8-0.9-3.6-1.3-5.3
			c-0.3-1.2,0.1-1.6,1.3-1.1c1.8,0.8,3.6,1.5,5.4,2.4c1.1,0.5,2,0.4,2.9-0.2c1.5-1,3.1-1.9,4.7-2.9c0.4-0.3,0.9-0.8,1.5-0.4
			C461.2,112.8,461,113.4,461,113.8z"/>
		<path class="st0" d="M407.4,80.5c-0.2,1.8-0.3,3.5-0.5,5.2c-0.2,1.3,0.2,2.2,1.2,3.1c1.4,1.1,2.7,2.3,4.1,3.4
			c0.4,0.3,0.9,0.6,0.8,1.2c-0.1,0.7-0.8,0.7-1.3,0.8c-1.6,0.4-3.2,0.8-4.8,1.1c-1.6,0.2-2.5,1.1-3,2.6c-0.6,1.6-1.3,3.2-1.9,4.7
			c-0.2,0.4-0.3,1-0.9,1c-0.5,0-0.7-0.5-0.9-0.9c-1-1.6-2-3.2-2.9-4.9c-0.6-1.1-1.5-1.6-2.8-1.7c-1.8-0.1-3.7-0.3-5.5-0.4
			c-1.3-0.1-1.5-0.6-0.7-1.6c1.1-1.3,2.2-2.6,3.4-3.8c1.2-1.2,1.5-2.5,1-4.2c-0.5-1.4-0.8-3-1.1-4.4c-0.1-0.6-0.5-1.2,0-1.7
			c0.5-0.4,1,0.1,1.5,0.3c1.5,0.6,2.9,1.2,4.4,1.9c1.5,0.7,2.8,0.7,4.1-0.3c1.3-0.9,2.7-1.7,4.1-2.5c0.5-0.3,0.9-0.8,1.5-0.4
			C407.6,79.4,407.4,80.1,407.4,80.5z"/>
		<path class="st2" d="M250.3,233.3c0-53.9,43.7-97.5,98-97.2c53.8,0.3,96.8,43.9,96.7,98.1c-0.1,53.6-43.9,97-98.3,96.7
			C293.1,330.6,250.2,287.1,250.3,233.3z M348.4,326.3c4.1-0.1,9-0.4,13.8-1.2c1.7-0.3,2.9-0.9,3-2.8c0.3-6.2,0.1-12.4-2.5-18.2
			c-1.3-2.8-2.5-5.7-3.7-8.6c-0.4-0.8-0.6-1.6,0.3-2.2c6.2-4.2,8.7-10.4,9.7-17.4c0.1-0.5,0.1-1,0.2-1.5c0.2-1.4,0.8-1.8,2.1-1.1
			c1,0.6,2.1,1.2,3.1,1.9c6.3,4.4,12.7,3.7,19,0c6.3-3.8,10.2-9.5,12-16.5c1.5-5.7,1.2-11.3-2.2-16.4c-0.6-0.9-0.6-1.8-0.4-2.8
			c1.1-5.6,1.3-11.1,0.7-16.8c-2.9-29.2-31-51.1-60-46.8c-9.3,1.4-17.7,4.7-25.2,10.4c-0.9,0.7-1.8,1.2-3,1
			c-4.4-0.7-8.5,0.4-12.3,2.8c-7.7,4.8-12.1,11.9-12.9,20.9c-0.6,6.1,1,11.6,6.4,15.3c2,1.3,3.3,2.9,4.2,5.1c0.5,1.3,0.4,2-0.7,2.7
			c-4.7,3.1-7.7,7.4-9.8,12.5c-1.4,3.5-1.4,3.5-5.3,2.9c-8.5-1.5-16.7-0.7-24.5,3.2c-2.7,1.4-3,2.1-2.2,5
			c4.5,16.4,12.8,30.5,24.9,42.3c1.6,1.5,1.7,1.5,2.9-0.5c3.8-6,7.5-12,11.3-18.1c0.4-0.6,0.8-1.2,1.3-1.8c0.6-0.6,1.4-0.7,2.2-0.2
			c0.8,0.5,1.1,1.2,0.8,2.1c-0.3,0.8-0.7,1.5-1.2,2.3c-3.8,6.1-7.6,12.3-11.5,18.4c-0.9,1.3-0.7,2.2,0.5,3.2
			c5.1,4.2,10.7,7.8,16.6,10.7c1.7,0.8,2.6,0.6,3.6-1c3.7-6.1,7.5-12.1,11.3-18.1c0.5-0.7,0.9-1.5,1.5-2.1c0.7-0.8,1.5-1,2.5-0.4
			c0.9,0.6,1.1,1.4,0.6,2.4c-0.3,0.5-0.6,1.1-0.9,1.6c-3.7,5.9-7.4,11.8-11.1,17.8c-1.5,2.4-1.4,2.6,1.2,3.6
			C325.3,324.1,336.3,326.1,348.4,326.3z"/>
		<path class="st0" d="M348.4,326.3c-12.1-0.1-23.1-2.1-33.6-6.2c-2.6-1-2.7-1.3-1.2-3.6c3.7-5.9,7.4-11.8,11.1-17.8
			c0.3-0.5,0.6-1,0.9-1.6c0.5-1,0.3-1.8-0.6-2.4c-0.9-0.6-1.8-0.4-2.5,0.4c-0.5,0.7-1,1.4-1.5,2.1c-3.8,6-7.6,12-11.3,18.1
			c-1,1.6-1.9,1.9-3.6,1c-5.9-3-11.5-6.5-16.6-10.7c-1.3-1-1.4-1.9-0.5-3.2c3.9-6.1,7.7-12.2,11.5-18.4c0.5-0.7,0.9-1.5,1.2-2.3
			c0.3-0.8,0-1.6-0.8-2.1c-0.8-0.5-1.6-0.4-2.2,0.2c-0.5,0.5-0.9,1.1-1.3,1.8c-3.8,6-7.5,12-11.3,18.1c-1.2,1.9-1.4,2-2.9,0.5
			c-12.1-11.9-20.5-26-24.9-42.3c-0.8-2.9-0.5-3.6,2.2-5c7.8-3.9,16-4.7,24.5-3.2c3.9,0.7,3.9,0.7,5.3-2.9c2-5.1,5.1-9.5,9.8-12.5
			c1.2-0.8,1.2-1.5,0.7-2.7c-0.9-2.2-2.2-3.7-4.2-5.1c-5.4-3.7-7-9.2-6.4-15.3c0.8-9,5.2-16.1,12.9-20.9c3.7-2.3,7.8-3.5,12.3-2.8
			c1.2,0.2,2.1-0.4,3-1c7.5-5.7,15.9-9,25.2-10.4c29-4.4,57.2,17.6,60,46.8c0.6,5.6,0.4,11.2-0.7,16.8c-0.2,1-0.2,1.9,0.4,2.8
			c3.4,5.1,3.7,10.7,2.2,16.4c-1.8,7-5.7,12.7-12,16.5c-6.3,3.8-12.6,4.4-19,0c-1-0.7-2.1-1.3-3.1-1.9c-1.3-0.8-1.9-0.4-2.1,1.1
			c-0.1,0.5-0.1,1-0.2,1.5c-1,7-3.5,13.2-9.7,17.4c-1,0.7-0.7,1.4-0.3,2.2c1.3,2.9,2.5,5.7,3.7,8.6c2.6,5.8,2.8,12,2.5,18.2
			c-0.1,1.9-1.3,2.6-3,2.8C357.4,325.8,352.5,326.1,348.4,326.3z M344,275.7c1.6-0.1,3.2-0.1,4.8-0.3c11.8-1.6,21.4-7.1,28.9-16.2
			c8.1-9.8,12.2-21,10.7-33.8c-2.6-23.5-26.9-39.6-49.6-32.7c-16.6,5-29.5,21.1-31.3,39c-0.1,1.5,0.2,2.6,1.1,3.7
			c4.4,5.2,9.7,9.3,15.4,13c0.9,0.6,1.7,0.7,2.7,0.3c1.9-0.9,3.8-0.6,5.6,0.5c2.5,1.6,5,3.1,7.5,4.7c3.3,2.1,4.1,5.3,2.1,8.5
			c-2,3.2-5.2,3.9-8.6,1.9c-2.5-1.5-5-3.1-7.5-4.7c-1.7-1.1-2.8-2.6-2.9-4.6c0-1.2-0.6-2-1.6-2.7c-4.3-2.8-8.5-5.8-12.1-9.5
			c-0.4-0.4-0.7-1-1.4-0.6c-0.5,0.3-0.3,1-0.2,1.5C311,263.7,326.6,275.8,344,275.7z M397,228.9c-0.1-2.3-0.1-4.5-0.5-6.8
			c-4.8-33.2-42.3-50.5-70.6-32.6c-0.7,0.4-1.8,0.7-1.7,1.7c0.1,0.9,1.1,1.2,1.9,1.6c0.9,0.4,1.5-0.3,2.2-0.6
			c18.6-10.4,39.4-6,52.9,7.8c8.5,8.6,12.4,19.2,12.1,31.3c0,0.9-0.1,1.8,0,2.7c0.1,1.4,1.3,2.1,2.4,2.2c1.2,0.1,0.9-1.2,1-2
			C396.8,232.4,396.9,230.6,397,228.9z M321.8,287c7,0,13-1,18.4-4.5c0.7-0.5,2.1-0.8,1.9-1.7c-0.2-0.9-1.6-0.6-2.4-0.7
			c-8.6-0.9-16.1-4.2-22.7-9.9c-3-2.6-5.4-5.6-7.6-8.9c-0.2-0.3-0.4-0.9-0.9-0.7c-0.2,0.1-0.4,0.6-0.5,0.9c-0.1,0.3-0.1,0.6-0.1,0.9
			c-1.2,8.4,1.6,15.8,5.5,22.9c0.4,0.8,1.2,1.2,2.1,1.2C317.9,286.7,320.2,286.9,321.8,287z"/>
		<path class="st2" d="M344,275.7c-17.3,0.1-33-12-36.3-32.1c-0.1-0.5-0.3-1.2,0.2-1.5c0.6-0.4,1,0.3,1.4,0.6
			c3.7,3.6,7.8,6.7,12.1,9.5c1,0.6,1.5,1.4,1.6,2.7c0.1,2,1.1,3.6,2.9,4.6c2.5,1.5,5,3.1,7.5,4.7c3.4,2.1,6.6,1.3,8.6-1.9
			c2-3.2,1.2-6.4-2.1-8.5c-2.5-1.6-5-3.1-7.5-4.7c-1.8-1.1-3.7-1.4-5.6-0.5c-1,0.5-1.9,0.3-2.7-0.3c-5.7-3.7-11-7.7-15.4-13
			c-0.9-1.1-1.3-2.2-1.1-3.7c1.8-17.9,14.7-34,31.3-39c22.7-6.8,47,9.2,49.6,32.7c1.4,12.9-2.6,24.1-10.7,33.8
			c-7.5,9-17.2,14.6-28.9,16.2C347.2,275.6,345.6,275.6,344,275.7z"/>
		<path class="st2" d="M397,228.9c-0.1,1.8-0.1,3.5-0.3,5.3c-0.1,0.7,0.2,2.1-1,2c-1.1-0.1-2.3-0.8-2.4-2.2c-0.1-0.9,0-1.8,0-2.7
			c0.3-12.1-3.6-22.7-12.1-31.3c-13.5-13.8-34.3-18.2-52.9-7.8c-0.7,0.4-1.3,1.1-2.2,0.6c-0.7-0.4-1.8-0.7-1.9-1.6
			c-0.1-1,1-1.3,1.7-1.7c28.3-17.9,65.8-0.6,70.6,32.6C396.8,224.4,396.9,226.6,397,228.9z"/>
		<path class="st2" d="M321.8,287c-1.6-0.1-3.9-0.2-6.2-0.4c-0.9-0.1-1.7-0.4-2.1-1.2c-3.8-7.2-6.6-14.6-5.5-22.9
			c0-0.3,0-0.6,0.1-0.9c0.1-0.3,0.2-0.8,0.5-0.9c0.5-0.2,0.7,0.4,0.9,0.7c2.1,3.3,4.6,6.3,7.6,8.9c6.5,5.7,14.1,8.9,22.7,9.9
			c0.9,0.1,2.2-0.2,2.4,0.7c0.2,0.9-1.2,1.2-1.9,1.7C334.8,286,328.8,287,321.8,287z"/>
	</g>
</g>
</svg>
