<?xml version="1.0" encoding="utf-8"?>
<!-- Generator: Adobe Illustrator 25.4.1, SVG Export Plug-In . SVG Version: 6.00 Build 0)  -->
<svg version="1.1" id="Calque_1" xmlns="http://www.w3.org/2000/svg" xmlns:xlink="http://www.w3.org/1999/xlink" x="0px" y="0px"
	 viewBox="0 0 544.7 500" style="enable-background:new 0 0 544.7 500;" xml:space="preserve">
<style type="text/css">
	.st0{fill:#262626;}
</style>
<path class="st0" d="M537.96,384.42h-0.23c0.14-0.75,0.21-1.52,0.21-2.27c0.02-46.84,0.02-93.69,0.02-140.53
	c-1.14-5.67-1.86-11.46-3.51-16.98c-4.68-15.69-14.11-27.94-27.86-36.87c-5.83-3.79-11.58-7.71-18.2-10.05
	c-2.51-0.89-5.09-1.55-7.68-2.33c0.12-0.11,0.28-0.31,0.48-0.45c14.88-11.13,23.9-26.02,28.02-43.98
	c2.67-11.62,2.53-23.25,0.09-34.94c-0.5-2.38,0.04-5.02,0.36-7.5c0.7-5.52,2.88-10.63,4.66-15.85c2.28-6.69,3.87-13.54,4.16-20.63
	c0.34-8.25-0.91-16.24-4.08-23.89c-1.59-3.84-3.99-7.14-7.13-10.1c-0.56,0.46-1.17,0.92-1.74,1.42c-10,8.68-21.41,14.37-34.57,16.4
	c-6.74,1.04-13.49,0.89-20.25,0.29c-9.4-0.84-18.79-1.82-28.2-2.39c-6.55-0.4-13.08,0.26-19.37,2.33
	c-10.43,3.45-16.52,10.91-19.4,21.27c-1.98,7.13-2.32,14.43-2.32,21.76c0,0.51-0.03,1.02,0.01,1.52c0.49,6.22-0.79,12.21-2.05,18.27
	c-2.58,12.35-1.72,24.63,1.68,36.75c0.12,0.44,0.23,0.88,0.37,1.41c-12.16,0-24.21,0-36.42,0c0.54-2.08,1.11-4.1,1.57-6.14
	c6.6-29.11,2.07-56.56-12.93-82.19C326.39,36.33,316,27,302.63,21.28c-6.41-2.74-13.14-4.14-20.08-4.65
	c-0.54-0.04-1.08-0.16-1.62-0.25c-3.5,0-7,0-10.5,0c-2.46,0.26-4.92,0.58-7.39,0.77c-18.03,1.32-32.09,9.83-43.12,23.82
	c-10.13,12.86-16.22,27.49-19.13,43.52c-1.67,9.18-2.32,18.45-1.96,27.78c0.32,8.09,1.61,16.01,3.94,23.76
	c0.09,0.3,0.15,0.61,0.26,1.03c-10.94,0-21.78,0-32.82,0c0.17-0.52,0.3-1.02,0.48-1.5c4.08-11.05,5.55-22.44,4.79-34.19
	c-0.16-2.52,0.51-5.11,0.85-7.65c1-7.49,1.83-14.99,1.77-22.56c-0.05-5.33-0.81-10.56-2.85-15.52c-3.76-9.14-10.78-14.4-20.15-16.88
	c-1.44-0.38-2.88-0.98-4.15-1.76c-11.29-7.02-23.54-11.19-36.75-12.63c-10.78-1.18-21.45-0.78-31.81,2.68
	c-19.79,6.61-31.97,20.23-36.97,40.42c-2.46,9.92-3.01,19.99-2.69,30.16c0.12,3.76-0.37,7.55-0.26,11.31
	c0.59,21.1,7.85,39.42,22.97,54.41c1.24,1.23,2.58,2.36,4.06,3.7c-0.61,0.21-1.09,0.39-1.58,0.55
	c-11.87,3.86-23.26,8.82-33.53,15.93c-4.78,3.31-9.32,7.15-13.25,11.42c-3.09,3.35-5.3,7.6-7.51,11.66
	c-5.5,10.11-8.48,21.01-8.51,32.52c-0.08,25.59-0.08,51.17-0.06,76.76c0,10.75,0.01,21.51,0.01,32.26c0,11.01,0.23,22.02-0.08,33.02
	c-0.03,1.1,0.08,2.19,0.29,3.27H4.97l-0.01,73.73H218c-0.59,5.41-1.18,10.82-1.74,16.23c-0.28,2.66-0.36,5.49,0.22,8.07
	c1.75,7.84,9.15,12.75,16.04,12.73c29.07-0.08,58.13-0.1,87.2,0.01c8.37,0.03,17.24-7.38,16.51-17.82
	c-0.42-6.06-1.19-12.09-1.82-18.13c-0.04-0.36-0.08-0.71-0.11-1.07h203.66V384.42z"/>
</svg>
