<?xml version="1.0" encoding="utf-8"?>
<!-- Generator: Adobe Illustrator 25.4.1, SVG Export Plug-In . SVG Version: 6.00 Build 0)  -->
<svg version="1.1" id="Calque_1" xmlns="http://www.w3.org/2000/svg" xmlns:xlink="http://www.w3.org/1999/xlink" x="0px" y="0px"
	 viewBox="0 0 544.7 500" style="enable-background:new 0 0 544.7 500;" xml:space="preserve">
<style type="text/css">
	.st0{fill:#262626;}
</style>
<g>
	<path class="st0" d="M478.54,153.61c0-0.56,0-1.12-0.02-1.68c-0.01-0.32-0.02-0.64-0.08-0.95c-1.59-8.67-8.47-14.42-17.27-14.42
		c-13.11,0-26.23,0-39.34,0c-110.22,0-220.44,0-330.66,0c-7.58,0-14,4.37-16.41,11.32c-0.61,1.75-0.77,3.64-1.14,5.47
		c0,83.8,0,167.59,0,251.39c0.37,1.87,0.52,3.81,1.15,5.58c2.5,7.04,8.85,11.35,16.53,11.36c11.95,0.01,23.91,0,35.86,0
		c31.38,0,62.76,0,94.14,0c0.55,0,1.09,0,1.72,0c-0.42,3.97-0.82,7.77-1.24,11.57c-0.52,4.8-1.06,9.6-1.59,14.4
		c-0.61,5.51-1.23,11.02-1.82,16.54c-0.48,4.52-1.07,9.04-1.37,13.58c-0.53,8.13,5.94,15.91,14.04,17.15
		c0.3,0.05,0.6,0.17,0.89,0.25c30.22,0,60.45,0,90.67,0c0.18-0.07,0.35-0.18,0.53-0.22c7.27-1.35,11.91-5.6,13.93-12.69
		c0.77-2.71,0.47-5.46,0.17-8.21c-0.54-4.92-1.03-9.84-1.54-14.77c-0.52-4.96-1.06-9.92-1.58-14.88c-0.53-4.96-1.06-9.92-1.58-14.88
		c-0.27-2.56-0.53-5.13-0.81-7.84c0.67,0,1.22,0,1.77,0c42.34,0,84.67,0.01,127.01-0.02c1.74,0,3.52-0.18,5.22-0.58
		c7.82-1.85,12.86-9.34,12.85-16.57C478.52,320.88,478.54,237.24,478.54,153.61z"/>
	<path class="st0" d="M195.3,78.42c1.65,0.93,3.5,0.73,4.95-0.69c4.21-4.1,8.64-7.95,13.44-11.37c16.83-12.01,35.6-18.61,56.2-19.96
		c9.65-0.63,19.23,0.09,28.7,2.08c16.2,3.4,30.88,10.11,43.93,20.29c3.52,2.75,6.76,5.86,10.09,8.84c1.41,1.26,2.95,1.78,4.72,0.99
		c1.59-0.71,2.43-2.01,2.51-4.42c-0.29-0.5-0.66-1.68-1.45-2.4c-3.81-3.47-7.55-7.04-11.64-10.15
		c-18.29-13.94-39.01-21.62-61.92-23.38c-6.9-0.53-13.8-0.35-20.7,0.38c-9.41,1.01-18.55,3.1-27.43,6.34
		c-15.91,5.81-29.89,14.69-41.91,26.64c-0.62,0.62-1.17,1.46-1.4,2.29C192.88,75.76,193.73,77.54,195.3,78.42z"/>
	<path class="st0" d="M334.5,100.92c1.6-0.39,2.68-1.41,3.1-3.02c0.44-1.67-0.17-3.04-1.38-4.21c-16.63-16.16-36.6-24.16-60.9-24.62
		c-2.65,0.22-6.49,0.36-10.28,0.88c-12.43,1.69-23.96,5.93-34.52,12.74c-5.02,3.24-9.64,6.98-13.88,11.19
		c-1.23,1.22-1.59,2.67-1.13,4.28c0.45,1.55,1.59,2.48,3.15,2.8c1.7,0.35,2.94-0.52,4.18-1.58c3.3-2.83,6.49-5.85,10.06-8.31
		c15.9-10.96,33.53-15.24,52.71-13.09c9.67,1.08,18.76,4.01,27.33,8.62c6.41,3.45,12.2,7.74,17.37,12.86
		C331.48,100.63,332.81,101.34,334.5,100.92z"/>
	<path class="st0" d="M265.35,101.82c-10.19,2.07-18.96,6.94-26.39,14.23c-1,0.98-1.53,2.14-1.36,3.55c0.21,1.7,1.14,2.9,2.76,3.44
		c1.72,0.58,3.19,0.05,4.47-1.2c7.47-7.26,16.35-11.56,26.72-12.67c10.09-1.09,19.58,0.85,28.21,6.2c3.13,1.94,5.89,4.49,8.78,6.8
		c1.37,1.1,2.83,1.45,4.45,0.72c1.55-0.7,2.39-1.94,2.44-3.66c0.08-1.25-0.42-2.28-1.31-3.1c-1.43-1.33-2.84-2.7-4.39-3.89
		C296.54,102.03,281.7,98.51,265.35,101.82z"/>
</g>
</svg>
