<?xml version="1.0" encoding="utf-8"?>
<!-- Generator: Adobe Illustrator 25.4.1, SVG Export Plug-In . SVG Version: 6.00 Build 0)  -->
<svg version="1.1" id="Calque_1" xmlns="http://www.w3.org/2000/svg" xmlns:xlink="http://www.w3.org/1999/xlink" x="0px" y="0px"
	 viewBox="0 0 500 500" style="enable-background:new 0 0 500 500;" xml:space="preserve">
<style type="text/css">
	.st0{fill:#3F3F3F;}
	.st1{fill:#1D1E1B;}
	.st2{fill:#BFBFBF;}
</style>
<g>
	<g>
		<polygon class="st0" points="244,56.35 117.95,116.71 117.95,350.17 244,409.64 364.72,349.28 365.75,343.4 365.64,290.83 
			381.71,233 355.27,309.68 253.54,275.18 277.18,199.44 307.32,203.68 269.67,133.11 305.63,88.07 		"/>
	</g>
	<g>
		<g>
			<g>
				<path class="st1" d="M244.45,418.14c-0.59,0-1.18-0.13-1.73-0.39l-126.05-59.47c-1.41-0.67-2.32-2.09-2.32-3.66V237.04
					c0-2.23,1.81-4.04,4.04-4.04c2.23,0,4.04,1.81,4.04,4.04v115.02l121.96,57.54l116.73-58.37v-26.48c0-2.23,1.81-4.04,4.04-4.04
					c2.23,0,4.04,1.81,4.04,4.04v28.98c0,1.53-0.86,2.93-2.23,3.62l-120.72,60.36C245.69,418,245.07,418.14,244.45,418.14z"/>
			</g>
			<g>
				<path class="st1" d="M118.4,152.48c-2.23,0-4.04-1.81-4.04-4.04v-27.27c0-1.56,0.89-2.97,2.3-3.65L242.7,57.16
					c1.14-0.55,2.47-0.53,3.6,0.06l33.84,17.42c1.98,1.02,2.76,3.46,1.74,5.44c-1.02,1.99-3.46,2.78-5.44,1.74l-32.05-16.5
					l-121.95,58.4v24.72C122.44,150.67,120.63,152.48,118.4,152.48z"/>
			</g>
		</g>
		<g>
			<g>
				<polygon class="st1" points="241.33,89.06 247.63,101.82 261.72,103.87 251.53,113.8 253.93,127.83 241.33,121.21 
					228.73,127.83 231.14,113.8 220.95,103.87 235.03,101.82 				"/>
			</g>
			<g>
				<polygon class="st1" points="210.44,102.45 214.57,110.81 223.79,112.15 217.12,118.65 218.69,127.83 210.44,123.5 
					202.2,127.83 203.77,118.65 197.1,112.15 206.32,110.81 				"/>
			</g>
		</g>
	</g>
	<g id="wLbNxK_00000069394127984109452200000017396664096556148132_">
		<g>
			<g>
				<path class="st2" d="M361.95,220.95c4.96,1.68,9.91,3.35,14.87,5.05c7.86,2.68,10.36,7.69,7.71,15.5
					c-7.25,21.42-14.52,42.84-21.79,64.25c-2.2,6.47-7.55,9.13-14.02,6.94c-30.84-10.44-61.68-20.9-92.51-31.38
					c-6.33-2.15-9.01-7.54-6.89-13.82c7.3-21.6,14.62-43.2,21.97-64.79c2.49-7.32,7.67-9.85,14.98-7.41
					c5.06,1.69,10.1,3.42,15.67,5.31c-0.49-1.08-0.71-1.74-1.05-2.31c-12.3-20.5-24.59-41.01-36.95-61.47
					c-1.15-1.9-1.13-3.62-0.37-5.59c11.9-31.02,34.02-50.72,66.38-57.77c63.03-13.74,119.46,42.34,106.92,105.76
					c-0.64,3.21-1.7,6.34-2.45,9.53c-0.64,2.73-2.28,4.23-4.9,5.24c-21.44,8.26-42.84,16.63-64.25,24.96
					c-1.12,0.44-2.22,0.91-3.33,1.36C361.94,220.51,361.95,220.73,361.95,220.95z"/>
			</g>
		</g>
	</g>
	<g id="wLbNxK_00000022527742248971245340000014435584325602453633_">
		<g>
			<g>
				<path class="st1" d="M187.77,234.57c3.38-0.6,6.76-1.2,10.15-1.79c5.37-0.93,8.38,1.16,9.33,6.49
					c2.58,14.61,5.15,29.23,7.72,43.85c0.78,4.42-1.46,7.64-5.88,8.42c-21.04,3.72-42.09,7.42-63.13,11.12
					c-4.32,0.76-7.56-1.5-8.32-5.78c-2.61-14.73-5.21-29.47-7.79-44.21c-0.87-5,1.31-8.09,6.28-8.99c3.44-0.62,6.89-1.22,10.69-1.89
					c-0.62-0.47-0.95-0.78-1.34-1c-13.54-7.92-27.08-15.84-40.65-23.72c-1.26-0.73-1.79-1.73-1.98-3.1
					c-2.94-21.6,3.58-39.92,19.98-54.18c31.94-27.78,82.1-13.31,94.88,27.14c0.65,2.05,1.02,4.18,1.6,6.26
					c0.49,1.77,0.02,3.15-1.17,4.56c-9.73,11.51-19.41,23.08-29.1,34.63c-0.51,0.6-0.99,1.22-1.49,1.83
					C187.63,234.32,187.7,234.45,187.77,234.57z M160.7,196.49c-6.4,1.1-11.17,4.61-13.74,9.51c-0.51,0.97-0.58,1.72,0.04,2.7
					c5.93,9.49,11.82,18.99,17.67,28.53c0.63,1.04,1.29,1.23,2.4,1.02c1.07-0.2,1.69-0.52,1.96-1.74
					c2.33-10.81,4.71-21.61,7.15-32.4c0.25-1.13-0.02-1.83-0.8-2.59C170.96,197.31,165.74,195.79,160.7,196.49z M159.04,239.45
					c-2.68-4.34-5.2-8.55-7.85-12.68c-3.74-5.83-7.25-11.83-11.44-17.32c-4.91-6.42-12.94-8.23-20.46-5.26
					c-4.21,1.67-7.31,4.6-9.31,8.78c0.59,0.38,1.04,0.69,1.51,0.97c14.38,8.42,28.77,16.82,43.12,25.3
					C156.05,240.1,157.32,240.14,159.04,239.45z M175.12,236.53c0.14,0.17,0.28,0.34,0.42,0.51c1.13-0.64,2.57-1.04,3.36-1.97
					c10.66-12.56,21.23-25.2,31.82-37.82c0.54-0.64,1.06-1.3,1.65-2.03c-5.08-4.76-10.87-6.43-17.34-4.67
					c-6.53,1.77-10.97,6.03-12.56,12.73c-2.2,9.32-4.18,18.7-6.24,28.06C175.84,233.06,175.49,234.8,175.12,236.53z"/>
			</g>
		</g>
	</g>
	<path class="st0" d="M428.39,174.21c6.72-39.01-18.02-82.51-63.48-92.02c-21.14-4.42-41.05-0.63-59.42,10.7
		c-11.89,7.33-21.21,17.16-28.31,30.14c10.1-3.24,19.28-2.72,28.12,1.5c8.84,4.22,14.92,11.12,18.52,20.37
		c10.03-5.86,20.39-7.39,31.28-3.72c10.99,3.7,18.33,11.31,22.67,21.91C398.64,153.16,411.32,155.96,428.39,174.21z"/>
	<path class="st0" d="M328.81,219.32c-14.93-5.06-29.87-10.08-44.76-15.24c-2.53-0.88-3.59-0.41-4.46,2.2
		c-6.98,20.91-14.07,41.79-21.25,62.63c-0.92,2.66-0.17,3.57,2.3,4.4c29.87,10.06,59.73,20.18,89.55,30.38
		c2.56,0.88,3.59,0.39,4.45-2.19c6.96-20.82,14.05-41.6,21.1-62.39c1.18-3.47,1.17-3.48-2.43-4.7
		C358.49,229.39,343.65,224.36,328.81,219.32z"/>
	<path class="st0" d="M353.67,150.24c-9.35-3.22-18.3-2.01-25.34,2.65c-1.39,0.92-2.03,1.88-1.93,3.64
		c0.97,17.02,1.89,34.04,2.71,51.06c0.09,1.85,0.82,2.59,2.46,3.12c1.58,0.51,2.65,0.54,3.89-0.89
		c11.03-12.74,22.13-25.43,33.28-38.07c1.17-1.32,1.32-2.46,0.82-4.05C366.78,158.85,360.92,152.99,353.67,150.24z"/>
	<path class="st0" d="M319.98,206.43c-0.4-7.76-0.69-15.23-1.21-22.69c-0.73-10.52-1.02-21.12-2.6-31.52
		c-1.86-12.17-11.27-20.48-23.49-22.01c-6.85-0.86-13.14,0.79-18.87,4.92c0.51,0.93,0.88,1.68,1.31,2.39
		c13.05,21.79,26.13,43.55,39.1,65.39C315.52,205.11,317.19,206.1,319.98,206.43z"/>
	<path class="st0" d="M343.62,214.3c0.06,0.33,0.12,0.66,0.18,0.99c1.99-0.03,4.19,0.5,5.93-0.17
		c23.44-8.98,46.82-18.13,70.22-27.24c1.19-0.46,2.37-0.96,3.69-1.5c-3.31-10.08-9.82-16.56-19.75-18.95
		c-10.02-2.41-19.08,0.02-26.1,7.81c-9.77,10.85-19.28,21.94-28.89,32.93C347.11,210.2,345.37,212.26,343.62,214.3z"/>
</g>
</svg>
