<?xml version="1.0" encoding="utf-8"?>
<!-- Generator: Adobe Illustrator 25.4.1, SVG Export Plug-In . SVG Version: 6.00 Build 0)  -->
<svg version="1.1" id="Calque_1" xmlns="http://www.w3.org/2000/svg" xmlns:xlink="http://www.w3.org/1999/xlink" x="0px" y="0px"
	 viewBox="0 0 500 500" style="enable-background:new 0 0 500 500;" xml:space="preserve">
<style type="text/css">
	.st0{fill:#3F3F3F;}
	.st1{fill:#1D1D1B;}
	.st2{fill:#1D1E1B;}
	.st3{fill:#BFBFBF;}
</style>
<g>
	<g>
		<polygon class="st0" points="252.67,60.4 126.48,120.83 126.48,354.55 252.67,414.09 373.53,353.66 373.53,122.61 		"/>
		<path class="st1" d="M252.67,418.14c-0.59,0-1.18-0.13-1.73-0.39l-126.19-59.54c-1.42-0.67-2.32-2.09-2.32-3.66V120.83
			c0-1.56,0.89-2.98,2.3-3.65l126.19-60.43c1.14-0.55,2.47-0.53,3.6,0.05l120.86,62.21c1.35,0.69,2.19,2.08,2.19,3.6v231.06
			c0,1.53-0.87,2.93-2.24,3.62l-120.86,60.43C253.91,418,253.29,418.14,252.67,418.14z M130.52,351.99l122.09,57.61l116.86-58.43
			V125.08L252.6,64.92l-122.08,58.46V351.99z"/>
	</g>
</g>
<g>
	<g>
		<polygon class="st1" points="249.55,88.69 255.86,101.46 269.96,103.51 259.75,113.46 262.16,127.5 249.55,120.87 236.94,127.5 
			239.35,113.46 229.14,103.51 243.24,101.46 		"/>
	</g>
	<g>
		<polygon class="st1" points="281.38,102.1 285.5,110.46 294.73,111.8 288.05,118.31 289.63,127.5 281.38,123.16 273.12,127.5 
			274.7,118.31 268.02,111.8 277.25,110.46 		"/>
	</g>
	<g>
		<polygon class="st1" points="218.63,102.1 222.75,110.46 231.98,111.8 225.31,118.31 226.88,127.5 218.63,123.16 210.37,127.5 
			211.95,118.31 205.27,111.8 214.5,110.46 		"/>
	</g>
</g>
<g id="_x34_A3xhS.tif_00000136401852635413163140000002477369551591819700_">
	<g>
		<g>
			<path class="st2" d="M343.92,254.78c0,12.57-0.03,25.13,0,37.7c0.03,11.18-4.8,19.61-14.42,25.19
				c-21.84,12.67-43.7,25.3-65.59,37.87c-9.57,5.5-19.23,5.45-28.83-0.09c-21.81-12.58-43.62-25.15-65.41-37.76
				c-9.64-5.58-14.5-13.96-14.49-25.15c0.01-25.2,0-50.41,0.01-75.61c0-11,4.77-19.34,14.24-24.85
				c21.96-12.75,43.94-25.46,65.97-38.09c9.35-5.37,18.9-5.4,28.26-0.04c22.03,12.63,44.01,25.33,65.97,38.08
				c9.56,5.55,14.31,13.95,14.3,25.04C343.91,229.65,343.92,242.22,343.92,254.78z"/>
		</g>
	</g>
</g>
<g>
	<path class="st3" d="M182.65,236.64c0,0.74,0,1.49,0,2.23c0,14.79,0,29.59,0,44.38c0,0.72,0.03,1.44-0.02,2.15
		c-0.16,2.07-1.41,3.3-3.25,3.28c-1.88-0.02-3.04-1.23-3.07-3.39c-0.05-4.16-0.03-8.33-0.03-12.5c0-17.45,0-34.9,0-52.35
		c0-0.5,0.01-1.01,0.02-1.51c0.03-1.73,0.82-2.9,2.57-3.21c1.73-0.31,2.92,0.48,3.57,2.07c1.39,3.38,2.76,6.77,4.13,10.16
		c8.51,21.15,17,42.3,25.51,63.45c0.26,0.65,0.57,1.27,1.31,1.87c0-0.8,0-1.6,0-2.4c0-31.1,0-62.19,0-93.29c0-0.5,0-1.01,0-1.51
		c0.03-2.56,1.18-3.98,3.2-3.95c2,0.03,3.14,1.46,3.14,4.04c0.01,34.11,0.01,68.22,0.01,102.34c0,3.66,0,7.33,0,10.99
		c0,2.96-0.71,4.21-2.57,4.55c-1.94,0.36-3.04-0.49-4.12-3.19c-9.66-24.01-19.31-48.02-28.97-72.02c-0.31-0.77-0.65-1.52-0.98-2.27
		C182.94,236.59,182.79,236.61,182.65,236.64z"/>
	<path class="st3" d="M216.36,316.16c-2.96,0-4.33-2.38-5.2-4.54l-26.49-65.86l0.01,38.12c0,0.56,0.01,1.12-0.04,1.68
		c-0.24,3.09-2.33,5.15-5.21,5.15c-0.02,0-0.05,0-0.08,0c-3.04-0.04-5.02-2.15-5.07-5.38c-0.04-3.18-0.04-6.35-0.03-9.53l0-3
		l0-52.35l0.01-1.17c0.06-3.15,1.64-5.08,4.24-5.54c2.6-0.46,4.76,0.77,5.8,3.29c1.39,3.39,2.77,6.78,4.13,10.18l22.92,57.01
		l0-88.16c0.02-1.74,0.46-3.15,1.3-4.19c0.95-1.17,2.3-1.77,3.95-1.75c2.48,0.03,5.14,1.64,5.14,6.07l0.01,102.34l0,10.99
		c0,1.57-0.01,5.75-4.23,6.53C217.11,316.13,216.72,316.16,216.36,316.16z M184.1,234.37l1.17,2.15c0.23,0.52,0.46,1.04,0.67,1.56
		l28.97,72.03c0.87,2.16,1.28,2.07,1.87,1.96c0.49-0.09,0.92-0.17,0.92-2.57l0-10.98l-0.01-102.34c0-2.01-0.74-2.01-1.15-2.02
		c-0.57-0.09-0.68,0.17-0.75,0.25c-0.12,0.14-0.39,0.6-0.4,1.7l0,1.1v100.34l-3.3-2.7c-1.09-0.89-1.58-1.85-1.91-2.68l-25.51-63.45
		c-1.36-3.39-2.73-6.77-4.12-10.15c-0.38-0.94-0.8-0.94-1.35-0.85c-0.54,0.1-0.87,0.23-0.89,1.25l-0.02,1.47l0,52.35l0,3
		c0,3.15-0.01,6.31,0.03,9.47c0.02,1.43,0.53,1.38,1.13,1.38c0.35,0,1.04-0.07,1.15-1.41c0.03-0.44,0.02-0.88,0.02-1.32l-0.01-49.02
		L184.1,234.37z"/>
</g>
<g>
	<path class="st3" d="M245.41,180.12c0,2.47,0,4.4,0,6.33c0,20.97,0.02,41.94-0.06,62.9c-0.01,2.08,0.56,2.65,2.64,2.62
		c9.55-0.11,19.1-0.03,28.65-0.05c1.7,0,3.19,0.31,3.82,2.11c0.78,2.23-0.76,4.19-3.41,4.25c-3.37,0.07-6.75,0.02-10.12,0.02
		c-6.32,0-12.64,0-18.96,0c-0.77,0-1.54,0-2.57,0c0,1.17,0,2.09,0,3.01c0,22.4,0,44.81-0.01,67.21c0,0.86,0,1.73-0.15,2.57
		c-0.26,1.57-1.33,2.37-2.85,2.44c-1.61,0.07-2.79-0.67-3.17-2.31c-0.18-0.76-0.18-1.57-0.18-2.35c-0.01-23.48,0-46.96,0-70.44
		c0-27.35,0-54.71,0-82.06c0-0.43-0.02-0.86,0.01-1.29c0.21-2.9,2.38-4.25,4.95-2.89c12.36,6.54,24.69,13.13,37.02,19.73
		c1.97,1.05,2.55,2.81,1.66,4.47c-0.94,1.76-2.68,2.18-4.82,1.04c-9.94-5.29-19.87-10.6-29.8-15.91
		C247.33,181.12,246.59,180.73,245.41,180.12z"/>
	<path class="st3" d="M242.2,335.56c-2.5,0-4.38-1.46-4.95-3.87c-0.22-0.97-0.23-1.92-0.23-2.75l0-152.57
		c0-0.69-0.01-1.06,0.02-1.42c0.16-2.14,1.14-3.86,2.7-4.72c1.52-0.84,3.42-0.77,5.22,0.17c12.36,6.54,24.7,13.13,37.03,19.73
		c1.5,0.8,2.51,1.96,2.93,3.35c0.38,1.25,0.22,2.63-0.44,3.86c-1.49,2.78-4.46,3.52-7.55,1.87c-6.85-3.64-13.7-7.3-20.55-10.96
		l-8.93-4.77v16.74c0,16.38,0,32.77-0.06,49.15c0,0.26,0.01,0.45,0.02,0.57c0.13,0.01,0.33,0.02,0.57,0.02
		c6.25-0.07,12.49-0.06,18.73-0.05l9.94,0c1.12,0,4.53,0,5.73,3.47c0.57,1.61,0.36,3.29-0.55,4.61c-1,1.43-2.72,2.28-4.72,2.33
		c-2.39,0.05-4.77,0.04-7.16,0.03l-22.51-0.01l-0.01,68.19c0,0.97-0.01,1.96-0.17,2.91c-0.4,2.43-2.23,4.01-4.75,4.12
		C242.4,335.56,242.3,335.56,242.2,335.56z M242.07,173.67c-0.15,0-0.27,0.03-0.38,0.08c-0.33,0.18-0.57,0.74-0.62,1.46
		c-0.02,0.25-0.01,0.51-0.01,0.78l0.01,152.87c0,0.73,0.01,1.38,0.13,1.9c0.11,0.47,0.25,0.76,1.11,0.74
		c0.77-0.04,0.87-0.32,0.94-0.75c0.12-0.74,0.12-1.49,0.12-2.25l0.01-72.24l26.58,0.01c2.35,0.02,4.7,0.03,7.05-0.03
		c0.68-0.01,1.24-0.23,1.48-0.59c0.17-0.25,0.19-0.57,0.06-0.96c-0.15-0.42-0.26-0.75-1.91-0.75l-9.95,0
		c-6.23-0.02-12.45-0.02-18.67,0.05c-1.14-0.03-2.53-0.1-3.55-1.11c-1.02-1.01-1.14-2.42-1.14-3.55
		c0.06-16.38,0.06-32.75,0.06-49.13v-23.44l14.89,7.91c6.85,3.66,13.69,7.32,20.54,10.96c1.53,0.81,1.87,0.2,2.09-0.22
		c0.24-0.44,0.16-0.69,0.13-0.78c-0.1-0.33-0.45-0.67-0.97-0.95c-12.32-6.6-24.65-13.19-37.01-19.72
		C242.69,173.77,242.35,173.67,242.07,173.67z"/>
</g>
<g>
	<path class="st3" d="M307.86,213.44c0,1.23,0,2.06,0,2.9c0,28.01,0,56.02-0.01,84.02c0,0.86,0.01,1.73-0.12,2.58
		c-0.25,1.66-1.33,2.51-2.97,2.55c-1.63,0.04-2.77-0.75-3.1-2.39c-0.17-0.83-0.17-1.71-0.17-2.57c-0.01-29.23-0.02-58.46,0.04-87.69
		c0-1.99-0.54-3.11-2.41-3.92c-3.02-1.31-5.92-2.91-8.84-4.43c-2.03-1.05-2.69-2.67-1.89-4.39c0.82-1.76,2.69-2.32,4.75-1.28
		c9.48,4.78,18.94,9.58,28.39,14.4c2.16,1.1,2.85,2.78,2,4.53c-0.87,1.78-2.71,2.2-4.97,1.08
		C315.13,217.12,311.7,215.37,307.86,213.44z"/>
	<path class="st3" d="M304.66,307.51c-2.56,0-4.46-1.52-4.97-4.01c-0.21-1.04-0.21-2.07-0.21-2.98l0-14.03
		c0-24.56-0.01-49.11,0.04-73.66c0-1.39-0.24-1.65-1.19-2.06c-2.44-1.06-4.81-2.31-7.09-3.51l-1.88-0.98
		c-2.97-1.55-4.07-4.31-2.79-7.04c0.6-1.29,1.64-2.25,2.91-2.69c1.4-0.49,3.03-0.32,4.58,0.46c9.48,4.78,18.95,9.58,28.4,14.41
		c3.13,1.59,4.26,4.43,2.9,7.22c-0.61,1.26-1.59,2.15-2.82,2.57c-1.45,0.49-3.13,0.3-4.87-0.57c-2.43-1.2-4.84-2.42-7.4-3.72
		l-0.39-0.2l-0.01,83.63c0,1.09,0,2-0.14,2.88c-0.39,2.58-2.28,4.21-4.92,4.27C304.76,307.51,304.71,307.51,304.66,307.51z
		 M291.15,200.32c-0.13,0-0.25,0.02-0.35,0.05c-0.09,0.03-0.35,0.12-0.57,0.58c-0.16,0.34-0.46,0.98,0.99,1.74l1.9,0.99
		c2.22,1.17,4.52,2.38,6.82,3.38c3.22,1.4,3.63,3.83,3.62,5.78c-0.05,24.55-0.05,49.1-0.04,73.65l0,14.03
		c0,0.72-0.02,1.46,0.13,2.17c0.11,0.56,0.25,0.81,1.07,0.77c0.76-0.02,0.92-0.23,1.02-0.83c0.1-0.68,0.09-1.38,0.09-2.07
		l0.01-90.41l6.26,3.16c2.55,1.29,4.95,2.5,7.36,3.7c0.72,0.36,1.38,0.48,1.76,0.36c0.08-0.03,0.29-0.1,0.49-0.51
		c0.16-0.34,0.5-1.03-1.1-1.84c-9.45-4.82-18.91-9.62-28.38-14.4C291.84,200.42,291.46,200.32,291.15,200.32z"/>
</g>
</svg>
