<?xml version="1.0" encoding="utf-8"?>
<!-- Generator: Adobe Illustrator 25.4.1, SVG Export Plug-In . SVG Version: 6.00 Build 0)  -->
<svg version="1.1" id="Calque_1" xmlns="http://www.w3.org/2000/svg" xmlns:xlink="http://www.w3.org/1999/xlink" x="0px" y="0px"
	 viewBox="0 0 554 391.3" style="enable-background:new 0 0 554 391.3;" xml:space="preserve">
<style type="text/css">
	.st0{fill:#1D1D1B;}
	.st1{fill:#3F3F3F;}
	.st2{fill:#BFBFBF;}
</style>
<g id="T8oxEr_00000021118510234228688110000002348886373935499427_">
	<g>
		<path class="st0" d="M166.5,82.2c5.2,0,10.5,0,15.8,0c1.2,0,2.1-0.3,3-1c7.8-6.4,15.7-12.6,23.5-19c1.3-1.1,2.7-1.3,4.3-1
			c8.9,2.2,17.8,4.4,26.6,6.6c1.3,0.4,2.5,0.3,3.9-0.3c12.4-5.1,24.8-10.2,37.1-15.3c2-0.8,3.7-0.8,5.7,0.4
			c8.7,5.2,17.4,10.2,26.1,15.5c1.2,0.7,2.3,1,3.7,0.7c9.6-1.6,19.3-3.1,29-4.6c2-0.3,3.5,0.1,4.9,1.6c7.1,6.9,14.2,13.7,21.3,20.5
			c1,0.9,1.9,1.2,3.2,1.3c7.2,0.7,14.3,1.3,21.4,2c4.3,0.4,8.7,0.8,13,1.2c1.8,0.1,3,1,4,2.5c7.6,12.3,15.2,24.7,22.9,37
			c9.9,16,19.8,32,29.7,47.9c1.2,1.9,1.1,3.7,0,5.6c-15.5,25.8-30.9,51.5-46.3,77.3c-13.8,23.2-27.7,46.2-41.5,69.5
			c-1.2,2-2.7,2.8-5,2.6c-11.3-1-22.6-1.8-33.9-2.7c-10.2-0.7-20.3-1.5-30.5-2.3c-10.1-0.7-20.2-1.6-30.3-2.4
			c-1.6-0.1-3.1-0.3-4.6,0.2c-0.3,0.1-0.6,0.1-1,0.1c-9-0.6-17.9,0.2-26.8,0.4c-4.5,0.1-9,0.2-13.4,0.3c-9.3,0.2-18.5,0.4-27.8,0.6
			c-12.6,0.3-25,0.6-37.6,1c-2.8,0.1-4.3-0.8-5.5-3.4c-11.2-22.5-22.5-44.9-33.8-67.3c-8.1-16-16.1-32-24.1-48
			c-6.5-12.9-12.9-25.8-19.5-38.7c-1.2-2.3-1.1-4,0.5-6.1c21-27,41.9-54.2,62.8-81.3c1-1.3,2.2-1.9,3.8-1.9c5.2,0.1,10.5,0,15.6,0
			C166.5,82,166.5,82.1,166.5,82.2z M258.6,306.9L258.6,306.9c0-0.2-0.1-0.4-0.2-0.6c-0.5-0.8-1-1.6-1.5-2.5
			c-14.6-21.8-29.1-43.6-43.8-65.4c-1.6-2.3-1.6-4.2-0.1-6.6c18.3-30.4,36.5-60.8,54.7-91.3c11.4-19,22.7-37.9,34-56.9
			c1.2-2.1,2.7-2.9,5.1-2.5c1.4,0.2,2.8,0.3,4.3,0.4c10.3,1,20.7,1.9,31,2.9c6.1,0.6,12.3,1.2,18.5,1.7c0.5,0.1,1.3,0.3,1.5-0.2
			c0.3-0.6-0.4-1-0.7-1.3c-4.6-4.5-9.3-8.9-13.8-13.3c-0.8-0.8-1.7-1.1-2.8-0.9c-4.2,0.7-8.3,1.3-12.5,1.9
			c-19.5,3.1-39,6.1-58.5,9.2c-8.7,1.3-17.5,2.8-26.3,4.1c-1.3,0.2-1.9,0.7-2.2,2c-0.5,2-1.2,4-1.8,6.1
			c-15.5,51.7-30.9,103.4-46.3,155c-0.5,1.6-0.1,2.6,1,3.7c4.9,4.3,9.8,8.7,14.6,13.1c14,12.6,28,25.2,42,37.7
			c1.2,1,2.2,2.3,3.7,3.1C258.3,306.6,258.5,306.8,258.6,306.9z M246.2,304.8c0.1,0,0.1,0,0.2,0l-0.1-0.1c-0.2-0.5-0.7-0.9-1-1.3
			c-8.4-7.6-16.8-15.1-25.2-22.6c-9.6-8.6-19.1-17.2-28.7-25.7c-1.7-1.6-2-3.1-1.3-5.2c5.1-16.7,10-33.5,15-50.3
			c8.4-28.2,16.8-56.3,25.3-84.5c3.1-10.5,6.3-20.8,9.3-31.3c0.6-2.2,1.8-3.4,4-3.6c2.7-0.3,5.3-0.8,8-1.2c17-2.7,33.8-5.3,50.8-8
			c0.4-0.1,1.2,0,1.3-0.5c0.1-0.5-0.6-0.7-1-0.9c-5.7-3.4-11.4-6.6-17-10.1c-1.9-1.2-3.4-1.3-5.5-0.4c-18.6,7.8-37.3,15.4-55.9,23.1
			c-11.3,4.6-22.6,9.3-33.8,13.9c-1,0.4-1.6,0.8-1.7,2c-0.2,5.4-0.5,10.8-0.8,16.1c-0.4,7-0.8,14-1.2,21.1
			c-0.4,7.5-0.8,14.9-1.3,22.3c-0.4,7.1-0.8,14.3-1.2,21.4c-0.4,7.5-0.8,14.9-1.3,22.4c-0.4,7.1-0.8,14.3-1.2,21.4
			c-0.4,7.5-0.8,14.9-1.3,22.4c-0.4,7.1-0.7,14.3-1.3,21.4c-0.1,1.4,0.2,2.2,1.6,2.9c17.6,9.6,35.3,19.1,52.9,28.7
			C238,300.4,242.1,302.5,246.2,304.8z M371.1,326.9c1,0.2,1.8-0.3,2.3-1.2c1.4-2.5,2.9-4.9,4.4-7.4c27-45.1,54-90.2,81.1-135.3
			c0.8-1.4,0.9-2.5,0-3.8c-6.9-10.9-13.6-21.9-20.4-32.9c-9.8-15.8-19.6-31.6-29.4-47.4c-0.7-1-1.3-1.9-2.8-2.1
			c-14-1.3-28-2.5-42.1-3.9c-18.5-1.7-37.1-3.4-55.5-5.2c-1.7-0.1-2.5,0.4-3.4,1.8c-10.3,17.3-20.7,34.6-31,51.9
			c-18.4,30.6-36.7,61.3-55.1,92c-0.8,1.3-0.7,2.3,0.1,3.6c4,5.8,7.8,11.5,11.7,17.3c14.2,21.2,28.4,42.4,42.5,63.7
			c0.7,1.1,1.6,1.8,3.1,1.9c7.3,0.5,14.6,1.1,22,1.7c8.7,0.7,17.5,1.3,26.2,2c7.9,0.6,15.8,1.2,23.8,1.8
			C356,325.7,363.6,326.3,371.1,326.9z M252.4,315.4c-0.1-0.5-0.6-0.6-1-0.8c-11.4-6.2-22.8-12.4-34.2-18.6
			c-13.8-7.5-27.7-15.1-41.6-22.6c-1.6-0.9-2.5-2.1-2.4-4c0.7-11.7,1.3-23.4,2-35c0.6-10.6,1.1-21.1,1.7-31.8
			c0.7-12.1,1.4-24.2,2.1-36.2c0.6-10.6,1.1-21.1,1.7-31.8c0.7-12.8,1.5-25.7,2.2-38.6c0.1-2.5,1-3.9,3.4-4.9
			c14.5-5.9,28.9-11.9,43.4-17.8c0.6-0.2,1.3-0.3,1.6-1c-0.4-0.5-1-0.5-1.5-0.6c-5.3-1.3-10.5-2.6-15.8-4c-1.3-0.3-2.2-0.1-3.3,0.7
			c-5.5,4.6-11.1,9-16.6,13.4c-19.9,16.1-39.9,32.2-59.8,48.3c-1,0.7-1.2,1.6-0.9,2.7c9.3,39.4,18.7,78.9,27.9,118.3
			c3.6,15.2,7.2,30.3,10.8,45.5c0.3,1.2,0.7,2,2.1,2.3c25.6,5.4,51.2,10.8,76.9,16.3C251.5,315.5,251.9,315.7,252.4,315.4z
			 M243.2,320.3c-0.8-0.5-1.5-0.5-2.2-0.7c-23.4-4.9-46.8-9.9-70.1-14.9c-2.5-0.5-3.7-1.7-4.3-4.2c-7.3-31.2-14.7-62.5-22.1-93.7
			c-5.8-24.2-11.5-48.5-17.2-72.8c-1.2-5.2-1.8-4.8,2.8-8.5c14.9-12,29.9-24.1,44.8-36.2c0.3-0.2,0.9-0.4,0.7-0.9
			c-0.1-0.6-0.7-0.4-1.2-0.4c-7-0.1-14-0.1-21.1-0.3c-1.3,0-2.2,0.4-3,1.5c-19.9,25.8-39.8,51.6-59.8,77.4c-1,1.3-1.1,2.4-0.4,3.9
			c11.9,23.3,23.5,46.5,35.3,69.9c13.3,26.4,26.6,52.9,39.8,79.4c0.9,1.8,1.9,2.5,3.9,2.4c14.4-0.4,28.8-0.8,43.3-1.1
			c8.9-0.2,17.7-0.4,26.6-0.6C240.4,320.5,241.7,320.4,243.2,320.3z"/>
		<path class="st1" d="M371.1,326.9c-7.5-0.6-15.1-1.1-22.6-1.7c-7.9-0.6-15.8-1.2-23.8-1.8c-8.7-0.7-17.5-1.3-26.2-2
			c-7.3-0.6-14.6-1.2-22-1.7c-1.4-0.1-2.3-0.7-3.1-1.9c-14.1-21.2-28.3-42.4-42.5-63.7c-3.9-5.8-7.7-11.6-11.7-17.3
			c-0.9-1.3-0.9-2.2-0.1-3.6c18.4-30.6,36.8-61.3,55.1-92c10.4-17.3,20.7-34.6,31-51.9c0.8-1.4,1.6-1.9,3.4-1.8
			c18.5,1.8,37.1,3.5,55.5,5.2c14,1.3,28,2.6,42.1,3.9c1.5,0.1,2.1,1,2.8,2.1c9.8,15.8,19.6,31.6,29.4,47.4
			c6.8,11,13.5,21.9,20.4,32.9c0.9,1.4,0.8,2.4,0,3.8c-27,45-54.1,90.2-81.1,135.3c-1.5,2.5-3,4.9-4.4,7.4
			C372.9,326.6,372.2,327,371.1,326.9z M406.7,222.5c-0.2-42.7-33.9-76.3-75.9-76.6c-42.2-0.2-76.6,34.1-76.6,76.1
			c0.1,42.4,33.8,76.3,75.9,76.5S406.6,264.4,406.7,222.5z M400.2,111.9c-0.1-0.4,0.3-1-0.3-1.3c-0.4-0.2-0.8,0.2-1.2,0.4
			c-2,1.2-4,2.4-6,3.7c-1,0.7-1.9,0.8-3.1,0.2c-2.2-1-4.4-1.9-6.6-2.9c-0.4-0.1-0.7-0.4-1.1-0.1s-0.1,0.7-0.1,1.2
			c0.6,2.5,1.2,4.9,1.8,7.3c0.2,1,0.1,1.7-0.7,2.5c-1.6,1.8-3.2,3.6-4.9,5.4c-0.3,0.4-0.9,0.7-0.7,1.3c0.2,0.5,0.9,0.4,1.3,0.4
			c2.4,0.2,4.9,0.4,7.2,0.5c1,0.1,1.6,0.5,2.2,1.4c1.2,2.2,2.5,4.3,3.8,6.5c0.2,0.4,0.3,1,0.9,0.9c0.4-0.1,0.5-0.6,0.7-1
			c1-2.3,1.9-4.6,2.8-6.9c0.4-1.1,1-1.7,2.2-1.9c2.4-0.4,4.9-1,7.2-1.6c0.4-0.1,0.9-0.1,1-0.5c0.1-0.4-0.4-0.7-0.7-1
			c-1.9-1.6-3.9-3.4-5.8-5c-0.8-0.7-1-1.4-0.9-2.4C399.7,116.7,399.9,114.3,400.2,111.9z M415.1,132.8c0-0.3,0.1-0.7-0.2-1
			c-0.4-0.3-0.7,0.1-1.1,0.3c-1.2,0.7-2.3,1.4-3.5,2.2c-0.7,0.4-1.4,0.5-2.2,0.1c-1.3-0.6-2.7-1.2-4-1.8c-0.9-0.4-1.2-0.1-1,0.8
			c0.3,1.3,0.6,2.7,1,4c0.3,1.1,0.1,1.9-0.7,2.8c-0.8,0.8-1.6,1.8-2.4,2.7c-0.2,0.3-0.7,0.6-0.6,1c0.1,0.5,0.7,0.4,1.2,0.5
			c1.2,0.1,2.5,0.2,3.7,0.3c1.1,0.1,1.9,0.6,2.3,1.6c0.5,1,1,1.9,1.6,2.8c0.2,0.4,0.4,1,0.9,1c0.6,0,0.7-0.7,0.8-1.1
			c0.5-1.1,1-2.2,1.4-3.4c0.3-0.9,0.9-1.4,1.9-1.6c1.3-0.2,2.6-0.5,3.9-0.8c0.4-0.1,0.9-0.1,1-0.4c0.1-0.4-0.4-0.7-0.7-0.9
			c-1-0.9-2.1-1.8-3.1-2.7c-0.7-0.6-1-1.3-0.9-2.2C414.9,135.5,415,134.2,415.1,132.8z M375.1,107.9c0-0.4,0.1-0.8-0.2-1.1
			c-0.4-0.3-0.7,0.1-1.1,0.3c-1,0.6-2.1,1.2-3.1,1.9c-1,0.7-2,0.7-3.1,0.2s-2.2-1-3.3-1.4c-0.4-0.1-0.7-0.5-1.1-0.2
			c-0.4,0.4-0.1,0.8,0,1.3c0.2,1.1,0.4,2.2,0.8,3.3c0.4,1.2,0.2,2.2-0.7,3.1c-0.9,0.9-1.7,1.9-2.5,2.8c-0.7,0.7-0.4,1.1,0.5,1.2
			c1.3,0.1,2.8,0.2,4.1,0.3c1,0.1,1.6,0.4,2.1,1.3c0.7,1.3,1.4,2.5,2.2,3.7c0.1,0.3,0.3,0.6,0.7,0.7c0.4,0,0.5-0.4,0.7-0.7
			c0.5-1.2,1-2.3,1.4-3.5c0.4-1.1,1-1.7,2.2-1.9c1.2-0.1,2.4-0.5,3.6-0.8c0.4-0.1,0.9-0.1,1-0.6c0.1-0.4-0.3-0.6-0.6-0.9
			c-1-0.9-2-1.7-3.1-2.5c-0.7-0.6-1-1.3-0.9-2.3C374.9,110.5,375,109.3,375.1,107.9z"/>
		<path class="st1" d="M258.2,306.4c-1.5-0.7-2.5-1.9-3.7-3.1c-14-12.6-28-25.2-42-37.7c-4.9-4.3-9.7-8.7-14.6-13.1
			c-1.2-1-1.6-2-1-3.7c15.5-51.7,30.9-103.3,46.3-155c0.6-2,1.3-4,1.8-6.1c0.3-1.3,1-1.8,2.2-2c8.7-1.3,17.6-2.8,26.3-4.1
			c19.5-3.1,39-6.1,58.5-9.2c4.2-0.7,8.3-1.3,12.5-1.9c1.1-0.2,2,0.1,2.8,0.9c4.6,4.5,9.2,8.9,13.8,13.3c0.4,0.4,1.1,0.7,0.7,1.3
			c-0.3,0.5-1,0.3-1.5,0.2c-6.1-0.6-12.3-1.2-18.5-1.7c-10.3-1-20.6-1.9-31-2.9c-1.4-0.1-2.8-0.1-4.3-0.4c-2.4-0.4-3.8,0.4-5.1,2.5
			c-11.3,19-22.6,37.9-34,56.9c-18.2,30.4-36.5,60.9-54.7,91.3c-1.5,2.5-1.4,4.3,0.1,6.6c14.6,21.7,29.2,43.6,43.8,65.4
			c0.5,0.8,1,1.6,1.5,2.5C258.3,306.3,258.3,306.4,258.2,306.4z"/>
		<path class="st1" d="M252.4,315.4c-0.4,0.4-0.9,0.1-1.3,0c-25.6-5.5-51.2-10.8-76.9-16.3c-1.4-0.3-1.8-1.1-2.1-2.3
			c-3.6-15.2-7.2-30.3-10.8-45.5c-9.3-39.4-18.6-78.9-27.9-118.3c-0.3-1.2-0.1-1.9,0.9-2.7c19.9-16.1,39.9-32.2,59.8-48.3
			c5.5-4.5,11.1-9,16.6-13.4c1-0.8,2-1,3.3-0.7c5.2,1.3,10.5,2.6,15.8,4c0.5,0.1,1.1,0.1,1.5,0.6c-0.4,0.6-1,0.7-1.6,1
			c-14.4,6-28.9,12-43.4,17.8c-2.3,1-3.3,2.4-3.4,4.9c-0.7,12.8-1.4,25.7-2.2,38.6c-0.6,10.6-1.1,21.1-1.7,31.8
			c-0.7,12.1-1.4,24.2-2.1,36.2c-0.6,10.6-1.1,21.1-1.7,31.8c-0.7,11.7-1.3,23.4-2,35c-0.1,1.9,0.7,3.1,2.4,4
			c13.9,7.5,27.7,15,41.6,22.6c11.4,6.2,22.8,12.4,34.2,18.6C251.7,314.8,252.2,314.8,252.4,315.4z"/>
		<path class="st1" d="M246.2,304.8c-4.1-2.2-8.2-4.4-12.3-6.6c-17.6-9.6-35.3-19.2-52.9-28.7c-1.3-0.7-1.6-1.5-1.6-2.9
			c0.4-7.1,0.8-14.2,1.3-21.4c0.4-7.5,0.9-14.9,1.3-22.4c0.4-7.1,0.8-14.3,1.2-21.4c0.4-7.5,0.8-14.9,1.3-22.4
			c0.4-7.1,0.8-14.3,1.2-21.4c0.4-7.5,0.8-14.9,1.3-22.3c0.4-7,0.8-14,1.2-21.1c0.3-5.4,0.6-10.8,0.8-16.1c0.1-1.2,0.7-1.6,1.7-2
			c11.3-4.6,22.6-9.3,33.8-13.9c18.7-7.7,37.3-15.3,55.9-23.1c2-0.8,3.6-0.7,5.5,0.4c5.6,3.4,11.3,6.7,17,10.1
			c0.4,0.2,1.1,0.4,1,0.9c-0.1,0.5-0.8,0.4-1.3,0.5c-17,2.7-33.8,5.3-50.8,8c-2.7,0.4-5.3,1-8,1.2c-2.3,0.2-3.4,1.4-4,3.6
			c-3.1,10.5-6.2,20.8-9.3,31.3c-8.4,28.2-16.8,56.3-25.3,84.5c-5,16.8-10,33.5-15,50.3c-0.7,2.1-0.4,3.7,1.3,5.2
			c9.6,8.5,19.1,17.2,28.7,25.7c8.4,7.5,16.7,15,25.1,22.6c0.4,0.4,0.8,0.7,1,1.3C246.3,304.6,246.2,304.7,246.2,304.8z"/>
		<path class="st1" d="M243.2,320.3c-1.5,0.1-2.8,0.2-4.1,0.3c-8.9,0.2-17.7,0.4-26.6,0.6c-14.4,0.4-28.8,0.7-43.3,1.1
			c-2,0.1-3-0.6-3.9-2.4c-13.2-26.5-26.5-53-39.8-79.4c-11.7-23.3-23.4-46.5-35.2-69.8c-0.7-1.5-0.7-2.5,0.4-3.9
			c19.9-25.8,39.9-51.5,59.8-77.4c0.8-1,1.7-1.5,3-1.5c7,0.1,14,0.1,21.1,0.3c0.4,0,1-0.2,1.2,0.4c0.1,0.4-0.4,0.6-0.7,0.9
			c-14.9,12.1-29.9,24.1-44.8,36.2c-4.6,3.7-4,3.4-2.8,8.5c5.7,24.3,11.4,48.5,17.2,72.8c7.4,31.2,14.8,62.5,22.1,93.7
			c0.6,2.5,1.8,3.7,4.3,4.2c23.4,4.9,46.8,9.9,70.1,14.9C241.7,319.7,242.4,319.8,243.2,320.3z"/>
		<path class="st1" d="M246.3,304.6L246.3,304.6c0,0.1-0.1,0.1-0.1,0.1C246.2,304.7,246.3,304.6,246.3,304.6z"/>
		<path class="st1" d="M258.6,306.9c-0.1-0.1-0.2-0.3-0.4-0.4c0.1-0.1,0.1-0.1,0.1-0.1C258.5,306.5,258.6,306.6,258.6,306.9
			L258.6,306.9z"/>
		<path class="st1" d="M258.6,306.9C258.6,306.9,258.6,306.9,258.6,306.9C258.6,306.9,258.6,306.9,258.6,306.9z"/>
		<path class="st0" d="M406.7,222.5c0,41.9-34.4,76.3-76.5,76.1c-42.1-0.2-75.9-34.1-75.9-76.5c-0.1-42.1,34.4-76.4,76.6-76.1
			C372.8,146.2,406.5,179.8,406.7,222.5z M257.7,222.1c-0.1,40.2,32,72.7,72,73c40.6,0.2,73.4-32.2,73.4-72.2
			c0.1-40.6-32-73.1-72.2-73.3C290.4,149.2,257.7,181.8,257.7,222.1z"/>
		<path class="st0" d="M400.2,111.9c-0.2,2.5-0.4,4.9-0.7,7.2c-0.1,1,0.1,1.7,0.9,2.4c1.9,1.6,3.9,3.3,5.8,5c0.3,0.2,0.8,0.4,0.7,1
			c-0.1,0.4-0.7,0.4-1,0.5c-2.4,0.5-4.8,1.1-7.2,1.6c-1.2,0.2-1.8,0.8-2.2,1.9c-0.9,2.3-1.9,4.6-2.8,6.9c-0.1,0.4-0.2,0.9-0.7,1
			c-0.5,0.1-0.7-0.5-0.9-0.9c-1.3-2.2-2.5-4.3-3.8-6.5c-0.5-0.9-1.1-1.3-2.2-1.4c-2.4-0.1-4.9-0.4-7.2-0.5c-0.5-0.1-1.1,0.1-1.3-0.4
			c-0.3-0.6,0.3-0.9,0.7-1.3c1.6-1.8,3.2-3.7,4.9-5.4c0.7-0.7,0.9-1.5,0.7-2.5c-0.6-2.5-1.2-4.9-1.8-7.3c-0.1-0.4-0.3-0.8,0.1-1.2
			c0.4-0.3,0.8,0,1.1,0.1c2.2,1,4.5,1.9,6.6,2.9c1.1,0.5,2.1,0.4,3.1-0.2c1.9-1.3,4-2.5,6-3.7c0.4-0.2,0.7-0.7,1.2-0.4
			C400.5,110.8,400,111.4,400.2,111.9z"/>
		<path class="st0" d="M415.1,132.8c-0.1,1.4-0.3,2.8-0.4,4.1c-0.1,0.9,0.1,1.6,0.9,2.2c1,0.8,2.1,1.8,3.1,2.7
			c0.3,0.2,0.8,0.4,0.7,0.9c-0.1,0.4-0.7,0.4-1,0.4c-1.3,0.3-2.6,0.6-3.9,0.8c-1,0.1-1.6,0.7-1.9,1.6c-0.4,1.1-0.9,2.3-1.4,3.4
			c-0.2,0.4-0.2,1.1-0.8,1.1s-0.7-0.7-0.9-1c-0.6-0.9-1.1-1.9-1.6-2.8c-0.5-1-1.2-1.6-2.3-1.6c-1.2-0.1-2.5-0.1-3.7-0.3
			c-0.4-0.1-1,0.1-1.2-0.5c-0.1-0.4,0.3-0.7,0.6-1c0.7-0.9,1.6-1.8,2.4-2.7c0.8-0.8,1-1.6,0.7-2.8c-0.4-1.3-0.7-2.7-1-4
			c-0.2-0.9,0.1-1.2,1-0.8c1.3,0.6,2.7,1.1,4,1.8c0.8,0.4,1.5,0.3,2.2-0.1c1.1-0.7,2.3-1.4,3.5-2.2c0.3-0.2,0.7-0.6,1.1-0.3
			C415.3,132,415.1,132.5,415.1,132.8z"/>
		<path class="st0" d="M375.1,107.9c-0.1,1.3-0.2,2.6-0.4,3.9c-0.1,1,0.1,1.6,0.9,2.3c1,0.8,2,1.7,3.1,2.5c0.3,0.2,0.7,0.4,0.6,0.9
			c-0.1,0.5-0.6,0.5-1,0.6c-1.2,0.3-2.4,0.6-3.6,0.8c-1.2,0.1-1.9,0.8-2.2,1.9c-0.4,1.2-1,2.4-1.4,3.5c-0.1,0.3-0.2,0.7-0.7,0.7
			c-0.4,0-0.5-0.4-0.7-0.7c-0.7-1.2-1.5-2.4-2.2-3.7c-0.4-0.8-1.1-1.2-2.1-1.3c-1.3-0.1-2.8-0.2-4.1-0.3c-1-0.1-1.1-0.4-0.5-1.2
			c0.8-1,1.6-1.9,2.5-2.8s1.1-1.9,0.7-3.1c-0.4-1-0.6-2.2-0.8-3.3c-0.1-0.4-0.4-0.9,0-1.3c0.4-0.3,0.7,0.1,1.1,0.2
			c1.1,0.4,2.2,0.9,3.3,1.4s2.1,0.5,3.1-0.2c1-0.7,2-1.3,3.1-1.9c0.4-0.2,0.7-0.6,1.1-0.3C375.2,107.1,375.1,107.6,375.1,107.9z"/>
		<path class="st2" d="M257.7,222.1c0-40.3,32.6-72.8,73.2-72.6c40.2,0.2,72.3,32.8,72.2,73.3c-0.1,40-32.8,72.5-73.4,72.2
			C289.7,294.7,257.7,262.3,257.7,222.1z M331,291.5c3.1-0.1,6.7-0.3,10.3-0.9c1.3-0.2,2.2-0.7,2.2-2.1c0.2-4.6,0.1-9.3-1.9-13.6
			c-1-2.1-1.9-4.3-2.8-6.4c-0.3-0.6-0.4-1.2,0.2-1.6c4.6-3.1,6.5-7.8,7.2-13c0.1-0.4,0.1-0.7,0.1-1.1c0.1-1,0.6-1.3,1.6-0.8
			c0.7,0.4,1.6,0.9,2.3,1.4c4.7,3.3,9.5,2.8,14.2,0c4.7-2.8,7.6-7.1,9-12.3c1.1-4.3,0.9-8.4-1.6-12.3c-0.4-0.7-0.4-1.3-0.3-2.1
			c0.8-4.2,1-8.3,0.5-12.6c-2.2-21.8-23.2-38.2-44.8-35c-6.9,1-13.2,3.5-18.8,7.8c-0.7,0.5-1.3,0.9-2.2,0.7
			c-3.3-0.5-6.4,0.3-9.2,2.1c-5.8,3.6-9,8.9-9.6,15.6c-0.4,4.6,0.7,8.7,4.8,11.4c1.5,1,2.5,2.2,3.1,3.8c0.4,1,0.3,1.5-0.5,2
			c-3.5,2.3-5.8,5.5-7.3,9.3c-1,2.6-1,2.6-4,2.2c-6.4-1.1-12.5-0.5-18.3,2.4c-2,1-2.2,1.6-1.6,3.7c3.4,12.3,9.6,22.8,18.6,31.6
			c1.2,1.1,1.3,1.1,2.2-0.4c2.8-4.5,5.6-9,8.4-13.5c0.3-0.4,0.6-0.9,1-1.3c0.4-0.4,1-0.5,1.6-0.1c0.6,0.4,0.8,0.9,0.6,1.6
			c-0.2,0.6-0.5,1.1-0.9,1.7c-2.8,4.6-5.7,9.2-8.6,13.7c-0.7,1-0.5,1.6,0.4,2.4c3.8,3.1,8,5.8,12.4,8c1.3,0.6,1.9,0.4,2.7-0.7
			c2.8-4.6,5.6-9,8.4-13.5c0.4-0.5,0.7-1.1,1.1-1.6c0.5-0.6,1.1-0.7,1.9-0.3c0.7,0.4,0.8,1,0.4,1.8c-0.2,0.4-0.4,0.8-0.7,1.2
			c-2.8,4.4-5.5,8.8-8.3,13.3c-1.1,1.8-1,1.9,0.9,2.7C313.8,289.9,322,291.4,331,291.5z"/>
		<path class="st0" d="M331,291.5c-9-0.1-17.3-1.6-25.1-4.6c-1.9-0.7-2-1-0.9-2.7c2.8-4.4,5.5-8.8,8.3-13.3c0.2-0.4,0.4-0.7,0.7-1.2
			c0.4-0.7,0.2-1.3-0.4-1.8c-0.7-0.4-1.3-0.3-1.9,0.3c-0.4,0.5-0.7,1-1.1,1.6c-2.8,4.5-5.7,9-8.4,13.5c-0.7,1.2-1.4,1.4-2.7,0.7
			c-4.4-2.2-8.6-4.9-12.4-8c-1-0.7-1-1.4-0.4-2.4c2.9-4.6,5.8-9.1,8.6-13.7c0.4-0.5,0.7-1.1,0.9-1.7c0.2-0.6,0-1.2-0.6-1.6
			c-0.6-0.4-1.2-0.3-1.6,0.1c-0.4,0.4-0.7,0.8-1,1.3c-2.8,4.5-5.6,9-8.4,13.5c-0.9,1.4-1,1.5-2.2,0.4c-9-8.9-15.3-19.4-18.6-31.6
			c-0.6-2.2-0.4-2.7,1.6-3.7c5.8-2.9,12-3.5,18.3-2.4c2.9,0.5,2.9,0.5,4-2.2c1.5-3.8,3.8-7.1,7.3-9.3c0.9-0.6,0.9-1.1,0.5-2
			c-0.7-1.6-1.6-2.8-3.1-3.8c-4-2.8-5.2-6.9-4.8-11.4c0.6-6.7,3.9-12,9.6-15.6c2.8-1.7,5.8-2.6,9.2-2.1c0.9,0.1,1.6-0.3,2.2-0.7
			c5.6-4.3,11.9-6.7,18.8-7.8c21.7-3.3,42.7,13.1,44.8,35c0.4,4.2,0.3,8.4-0.5,12.6c-0.1,0.7-0.1,1.4,0.3,2.1
			c2.5,3.8,2.8,8,1.6,12.3c-1.3,5.2-4.3,9.5-9,12.3c-4.7,2.8-9.4,3.3-14.2,0c-0.7-0.5-1.6-1-2.3-1.4c-1-0.6-1.4-0.3-1.6,0.8
			c-0.1,0.4-0.1,0.7-0.1,1.1c-0.7,5.2-2.6,9.9-7.2,13c-0.7,0.5-0.5,1-0.2,1.6c1,2.2,1.9,4.3,2.8,6.4c1.9,4.3,2.1,9,1.9,13.6
			c-0.1,1.4-1,1.9-2.2,2.1C337.7,291.2,334.1,291.4,331,291.5z M327.7,253.7c1.2-0.1,2.4-0.1,3.6-0.2c8.8-1.2,16-5.3,21.6-12.1
			c6.1-7.3,9.1-15.7,8-25.3c-1.9-17.6-20.1-29.6-37.1-24.4c-12.4,3.7-22,15.8-23.4,29.1c-0.1,1.1,0.1,1.9,0.8,2.8
			c3.3,3.9,7.2,6.9,11.5,9.7c0.7,0.4,1.3,0.5,2,0.2c1.4-0.7,2.8-0.4,4.2,0.4c1.9,1.2,3.7,2.3,5.6,3.5c2.5,1.6,3.1,4,1.6,6.4
			c-1.5,2.4-3.9,2.9-6.4,1.4c-1.9-1.1-3.7-2.3-5.6-3.5c-1.3-0.8-2.1-1.9-2.2-3.4c0-0.9-0.4-1.5-1.2-2c-3.2-2.1-6.4-4.3-9-7.1
			c-0.3-0.3-0.5-0.7-1-0.4c-0.4,0.2-0.2,0.7-0.1,1.1C303.1,244.8,314.7,253.8,327.7,253.7z M367.3,218.8c-0.1-1.7-0.1-3.4-0.4-5.1
			c-3.6-24.8-31.6-37.7-52.7-24.4c-0.5,0.3-1.3,0.5-1.3,1.3c0.1,0.7,0.8,0.9,1.4,1.2c0.7,0.3,1.1-0.2,1.6-0.4
			c13.9-7.8,29.4-4.5,39.5,5.8c6.4,6.4,9.3,14.3,9,23.4c0,0.7-0.1,1.3,0,2c0.1,1,1,1.6,1.8,1.6c0.9,0.1,0.7-0.9,0.7-1.5
			C367.2,221.4,367.3,220,367.3,218.8z M311.1,262.2c5.2,0,9.7-0.7,13.7-3.4c0.5-0.4,1.6-0.6,1.4-1.3c-0.1-0.7-1.2-0.4-1.8-0.5
			c-6.4-0.7-12-3.1-17-7.4c-2.2-1.9-4-4.2-5.7-6.6c-0.1-0.2-0.3-0.7-0.7-0.5c-0.1,0.1-0.3,0.4-0.4,0.7c-0.1,0.2-0.1,0.4-0.1,0.7
			c-0.9,6.3,1.2,11.8,4.1,17.1c0.3,0.6,0.9,0.9,1.6,0.9C308.2,262,310,262.1,311.1,262.2z"/>
		<path class="st2" d="M327.7,253.7c-12.9,0.1-24.7-9-27.1-24c-0.1-0.4-0.2-0.9,0.1-1.1c0.4-0.3,0.7,0.2,1,0.4c2.8,2.7,5.8,5,9,7.1
			c0.7,0.4,1.1,1,1.2,2c0.1,1.5,0.8,2.7,2.2,3.4c1.9,1.1,3.7,2.3,5.6,3.5c2.5,1.6,4.9,1,6.4-1.4c1.5-2.4,0.9-4.8-1.6-6.4
			c-1.9-1.2-3.7-2.3-5.6-3.5c-1.3-0.8-2.8-1-4.2-0.4c-0.7,0.4-1.4,0.2-2-0.2c-4.3-2.8-8.2-5.8-11.5-9.7c-0.7-0.8-1-1.6-0.8-2.8
			c1.3-13.4,11-25.4,23.4-29.1c17-5.1,35.1,6.9,37.1,24.4c1,9.6-1.9,18-8,25.3c-5.6,6.7-12.8,10.9-21.6,12.1
			C330.1,253.7,328.9,253.7,327.7,253.7z"/>
		<path class="st2" d="M367.3,218.8c-0.1,1.3-0.1,2.6-0.2,4c-0.1,0.5,0.1,1.6-0.7,1.5c-0.8-0.1-1.7-0.6-1.8-1.6c-0.1-0.7,0-1.3,0-2
			c0.2-9-2.7-17-9-23.4c-10.1-10.3-25.6-13.6-39.5-5.8c-0.5,0.3-1,0.8-1.6,0.4c-0.5-0.3-1.3-0.5-1.4-1.2c-0.1-0.7,0.7-1,1.3-1.3
			c21.1-13.4,49.2-0.4,52.7,24.4C367.2,215.4,367.3,217.1,367.3,218.8z"/>
		<path class="st2" d="M311.1,262.2c-1.2-0.1-2.9-0.1-4.6-0.3c-0.7-0.1-1.3-0.3-1.6-0.9c-2.8-5.4-4.9-10.9-4.1-17.1
			c0-0.2,0-0.4,0.1-0.7c0.1-0.2,0.1-0.6,0.4-0.7c0.4-0.1,0.5,0.3,0.7,0.5c1.6,2.5,3.4,4.7,5.7,6.6c4.9,4.3,10.5,6.6,17,7.4
			c0.7,0.1,1.6-0.1,1.8,0.5c0.1,0.7-0.9,0.9-1.4,1.3C320.9,261.4,316.4,262.2,311.1,262.2z"/>
	</g>
</g>
</svg>
