<?xml version="1.0" encoding="utf-8"?>
<!-- Generator: Adobe Illustrator 25.4.1, SVG Export Plug-In . SVG Version: 6.00 Build 0)  -->
<svg version="1.1" id="Calque_1" xmlns="http://www.w3.org/2000/svg" xmlns:xlink="http://www.w3.org/1999/xlink" x="0px" y="0px"
	 viewBox="0 0 500 500" style="enable-background:new 0 0 500 500;" xml:space="preserve">
<style type="text/css">
	.st0{fill:#1D1D1B;}
	.st1{fill:#3F3F3F;}
	.st2{fill:#BFBFBF;}
</style>
<g>
	<g id="Fg5NEB_00000098183805819532884640000009341190737004205463_">
		<g>
			<path class="st0" d="M268.3,207.1c7.2-7.3,16.6-11.8,27-13.9c9.2-1.9,18.6-2.9,28.1-2.6c12.8,0.5,25.3,2.3,37.8,5.1
				c18,4,36,8.5,54,12.6c1.8,0.4,3.7,0.5,5.6,0.5c9.9,0.2,19.7,0.3,29.6,0.3c12.9,0,25.8-0.2,38.7-0.3c7.1,0,10.9,3.9,10.9,11
				c0,28.4,0,56.9,0,85.3c0,7.6-3.8,11.4-11.4,11.3c-12.2,0-24.5-0.1-36.7-0.2c-6.5,0-13.1-0.1-19.6-0.1c-3.4,0-6.7,0-10.1-0.1
				c-2.5-0.1-4.6,0.6-6.3,2.6c-5.1,6.1-10.6,12-15.3,18.4c-11.3,15.7-26.7,23.8-45.7,25.1c-6.4,0.5-12.8,0.6-19.1,0
				c-4.9-0.5-10-1.7-14.5-3.7c-7.6-3.4-13.5-9-15.9-17.4c-0.3-1.2-0.4-2.9-1.2-3.5c-0.8-0.6-2.4,0.1-3.7,0.1
				c-10.9,0.1-21-2.4-29.6-9.4c-7.3-5.9-11.7-13.8-14.7-22.5c-3.5-10.3-4.7-20.9-5.1-31.7c-0.4-14-0.2-28,3.4-41.7
				C256.9,223,261,214.4,268.3,207.1z M312.3,337.1c1.6,3.1,2.6,6.6,4.8,8.8c2.7,2.8,5.8,5.5,10,6.3c3.7,0.7,7.3,2.3,11,2.4
				c6.5,0.2,13.1-0.2,19.6-0.9c14.4-1.5,26-8,34.8-19.7c6-7.9,11.6-16.2,19.3-22.7c0.6-0.5,0.9-1.7,0.9-2.5c0-3.4-0.3-6.9-0.3-10.3
				c0-26.7,0-53.4,0-80.1c0-1.7-0.6-2.3-2.2-2.7c-7.2-1.7-14.4-3.6-21.6-5.3c-19.4-4.7-38.8-9.5-58.8-11.1
				c-5.2-0.4-10.6-0.8-15.8-0.6c-4.9,0.2-9.8,1-14.7,1.9c-19.2,3.6-31.9,14.4-36.9,33.6c-2.8,11-3.4,22.1-3.3,33.4
				c0.1,12.2,1,24.3,5,36c3,8.6,7.6,15.9,15.6,20.8c7.4,4.5,15.7,5.4,24,5.2c7.7-0.2,15.4-1.7,23.1-2.8c4.8-0.7,9.5-1.9,14.2-2.8
				c2.4-0.5,4.3,0.5,5,2.5c0.9,2.4-0.4,4.9-3.3,5.5c-4.8,1.1-9.5,2.1-14.3,2.8C323.4,335.7,318.2,336.3,312.3,337.1z M478.4,217
				c0,1.3-0.1,2.2-0.1,3c0,21.3,0,42.5,0,63.8c0,4.4-1.2,5.6-5.6,5.6c-11,0-22,0-32.9,0c-4.2,0-5.5-1.3-5.5-5.5
				c0-17.9,0-35.9,0-53.8c0-4.2,0.3-8.5,0.4-12.4c-5-0.1-9.3-0.1-13.9-0.2c0,30.2,0.1,60.4,0.1,91c7.3-0.1,14.4-0.2,21.4-0.2
				c15.3,0,30.6,0,46,0c3.2,0,3.5-0.3,3.5-3.5c0-20.5,0-40.9,0-61.4c0-7.7,0-15.5,0-23.2c0-1.3,0.2-2.9-1.8-3
				C486.1,217,482.3,217,478.4,217z M442.7,216.8c-0.1,1.2-0.2,1.8-0.2,2.4c0,19.9,0,39.8-0.1,59.7c0,1.6,0.5,2.2,2.2,2.2
				c7.8-0.1,15.6,0,23.5,0c0.6,0,1.2-0.2,1.9-0.2c0.1-0.8,0.1-1.4,0.1-2c0-16.8,0-33.6,0-50.5c0-3.4,0-6.7-0.1-10.1
				c0-0.5-0.9-1.5-1.4-1.5c-4.1,0-8.3,0.2-12.4,0.4c-0.6,0-1.1,0-1.7,0C450.6,217,446.7,216.9,442.7,216.8z"/>
			<path class="st1" d="M312.3,337.1c5.9-0.8,11.1-1.3,16.3-2.2c4.8-0.8,9.6-1.7,14.3-2.8c2.9-0.7,4.2-3.1,3.3-5.5
				c-0.8-2-2.6-3-5-2.5c-4.7,0.9-9.4,2.1-14.2,2.8c-7.7,1.1-15.4,2.6-23.1,2.8c-8.3,0.2-16.6-0.6-24-5.2c-8-4.9-12.6-12.2-15.6-20.8
				c-4-11.6-4.9-23.8-5-36c-0.1-11.2,0.5-22.4,3.3-33.4c5-19.2,17.7-30,36.9-33.6c4.8-0.9,9.8-1.7,14.7-1.9
				c5.2-0.2,10.6,0.1,15.8,0.6c20,1.6,39.4,6.4,58.8,11.1c7.2,1.7,14.4,3.6,21.6,5.3c1.6,0.4,2.2,1,2.2,2.7c0,26.7-0.1,53.4,0,80.1
				c0,3.4,0.3,6.9,0.3,10.3c0,0.9-0.3,2-0.9,2.5c-7.7,6.5-13.3,14.7-19.3,22.7c-8.8,11.7-20.4,18.2-34.8,19.7
				c-6.5,0.7-13.1,1.1-19.6,0.9c-3.7-0.1-7.3-1.7-11-2.4c-4.2-0.8-7.3-3.5-10-6.3C314.9,343.6,313.9,340.2,312.3,337.1z"/>
			<path class="st1" d="M478.4,217c3.9,0.1,7.7,0.1,11.5,0.2c2,0.1,1.8,1.7,1.8,3c0,7.7,0,15.5,0,23.2c0,20.5,0,40.9,0,61.4
				c0,3.3-0.2,3.5-3.5,3.5c-15.3,0-30.6,0-46,0c-7.1,0-14.1,0.2-21.4,0.2c0-30.6-0.1-60.8-0.1-91c4.5,0.1,8.8,0.1,13.9,0.2
				c-0.1,3.9-0.4,8.1-0.4,12.4c0,17.9,0,35.9,0,53.8c0,4.2,1.4,5.5,5.5,5.5c11,0,22,0,32.9,0c4.4,0,5.6-1.2,5.6-5.6
				c0-21.3,0-42.5,0-63.8C478.3,219.1,478.4,218.3,478.4,217z"/>
			<path class="st1" d="M442.7,216.8c4,0.1,7.9,0.2,11.9,0.4c0.6,0,1.1,0,1.7,0c4.1-0.1,8.3-0.3,12.4-0.4c0.5,0,1.3,1,1.4,1.5
				c0.1,3.4,0.1,6.7,0.1,10.1c0,16.8,0,33.6,0,50.5c0,0.6-0.1,1.2-0.1,2c-0.6,0.1-1.2,0.2-1.9,0.2c-7.8,0-15.6,0-23.5,0
				c-1.7,0-2.2-0.6-2.2-2.2c0-19.9,0-39.8,0.1-59.7C442.5,218.6,442.6,218,442.7,216.8z"/>
		</g>
	</g>
	<g id="Fg5NEB_00000093150865563895104790000017160681307466153634_">
		<g>
			<path class="st0" d="M247.2,223.6c3.6,13.7,3.8,27.7,3.4,41.7c-0.3,10.8-1.6,21.4-5.1,31.7c-3,8.8-7.4,16.6-14.7,22.5
				c-8.6,7-18.7,9.5-29.6,9.4c-1.3,0-2.9-0.7-3.7-0.1c-0.8,0.6-0.9,2.3-1.2,3.5c-2.4,8.5-8.3,14-15.9,17.4c-4.5,2-9.6,3.3-14.5,3.7
				c-6.3,0.6-12.8,0.5-19.1,0c-19-1.4-34.4-9.4-45.7-25.1c-4.6-6.5-10.2-12.3-15.3-18.4c-1.7-2-3.8-2.7-6.3-2.6
				c-3.4,0.1-6.7,0-10.1,0.1c-6.5,0-13.1,0.1-19.6,0.1c-12.2,0.1-24.5,0.1-36.7,0.2c-7.6,0-11.4-3.7-11.4-11.3c0-28.4,0-56.9,0-85.3
				c0-7.1,3.9-11.1,10.9-11c12.9,0.1,25.8,0.3,38.7,0.3c9.9,0,19.7-0.2,29.6-0.3c1.9,0,3.8-0.1,5.6-0.5c18-4.2,36-8.6,54-12.6
				c12.4-2.8,25-4.6,37.8-5.1c9.5-0.3,18.8,0.7,28.1,2.6c10.4,2.1,19.8,6.6,27,13.9C240.7,205.6,244.7,214.2,247.2,223.6z
				 M173.1,326.1c-4.8-0.8-9.6-1.7-14.3-2.8c-2.9-0.7-4.2-3.1-3.3-5.5c0.8-2,2.6-3,5-2.5c4.7,0.9,9.4,2.1,14.2,2.8
				c7.7,1.1,15.4,2.6,23.1,2.8c8.3,0.2,16.6-0.6,24-5.2c8-4.9,12.6-12.2,15.6-20.8c4-11.6,4.9-23.8,5-36c0.1-11.2-0.5-22.4-3.3-33.4
				c-5-19.2-17.7-30-36.9-33.6c-4.8-0.9-9.8-1.7-14.7-1.9c-5.2-0.2-10.6,0.1-15.8,0.6c-20,1.6-39.4,6.4-58.8,11.1
				c-7.2,1.7-14.4,3.6-21.6,5.3c-1.6,0.4-2.2,1-2.2,2.7c0,26.7,0.1,53.4,0,80.1c0,3.4-0.3,6.9-0.3,10.3c0,0.9,0.3,2,0.9,2.5
				c7.7,6.5,13.3,14.7,19.3,22.7c8.8,11.7,20.4,18.2,34.8,19.7c6.5,0.7,13.1,1.1,19.6,0.9c3.7-0.1,7.3-1.7,11-2.4
				c4.2-0.8,7.3-3.5,10-6.3c2.2-2.3,3.2-5.7,4.8-8.8C183.5,327.5,178.3,326.9,173.1,326.1z M11.8,208.3c-2,0.1-1.8,1.7-1.8,3
				c0,7.7,0,15.5,0,23.2c0,20.5,0,40.9,0,61.4c0,3.3,0.2,3.5,3.5,3.5c15.3,0,30.6,0,46,0c7.1,0,14.1,0.2,21.4,0.2
				c0-30.6,0.1-60.8,0.1-91c-4.5,0.1-8.8,0.1-13.9,0.2c0.1,3.9,0.4,8.1,0.4,12.4c0,17.9,0,35.9,0,53.8c0,4.2-1.4,5.5-5.5,5.5
				c-11,0-22,0-32.9,0c-4.4,0-5.6-1.2-5.6-5.6c0-21.3,0-42.5,0-63.8c0-0.9,0-1.7-0.1-3C19.4,208.2,15.6,208.2,11.8,208.3z
				 M47.2,208.3c-0.6,0-1.1,0-1.7,0c-4.1-0.1-8.3-0.3-12.4-0.4c-0.5,0-1.3,1-1.4,1.5c-0.1,3.4-0.1,6.7-0.1,10.1
				c0,16.8,0,33.6,0,50.5c0,0.6,0.1,1.2,0.1,2c0.6,0.1,1.2,0.2,1.9,0.2c7.8,0,15.6,0,23.5,0c1.7,0,2.2-0.6,2.2-2.2
				c0-19.9,0-39.8-0.1-59.7c0-0.6-0.1-1.2-0.2-2.4C55,208.1,51.1,208.2,47.2,208.3z"/>
			<path class="st1" d="M189.4,328.3c-5.9-0.8-11.1-1.3-16.3-2.2c-4.8-0.8-9.6-1.7-14.3-2.8c-2.9-0.7-4.2-3.1-3.3-5.5
				c0.8-2,2.6-3,5-2.5c4.7,0.9,9.4,2.1,14.2,2.8c7.7,1.1,15.4,2.6,23.1,2.8c8.3,0.2,16.6-0.6,24-5.2c8-4.9,12.6-12.2,15.6-20.8
				c4-11.6,4.9-23.8,5-36c0.1-11.2-0.5-22.4-3.3-33.4c-5-19.2-17.7-30-36.9-33.6c-4.8-0.9-9.8-1.7-14.7-1.9
				c-5.2-0.2-10.6,0.1-15.8,0.6c-20,1.6-39.4,6.4-58.8,11.1c-7.2,1.7-14.4,3.6-21.6,5.3c-1.6,0.4-2.2,1-2.2,2.7
				c0,26.7,0.1,53.4,0,80.1c0,3.4-0.3,6.9-0.3,10.3c0,0.9,0.3,2,0.9,2.5c7.7,6.5,13.3,14.7,19.3,22.7c8.8,11.7,20.4,18.2,34.8,19.7
				c6.5,0.7,13.1,1.1,19.6,0.9c3.7-0.1,7.3-1.7,11-2.4c4.2-0.8,7.3-3.5,10-6.3C186.8,334.8,187.8,331.4,189.4,328.3z"/>
			<path class="st1" d="M23.3,208.2c-3.9,0.1-7.7,0.1-11.5,0.2c-2,0.1-1.8,1.7-1.8,3c0,7.7,0,15.5,0,23.2c0,20.5,0,40.9,0,61.4
				c0,3.3,0.2,3.5,3.5,3.5c15.3,0,30.6,0,46,0c7.1,0,14.1,0.2,21.4,0.2c0-30.6,0.1-60.8,0.1-91c-4.5,0.1-8.8,0.1-13.9,0.2
				c0.1,3.9,0.4,8.1,0.4,12.4c0,17.9,0,35.9,0,53.8c0,4.2-1.4,5.5-5.5,5.5c-11,0-22,0-32.9,0c-4.4,0-5.6-1.2-5.6-5.6
				c0-21.3,0-42.5,0-63.8C23.4,210.3,23.3,209.5,23.3,208.2z"/>
			<path class="st1" d="M59,208c-4,0.1-7.9,0.2-11.9,0.4c-0.6,0-1.1,0-1.7,0c-4.1-0.1-8.3-0.3-12.4-0.4c-0.5,0-1.3,1-1.4,1.5
				c-0.1,3.4-0.1,6.7-0.1,10.1c0,16.8,0,33.6,0,50.5c0,0.6,0.1,1.2,0.1,2c0.6,0.1,1.2,0.2,1.9,0.2c7.8,0,15.6,0,23.5,0
				c1.7,0,2.2-0.6,2.2-2.2c0-19.9,0-39.8-0.1-59.7C59.2,209.8,59.1,209.2,59,208z"/>
		</g>
	</g>
	<g>
		<path class="st2" d="M258.4,77.4c11.2,4.9,13,13.8,12.4,25.1c-1.3,21.9-9.6,56.3-14.8,71.3c-2.4-8.3-4.7-15.7-6.8-23.2
			c-2.1-7.7-4.4-15.4-5.8-23.3c-1.6-9.4-2.6-18.9-3.4-28.3c-0.7-9.3,2.2-17.1,11.3-21.5C253.7,77.4,256.1,77.4,258.4,77.4z"/>
		<path class="st2" d="M273.4,187c4.4-16.4,9-31.9,17.4-46.1c0.8-1.4,1.8-2.8,2.8-4.2c5.2-6.9,13.1-8.2,19.2-3.2
			c6.8,5.5,7.6,12.8,2,19.6C303.3,166.8,288.9,177,273.4,187z"/>
		<path class="st2" d="M236.3,186.9c-15.5-9.7-29.3-20.2-41-33.3c-4.8-5.4-5.3-9.5-2.5-15.1c2.9-5.6,8.1-9,13.8-7.7
			c3.3,0.8,6.8,3,8.9,5.6c9.8,12.5,14.1,27.5,18.5,42.3C234.9,181.2,235.5,183.6,236.3,186.9z"/>
	</g>
</g>
</svg>
