<?xml version="1.0" encoding="utf-8"?>
<!-- Generator: Adobe Illustrator 25.4.1, SVG Export Plug-In . SVG Version: 6.00 Build 0)  -->
<svg version="1.1" id="Calque_1" xmlns="http://www.w3.org/2000/svg" xmlns:xlink="http://www.w3.org/1999/xlink" x="0px" y="0px"
	 viewBox="0 0 500 500" style="enable-background:new 0 0 500 500;" xml:space="preserve">
<style type="text/css">
	.st0{fill:#1D1D1B;}
	.st1{fill:#3F3F3F;}
	.st2{fill:#BFBFBF;}
</style>
<g>
	<g id="Fg5NEB_00000098183805819532884640000009341190737004205463_">
		<g>
			<path class="st0" d="M264.7,207.39c6.17-6.24,14.14-10.04,23-11.84c7.86-1.6,15.85-2.5,23.92-2.21
				c10.86,0.39,21.58,1.95,32.16,4.32c15.36,3.43,30.65,7.2,45.99,10.77c1.55,0.36,3.19,0.4,4.8,0.42c8.4,0.13,16.8,0.29,25.2,0.29
				c10.99-0.01,21.97-0.19,32.96-0.24c6.02-0.03,9.31,3.36,9.31,9.41c0,24.22,0,48.45-0.01,72.67c0,6.49-3.21,9.68-9.69,9.66
				c-10.43-0.03-20.86-0.08-31.28-0.13c-5.57-0.03-11.13-0.08-16.7-0.12c-2.87-0.02-5.74,0.02-8.61-0.06
				c-2.14-0.06-3.95,0.5-5.36,2.2c-4.34,5.22-9.04,10.18-12.99,15.68c-9.63,13.41-22.73,20.25-38.94,21.41
				c-5.41,0.39-10.92,0.51-16.3-0.01c-4.19-0.4-8.51-1.46-12.35-3.18c-6.5-2.91-11.51-7.63-13.54-14.83c-0.29-1.05-0.33-2.49-1.03-3
				c-0.66-0.48-2.04,0.07-3.11,0.07c-9.28,0.06-17.89-2.05-25.23-8.04c-6.2-5.06-9.96-11.74-12.49-19.2
				c-2.96-8.76-4.03-17.84-4.32-27.02c-0.38-11.93-0.18-23.84,2.86-35.49C255.03,220.92,258.48,213.64,264.7,207.39z M302.17,318.1
				c1.39,2.66,2.23,5.59,4.11,7.51c2.31,2.36,4.95,4.68,8.54,5.34c3.16,0.58,6.25,1.95,9.4,2.03c5.56,0.14,11.16-0.2,16.69-0.78
				c12.25-1.3,22.17-6.84,29.66-16.77c5.09-6.75,9.91-13.77,16.45-19.3c0.51-0.43,0.76-1.41,0.76-2.14c0-2.93-0.23-5.86-0.23-8.79
				c-0.02-22.74-0.01-45.48,0.03-68.22c0-1.43-0.51-1.95-1.87-2.27c-6.16-1.44-12.27-3.04-18.42-4.52
				c-16.54-3.97-33.05-8.07-50.07-9.44c-4.47-0.36-8.99-0.67-13.46-0.48c-4.19,0.18-8.38,0.89-12.51,1.66
				c-16.33,3.06-27.17,12.24-31.41,28.62c-2.41,9.33-2.86,18.86-2.8,28.44c0.07,10.4,0.84,20.72,4.28,30.64
				c2.53,7.29,6.48,13.56,13.26,17.72c6.3,3.86,13.38,4.61,20.41,4.4c6.58-0.19,13.15-1.42,19.69-2.39c4.05-0.6,8.05-1.6,12.07-2.37
				c2.05-0.39,3.63,0.44,4.28,2.13c0.79,2.06-0.3,4.14-2.77,4.71c-4.05,0.93-8.13,1.75-12.22,2.41
				C311.63,316.97,307.19,317.45,302.17,318.1z M443.65,215.8c-0.03,1.11-0.06,1.84-0.06,2.56c-0.01,18.1-0.01,36.2-0.02,54.3
				c0,3.78-1.02,4.79-4.8,4.79c-9.35,0.01-18.7,0-28.05,0c-3.56,0-4.71-1.12-4.72-4.69c-0.01-15.27-0.03-30.54,0.01-45.82
				c0.01-3.61,0.22-7.21,0.33-10.55c-4.3-0.06-7.95-0.11-11.8-0.16c0.03,25.72,0.07,51.43,0.1,77.53c6.22-0.07,12.24-0.19,18.25-0.2
				c13.05-0.03,26.1,0,39.14,0c2.76,0,2.95-0.23,2.95-3.01c-0.01-17.43,0-34.85,0-52.28c0-6.59,0.01-13.19,0-19.78
				c0-1.13,0.13-2.49-1.55-2.54C450.22,215.86,447,215.85,443.65,215.8z M413.21,215.63c-0.08,1.03-0.15,1.56-0.15,2.08
				c-0.01,16.95-0.01,33.9-0.05,50.84c0,1.38,0.41,1.87,1.84,1.86c6.66-0.06,13.32-0.02,19.98-0.03c0.51,0,1.02-0.13,1.58-0.2
				c0.05-0.67,0.12-1.2,0.12-1.73c0.01-14.32,0.01-28.65,0-42.97c0-2.87,0.03-5.74-0.08-8.6c-0.02-0.46-0.76-1.27-1.16-1.26
				c-3.52,0.02-7.04,0.19-10.55,0.3c-0.47,0.02-0.94,0.01-1.41,0C419.96,215.83,416.62,215.73,413.21,215.63z"/>
			<path class="st1" d="M302.17,318.1c5.02-0.66,9.46-1.13,13.86-1.85c4.1-0.66,8.18-1.48,12.22-2.41c2.47-0.57,3.56-2.66,2.77-4.71
				c-0.65-1.69-2.23-2.53-4.28-2.13c-4.03,0.77-8.02,1.77-12.07,2.37c-6.54,0.97-13.11,2.2-19.69,2.39
				c-7.04,0.21-14.11-0.54-20.41-4.4c-6.78-4.16-10.73-10.43-13.26-17.72c-3.44-9.92-4.21-20.24-4.28-30.64
				c-0.06-9.57,0.39-19.1,2.8-28.44c4.24-16.38,15.08-25.56,31.41-28.62c4.13-0.78,8.32-1.48,12.51-1.66
				c4.47-0.19,8.99,0.12,13.46,0.48c17.02,1.37,33.54,5.47,50.07,9.44c6.15,1.48,12.27,3.07,18.42,4.52
				c1.36,0.32,1.87,0.83,1.87,2.27c-0.04,22.74-0.05,45.48-0.03,68.22c0,2.93,0.23,5.86,0.23,8.79c0,0.73-0.25,1.71-0.76,2.14
				c-6.54,5.54-11.36,12.55-16.45,19.3c-7.49,9.93-17.41,15.47-29.66,16.77c-5.53,0.59-11.13,0.92-16.69,0.78
				c-3.14-0.08-6.24-1.45-9.4-2.03c-3.59-0.66-6.23-2.98-8.54-5.34C304.4,323.69,303.56,320.76,302.17,318.1z"/>
			<path class="st1" d="M443.65,215.8c3.36,0.05,6.57,0.06,9.78,0.16c1.68,0.05,1.55,1.41,1.55,2.54c0.02,6.59,0,13.19,0,19.78
				c0,17.43-0.01,34.85,0,52.28c0,2.78-0.19,3.01-2.95,3.01c-13.05,0-26.1-0.03-39.14,0c-6.01,0.01-12.03,0.13-18.25,0.2
				c-0.03-26.1-0.07-51.81-0.1-77.53c3.85,0.05,7.5,0.1,11.8,0.16c-0.11,3.33-0.32,6.94-0.33,10.55
				c-0.04,15.27-0.02,30.54-0.01,45.82c0,3.57,1.15,4.7,4.72,4.69c9.35,0,18.7,0.01,28.05,0c3.78,0,4.8-1.01,4.8-4.79
				c0.02-18.1,0.02-36.2,0.02-54.3C443.59,217.64,443.62,216.91,443.65,215.8z"/>
			<path class="st1" d="M413.21,215.63c3.41,0.1,6.76,0.2,10.11,0.3c0.47,0.01,0.94,0.02,1.41,0c3.52-0.12,7.04-0.29,10.55-0.3
				c0.4,0,1.14,0.81,1.16,1.26c0.12,2.86,0.08,5.73,0.08,8.6c0,14.32,0,28.65,0,42.97c0,0.53-0.07,1.06-0.12,1.73
				c-0.55,0.07-1.06,0.2-1.58,0.2c-6.66,0.01-13.32-0.03-19.98,0.03c-1.42,0.01-1.84-0.48-1.84-1.86
				c0.04-16.95,0.03-33.9,0.05-50.84C413.05,217.18,413.13,216.66,413.21,215.63z"/>
		</g>
	</g>
	<g id="Fg5NEB_00000093150865563895104790000017160681307466153634_">
		<g>
			<path class="st0" d="M246.73,221.42c3.04,11.66,3.24,23.56,2.86,35.49c-0.29,9.18-1.36,18.26-4.32,27.02
				c-2.52,7.46-6.28,14.14-12.49,19.2c-7.35,5.99-15.95,8.1-25.23,8.04c-1.07-0.01-2.45-0.56-3.11-0.07c-0.7,0.51-0.73,1.96-1.03,3
				c-2.03,7.21-7.04,11.92-13.54,14.83c-3.84,1.72-8.16,2.78-12.35,3.18c-5.39,0.52-10.89,0.39-16.3,0.01
				c-16.21-1.16-29.31-8-38.94-21.41c-3.95-5.5-8.65-10.46-12.99-15.68c-1.41-1.7-3.22-2.26-5.36-2.2
				c-2.87,0.08-5.74,0.04-8.61,0.06c-5.57,0.04-11.13,0.1-16.7,0.12c-10.43,0.05-20.86,0.1-31.28,0.13
				c-6.48,0.02-9.68-3.18-9.69-9.66c-0.01-24.22-0.01-48.45-0.01-72.67c0-6.05,3.3-9.44,9.31-9.41c10.99,0.05,21.97,0.23,32.96,0.24
				c8.4,0.01,16.8-0.16,25.2-0.29c1.6-0.03,3.25-0.06,4.8-0.42c15.33-3.57,30.62-7.34,45.99-10.77c10.58-2.36,21.3-3.93,32.16-4.32
				c8.07-0.29,16.05,0.61,23.92,2.21c8.86,1.8,16.83,5.6,23,11.84C241.19,206.14,244.64,213.42,246.73,221.42z M183.65,308.76
				c-4.1-0.66-8.18-1.48-12.22-2.41c-2.47-0.57-3.56-2.66-2.77-4.71c0.65-1.69,2.23-2.53,4.28-2.13c4.03,0.77,8.02,1.77,12.07,2.37
				c6.54,0.97,13.11,2.2,19.69,2.39c7.04,0.21,14.11-0.54,20.41-4.4c6.78-4.16,10.73-10.43,13.26-17.72
				c3.44-9.92,4.21-20.24,4.28-30.64c0.06-9.57-0.39-19.1-2.8-28.44c-4.24-16.38-15.08-25.56-31.41-28.62
				c-4.13-0.78-8.32-1.48-12.51-1.66c-4.47-0.19-8.99,0.12-13.46,0.48c-17.02,1.37-33.54,5.47-50.07,9.44
				c-6.15,1.48-12.27,3.07-18.42,4.52c-1.36,0.32-1.87,0.83-1.87,2.27c0.04,22.74,0.05,45.48,0.03,68.22c0,2.93-0.23,5.86-0.23,8.79
				c0,0.73,0.25,1.71,0.76,2.14c6.54,5.54,11.36,12.55,16.45,19.3c7.49,9.93,17.41,15.47,29.66,16.77
				c5.53,0.59,11.13,0.92,16.69,0.78c3.14-0.08,6.24-1.45,9.4-2.03c3.59-0.66,6.23-2.98,8.54-5.34c1.88-1.92,2.72-4.86,4.11-7.51
				C192.49,309.95,188.05,309.47,183.65,308.76z M46.25,208.46c-1.68,0.05-1.55,1.41-1.55,2.54c-0.02,6.59,0,13.19,0,19.78
				c0,17.43,0.01,34.85,0,52.28c0,2.78,0.19,3.01,2.95,3.01c13.05,0,26.1-0.03,39.14,0c6.01,0.01,12.03,0.13,18.25,0.2
				c0.03-26.1,0.07-51.81,0.1-77.53c-3.85,0.05-7.5,0.1-11.8,0.16c0.11,3.33,0.32,6.94,0.33,10.55c0.04,15.27,0.02,30.54,0.01,45.82
				c0,3.57-1.15,4.69-4.72,4.69c-9.35,0-18.7,0.01-28.05,0c-3.78,0-4.8-1.01-4.8-4.79c-0.02-18.1-0.02-36.2-0.02-54.3
				c0-0.73-0.03-1.45-0.06-2.56C52.67,208.35,49.46,208.36,46.25,208.46z M76.37,208.42c-0.47,0.01-0.94,0.02-1.41,0
				c-3.52-0.12-7.04-0.29-10.55-0.3c-0.4,0-1.14,0.81-1.16,1.26c-0.12,2.86-0.08,5.73-0.08,8.6c0,14.32,0,28.65,0,42.97
				c0,0.53,0.07,1.06,0.12,1.73c0.55,0.07,1.06,0.2,1.58,0.2c6.66,0.01,13.32-0.03,19.98,0.03c1.42,0.01,1.84-0.48,1.84-1.86
				c-0.04-16.95-0.03-33.9-0.05-50.84c0-0.53-0.07-1.05-0.15-2.08C83.06,208.23,79.71,208.33,76.37,208.42z"/>
			<path class="st1" d="M197.51,310.61c-5.02-0.66-9.46-1.13-13.86-1.85c-4.1-0.66-8.18-1.48-12.22-2.41
				c-2.47-0.57-3.56-2.66-2.77-4.71c0.65-1.69,2.23-2.53,4.28-2.13c4.03,0.77,8.02,1.77,12.07,2.37c6.54,0.97,13.11,2.2,19.69,2.39
				c7.04,0.21,14.11-0.54,20.41-4.4c6.78-4.16,10.73-10.43,13.26-17.72c3.44-9.92,4.21-20.24,4.28-30.64
				c0.06-9.57-0.39-19.1-2.8-28.44c-4.24-16.38-15.08-25.56-31.41-28.62c-4.13-0.78-8.32-1.48-12.51-1.66
				c-4.47-0.19-8.99,0.12-13.46,0.48c-17.02,1.37-33.54,5.47-50.07,9.44c-6.15,1.48-12.27,3.07-18.42,4.52
				c-1.36,0.32-1.87,0.83-1.87,2.27c0.04,22.74,0.05,45.48,0.03,68.22c0,2.93-0.23,5.86-0.23,8.79c0,0.73,0.25,1.71,0.76,2.14
				c6.54,5.54,11.36,12.55,16.45,19.3c7.49,9.93,17.41,15.47,29.66,16.77c5.53,0.59,11.13,0.92,16.69,0.78
				c3.14-0.08,6.24-1.45,9.4-2.03c3.59-0.66,6.23-2.98,8.54-5.34C195.28,316.2,196.12,313.26,197.51,310.61z"/>
			<path class="st1" d="M56.03,208.3c-3.36,0.05-6.57,0.06-9.78,0.16c-1.68,0.05-1.55,1.41-1.55,2.54c-0.02,6.59,0,13.19,0,19.78
				c0,17.43,0.01,34.85,0,52.28c0,2.78,0.19,3.01,2.95,3.01c13.05,0,26.1-0.03,39.14,0c6.01,0.01,12.03,0.13,18.25,0.2
				c0.03-26.1,0.07-51.81,0.1-77.53c-3.85,0.05-7.5,0.1-11.8,0.16c0.11,3.33,0.32,6.94,0.33,10.55c0.04,15.27,0.02,30.54,0.01,45.82
				c0,3.57-1.15,4.69-4.72,4.69c-9.35,0-18.7,0.01-28.05,0c-3.78,0-4.8-1.01-4.8-4.79c-0.02-18.1-0.02-36.2-0.02-54.3
				C56.08,210.14,56.05,209.42,56.03,208.3z"/>
			<path class="st1" d="M86.47,208.13c-3.41,0.1-6.76,0.2-10.11,0.3c-0.47,0.01-0.94,0.02-1.41,0c-3.52-0.12-7.04-0.29-10.55-0.3
				c-0.4,0-1.14,0.81-1.16,1.26c-0.12,2.86-0.08,5.73-0.08,8.6c0,14.32,0,28.65,0,42.97c0,0.53,0.07,1.06,0.12,1.73
				c0.55,0.07,1.06,0.2,1.58,0.2c6.66,0.01,13.32-0.03,19.98,0.03c1.42,0.01,1.84-0.48,1.84-1.86c-0.04-16.95-0.03-33.9-0.05-50.84
				C86.62,209.68,86.55,209.16,86.47,208.13z"/>
		</g>
	</g>
	<g>
		<path class="st2" d="M256.26,96.97c9.53,4.15,11.11,11.76,10.54,21.34c-1.11,18.65-8.2,47.93-12.62,60.74
			c-2.06-7.05-4.01-13.4-5.75-19.8c-1.78-6.58-3.74-13.14-4.9-19.84c-1.38-7.97-2.25-16.06-2.86-24.13
			c-0.6-7.92,1.88-14.58,9.6-18.31C252.27,96.97,254.27,96.97,256.26,96.97z"/>
		<path class="st2" d="M269.07,190.24c3.71-13.96,7.67-27.2,14.8-39.25c0.72-1.22,1.51-2.41,2.36-3.55c4.44-5.88,11.12-7,16.36-2.76
			c5.77,4.66,6.48,10.94,1.67,16.7C294.49,173.07,282.26,181.78,269.07,190.24z"/>
		<path class="st2" d="M237.47,190.21c-13.16-8.23-24.94-17.17-34.89-28.33c-4.11-4.6-4.55-8.11-2.11-12.86
			c2.44-4.74,6.91-7.67,11.79-6.53c2.78,0.65,5.82,2.54,7.58,4.78c8.31,10.62,12.01,23.39,15.79,36.06
			C236.23,185.35,236.72,187.4,237.47,190.21z"/>
	</g>
</g>
</svg>
