<?xml version="1.0" encoding="utf-8"?>
<!-- Generator: Adobe Illustrator 25.4.1, SVG Export Plug-In . SVG Version: 6.00 Build 0)  -->
<svg version="1.1" id="Calque_1" xmlns="http://www.w3.org/2000/svg" xmlns:xlink="http://www.w3.org/1999/xlink" x="0px" y="0px"
	 viewBox="0 0 544.7 500" style="enable-background:new 0 0 544.7 500;" xml:space="preserve">
<style type="text/css">
	.st0{fill:#1C1C1C;}
	.st1{fill:#3F3F3F;}
</style>
<path class="st0" d="M537.96,384.42h-0.23c0.14-0.75,0.21-1.52,0.21-2.27c0.02-46.84,0.02-93.69,0.02-140.53
	c-1.14-5.67-1.86-11.46-3.51-16.98c-4.68-15.69-14.11-27.94-27.86-36.87c-5.83-3.79-11.58-7.71-18.2-10.05
	c-2.51-0.89-5.09-1.55-7.68-2.33c0.12-0.11,0.28-0.31,0.48-0.45c14.88-11.13,23.9-26.02,28.02-43.98
	c2.67-11.62,2.53-23.25,0.09-34.94c-0.5-2.38,0.04-5.02,0.36-7.5c0.7-5.52,2.88-10.63,4.66-15.85c2.28-6.69,3.87-13.54,4.16-20.63
	c0.34-8.25-0.91-16.24-4.08-23.89c-1.59-3.84-3.99-7.14-7.13-10.1c-0.56,0.46-1.17,0.92-1.74,1.42c-10,8.68-21.41,14.37-34.57,16.4
	c-6.74,1.04-13.49,0.89-20.25,0.29c-9.4-0.84-18.79-1.82-28.2-2.39c-6.55-0.4-13.08,0.26-19.37,2.33
	c-10.43,3.45-16.52,10.91-19.4,21.27c-1.98,7.13-2.32,14.43-2.32,21.76c0,0.51-0.03,1.02,0.01,1.52c0.49,6.22-0.79,12.21-2.05,18.27
	c-2.58,12.35-1.72,24.63,1.68,36.75c0.12,0.44,0.23,0.88,0.37,1.41c-12.16,0-24.21,0-36.42,0c0.54-2.08,1.11-4.1,1.57-6.14
	c6.6-29.11,2.07-56.56-12.93-82.19C326.39,36.33,316,27,302.63,21.28c-6.41-2.74-13.14-4.14-20.08-4.65
	c-0.54-0.04-1.08-0.16-1.62-0.25c-3.5,0-7,0-10.5,0c-2.46,0.26-4.92,0.58-7.39,0.77c-18.03,1.32-32.09,9.83-43.12,23.82
	c-10.13,12.86-16.22,27.49-19.13,43.52c-1.67,9.18-2.32,18.45-1.96,27.78c0.32,8.09,1.61,16.01,3.94,23.76
	c0.09,0.3,0.15,0.61,0.26,1.03c-10.94,0-21.78,0-32.82,0c0.17-0.52,0.3-1.02,0.48-1.5c4.08-11.05,5.55-22.44,4.79-34.19
	c-0.16-2.52,0.51-5.11,0.85-7.65c1-7.49,1.83-14.99,1.77-22.56c-0.05-5.33-0.81-10.56-2.85-15.52c-3.76-9.14-10.78-14.4-20.15-16.88
	c-1.44-0.38-2.88-0.98-4.15-1.76c-11.29-7.02-23.54-11.19-36.75-12.63c-10.78-1.18-21.45-0.78-31.81,2.68
	c-19.79,6.61-31.97,20.23-36.97,40.42c-2.46,9.92-3.01,19.99-2.69,30.16c0.12,3.76-0.37,7.55-0.26,11.31
	c0.59,21.1,7.85,39.42,22.97,54.41c1.24,1.23,2.58,2.36,4.06,3.7c-0.61,0.21-1.09,0.39-1.58,0.55
	c-11.87,3.86-23.26,8.82-33.53,15.93c-4.78,3.31-9.32,7.15-13.25,11.42c-3.09,3.35-5.3,7.6-7.51,11.66
	c-5.5,10.11-8.48,21.01-8.51,32.52c-0.08,25.59-0.08,51.17-0.06,76.76c0,10.75,0.01,21.51,0.01,32.26c0,11.01,0.23,22.02-0.08,33.02
	c-0.03,1.1,0.08,2.19,0.29,3.27H4.97l-0.01,73.73H218c-0.59,5.41-1.18,10.82-1.74,16.23c-0.28,2.66-0.36,5.49,0.22,8.07
	c1.75,7.84,9.15,12.75,16.04,12.73c29.07-0.08,58.13-0.1,87.2,0.01c8.37,0.03,17.24-7.38,16.51-17.82
	c-0.42-6.06-1.19-12.09-1.82-18.13c-0.04-0.36-0.08-0.71-0.11-1.07h203.66V384.42z"/>
<path class="st1" d="M329.59,413.55c0.57,0,1.02,0,1.47,0c42.75,0,85.49,0,128.24,0c5.62,0,9.33-3.72,9.33-9.36
	c0-83.14,0-166.28,0-249.42c0-0.73-0.02-1.48-0.16-2.2c-0.93-4.43-4.47-7.12-9.36-7.12c-23.77-0.01-47.54,0-71.31,0
	c-98.85,0-197.7,0-296.55,0c-6.19,0-9.89,3.56-9.89,9.53c0,83.05,0,166.09,0,249.14c0,5.71,3.71,9.43,9.42,9.43
	c43.53,0,87.06,0,130.59,0c0.49,0,0.97,0,1.47,0c0.48-4.32,0.96-8.43,1.4-12.55c1.42-13.04,2.82-26.08,4.25-39.12
	c1.34-12.22,2.7-24.43,4.05-36.64c1.3-11.76,2.53-23.52,3.89-35.27c0.94-8.08,8.1-14.54,16.23-14.58c15.89-0.08,31.78-0.08,47.67,0
	c8.27,0.04,15.42,6.81,16.25,15.04c0.65,6.41,1.35,12.82,2.03,19.23c0.97,9.2,1.95,18.4,2.92,27.6c0.87,8.29,1.74,16.57,2.61,24.86
	c0.97,9.2,1.94,18.4,2.91,27.6C327.9,397.58,328.74,405.45,329.59,413.55z"/>
<path class="st1" d="M276.11,486.91c14.19,0,28.37,0.02,42.56-0.01c6.06-0.01,9.82-4.17,9.21-10.16c-0.9-8.84-1.85-17.67-2.79-26.5
	c-1.43-13.5-2.88-27-4.31-40.5c-1.43-13.55-2.82-27.1-4.25-40.65c-1.34-12.68-2.7-25.35-4.05-38.03c-1.38-13-2.73-26-4.13-39
	c-0.58-5.41-3.97-8.39-9.42-8.4c-5.99-0.01-11.98,0-17.96,0c-9.12,0-18.24-0.02-27.36,0.01c-4.86,0.02-8.32,3.02-8.97,7.83
	c-0.5,3.74-0.87,7.5-1.28,11.25c-1.42,13.04-2.82,26.08-4.25,39.12c-1.52,13.86-3.07,27.72-4.59,41.58
	c-1.61,14.73-3.19,29.47-4.8,44.2c-1.7,15.56-3.44,31.11-5.13,46.66c-0.2,1.82-0.46,3.71-0.18,5.49c0.7,4.45,4.32,7.11,9.28,7.12
	C247.83,486.92,261.97,486.91,276.11,486.91z"/>
<path class="st1" d="M126.86,63.94c-4.02,1.81-7.67,3.43-11.3,5.1c-4.68,2.16-9.35,4.32-14.4,5.51c-4.79,1.13-9.6,1.37-14.67,0.28
	c1.2-1.39,2.21-2.69,3.36-3.86c0.88-0.9,1.02-1.75,0.26-2.84c-4.34,0.73-8.78,1.12-12.84,3.24c-5.65,2.94-10.45,6.85-14.39,11.84
	c-5.81,7.35-9.17,15.88-11.89,24.72c-0.17,0.56-0.23,1.19-0.16,1.77c0.48,4.29,0.69,8.65,1.57,12.86
	c2.83,13.64,9.12,25.47,19.26,35.15c0.37,0.35,0.77,0.66,1.39,1.19c0-1.75-0.06-3.13,0.02-4.5c0.08-1.42,0.14-2.87,0.48-4.24
	c1.93-7.82,8.67-13.01,16.89-13.02c23.07-0.02,46.15-0.01,69.22,0.02c1.03,0,1.53-0.3,1.93-1.26c5.32-12.66,6.91-25.76,4.9-39.35
	c-1.17-7.9-4.88-14.69-8.99-21.31c-1.51-2.43-3.81-3.45-6.65-2.8c-3.22,0.74-6.45,1.51-9.62,2.44c-5.08,1.49-9.91,0.56-14.7-1.2
	c-1.28-0.47-1.66-1.24-1.32-2.56C125.77,68.91,126.24,66.67,126.86,63.94z"/>
<path class="st1" d="M487.85,78.4c-28.55,6.68-57.07,6.62-85.66,0.13c-0.44,0.96-0.88,1.86-1.28,2.78
	c-3.24,7.48-7.27,14.45-12.79,20.52c-0.63,0.69-1.12,1.71-1.24,2.63c-1.36,10.52-0.36,20.83,2.82,30.95
	c0.41,1.31,0.93,1.77,2.36,1.77c22.29-0.05,44.58-0.04,66.87-0.03c1.1,0,2.22-0.02,3.3,0.16c8.69,1.41,14.52,8.04,14.74,16.85
	c0.1,3.91,0.03,7.83,0.03,11.74c0,0.47,0,0.94,0,1.67c0.58-0.41,0.88-0.61,1.16-0.83c4.43-3.51,8.33-7.55,11.58-12.17
	c11.01-15.69,14.93-33.08,12.24-52c-0.1-0.67-0.54-1.37-0.99-1.9c-4.03-4.66-7.41-9.73-10.05-15.3
	C489.88,83.13,488.92,80.84,487.85,78.4z"/>
<path class="st1" d="M251.97,58.84c-0.46,2.18-0.75,4.12-1.29,6c-2.29,8.05-7.62,13.61-14.77,17.59c-1.28,0.71-2,1.66-2.29,3.07
	c-0.74,3.6-1.58,7.19-2.31,10.79c-2.74,13.41-2.18,26.62,2.35,39.61c0.32,0.91,0.72,1.28,1.75,1.28c25.75-0.03,51.5-0.03,77.25,0
	c0.98,0,1.35-0.36,1.65-1.21c4.26-12.27,4.88-24.84,3.17-37.62c-0.22-1.61-1.1-2.49-2.64-2.98c-1.52-0.49-3.12-0.99-4.4-1.89
	c-2.17-1.52-4.12-3.37-6.17-5.07c-0.38-0.32-0.78-0.62-1.17-0.93c-0.1,0.07-0.2,0.14-0.31,0.21c0.75,4.17,1.51,8.34,2.26,12.52
	c-0.7-0.29-1.16-0.72-1.6-1.16c-6.16-6.02-11.32-12.84-15.88-20.12c-0.44-0.7-0.83-1.44-1.32-2.1c-0.29-0.39-0.73-0.67-1.11-0.99
	c0,0.52-0.11,1.08,0.03,1.56c0.35,1.19,0.82,2.34,1.23,3.51c0.91,2.58,1.8,5.17,2.8,8.01C272.61,83.86,259.87,74.52,251.97,58.84z"
	/>
</svg>
