<?xml version="1.0" encoding="utf-8"?>
<!-- Generator: Adobe Illustrator 25.4.1, SVG Export Plug-In . SVG Version: 6.00 Build 0)  -->
<svg version="1.1" id="Calque_1" xmlns="http://www.w3.org/2000/svg" xmlns:xlink="http://www.w3.org/1999/xlink" x="0px" y="0px"
	 viewBox="0 0 500 500" style="enable-background:new 0 0 500 500;" xml:space="preserve">
<style type="text/css">
	.st0{fill:#1D1D1B;}
	.st1{fill:#3F3F3F;}
	.st2{fill:#BFBFBF;}
</style>
<g>
	<g id="Fg5NEB_00000098183805819532884640000009341190737004205463_">
		<g>
			<path class="st0" d="M742.5,432.8c6.17-6.24,14.14-10.04,23-11.84c7.86-1.6,15.85-2.5,23.92-2.21
				c10.86,0.39,21.58,1.95,32.16,4.32c15.36,3.43,30.65,7.2,45.99,10.77c1.55,0.36,3.19,0.4,4.8,0.42c8.4,0.13,16.8,0.29,25.2,0.29
				c10.99-0.01,21.97-0.19,32.96-0.24c6.02-0.03,9.31,3.36,9.31,9.41c0,24.22,0,48.45-0.01,72.67c0,6.49-3.21,9.68-9.69,9.66
				c-10.43-0.03-20.86-0.08-31.28-0.13c-5.57-0.03-11.13-0.08-16.7-0.12c-2.87-0.02-5.74,0.02-8.61-0.06
				c-2.14-0.06-3.95,0.5-5.36,2.2c-4.34,5.22-9.04,10.18-12.99,15.68c-9.63,13.41-22.73,20.25-38.94,21.41
				c-5.41,0.39-10.92,0.51-16.3-0.01c-4.19-0.4-8.51-1.46-12.35-3.18c-6.5-2.91-11.51-7.63-13.54-14.83c-0.29-1.05-0.33-2.49-1.03-3
				c-0.66-0.48-2.04,0.07-3.11,0.07c-9.28,0.06-17.89-2.05-25.23-8.04c-6.2-5.06-9.96-11.74-12.49-19.2
				c-2.96-8.76-4.03-17.84-4.32-27.02c-0.38-11.93-0.18-23.84,2.86-35.49C732.83,446.33,736.28,439.04,742.5,432.8z M779.97,543.51
				c1.39,2.66,2.23,5.59,4.11,7.51c2.31,2.36,4.95,4.68,8.54,5.34c3.16,0.58,6.25,1.95,9.4,2.03c5.56,0.14,11.16-0.2,16.69-0.78
				c12.25-1.3,22.17-6.84,29.66-16.77c5.09-6.75,9.91-13.77,16.45-19.3c0.51-0.43,0.76-1.41,0.76-2.14c0-2.93-0.23-5.86-0.23-8.79
				c-0.02-22.74-0.01-45.48,0.03-68.22c0-1.43-0.51-1.95-1.87-2.27c-6.16-1.44-12.27-3.04-18.42-4.52
				c-16.54-3.97-33.05-8.07-50.07-9.44c-4.47-0.36-8.99-0.67-13.46-0.48c-4.19,0.18-8.38,0.89-12.51,1.66
				c-16.33,3.06-27.17,12.24-31.41,28.62c-2.41,9.33-2.86,18.86-2.8,28.44c0.07,10.4,0.84,20.72,4.28,30.64
				c2.53,7.29,6.48,13.56,13.26,17.72c6.3,3.86,13.38,4.61,20.41,4.4c6.58-0.2,13.15-1.42,19.69-2.39c4.05-0.6,8.05-1.6,12.07-2.37
				c2.05-0.39,3.63,0.44,4.28,2.13c0.79,2.06-0.3,4.14-2.77,4.71c-4.05,0.93-8.13,1.75-12.22,2.41
				C789.42,542.38,784.99,542.86,779.97,543.51z M921.45,441.21c-0.03,1.11-0.06,1.84-0.06,2.56c-0.01,18.1-0.01,36.2-0.02,54.3
				c0,3.78-1.02,4.79-4.8,4.79c-9.35,0.01-18.7,0-28.05,0c-3.56,0-4.71-1.12-4.72-4.69c-0.01-15.27-0.03-30.54,0.01-45.82
				c0.01-3.61,0.22-7.21,0.33-10.55c-4.3-0.06-7.95-0.11-11.8-0.16c0.03,25.72,0.07,51.43,0.1,77.53c6.22-0.07,12.24-0.19,18.25-0.2
				c13.05-0.03,26.1,0,39.14,0c2.76,0,2.95-0.23,2.95-3.01c-0.01-17.43,0-34.85,0-52.28c0-6.59,0.01-13.19,0-19.78
				c0-1.13,0.13-2.49-1.55-2.54C928.02,441.27,924.8,441.26,921.45,441.21z M891,441.03c-0.08,1.03-0.15,1.56-0.15,2.08
				c-0.01,16.95-0.01,33.9-0.05,50.84c0,1.38,0.41,1.87,1.84,1.86c6.66-0.06,13.32-0.02,19.98-0.03c0.51,0,1.02-0.13,1.58-0.2
				c0.05-0.67,0.12-1.2,0.12-1.73c0.01-14.32,0.01-28.65,0-42.97c0-2.87,0.03-5.74-0.08-8.6c-0.02-0.46-0.76-1.27-1.16-1.26
				c-3.52,0.02-7.04,0.19-10.55,0.3c-0.47,0.02-0.94,0.01-1.41,0C897.76,441.24,894.41,441.13,891,441.03z"/>
			<path class="st1" d="M779.97,543.51c5.02-0.66,9.46-1.13,13.86-1.85c4.1-0.66,8.18-1.48,12.22-2.41
				c2.47-0.57,3.56-2.66,2.77-4.71c-0.65-1.69-2.23-2.53-4.28-2.13c-4.03,0.77-8.02,1.77-12.07,2.37
				c-6.54,0.97-13.11,2.2-19.69,2.39c-7.04,0.21-14.11-0.54-20.41-4.4c-6.78-4.16-10.73-10.43-13.26-17.72
				c-3.44-9.92-4.21-20.24-4.28-30.64c-0.06-9.57,0.39-19.1,2.8-28.44c4.24-16.38,15.08-25.56,31.41-28.62
				c4.13-0.77,8.32-1.48,12.51-1.66c4.47-0.19,8.99,0.12,13.46,0.48c17.02,1.37,33.54,5.47,50.07,9.44
				c6.15,1.48,12.27,3.07,18.42,4.52c1.36,0.32,1.87,0.83,1.87,2.27c-0.04,22.74-0.05,45.48-0.03,68.22c0,2.93,0.23,5.86,0.23,8.79
				c0,0.73-0.25,1.71-0.76,2.14c-6.54,5.54-11.36,12.55-16.45,19.3c-7.49,9.93-17.41,15.47-29.66,16.77
				c-5.53,0.59-11.13,0.92-16.69,0.78c-3.14-0.08-6.24-1.45-9.4-2.03c-3.59-0.66-6.23-2.98-8.54-5.34
				C782.19,549.1,781.35,546.17,779.97,543.51z"/>
			<path class="st1" d="M921.45,441.21c3.36,0.05,6.57,0.06,9.78,0.16c1.68,0.05,1.55,1.41,1.55,2.54c0.02,6.59,0,13.19,0,19.78
				c0,17.43-0.01,34.85,0,52.28c0,2.78-0.19,3.01-2.95,3.01c-13.05,0-26.1-0.03-39.14,0c-6.01,0.01-12.03,0.13-18.25,0.2
				c-0.03-26.1-0.07-51.81-0.1-77.53c3.85,0.05,7.5,0.1,11.8,0.16c-0.11,3.33-0.32,6.94-0.33,10.55
				c-0.04,15.27-0.02,30.54-0.01,45.82c0,3.57,1.15,4.69,4.72,4.69c9.35,0,18.7,0.01,28.05,0c3.78,0,4.8-1.01,4.8-4.79
				c0.02-18.1,0.02-36.2,0.02-54.3C921.39,443.05,921.42,442.32,921.45,441.21z"/>
			<path class="st1" d="M891,441.03c3.41,0.1,6.76,0.2,10.11,0.3c0.47,0.01,0.94,0.02,1.41,0c3.52-0.12,7.04-0.29,10.55-0.3
				c0.4,0,1.14,0.81,1.16,1.26c0.12,2.86,0.08,5.73,0.08,8.6c0,14.32,0,28.65,0,42.97c0,0.53-0.07,1.06-0.12,1.73
				c-0.55,0.07-1.06,0.2-1.58,0.2c-6.66,0.01-13.32-0.03-19.98,0.03c-1.42,0.01-1.84-0.48-1.84-1.86
				c0.04-16.95,0.03-33.9,0.05-50.84C890.85,442.59,890.93,442.06,891,441.03z"/>
		</g>
	</g>
	<g id="Fg5NEB_00000093150865563895104790000017160681307466153634_">
		<g>
			<path class="st0" d="M724.53,446.83c3.04,11.66,3.24,23.56,2.86,35.49c-0.29,9.18-1.36,18.26-4.32,27.02
				c-2.52,7.46-6.28,14.14-12.49,19.2c-7.35,5.99-15.95,8.1-25.23,8.04c-1.07-0.01-2.45-0.56-3.11-0.07c-0.7,0.51-0.73,1.96-1.03,3
				c-2.03,7.21-7.04,11.92-13.54,14.83c-3.84,1.72-8.16,2.78-12.35,3.18c-5.39,0.52-10.89,0.39-16.3,0.01
				c-16.21-1.16-29.31-8-38.94-21.41c-3.95-5.5-8.65-10.46-12.99-15.68c-1.41-1.7-3.22-2.26-5.36-2.2
				c-2.87,0.08-5.74,0.04-8.61,0.06c-5.57,0.04-11.13,0.1-16.7,0.12c-10.43,0.05-20.86,0.1-31.28,0.13
				c-6.48,0.02-9.68-3.18-9.69-9.66c-0.01-24.22-0.01-48.45-0.01-72.67c0-6.05,3.3-9.44,9.31-9.41c10.99,0.05,21.97,0.23,32.96,0.24
				c8.4,0.01,16.8-0.16,25.2-0.29c1.6-0.03,3.25-0.06,4.8-0.42c15.33-3.57,30.62-7.34,45.99-10.77c10.58-2.36,21.3-3.93,32.16-4.32
				c8.07-0.29,16.05,0.61,23.92,2.21c8.86,1.8,16.83,5.6,23,11.84C718.99,431.55,722.44,438.83,724.53,446.83z M661.45,534.17
				c-4.1-0.66-8.18-1.48-12.22-2.41c-2.47-0.57-3.56-2.66-2.77-4.71c0.65-1.69,2.23-2.53,4.28-2.13c4.03,0.77,8.02,1.77,12.07,2.37
				c6.54,0.97,13.11,2.2,19.69,2.39c7.04,0.21,14.11-0.54,20.41-4.4c6.78-4.16,10.73-10.43,13.26-17.72
				c3.44-9.92,4.21-20.24,4.28-30.64c0.06-9.57-0.39-19.1-2.8-28.44c-4.24-16.38-15.08-25.56-31.41-28.62
				c-4.13-0.77-8.32-1.48-12.51-1.66c-4.47-0.19-8.99,0.12-13.46,0.48c-17.02,1.37-33.54,5.47-50.07,9.44
				c-6.15,1.48-12.27,3.07-18.42,4.52c-1.36,0.32-1.87,0.83-1.87,2.27c0.04,22.74,0.05,45.48,0.03,68.22c0,2.93-0.23,5.86-0.23,8.79
				c0,0.73,0.25,1.71,0.76,2.14c6.54,5.54,11.36,12.55,16.45,19.3c7.49,9.93,17.41,15.47,29.66,16.77
				c5.53,0.59,11.13,0.92,16.69,0.78c3.14-0.08,6.24-1.45,9.4-2.03c3.59-0.66,6.23-2.98,8.54-5.34c1.88-1.92,2.72-4.86,4.11-7.51
				C670.29,535.36,665.85,534.88,661.45,534.17z M524.05,433.87c-1.68,0.05-1.55,1.41-1.55,2.54c-0.02,6.59,0,13.19,0,19.78
				c0,17.43,0.01,34.85,0,52.28c0,2.78,0.19,3.01,2.95,3.01c13.05,0,26.1-0.03,39.14,0c6.01,0.01,12.03,0.13,18.25,0.2
				c0.03-26.1,0.07-51.81,0.1-77.53c-3.85,0.05-7.5,0.1-11.8,0.16c0.11,3.33,0.32,6.94,0.33,10.55c0.04,15.27,0.02,30.54,0.01,45.82
				c0,3.57-1.15,4.7-4.72,4.69c-9.35,0-18.7,0.01-28.05,0c-3.78,0-4.8-1.01-4.8-4.79c-0.02-18.1-0.02-36.2-0.02-54.3
				c0-0.73-0.03-1.45-0.06-2.56C530.47,433.76,527.26,433.77,524.05,433.87z M554.16,433.83c-0.47,0.01-0.94,0.02-1.41,0
				c-3.52-0.12-7.04-0.29-10.55-0.3c-0.4,0-1.14,0.81-1.16,1.26c-0.12,2.86-0.08,5.73-0.08,8.6c0,14.32,0,28.65,0,42.97
				c0,0.53,0.07,1.06,0.12,1.73c0.55,0.07,1.06,0.2,1.58,0.2c6.66,0.01,13.32-0.03,19.98,0.03c1.42,0.01,1.84-0.48,1.84-1.86
				c-0.04-16.95-0.03-33.9-0.05-50.84c0-0.53-0.07-1.05-0.15-2.08C560.86,433.64,557.51,433.74,554.16,433.83z"/>
			<path class="st1" d="M675.31,536.02c-5.02-0.66-9.46-1.14-13.86-1.85c-4.1-0.66-8.18-1.48-12.22-2.41
				c-2.47-0.57-3.56-2.66-2.77-4.71c0.65-1.69,2.23-2.53,4.28-2.13c4.03,0.77,8.02,1.77,12.07,2.37c6.54,0.97,13.11,2.2,19.69,2.39
				c7.04,0.21,14.11-0.54,20.41-4.4c6.78-4.16,10.73-10.43,13.26-17.72c3.44-9.92,4.21-20.24,4.28-30.64
				c0.06-9.57-0.39-19.1-2.8-28.44c-4.24-16.38-15.08-25.56-31.41-28.62c-4.13-0.77-8.32-1.48-12.51-1.66
				c-4.47-0.19-8.99,0.12-13.46,0.48c-17.02,1.37-33.54,5.47-50.07,9.44c-6.15,1.48-12.27,3.07-18.42,4.52
				c-1.36,0.32-1.87,0.83-1.87,2.27c0.04,22.74,0.05,45.48,0.03,68.22c0,2.93-0.23,5.86-0.23,8.79c0,0.73,0.25,1.71,0.76,2.14
				c6.54,5.54,11.36,12.55,16.45,19.3c7.49,9.93,17.41,15.47,29.66,16.77c5.53,0.59,11.13,0.92,16.69,0.78
				c3.14-0.08,6.24-1.45,9.4-2.03c3.59-0.66,6.23-2.98,8.54-5.34C673.08,541.61,673.92,538.67,675.31,536.02z"/>
			<path class="st1" d="M533.83,433.71c-3.36,0.05-6.57,0.06-9.78,0.16c-1.68,0.05-1.55,1.41-1.55,2.54c-0.02,6.59,0,13.19,0,19.78
				c0,17.43,0.01,34.85,0,52.28c0,2.78,0.19,3.01,2.95,3.01c13.05,0,26.1-0.03,39.14,0c6.01,0.01,12.03,0.13,18.25,0.2
				c0.03-26.1,0.07-51.81,0.1-77.53c-3.85,0.05-7.5,0.1-11.8,0.16c0.11,3.33,0.32,6.94,0.33,10.55c0.04,15.27,0.02,30.54,0.01,45.82
				c0,3.57-1.15,4.7-4.72,4.69c-9.35,0-18.7,0.01-28.05,0c-3.78,0-4.8-1.01-4.8-4.79c-0.02-18.1-0.02-36.2-0.02-54.3
				C533.88,435.55,533.85,434.82,533.83,433.71z"/>
			<path class="st1" d="M564.27,433.54c-3.41,0.1-6.76,0.2-10.11,0.3c-0.47,0.01-0.94,0.02-1.41,0c-3.52-0.12-7.04-0.29-10.55-0.3
				c-0.4,0-1.14,0.81-1.16,1.26c-0.12,2.86-0.08,5.73-0.08,8.6c0,14.32,0,28.65,0,42.97c0,0.53,0.07,1.06,0.12,1.73
				c0.55,0.07,1.06,0.2,1.58,0.2c6.66,0.01,13.32-0.03,19.98,0.03c1.42,0.01,1.84-0.48,1.84-1.86c-0.04-16.95-0.03-33.9-0.05-50.84
				C564.42,435.09,564.35,434.57,564.27,433.54z"/>
		</g>
	</g>
	<g>
		<path class="st2" d="M734.06,322.38c9.53,4.15,11.11,11.76,10.54,21.34c-1.11,18.65-8.2,47.93-12.62,60.74
			c-2.06-7.05-4.01-13.4-5.75-19.8c-1.78-6.58-3.74-13.14-4.9-19.84c-1.38-7.97-2.25-16.06-2.86-24.13
			c-0.6-7.92,1.88-14.58,9.6-18.31C730.07,322.38,732.06,322.38,734.06,322.38z"/>
		<path class="st2" d="M746.87,415.65c3.71-13.96,7.67-27.2,14.8-39.25c0.72-1.22,1.51-2.41,2.36-3.55c4.44-5.88,11.12-7,16.36-2.76
			c5.77,4.66,6.48,10.94,1.67,16.7C772.29,398.48,760.06,407.19,746.87,415.65z"/>
		<path class="st2" d="M715.27,415.62c-13.16-8.23-24.94-17.17-34.89-28.33c-4.11-4.6-4.55-8.11-2.11-12.86
			c2.44-4.74,6.91-7.67,11.79-6.53c2.78,0.65,5.82,2.54,7.58,4.78c8.31,10.62,12.01,23.39,15.79,36.06
			C714.03,410.76,714.52,412.81,715.27,415.62z"/>
	</g>
</g>
<g id="T8oxEr_00000021118510234228688110000002348886373935499427_">
	<g>
		<path class="st0" d="M111.02,95.67c6.77,0,13.54-0.02,20.31,0.02c1.49,0.01,2.7-0.41,3.87-1.36
			c10.06-8.17,20.17-16.27,30.22-24.45c1.72-1.4,3.42-1.76,5.56-1.22c11.42,2.89,22.86,5.67,34.28,8.55
			c1.74,0.44,3.29,0.35,4.96-0.34c15.94-6.61,31.92-13.12,47.84-19.77c2.63-1.1,4.82-1.04,7.31,0.46
			c11.16,6.7,22.42,13.23,33.61,19.88c1.56,0.92,3.01,1.26,4.83,0.97c12.44-2.03,24.9-3.91,37.33-5.96c2.57-0.42,4.48,0.17,6.35,2
			c9.1,8.89,18.32,17.65,27.45,26.51c1.21,1.17,2.55,1.58,4.1,1.72c9.2,0.85,18.41,1.71,27.61,2.57c5.57,0.52,11.13,1.1,16.71,1.55
			c2.34,0.19,3.87,1.26,5.09,3.24c9.8,15.89,19.66,31.74,29.49,47.61c12.75,20.57,25.48,41.16,38.28,61.7
			c1.57,2.52,1.49,4.72-0.02,7.22c-19.92,33.17-39.79,66.37-59.67,99.57c-17.85,29.81-35.72,59.61-53.5,89.46
			c-1.57,2.64-3.47,3.66-6.48,3.41c-14.55-1.2-29.11-2.32-43.66-3.43c-13.09-1-26.18-1.96-39.27-2.96
			c-13.03-1-26.06-2.04-39.09-3.04c-1.99-0.15-3.99-0.4-5.96,0.27c-0.38,0.13-0.82,0.13-1.22,0.11c-11.53-0.75-23.05,0.3-34.57,0.46
			c-5.77,0.08-11.54,0.29-17.31,0.43c-11.95,0.27-23.9,0.5-35.85,0.81c-16.13,0.41-32.25,0.81-48.38,1.38
			c-3.54,0.13-5.56-1.07-7.17-4.3c-14.42-28.94-28.98-57.81-43.5-86.69c-10.37-20.63-20.74-41.25-31.11-61.87
			c-8.36-16.63-16.68-33.28-25.13-49.86c-1.5-2.94-1.41-5.18,0.68-7.88C32.06,167.59,59,132.66,85.93,97.72
			c1.31-1.7,2.81-2.46,4.95-2.44c6.71,0.08,13.43,0.03,20.14,0.03C111.02,95.43,111.02,95.55,111.02,95.67z M229.59,385.14
			l0.07-0.07c-0.11-0.24-0.23-0.48-0.34-0.71c-0.65-1.05-1.27-2.12-1.96-3.14c-18.79-28.1-37.56-56.21-56.44-84.25
			c-2.03-3.01-2.09-5.34-0.2-8.49c23.57-39.15,47.01-78.37,70.49-117.58c14.61-24.4,29.26-48.79,43.81-73.23
			c1.58-2.65,3.47-3.78,6.51-3.22c1.79,0.33,3.63,0.37,5.45,0.54c13.31,1.24,26.61,2.48,39.92,3.73c7.91,0.74,15.82,1.51,23.74,2.24
			c0.67,0.06,1.59,0.38,1.97-0.32c0.43-0.8-0.52-1.2-0.99-1.66c-5.92-5.73-11.89-11.42-17.79-17.17c-1.08-1.05-2.18-1.41-3.66-1.16
			c-5.34,0.89-10.7,1.7-16.05,2.54c-25.13,3.95-50.26,7.9-75.38,11.86c-11.28,1.78-22.56,3.58-33.86,5.31
			c-1.63,0.25-2.46,0.98-2.87,2.58c-0.66,2.62-1.52,5.2-2.29,7.79c-19.88,66.58-39.76,133.16-59.7,199.72
			c-0.63,2.1-0.18,3.35,1.39,4.72c6.33,5.55,12.59,11.19,18.85,16.81c18.04,16.22,36.06,32.45,54.13,48.64
			c1.52,1.36,2.82,3.03,4.75,3.9C229.27,384.74,229.43,384.94,229.59,385.14z M213.67,382.34c0.08-0.02,0.16-0.03,0.25-0.04
			c-0.03-0.05-0.06-0.09-0.09-0.14c-0.3-0.67-0.84-1.13-1.36-1.6c-10.77-9.68-21.56-19.35-32.33-29.03
			c-12.31-11.06-24.58-22.15-36.94-33.15c-2.22-1.97-2.59-4.03-1.77-6.77c6.51-21.59,12.94-43.21,19.39-64.82
			c10.84-36.28,21.67-72.55,32.51-108.83c4.01-13.43,8.06-26.84,11.99-40.29c0.81-2.78,2.26-4.31,5.22-4.63
			c3.45-0.37,6.87-1.04,10.3-1.58c21.81-3.43,43.62-6.86,65.43-10.31c0.61-0.1,1.55,0.03,1.68-0.65c0.14-0.72-0.81-0.88-1.33-1.19
			c-7.3-4.32-14.67-8.52-21.88-12.98c-2.42-1.5-4.41-1.62-7.03-0.53c-23.97,9.98-48,19.83-72.01,29.71
			c-14.54,5.98-29.08,11.97-43.62,17.94c-1.21,0.5-2.13,1.05-2.2,2.6c-0.32,6.94-0.71,13.87-1.09,20.81
			c-0.5,9.05-1.01,18.1-1.53,27.15c-0.54,9.58-1.1,19.15-1.64,28.73c-0.52,9.17-1.02,18.33-1.54,27.5
			c-0.54,9.64-1.1,19.27-1.64,28.91c-0.52,9.17-1.01,18.34-1.53,27.5c-0.54,9.64-1.11,19.27-1.65,28.91
			c-0.52,9.17-0.97,18.34-1.59,27.5c-0.13,1.85,0.32,2.88,1.99,3.78c22.74,12.29,45.44,24.66,68.16,37
			C203.07,376.7,208.37,379.5,213.67,382.34z M374.58,410.86c1.37,0.25,2.29-0.34,3-1.57c1.86-3.21,3.78-6.38,5.69-9.57
			c34.8-58.09,69.58-116.19,104.43-174.25c1.09-1.81,1.13-3.13-0.01-4.94c-8.82-14.07-17.54-28.2-26.29-42.31
			c-12.63-20.37-25.26-40.73-37.88-61.11c-0.86-1.39-1.69-2.53-3.59-2.7c-18.06-1.62-36.11-3.32-54.16-5.01
			c-23.85-2.23-47.71-4.44-71.55-6.77c-2.21-0.22-3.27,0.47-4.34,2.26c-13.28,22.31-26.63,44.59-39.97,66.86
			c-23.65,39.51-47.3,79.02-71.01,118.49c-1.04,1.73-1,2.94,0.13,4.59c5.07,7.38,10,14.85,14.98,22.29
			c18.27,27.31,36.54,54.62,54.77,81.96c0.99,1.49,2.06,2.32,3.93,2.45c9.45,0.65,18.9,1.44,28.35,2.17
			c11.27,0.87,22.54,1.73,33.8,2.6c10.21,0.78,20.42,1.55,30.64,2.33C355.17,409.37,364.86,410.11,374.58,410.86z M221.54,396.13
			c-0.14-0.72-0.81-0.81-1.29-1.08c-14.69-8-29.38-15.98-44.07-23.97c-17.85-9.7-35.7-19.41-53.56-29.08
			c-2.14-1.16-3.21-2.69-3.05-5.23c0.91-15.04,1.75-30.08,2.59-45.13c0.76-13.63,1.46-27.27,2.23-40.9
			c0.88-15.57,1.83-31.14,2.71-46.71c0.77-13.63,1.47-27.27,2.23-40.9c0.92-16.57,1.91-33.14,2.76-49.72c0.16-3.15,1.36-5,4.37-6.22
			c18.67-7.56,37.27-15.27,55.89-22.95c0.73-0.3,1.6-0.41,2.09-1.22c-0.48-0.69-1.24-0.65-1.89-0.82
			c-6.8-1.71-13.61-3.36-20.39-5.13c-1.65-0.43-2.88-0.16-4.2,0.93c-7.1,5.83-14.27,11.58-21.41,17.35
			c-25.7,20.75-51.4,41.51-77.12,62.24c-1.24,1-1.53,1.98-1.17,3.5c12.04,50.82,24.03,101.65,36.04,152.48
			c4.62,19.54,9.25,39.08,13.84,58.62c0.36,1.55,0.9,2.61,2.69,2.99c33.02,6.95,66.02,13.96,99.03,20.94
			C220.38,396.23,220.95,396.57,221.54,396.13z M209.83,402.37c-1.04-0.66-1.93-0.69-2.78-0.87c-30.12-6.4-60.24-12.82-90.39-19.11
			c-3.22-0.67-4.81-2.17-5.56-5.38c-9.43-40.24-18.96-80.47-28.47-120.69c-7.38-31.23-14.78-62.46-22.13-93.69
			c-1.56-6.63-2.27-6.18,3.68-10.97c19.26-15.51,38.49-31.07,57.72-46.61c0.4-0.32,1.14-0.58,1-1.12c-0.18-0.73-0.99-0.44-1.53-0.44
			c-9.07-0.13-18.13-0.2-27.2-0.37c-1.7-0.03-2.83,0.53-3.88,1.89c-25.63,33.26-51.28,66.5-76.99,99.68
			c-1.37,1.76-1.46,3.05-0.47,5.01c15.16,29.95,30.24,59.93,45.32,89.92c17.14,34.09,34.28,68.18,51.34,102.32
			c1.14,2.27,2.42,3.13,4.99,3.05c18.59-0.58,37.19-1.01,55.79-1.47c11.42-0.28,22.84-0.51,34.25-0.79
			C206.21,402.68,207.88,402.5,209.83,402.37z"/>
		<path class="st1" d="M374.58,410.86c-9.72-0.74-19.4-1.49-29.09-2.22c-10.21-0.78-20.42-1.55-30.64-2.33
			c-11.27-0.86-22.54-1.72-33.8-2.6c-9.45-0.73-18.89-1.52-28.35-2.17c-1.87-0.13-2.94-0.96-3.93-2.45
			c-18.23-27.34-36.5-54.65-54.77-81.96c-4.98-7.44-9.91-14.91-14.98-22.29c-1.13-1.65-1.17-2.86-0.13-4.59
			c23.71-39.48,47.35-78.99,71.01-118.49c13.34-22.28,26.69-44.55,39.97-66.86c1.07-1.79,2.13-2.48,4.34-2.26
			c23.84,2.33,47.7,4.54,71.55,6.77c18.05,1.69,36.1,3.39,54.16,5.01c1.9,0.17,2.73,1.31,3.59,2.7
			c12.62,20.38,25.25,40.74,37.88,61.11c8.75,14.11,17.47,28.25,26.29,42.31c1.13,1.81,1.09,3.12,0.01,4.94
			c-34.84,58.06-69.63,116.16-104.43,174.25c-1.91,3.18-3.83,6.35-5.69,9.57C376.87,410.51,375.95,411.11,374.58,410.86z
			 M420.38,276.42c-0.27-55-43.69-98.3-97.77-98.61c-54.39-0.31-98.7,43.86-98.63,98.07c0.07,54.64,43.53,98.27,97.81,98.53
			C376.07,374.66,420.36,330.46,420.38,276.42z M412.02,133.87c-0.18-0.52,0.43-1.33-0.34-1.7c-0.57-0.27-1.09,0.3-1.58,0.6
			c-2.56,1.56-5.14,3.1-7.65,4.74c-1.31,0.86-2.51,1.02-3.96,0.33c-2.82-1.33-5.7-2.54-8.56-3.78c-0.47-0.2-1-0.58-1.48-0.16
			c-0.48,0.41-0.21,1-0.09,1.5c0.76,3.15,1.51,6.3,2.32,9.43c0.33,1.26,0.09,2.23-0.82,3.2c-2.14,2.27-4.18,4.63-6.25,6.96
			c-0.4,0.46-1.17,0.87-0.82,1.6c0.32,0.68,1.13,0.5,1.75,0.55c3.11,0.25,6.21,0.53,9.33,0.69c1.35,0.07,2.14,0.64,2.77,1.78
			c1.58,2.83,3.23,5.61,4.88,8.39c0.28,0.47,0.4,1.28,1.11,1.19c0.56-0.07,0.63-0.79,0.82-1.27c1.22-2.94,2.46-5.86,3.59-8.83
			c0.54-1.41,1.38-2.17,2.89-2.45c3.12-0.58,6.22-1.31,9.32-2c0.49-0.11,1.18-0.08,1.33-0.68c0.14-0.6-0.49-0.89-0.87-1.22
			c-2.49-2.15-4.99-4.31-7.52-6.41c-1.02-0.84-1.34-1.8-1.17-3.1C411.41,140.16,411.69,137.05,412.02,133.87z M431.33,160.87
			c0-0.4,0.18-0.97-0.25-1.27c-0.54-0.37-0.99,0.14-1.43,0.4c-1.51,0.91-3.03,1.81-4.51,2.78c-0.93,0.61-1.81,0.67-2.82,0.19
			c-1.7-0.8-3.45-1.5-5.17-2.28c-1.18-0.54-1.54-0.15-1.26,1.03c0.41,1.72,0.77,3.45,1.27,5.14c0.42,1.41,0.1,2.49-0.91,3.52
			c-1.07,1.09-2.06,2.26-3.06,3.42c-0.34,0.39-0.92,0.73-0.73,1.31c0.22,0.7,0.98,0.57,1.52,0.63c1.58,0.17,3.16,0.32,4.75,0.38
			c1.46,0.06,2.38,0.76,3.03,2.03c0.64,1.25,1.38,2.46,2.13,3.66c0.33,0.52,0.46,1.39,1.2,1.39c0.79-0.01,0.82-0.9,1.07-1.46
			c0.64-1.45,1.26-2.92,1.81-4.41c0.43-1.17,1.18-1.81,2.41-2.04c1.68-0.31,3.34-0.7,5-1.08c0.51-0.11,1.19-0.06,1.38-0.61
			c0.21-0.62-0.49-0.86-0.86-1.19c-1.33-1.17-2.65-2.33-4.03-3.43c-0.93-0.74-1.26-1.63-1.12-2.79
			C430.97,164.44,431.13,162.68,431.33,160.87z M379.75,128.82c-0.02-0.46,0.2-1.07-0.3-1.43c-0.54-0.39-1,0.11-1.43,0.37
			c-1.31,0.78-2.65,1.53-3.9,2.41c-1.31,0.92-2.56,0.97-3.96,0.27c-1.37-0.68-2.78-1.26-4.19-1.86c-0.47-0.2-0.99-0.68-1.47-0.3
			c-0.56,0.44-0.16,1.1-0.03,1.64c0.33,1.43,0.61,2.88,1.06,4.28c0.51,1.56,0.26,2.82-0.92,4c-1.16,1.16-2.21,2.44-3.3,3.67
			c-0.83,0.94-0.6,1.44,0.64,1.53c1.76,0.12,3.51,0.29,5.27,0.38c1.22,0.06,2.1,0.54,2.7,1.65c0.87,1.6,1.82,3.15,2.76,4.72
			c0.2,0.34,0.37,0.81,0.84,0.82c0.61,0.01,0.68-0.57,0.85-0.98c0.65-1.51,1.33-3.02,1.87-4.57c0.5-1.42,1.33-2.24,2.87-2.47
			c1.57-0.23,3.11-0.65,4.65-1.02c0.49-0.12,1.14-0.15,1.25-0.79c0.09-0.53-0.4-0.82-0.75-1.12c-1.29-1.11-2.58-2.23-3.9-3.3
			c-0.96-0.78-1.33-1.7-1.14-2.94C379.46,132.17,379.57,130.52,379.75,128.82z"/>
		<path class="st1" d="M229.11,384.54c-1.93-0.87-3.23-2.54-4.75-3.9c-18.07-16.19-36.09-32.43-54.13-48.64
			c-6.26-5.63-12.51-11.27-18.85-16.81c-1.57-1.37-2.02-2.62-1.39-4.72c19.94-66.56,39.82-133.14,59.7-199.72
			c0.78-2.6,1.63-5.17,2.29-7.79c0.4-1.6,1.24-2.33,2.87-2.58c11.29-1.73,22.57-3.54,33.86-5.31c25.13-3.96,50.26-7.91,75.38-11.86
			c5.35-0.84,10.71-1.65,16.05-2.54c1.48-0.25,2.58,0.11,3.66,1.16c5.91,5.75,11.87,11.44,17.79,17.17
			c0.47,0.45,1.42,0.85,0.99,1.66c-0.38,0.7-1.3,0.38-1.97,0.32c-7.91-0.73-15.82-1.5-23.74-2.24c-13.3-1.25-26.61-2.49-39.92-3.73
			c-1.82-0.17-3.66-0.21-5.45-0.54c-3.04-0.56-4.93,0.57-6.51,3.22c-14.55,24.44-29.19,48.82-43.81,73.23
			c-23.48,39.2-46.92,78.43-70.49,117.58c-1.89,3.14-1.83,5.48,0.2,8.49c18.89,28.03,37.65,56.15,56.44,84.25
			c0.69,1.03,1.31,2.09,1.96,3.14C229.24,384.42,229.18,384.48,229.11,384.54z"/>
		<path class="st1" d="M221.54,396.13c-0.58,0.44-1.15,0.11-1.7-0.01c-33.01-6.98-66.01-13.99-99.03-20.94
			c-1.8-0.38-2.33-1.44-2.69-2.99c-4.59-19.55-9.22-39.08-13.84-58.62c-12.01-50.83-24-101.66-36.04-152.48
			c-0.36-1.52-0.07-2.5,1.17-3.5c25.73-20.72,51.42-41.48,77.12-62.24c7.15-5.77,14.31-11.52,21.41-17.35
			c1.32-1.08,2.55-1.36,4.2-0.93c6.78,1.77,13.59,3.41,20.39,5.13c0.65,0.16,1.42,0.13,1.89,0.82c-0.48,0.81-1.36,0.91-2.09,1.22
			c-18.62,7.68-37.22,15.39-55.89,22.95c-3.02,1.22-4.21,3.07-4.37,6.22c-0.85,16.58-1.84,33.14-2.76,49.72
			c-0.76,13.63-1.46,27.27-2.23,40.9c-0.88,15.57-1.83,31.14-2.71,46.71c-0.77,13.63-1.47,27.27-2.23,40.9
			c-0.84,15.04-1.68,30.09-2.59,45.13c-0.15,2.54,0.92,4.07,3.05,5.23c17.87,9.67,35.71,19.38,53.56,29.08
			c14.69,7.99,29.39,15.97,44.07,23.97C220.73,395.31,221.39,395.41,221.54,396.13z"/>
		<path class="st1" d="M213.67,382.34c-5.29-2.83-10.6-5.64-15.88-8.51c-22.72-12.34-45.42-24.7-68.16-37
			c-1.67-0.9-2.12-1.93-1.99-3.78c0.62-9.16,1.07-18.33,1.59-27.5c0.55-9.64,1.11-19.27,1.65-28.91c0.52-9.17,1.01-18.34,1.53-27.5
			c0.54-9.64,1.1-19.27,1.64-28.91c0.52-9.17,1.02-18.33,1.54-27.5c0.54-9.58,1.1-19.15,1.64-28.73c0.51-9.05,1.03-18.1,1.53-27.15
			c0.38-6.93,0.77-13.87,1.09-20.81c0.07-1.55,0.99-2.1,2.2-2.6c14.55-5.97,29.08-11.95,43.62-17.94
			c24.01-9.88,48.04-19.73,72.01-29.71c2.62-1.09,4.61-0.97,7.03,0.53c7.21,4.46,14.58,8.66,21.88,12.98
			c0.52,0.31,1.48,0.47,1.33,1.19c-0.14,0.68-1.08,0.56-1.68,0.65c-21.81,3.45-43.62,6.88-65.43,10.31
			c-3.43,0.54-6.85,1.21-10.3,1.58c-2.95,0.32-4.4,1.85-5.22,4.63c-3.93,13.45-7.98,26.87-11.99,40.29
			c-10.84,36.28-21.67,72.55-32.51,108.83c-6.45,21.61-12.88,43.22-19.39,64.82c-0.83,2.74-0.45,4.8,1.77,6.77
			c12.36,11,24.63,22.09,36.94,33.15c10.77,9.68,21.56,19.35,32.33,29.03c0.52,0.47,1.07,0.93,1.36,1.6
			C213.77,382.22,213.72,382.28,213.67,382.34z"/>
		<path class="st1" d="M209.83,402.37c-1.95,0.13-3.62,0.31-5.29,0.35c-11.42,0.28-22.84,0.51-34.25,0.79
			c-18.6,0.46-37.2,0.89-55.79,1.47c-2.57,0.08-3.86-0.78-4.99-3.05c-17.06-34.13-34.2-68.22-51.34-102.32
			C43.09,269.62,28,239.64,12.85,209.69c-0.99-1.96-0.9-3.25,0.47-5.01c25.72-33.19,51.36-66.43,76.99-99.68
			c1.04-1.36,2.18-1.92,3.88-1.89c9.07,0.16,18.13,0.24,27.2,0.37c0.54,0.01,1.35-0.28,1.53,0.44c0.14,0.54-0.6,0.8-1,1.12
			c-19.23,15.55-38.46,31.1-57.72,46.61c-5.95,4.79-5.24,4.34-3.68,10.97c7.36,31.24,14.75,62.46,22.13,93.69
			c9.51,40.23,19.04,80.45,28.47,120.69c0.75,3.21,2.34,4.71,5.56,5.38c30.15,6.29,60.26,12.71,90.39,19.11
			C207.9,401.68,208.8,401.71,209.83,402.37z"/>
		<path class="st1" d="M213.82,382.15c0.03,0.05,0.06,0.09,0.09,0.14c-0.08,0.01-0.16,0.03-0.25,0.05
			C213.72,382.28,213.77,382.22,213.82,382.15z"/>
		<path class="st1" d="M229.58,385.14c-0.16-0.2-0.32-0.41-0.47-0.61c0.07-0.06,0.13-0.12,0.2-0.17c0.11,0.24,0.23,0.48,0.34,0.71
			L229.58,385.14z"/>
		<path class="st1" d="M229.66,385.07c0,0-0.07,0.07-0.07,0.07C229.58,385.14,229.66,385.07,229.66,385.07z"/>
		<path class="st0" d="M420.38,276.42c-0.02,54.04-44.31,98.23-98.59,97.98c-54.28-0.25-97.74-43.88-97.81-98.53
			c-0.07-54.21,44.23-98.38,98.63-98.07C376.7,178.12,420.12,221.42,420.38,276.42z M228.51,275.86c-0.1,51.75,41.23,93.67,92.74,94
			c52.31,0.33,94.49-41.44,94.61-93.07c0.12-52.21-41.24-94.17-93.06-94.46C270.56,182.05,228.53,223.94,228.51,275.86z"/>
		<path class="st0" d="M412.02,133.87c-0.33,3.18-0.61,6.29-1,9.38c-0.16,1.3,0.15,2.26,1.17,3.1c2.54,2.1,5.03,4.26,7.52,6.41
			c0.38,0.33,1.02,0.61,0.87,1.22c-0.14,0.6-0.83,0.57-1.33,0.68c-3.1,0.69-6.2,1.42-9.32,2c-1.52,0.28-2.36,1.04-2.89,2.45
			c-1.13,2.97-2.37,5.9-3.59,8.83c-0.2,0.47-0.26,1.2-0.82,1.27c-0.71,0.09-0.83-0.72-1.11-1.19c-1.65-2.78-3.31-5.57-4.88-8.39
			c-0.64-1.14-1.43-1.71-2.77-1.78c-3.11-0.15-6.22-0.44-9.33-0.69c-0.63-0.05-1.43,0.13-1.75-0.55c-0.35-0.74,0.42-1.14,0.82-1.6
			c2.06-2.34,4.11-4.7,6.25-6.96c0.92-0.97,1.15-1.94,0.82-3.2c-0.82-3.13-1.57-6.28-2.32-9.43c-0.12-0.5-0.39-1.08,0.09-1.5
			c0.49-0.42,1.01-0.04,1.48,0.16c2.86,1.24,5.74,2.44,8.56,3.78c1.45,0.69,2.65,0.52,3.96-0.33c2.51-1.64,5.09-3.18,7.65-4.74
			c0.49-0.3,1.01-0.87,1.58-0.6C412.45,132.54,411.84,133.35,412.02,133.87z"/>
		<path class="st0" d="M431.33,160.87c-0.19,1.81-0.36,3.57-0.57,5.32c-0.14,1.15,0.19,2.04,1.12,2.79c1.38,1.1,2.7,2.27,4.03,3.43
			c0.37,0.33,1.07,0.56,0.86,1.19c-0.19,0.55-0.88,0.5-1.38,0.61c-1.67,0.37-3.33,0.77-5,1.08c-1.23,0.23-1.98,0.87-2.41,2.04
			c-0.55,1.49-1.17,2.95-1.81,4.41c-0.25,0.56-0.28,1.45-1.07,1.46c-0.74,0.01-0.87-0.86-1.2-1.39c-0.75-1.2-1.48-2.41-2.13-3.66
			c-0.65-1.27-1.57-1.97-3.03-2.03c-1.59-0.06-3.17-0.21-4.75-0.38c-0.55-0.06-1.3,0.07-1.52-0.63c-0.19-0.58,0.4-0.93,0.73-1.31
			c1-1.15,1.99-2.33,3.06-3.42c1.01-1.03,1.33-2.11,0.91-3.52c-0.5-1.69-0.86-3.42-1.27-5.14c-0.28-1.18,0.07-1.57,1.26-1.03
			c1.71,0.78,3.46,1.48,5.17,2.28c1.01,0.48,1.89,0.42,2.82-0.19c1.48-0.96,2.99-1.87,4.51-2.78c0.43-0.26,0.89-0.76,1.43-0.4
			C431.51,159.89,431.32,160.46,431.33,160.87z"/>
		<path class="st0" d="M379.75,128.82c-0.17,1.7-0.28,3.34-0.53,4.97c-0.19,1.24,0.19,2.16,1.14,2.94c1.32,1.07,2.61,2.19,3.9,3.3
			c0.35,0.3,0.84,0.59,0.75,1.12c-0.11,0.64-0.75,0.68-1.25,0.79c-1.54,0.37-3.08,0.79-4.65,1.02c-1.54,0.23-2.37,1.05-2.87,2.47
			c-0.55,1.55-1.23,3.05-1.87,4.57c-0.17,0.41-0.25,0.99-0.85,0.98c-0.47-0.01-0.64-0.48-0.84-0.82c-0.93-1.57-1.88-3.12-2.76-4.72
			c-0.6-1.1-1.48-1.58-2.7-1.65c-1.76-0.09-3.52-0.26-5.27-0.38c-1.24-0.09-1.48-0.59-0.64-1.53c1.09-1.23,2.14-2.51,3.3-3.67
			c1.18-1.18,1.43-2.44,0.92-4c-0.45-1.39-0.74-2.84-1.06-4.28c-0.13-0.55-0.52-1.2,0.03-1.64c0.48-0.38,1,0.1,1.47,0.3
			c1.41,0.6,2.82,1.18,4.19,1.86c1.4,0.7,2.66,0.65,3.96-0.27c1.25-0.88,2.59-1.63,3.9-2.41c0.43-0.26,0.89-0.76,1.43-0.37
			C379.94,127.75,379.73,128.37,379.75,128.82z"/>
		<path class="st2" d="M228.51,275.86c0.03-51.92,42.06-93.81,94.3-93.52c51.82,0.29,93.17,42.24,93.06,94.46
			c-0.12,51.62-42.29,93.4-94.61,93.07C269.73,369.53,228.41,327.61,228.51,275.86z M322.92,365.3c3.95-0.11,8.64-0.42,13.31-1.16
			c1.61-0.25,2.81-0.88,2.9-2.73c0.3-5.99,0.1-11.9-2.41-17.5c-1.22-2.74-2.39-5.51-3.6-8.26c-0.36-0.81-0.61-1.51,0.33-2.15
			c5.92-4.01,8.35-9.97,9.29-16.75c0.07-0.47,0.14-0.93,0.19-1.4c0.16-1.37,0.8-1.77,2.02-1.01c1,0.62,2.03,1.2,3,1.87
			c6.09,4.22,12.21,3.6,18.24-0.04c6.04-3.65,9.79-9.12,11.57-15.87c1.45-5.49,1.17-10.87-2.14-15.77c-0.59-0.88-0.56-1.75-0.36-2.7
			c1.1-5.35,1.22-10.73,0.69-16.17c-2.75-28.1-29.84-49.22-57.77-45.03c-8.92,1.34-17.02,4.57-24.22,10.02
			c-0.87,0.66-1.72,1.18-2.9,1c-4.28-0.68-8.22,0.43-11.81,2.67c-7.42,4.65-11.61,11.47-12.42,20.14
			c-0.55,5.86,0.97,11.21,6.15,14.73c1.9,1.29,3.22,2.76,4.05,4.88c0.47,1.21,0.41,1.92-0.7,2.64c-4.51,2.94-7.43,7.14-9.38,12.08
			c-1.35,3.41-1.34,3.42-5.08,2.77c-8.18-1.4-16.08-0.68-23.57,3.09c-2.61,1.31-2.86,1.98-2.09,4.8
			c4.3,15.76,12.34,29.33,24.01,40.76c1.5,1.47,1.65,1.44,2.82-0.43c3.62-5.79,7.23-11.59,10.86-17.38
			c0.37-0.59,0.78-1.19,1.27-1.69c0.6-0.62,1.36-0.66,2.1-0.21c0.75,0.46,1.03,1.18,0.73,1.98c-0.29,0.76-0.71,1.48-1.15,2.18
			c-3.67,5.9-7.34,11.8-11.07,17.67c-0.82,1.29-0.71,2.12,0.51,3.12c4.95,4.05,10.28,7.47,15.99,10.34c1.6,0.8,2.51,0.55,3.45-0.99
			c3.55-5.83,7.21-11.61,10.83-17.4c0.44-0.7,0.88-1.4,1.4-2.03c0.64-0.78,1.49-0.97,2.36-0.41c0.88,0.56,1.07,1.37,0.61,2.3
			c-0.26,0.53-0.56,1.03-0.88,1.53c-3.55,5.7-7.11,11.39-10.66,17.09c-1.43,2.29-1.36,2.55,1.16,3.51
			C300.73,363.27,311.27,365.19,322.92,365.3z"/>
		<path class="st1" d="M322.92,365.3c-11.65-0.11-22.2-2.03-32.37-5.92c-2.52-0.96-2.59-1.21-1.16-3.51
			c3.55-5.7,7.11-11.39,10.66-17.09c0.31-0.5,0.62-1.01,0.88-1.53c0.46-0.93,0.26-1.75-0.61-2.3c-0.88-0.56-1.72-0.37-2.36,0.41
			c-0.52,0.63-0.96,1.34-1.4,2.03c-3.62,5.79-7.28,11.56-10.83,17.4c-0.93,1.53-1.85,1.79-3.45,0.99
			c-5.71-2.87-11.04-6.28-15.99-10.34c-1.22-1-1.33-1.83-0.51-3.12c3.73-5.86,7.39-11.77,11.07-17.67c0.43-0.7,0.86-1.42,1.15-2.18
			c0.3-0.8,0.03-1.51-0.73-1.98c-0.74-0.46-1.5-0.41-2.1,0.21c-0.49,0.5-0.9,1.09-1.27,1.69c-3.63,5.79-7.24,11.58-10.86,17.38
			c-1.17,1.87-1.32,1.91-2.82,0.43c-11.67-11.43-19.71-24.99-24.01-40.76c-0.77-2.81-0.52-3.48,2.09-4.8
			c7.49-3.77,15.39-4.5,23.57-3.09c3.74,0.64,3.73,0.63,5.08-2.77c1.95-4.94,4.88-9.13,9.38-12.08c1.12-0.73,1.18-1.43,0.7-2.64
			c-0.83-2.12-2.15-3.58-4.05-4.88c-5.18-3.52-6.7-8.87-6.15-14.73c0.81-8.67,5-15.49,12.42-20.14c3.58-2.24,7.52-3.35,11.81-2.67
			c1.18,0.19,2.03-0.34,2.9-1c7.2-5.45,15.3-8.68,24.22-10.02c27.92-4.19,55.02,16.93,57.77,45.03c0.53,5.44,0.41,10.81-0.69,16.17
			c-0.19,0.95-0.23,1.82,0.36,2.7c3.31,4.89,3.59,10.28,2.14,15.77c-1.78,6.75-5.53,12.22-11.57,15.87
			c-6.03,3.64-12.14,4.26-18.24,0.04c-0.97-0.67-2-1.25-3-1.87c-1.22-0.75-1.86-0.36-2.02,1.01c-0.05,0.47-0.12,0.93-0.19,1.4
			c-0.94,6.78-3.37,12.74-9.29,16.75c-0.94,0.64-0.68,1.34-0.33,2.15c1.21,2.75,2.37,5.52,3.6,8.26c2.5,5.6,2.71,11.52,2.41,17.5
			c-0.09,1.85-1.29,2.47-2.9,2.73C331.57,364.88,326.87,365.19,322.92,365.3z M318.68,316.66c1.53-0.09,3.07-0.09,4.58-0.29
			c11.34-1.5,20.61-6.87,27.86-15.57c7.82-9.39,11.72-20.17,10.34-32.56c-2.52-22.64-25.93-38.08-47.74-31.5
			c-15.98,4.82-28.39,20.32-30.11,37.52c-0.14,1.41,0.2,2.48,1.09,3.55c4.2,5.04,9.33,8.95,14.8,12.47
			c0.86,0.55,1.65,0.71,2.64,0.27c1.86-0.83,3.68-0.59,5.4,0.48c2.4,1.49,4.81,2.97,7.19,4.49c3.15,2.02,3.9,5.14,2.01,8.2
			c-1.9,3.08-4.98,3.77-8.23,1.79c-2.42-1.47-4.78-3.01-7.19-4.49c-1.68-1.03-2.69-2.48-2.76-4.45c-0.05-1.19-0.56-1.96-1.54-2.58
			c-4.18-2.67-8.16-5.59-11.69-9.1c-0.35-0.35-0.72-0.98-1.31-0.6c-0.51,0.32-0.3,0.97-0.22,1.48
			C286.89,305.1,301.98,316.79,318.68,316.66z M369.65,271.59c-0.07-2.18-0.13-4.35-0.44-6.52c-4.66-31.95-40.73-48.62-67.98-31.38
			c-0.66,0.42-1.73,0.68-1.61,1.66c0.11,0.87,1.09,1.17,1.81,1.54c0.83,0.43,1.45-0.27,2.09-0.62c17.93-10.03,37.9-5.76,50.93,7.49
			c8.16,8.3,11.95,18.45,11.64,30.1c-0.02,0.88-0.07,1.77,0,2.65c0.11,1.36,1.24,1.98,2.29,2.09c1.16,0.11,0.9-1.19,0.98-1.9
			C369.55,275,369.56,273.29,369.65,271.59z M297.29,327.5c6.75,0.02,12.55-0.94,17.74-4.29c0.71-0.46,2.02-0.81,1.84-1.65
			c-0.19-0.9-1.51-0.59-2.34-0.68c-8.27-0.88-15.54-4.01-21.81-9.49c-2.86-2.5-5.23-5.4-7.27-8.59c-0.2-0.32-0.35-0.89-0.86-0.7
			c-0.23,0.09-0.35,0.57-0.45,0.89c-0.09,0.28-0.09,0.58-0.13,0.87c-1.13,8.05,1.56,15.19,5.27,22.09c0.43,0.8,1.14,1.14,2.03,1.19
			C293.53,327.26,295.76,327.4,297.29,327.5z"/>
		<path class="st2" d="M318.68,316.66c-16.69,0.12-31.78-11.56-34.89-30.89c-0.08-0.51-0.29-1.16,0.22-1.48
			c0.59-0.37,0.96,0.26,1.31,0.6c3.53,3.51,7.51,6.43,11.69,9.1c0.98,0.62,1.49,1.39,1.54,2.58c0.08,1.97,1.08,3.42,2.76,4.45
			c2.41,1.48,4.78,3.02,7.19,4.49c3.25,1.97,6.33,1.28,8.23-1.79c1.89-3.06,1.14-6.18-2.01-8.2c-2.38-1.52-4.79-3-7.19-4.49
			c-1.72-1.07-3.54-1.32-5.4-0.48c-0.99,0.44-1.78,0.29-2.64-0.27c-5.47-3.52-10.61-7.43-14.8-12.47c-0.89-1.07-1.23-2.14-1.09-3.55
			c1.73-17.21,14.14-32.7,30.11-37.52c21.82-6.58,45.22,8.86,47.74,31.5c1.38,12.39-2.51,23.17-10.34,32.56
			c-7.25,8.7-16.52,14.07-27.86,15.57C321.74,316.57,320.2,316.57,318.68,316.66z"/>
		<path class="st2" d="M369.65,271.59c-0.09,1.7-0.1,3.41-0.3,5.11c-0.08,0.71,0.18,2.01-0.98,1.9c-1.05-0.1-2.18-0.72-2.29-2.09
			c-0.07-0.88-0.02-1.76,0-2.65c0.31-11.65-3.48-21.8-11.64-30.1c-13.03-13.25-33-17.52-50.93-7.49c-0.64,0.36-1.26,1.06-2.09,0.62
			c-0.71-0.37-1.7-0.68-1.81-1.54c-0.12-0.98,0.95-1.24,1.61-1.66c27.24-17.23,63.31-0.57,67.98,31.38
			C369.52,267.24,369.58,269.4,369.65,271.59z"/>
		<path class="st2" d="M297.29,327.5c-1.53-0.09-3.76-0.24-5.99-0.36c-0.89-0.05-1.59-0.39-2.03-1.19c-3.7-6.9-6.4-14.04-5.27-22.09
			c0.04-0.29,0.04-0.6,0.13-0.87c0.11-0.32,0.22-0.81,0.45-0.89c0.51-0.19,0.65,0.38,0.86,0.7c2.04,3.19,4.41,6.09,7.27,8.59
			c6.27,5.48,13.54,8.61,21.81,9.49c0.83,0.09,2.15-0.22,2.34,0.68c0.18,0.84-1.13,1.19-1.84,1.65
			C309.84,326.55,304.04,327.51,297.29,327.5z"/>
	</g>
</g>
</svg>
