<?xml version="1.0" encoding="utf-8"?>
<!-- Generator: Adobe Illustrator 25.4.1, SVG Export Plug-In . SVG Version: 6.00 Build 0)  -->
<svg version="1.1" id="Calque_1" xmlns="http://www.w3.org/2000/svg" xmlns:xlink="http://www.w3.org/1999/xlink" x="0px" y="0px"
	 viewBox="0 0 500 500" style="enable-background:new 0 0 500 500;" xml:space="preserve">
<style type="text/css">
	.st0{fill:#3F3F3F;}
	.st1{fill:#1D1D1B;}
	.st2{fill:#BFBFBF;}
</style>
<g>
	<g>
		<g>
			<polygon class="st0" points="170.93,60.4 44.74,120.83 44.74,354.55 170.93,414.09 291.79,353.66 291.79,122.61 			"/>
			<path class="st1" d="M170.93,418.14c-0.59,0-1.18-0.13-1.73-0.39L43.01,358.21c-1.42-0.67-2.32-2.09-2.32-3.66V120.83
				c0-1.56,0.89-2.98,2.3-3.65l126.19-60.43c1.14-0.55,2.47-0.53,3.6,0.06l120.86,62.21c1.35,0.69,2.2,2.08,2.2,3.6v231.06
				c0,1.53-0.87,2.93-2.24,3.62l-120.86,60.43C172.17,418,171.55,418.14,170.93,418.14z M48.78,351.99l122.09,57.61l116.86-58.44
				V125.08L170.86,64.92L48.78,123.38V351.99z"/>
		</g>
	</g>
	<g>
		<g>
			<polygon class="st0" points="335.11,60.4 208.92,120.83 208.92,354.55 335.11,414.09 455.97,353.66 455.97,122.61 			"/>
			<path class="st1" d="M335.11,418.14c-0.59,0-1.18-0.13-1.73-0.39L207.2,358.21c-1.42-0.67-2.32-2.09-2.32-3.66V120.83
				c0-1.56,0.89-2.98,2.3-3.65l126.19-60.43c1.14-0.55,2.47-0.53,3.6,0.06l120.86,62.21c1.35,0.69,2.2,2.08,2.2,3.6l0,231.06
				c0,1.53-0.87,2.93-2.24,3.62l-120.86,60.43C336.36,418,335.74,418.14,335.11,418.14z M212.97,351.99l122.09,57.61l116.86-58.44
				l0-226.08L335.05,64.92l-122.08,58.46V351.99z"/>
		</g>
	</g>
	<g>
		<path class="st1" d="M241.81,188.83c8.3,0,16.61-0.1,24.91,0.03c7.95,0.12,15.76,1.29,23.24,4.12
			c11.29,4.27,19.37,12.01,24.45,22.91c3.17,6.8,4.96,14.01,6.33,21.34c0.64,3.44,1.22,6.88,1.86,10.32c0.47,2.56-0.27,4.3-2.3,5.28
			c-2.02,0.97-4.14,0.42-5.79-1.27c-5.28-5.41-10.41-11-17-14.92c-6.06-3.6-12.66-5.64-19.58-6.74
			c-10.88-1.73-21.84-0.96-32.77-1.07c-9.9-0.1-19.8-0.02-29.7-0.02c-2,0-2.3,0.3-2.3,2.27c0,5.61-0.04,11.22,0.02,16.84
			c0.02,1.95-0.71,3.33-2.43,4.2c-1.82,0.92-3.54,0.66-5.11-0.57c-4.44-3.49-8.85-7.02-13.27-10.53
			c-10.02-7.96-20.05-15.91-30.07-23.87c-2.28-1.81-4.58-3.6-6.85-5.43c-2.26-1.82-2.09-4.75,0.41-6.75
			c3.2-2.56,6.44-5.07,9.66-7.61c10.18-8.04,20.36-16.09,30.53-24.14c3.14-2.49,6.28-4.98,9.43-7.46c1.58-1.24,3.35-1.45,5.13-0.62
			c1.78,0.83,2.55,2.34,2.54,4.32c-0.03,5.75-0.01,11.5-0.01,17.25c0,1.89,0.24,2.13,2.12,2.13
			C224.1,188.83,232.95,188.83,241.81,188.83z"/>
	</g>
	<g>
		<path class="st2" d="M235.1,329.56c-8.07,0-16.15,0.09-24.22-0.03c-9.06-0.13-17.94-1.4-26.34-5.03
			c-11.5-4.97-19.1-13.65-23.67-25.16c-2.71-6.82-4.27-13.95-5.5-21.16c-0.46-2.69-0.96-5.36-1.38-8.05
			c-0.33-2.1,0.48-3.66,2.22-4.55c1.85-0.94,3.87-0.73,5.31,0.69c2.48,2.42,4.9,4.9,7.34,7.36c7.95,8.01,17.54,12.76,28.66,14.63
			c7.78,1.3,15.6,1.34,23.44,1.32c13.37-0.02,26.74-0.01,40.1-0.01c2.11,0,2.41-0.31,2.41-2.46c0-5.52,0.03-11.04-0.02-16.56
			c-0.02-1.97,0.63-3.46,2.45-4.33c1.88-0.89,3.62-0.6,5.22,0.67c11.09,8.81,22.17,17.63,33.26,26.44
			c5.53,4.39,11.07,8.76,16.6,13.14c2.36,1.87,2.36,4.9,0,6.76c-12.54,9.9-25.07,19.81-37.61,29.72c-3.96,3.13-7.97,6.21-11.88,9.41
			c-3.23,2.65-7.2,0.87-7.83-1.99c-0.11-0.48-0.14-0.99-0.14-1.49c-0.01-5.75-0.01-11.5-0.01-17.25c0-1.87-0.22-2.09-2.15-2.09
			C252.62,329.56,243.86,329.56,235.1,329.56z"/>
	</g>
	<g>
		<g>
			<polygon class="st1" points="332,88.68 338.3,101.46 352.41,103.51 342.2,113.46 344.61,127.5 332,120.87 319.38,127.5 
				321.79,113.46 311.59,103.51 325.69,101.46 			"/>
		</g>
		<g>
			<polygon class="st1" points="363.82,102.1 367.95,110.46 377.18,111.8 370.5,118.31 372.08,127.5 363.82,123.16 355.57,127.5 
				357.14,118.31 350.47,111.8 359.69,110.46 			"/>
		</g>
		<g>
			<polygon class="st1" points="301.07,102.1 305.2,110.46 314.43,111.8 307.75,118.31 309.33,127.5 301.07,123.16 292.82,127.5 
				294.4,118.31 287.72,111.8 296.95,110.46 			"/>
		</g>
	</g>
	<g>
		<g>
			<polygon class="st1" points="170.89,88.68 177.2,101.46 191.3,103.51 181.1,113.46 183.51,127.5 170.89,120.87 158.28,127.5 
				160.69,113.46 150.49,103.51 164.59,101.46 			"/>
		</g>
		<g>
			<polygon class="st1" points="202.72,102.1 206.85,110.46 216.08,111.8 209.4,118.31 210.98,127.5 202.72,123.16 194.46,127.5 
				196.04,118.31 189.36,111.8 198.59,110.46 			"/>
		</g>
		<g>
			<polygon class="st1" points="139.97,102.1 144.1,110.46 153.33,111.8 146.65,118.31 148.23,127.5 139.97,123.16 131.72,127.5 
				133.29,118.31 126.61,111.8 135.84,110.46 			"/>
		</g>
	</g>
</g>
</svg>
