<?xml version="1.0" encoding="utf-8"?>
<!-- Generator: Adobe Illustrator 25.4.1, SVG Export Plug-In . SVG Version: 6.00 Build 0)  -->
<svg version="1.1" id="Calque_1" xmlns="http://www.w3.org/2000/svg" xmlns:xlink="http://www.w3.org/1999/xlink" x="0px" y="0px"
	 viewBox="0 0 500 500" style="enable-background:new 0 0 500 500;" xml:space="preserve">
<style type="text/css">
	.st0{fill:#3F3F3F;}
	.st1{fill:#BFBFBF;}
	.st2{fill:#1D1E1B;}
</style>
<path class="st0" d="M264.81,408.89l51.71,26.61l17.11-45.8c0,0-1.77-16.04,42.3-40.19l32.81-28.65l28.34-102.93
	c0,0-5.04-16.41-15.1-8.27l-10.97,4.98l-26.95,64.84l-68.51,33.28l-24.87,44.19l-14.14,21.43L264.81,408.89z"/>
<path class="st0" d="M234.72,408.89l-51.71,26.61l-17.11-45.8c0,0,1.77-16.04-42.3-40.19l-32.81-28.65L62.45,217.93
	c0,0,5.04-13.41,15.1-5.27l10.97,1.98l24.95,62.84l70.51,35.28l24.87,44.19l14.14,21.43L234.72,408.89z"/>
<polygon class="st0" points="248.87,63.47 356.49,122.3 357.77,287.71 302.74,356.94 253.21,380.28 141.3,333.69 136.79,120.65 "/>
<g id="x3Hpmw_00000155837007988032095390000013088392944953847991_">
	<g>
		<path class="st1" d="M249.58,174.22c3.11-2.34,5.94-4.76,9.05-6.77c7.93-5.11,16.82-6.75,26.06-6.01
			c19.37,1.54,34.77,14.55,39.21,33.48c3.65,15.58-0.21,29.52-11.47,40.94c-20.07,20.37-40.39,40.48-60.61,60.7
			c-0.62,0.62-1.32,1.16-2.1,1.85c-0.22-0.2-0.62-0.56-1-0.94c-20.25-20.25-40.5-40.49-60.73-60.75
			c-7.2-7.21-11.67-15.8-13.11-25.95c-3.01-21.18,10.58-42.07,31.27-47.74c16.15-4.43,30.42-0.91,42.7,10.53
			c0.23,0.22,0.47,0.44,0.71,0.65C249.6,174.25,249.69,174.27,249.58,174.22z"/>
		<path class="st2" d="M78.39,204.12c5.7,0.17,10.48,2.96,14.34,7.56c2.03,2.43,3.3,5.28,4.32,8.23
			c4.17,12.16,8.3,24.33,12.47,36.49c1.56,4.53,3.12,9.06,4.84,13.53c0.48,1.24,1.39,2.46,2.41,3.31c1.4,1.16,3,2.21,4.69,2.85
			c5.17,1.95,9.76,4.93,14.46,7.72c7.41,4.4,14.78,8.87,22.2,13.27c8.41,4.99,16.81,10,25.29,14.87
			c9.24,5.31,16.1,12.76,20.56,22.41c10.51,22.72,21,45.45,31.47,68.19c0.5,1.08,0.84,2.24,1.13,3.39c0.13,0.51,0.08,1.15-0.12,1.63
			c-0.67,1.61-2.15,2.19-3.68,2.56c-1.32,0.32-2.48-0.13-3.24-1.27c-0.68-1.02-1.34-2.08-1.85-3.2
			c-10.1-21.94-20.22-43.88-30.25-65.86c-4.23-9.27-10.59-16.39-19.49-21.55c-17.89-10.36-35.58-21.08-53.35-31.65
			c-2.09-1.24-4.14-2.54-6.62-2.95c-2.29-0.37-4.17,0.36-5.78,1.92c-4.49,4.36-4.64,10.52,0.1,14.55
			c5.05,4.29,10.38,8.25,15.78,12.1c6.93,4.94,14.04,9.61,21.06,14.42c0.98,0.67,1.95,1.41,2.79,2.25c1.3,1.32,1.39,2.6,0.48,4.13
			c-1.04,1.75-2.64,2.63-4.26,2.14c-1.13-0.34-2.26-0.83-3.23-1.49c-10.34-6.97-20.63-13.99-30.96-20.97
			c-3.16-2.13-6.22-4.35-8.73-7.26c-3.04-3.54-4.74-7.64-5.18-12.27c-0.04-0.46-0.04-0.98,0.13-1.4c1.52-3.86,2.79-7.82,5.29-11.24
			c1.79-2.45,1.82-5.17,0.84-8c-3.77-10.99-7.49-22-11.24-32.99c-1.8-5.29-3.6-10.58-5.42-15.87c-0.36-1.06-0.8-2.09-1.25-3.11
			c-2.05-4.64-5.87-6.66-10.7-7.09c-1.78-0.16-3.32,0.47-4.34,2.03c-1.71,2.64-2.64,5.47-1.8,8.64c3.63,13.66,7.2,27.34,10.91,40.97
			c3.82,14.06,7.79,28.09,11.68,42.13c1.47,5.31,4.46,9.62,8.62,13.12c15.88,13.35,31.81,26.66,47.7,40.01
			c4.71,3.96,9.42,7.93,14.02,12.03c5.48,4.88,9.06,11.05,11.04,18.05c3.48,12.29,6.77,24.63,10.11,36.96
			c0.53,1.96,0.97,3.94,1.29,5.94c0.33,2.07-0.57,3.36-2.48,3.91c-2.48,0.72-4.16,0.25-4.93-1.79c-0.93-2.45-1.54-5.01-2.24-7.54
			c-3.05-11.09-6.12-22.17-9.12-33.28c-2.08-7.7-6.3-13.84-12.49-18.93c-16.61-13.67-33.03-27.56-49.54-41.35
			c-2.09-1.74-4.2-3.46-6.36-5.1c-7.66-5.83-12.38-13.56-14.86-22.76c-7.17-26.64-14.33-53.29-21.49-79.94
			c-1.05-3.9-1.22-7.81,0.05-11.7C65.5,208.52,71.24,204.27,78.39,204.12z"/>
		<path class="st2" d="M348.56,333.04c0.46-2.67,0.82-5.1,3.44-6.85c10.05-6.74,19.95-13.71,29.9-20.6
			c3.58-2.48,6.46-5.58,8.27-9.59c2.37-5.22-1.64-11.55-7.32-11.61c-1.98-0.02-3.74,0.49-5.45,1.48
			c-18.35,10.62-36.61,21.37-54.71,32.41c-9.14,5.57-15.54,13.06-19.96,22.57c-9.01,19.42-18.07,38.82-27.11,58.23
			c-0.93,1.99-1.9,3.95-2.79,5.96c-0.82,1.84-2.22,3.09-3.88,4.12c-1.45,0.89-2.84,0.62-4.15-0.26c-1.3-0.87-1.14-2.26-0.83-3.49
			c0.33-1.34,0.89-2.64,1.48-3.9c8.74-18.84,17.49-37.68,26.24-56.52c2.2-4.74,4.19-9.58,6.6-14.21
			c3.98-7.66,9.82-13.62,17.27-18.03c14.99-8.85,29.95-17.74,44.9-26.65c4.63-2.76,9.19-5.64,13.81-8.42
			c0.73-0.44,1.61-0.8,2.44-0.85c4.54-0.31,7.69-2.57,9.36-6.73c1.33-3.33,2.39-6.77,3.57-10.17c4.48-12.94,8.92-25.89,13.46-38.81
			c1.58-4.5,4.1-8.5,7.57-11.81c3.13-2.98,6.81-4.88,11.21-5.08c4.42-0.2,8.06,1.47,10.89,4.81c3.67,4.34,5.01,9.55,4.74,15.08
			c-0.12,2.46-1.15,4.88-1.81,7.31c-6.48,23.85-12.95,47.71-19.45,71.55c-0.76,2.77-1.59,5.53-2.47,8.26
			c-1.85,5.78-5.17,10.62-9.77,14.54c-8.55,7.29-17.1,14.58-25.73,21.77c-11.46,9.54-22.99,19-34.5,28.48
			c-6.34,5.22-10.2,11.93-12.23,19.82c-2.96,11.48-6.01,22.94-9.03,34.41c-0.36,1.39-0.69,2.79-1.14,4.15
			c-0.95,2.89-2.36,3.73-4.87,3.05c-2.6-0.71-3.54-2.36-2.82-5.27c1.26-5.06,2.61-10.09,3.93-15.14c2.42-9.28,4.84-18.56,7.27-27.84
			c2-7.63,6.49-13.54,12.51-18.53c20.22-16.77,40.36-33.63,60.5-50.5c4.34-3.63,7.29-8.23,8.78-13.72
			c7.03-25.85,14.07-51.71,21.07-77.57c0.7-2.57,1.34-5.19,1.67-7.83c0.39-3.15-0.75-5.77-3.73-7.28c-3.22-1.63-6.38-1.67-9.37,0.57
			c-2.19,1.64-3.53,3.89-4.41,6.43c-4.25,12.26-8.5,24.52-12.72,36.79c-1.84,5.36-3.49,10.79-5.44,16.11
			c-0.88,2.41-0.37,4.34,0.95,6.3c0.93,1.39,1.92,2.77,2.68,4.25c3.91,7.6,2.9,15.77-2.85,21.6c-2.06,2.09-4.41,3.97-6.83,5.63
			c-10.93,7.5-21.93,14.91-32.94,22.3c-0.55,0.37-1.41,0.35-2.12,0.36c-0.58,0-1.17-0.22-1.74-0.38
			C350.15,333.55,349.39,333.3,348.56,333.04z"/>
		<path class="st2" d="M143.88,291.67c-2.32-1.38-4.48-0.92-6.61-2.22c-0.22-0.13-0.36-7.5-0.41-7.78c-0.07-0.39-0.02-0.8-0.02-1.2
			c0-53.28,0.01-106.55-0.04-159.83c0-2.5,0.88-3.94,3.14-5.02c36.33-17.34,72.64-34.74,108.94-52.16c1.7-0.81,3.19-0.83,4.89,0.04
			c34.83,17.96,69.67,35.9,104.53,53.79c2,1.02,2.85,2.36,2.85,4.62c-0.04,53.44-0.03,114.63-0.01,168.07
			c0,0.95-0.27-0.36-1.11,0.11c-1.95,1.07-3.83,2.24-5.96,3.51c0-0.78,0,0.54,0,0c0-53.64-0.01-115.03,0.03-168.67
			c0-1.33-0.37-2.01-1.59-2.63c-33.33-17.11-66.65-34.26-99.95-51.44c-0.96-0.5-1.7-0.47-2.65-0.01
			c-34.93,16.75-69.87,33.49-104.83,50.2c-0.94,0.45-1.22,0.98-1.22,1.99C143.88,176.92,143.88,237.79,143.88,291.67
			C143.88,292.18,143.88,290.96,143.88,291.67z"/>
		<path class="st2" d="M265.87,104.05c-2.5,2.69-4.98,5.4-7.53,8.05c-0.59,0.61-0.79,1.14-0.63,2c0.64,3.37,1.2,6.76,1.78,10.15
			c0.04,0.23,0.03,0.47,0.05,0.86c-0.41-0.18-0.73-0.3-1.02-0.46c-3.04-1.59-6.07-3.22-9.14-4.76c-0.44-0.22-1.18-0.22-1.62,0
			c-3.03,1.52-6.02,3.13-9.03,4.71c-0.34,0.18-0.69,0.33-1.21,0.58c0.6-3.55,1.09-6.91,1.78-10.22c0.3-1.44,0.04-2.38-1.04-3.43
			c-2.45-2.4-4.71-4.99-6.96-7.42c1.67-0.25,3.75-0.56,5.82-0.86c1.74-0.25,3.49-0.45,5.21-0.78c0.41-0.08,0.88-0.51,1.09-0.91
			c1.54-3.02,3.03-6.08,4.53-9.12c0.17-0.35,0.36-0.7,0.64-1.23c1.14,2.31,2.21,4.46,3.28,6.62c0.16,0.32,0.38,0.63,0.47,0.97
			c0.78,3.11,2.91,4.13,5.94,4.26c2.5,0.11,4.98,0.67,7.47,1.03c0.15,0.02,0.3,0.1,0.45,0.15
			C266.08,104.17,265.97,104.11,265.87,104.05z"/>
		<path class="st2" d="M213.83,356.02c5.39,2.54,13.17,5.85,18.22,8.24c6.03,2.85,12.07,5.67,18.09,8.55
			c0.8,0.38,1.41,0.4,2.21-0.01c10.1-5.08,23.84-11.09,33.95-16.14c0.35-0.18,0.71-0.34,1.34-0.64c-0.6,1.31-1.08,2.37-1.57,3.43
			c-0.94,2.03-1.84,4.07-2.83,6.07c-0.23,0.46-0.66,0.92-1.11,1.15c-8.42,4.24-20.48,9.4-28.91,13.63c-1.28,0.64-2.5,0.63-3.79,0.03
			c-9.13-4.32-21.01-9.55-30.14-13.88c-0.38-0.18-0.84-0.44-1-0.78C216.82,362.57,215.41,359.45,213.83,356.02z"/>
		<path class="st2" d="M265.23,111.42c2.12-0.31,4.4-0.68,6.68-0.96c0.72-0.09,1.13-0.36,1.44-1.02c0.99-2.09,2.04-4.15,3.18-6.45
			c0.85,1.7,1.78,3.15,2.33,4.74c0.72,2.11,2.03,2.97,4.22,3.02c1.64,0.04,3.28,0.46,4.78,0.69c-1.51,1.62-2.97,3.3-4.56,4.84
			c-0.7,0.68-0.86,1.32-0.69,2.21c0.41,2.15,0.77,4.31,1.19,6.73c-1.51-0.78-2.94-1.3-4.12-2.17c-2.14-1.57-4.08-1.59-6.23-0.01
			c-1.17,0.86-2.58,1.39-4.11,2.18c0.4-2.37,0.69-4.52,1.14-6.65c0.22-1.03-0.03-1.68-0.78-2.4
			C268.13,114.65,266.7,113,265.23,111.42z"/>
		<path class="st2" d="M232.71,111.43c-1.52,1.62-2.94,3.25-4.49,4.74c-0.76,0.73-0.98,1.4-0.77,2.41c0.43,2.1,0.75,4.23,1.16,6.65
			c-1.12-0.59-2.04-1.07-2.96-1.55c-1.42-0.73-2.84-2.01-4.26-2.02c-1.42,0-2.84,1.27-4.26,1.99c-0.92,0.47-1.83,0.96-2.98,1.56
			c0.29-1.79,0.37-3.43,0.85-4.94c0.74-2.3,0.15-3.92-1.74-5.34c-1.2-0.91-2.2-2.09-3.28-3.15c-0.05-0.05-0.05-0.14-0.1-0.34
			c2.25-0.33,4.47-0.72,6.7-0.97c0.88-0.1,1.33-0.46,1.69-1.23c0.94-2.02,1.96-4.01,3.07-6.25c0.37,0.71,0.66,1.25,0.94,1.79
			c0.31,0.6,0.71,1.19,0.88,1.83c0.84,3.18,3,4.35,6.13,4.32C230.47,110.94,231.64,111.27,232.71,111.43z"/>
	</g>
</g>
</svg>
