<?xml version="1.0" encoding="utf-8"?>
<!-- Generator: Adobe Illustrator 25.4.1, SVG Export Plug-In . SVG Version: 6.00 Build 0)  -->
<svg version="1.1" id="Calque_1" xmlns="http://www.w3.org/2000/svg" xmlns:xlink="http://www.w3.org/1999/xlink" x="0px" y="0px"
	 viewBox="0 0 544.7 500" style="enable-background:new 0 0 544.7 500;" xml:space="preserve">
<style type="text/css">
	.st0{fill:#3F3F3F;}
	.st1{fill:#1C1C1C;}
	.st2{fill:#F4AD24;}
	.st3{fill:#EA9B3D;}
	.st4{fill:#ED713C;}
</style>
<path class="st0" d="M276.22,144.83c61.53,0,123.05,0,184.58-0.01c2.46,0,4.67,0.56,6.53,2.21c1.93,1.71,2.89,3.88,3.02,6.43
	c0.02,0.4,0.01,0.8,0.01,1.2c0,82.96,0,165.91,0.01,248.87c0,1.96-0.24,3.84-1.29,5.52c-1.72,2.74-4.22,4.17-7.45,4.32
	c-0.28,0.01-0.56,0-0.84,0c-123.09,0-246.19,0-369.28,0c-4.51,0-7.94-2.37-9.09-6.36c-0.25-0.87-0.38-1.81-0.38-2.71
	c-0.02-83.48-0.02-166.95-0.01-250.43c0-5.13,3.78-8.95,8.89-9.04c0.44-0.01,0.88,0,1.32,0
	C153.57,144.83,214.9,144.83,276.22,144.83z M89.04,379.81c125.04,0,249.98,0,374.94,0c0-74.56,0-149.02,0-223.49
	c-125.02,0-249.96,0-374.94,0C89.04,230.84,89.04,305.27,89.04,379.81z"/>
<path class="st0" d="M230.35,431.42c31.37,0,62.65,0,94.04,0c0.2,1.79,0.42,3.57,0.61,5.35c1.43,13.54,2.85,27.09,4.28,40.63
	c0.49,4.67-3.24,9.1-7.92,9.4c-0.48,0.03-0.96,0.04-1.44,0.04c-28.42,0-56.84-0.01-85.25,0.02c-3.84,0-6.73-1.47-8.5-4.92
	c-0.81-1.56-1.01-3.24-0.81-5c0.94-8.41,1.84-16.83,2.76-25.25C228.85,444.99,229.59,438.28,230.35,431.42z"/>
<path class="st0" d="M218.01,309.34c-1.02,2.95-2.24,5.87-3.03,8.89c-1.92,7.37-1.35,14.73,0.49,22.05
	c0.54,2.14,0.51,2.16-1.58,2.88c-12.95,4.43-23.96,11.62-32.17,22.74c-1.35,1.82-2.55,3.78-3.59,5.79c-0.6,1.14-0.75,2.52-1.15,3.97
	c-27.61,0-55.61,0-83.7,0c0-71.72,0-143.41,0-215.2c122.19,0,244.33,0,366.53,0c0,71.73,0,143.4,0,215.28c-0.4,0-0.82,0-1.24,0
	c-25.47,0-50.93,0-76.4,0.02c-0.87,0-1.32-0.24-1.77-1.01c-5.23-8.97-11.76-16.82-20.23-22.93c-4.11-2.96-8.29-5.84-12.43-8.76
	c-0.29-0.2-0.58-0.4-0.7-0.48c0.85-2.38,1.94-4.6,2.43-6.94c1.87-8.87,0.49-17.39-3.23-25.58c-0.58-1.27-1.25-2.5-1.88-3.75
	c-0.5-1-0.2-1.51,0.91-1.51c3.04-0.01,6.08-0.08,9.11,0.01c8.94,0.28,15.79-3.62,21.11-10.52c4.85-6.29,7.21-13.54,7.89-21.39
	c0.72-8.39-0.56-16.42-4.37-23.96c-3.45-6.82-8.4-12.11-15.73-14.87c-0.42-0.16-0.8-0.74-0.97-1.21
	c-3.71-10.4-9.17-19.77-16.5-28.01c-13.53-15.19-30.31-24.65-50.4-28.02c-41.18-6.9-81.22,16.65-95.23,55.93
	c-0.28,0.79-0.68,1.21-1.47,1.52c-6.57,2.53-11.17,7.26-14.57,13.28c-7.87,13.94-6.89,33.59,2.36,46.17
	c4.23,5.75,9.67,9.75,16.89,10.81c2.16,0.31,4.39,0.13,6.58,0.28c0.75,0.05,1.55,0.31,2.19,0.7
	C214.16,306.77,216.14,308.12,218.01,309.34z"/>
<path class="st0" d="M234.09,315.17c1.89,0.38,3.51,0.73,5.15,1.03c8.13,1.48,16.33,2.05,24.58,1.93c0.8-0.01,1.27,0.19,1.71,0.91
	c1.86,3,4.6,4.61,8.16,4.64c4.84,0.04,9.67,0.04,14.51,0c5.4-0.04,9.67-4.37,9.65-9.72c-0.02-5.28-4.28-9.63-9.59-9.69
	c-4.88-0.06-9.75-0.08-14.63,0.01c-3.52,0.07-6.24,1.71-8.17,4.68c-0.24,0.36-0.75,0.77-1.14,0.78
	c-11.68,0.16-23.21-0.88-34.41-4.49c-2.14-0.69-3.44-1.81-4.38-3.89c-5.86-12.92-8.27-26.43-6.71-40.52
	c2-18.06,9.49-33.38,23.7-45.02c9.58-7.84,20.66-12.14,32.98-13.14c16.14-1.31,30.85,2.56,43.7,12.61
	c11.35,8.88,18.81,20.48,22.25,34.38c6.18,24.96,1.36,47.75-15.02,67.71c-9.1,11.09-20.87,18.19-35.12,20.58
	c-17.84,2.99-33.86-1.37-47.75-13c-3.11-2.6-5.75-5.76-8.6-8.66C234.69,316.03,234.49,315.7,234.09,315.17z"/>
<path class="st0" d="M250.65,339.83c10.25,5.21,20.9,7.64,32.17,7.38c11.23-0.26,21.69-3.25,31.46-8.78
	c0.07,0.07,0.15,0.14,0.22,0.21c-0.78,1.73-1.49,3.49-2.35,5.17c-4.15,8.14-10.52,14.2-18.19,18.95c-4,2.48-8.15,4.72-12.28,6.97
	c-0.59,0.32-1.65,0.41-2.21,0.1c-7.83-4.41-15.2-9.44-21.04-16.41C255.07,349.39,251.86,343.88,250.65,339.83z"/>
<path class="st0" d="M218.01,233.15c-1.32-0.75-2.82-0.08-4.34-0.49c3.91-9.11,9.41-17.1,16.55-23.92
	c12.04-11.51,26.35-18.35,42.92-20.11c36.94-3.93,65.32,19.12,75.48,44.07c-1.46,0.08-2.88,0.17-4.37,0.25
	c-13.52-24.77-34.27-38.79-63.14-38.76C252.29,194.22,231.59,208.25,218.01,233.15z"/>
<path class="st0" d="M305.24,375.67c-2.1,0-4.11,0-6.19,0c-0.19-1.38,0.24-2.46,1.37-3.2c1.1-0.72,2.27-0.71,3.38-0.02
	C304.96,373.18,305.35,374.28,305.24,375.67z"/>
<path class="st0" d="M260.14,375.68c-2.09,0-4.1,0-6.11,0c-0.24-2.1,0.97-3.63,2.89-3.72C258.84,371.86,260.23,373.4,260.14,375.68z
	"/>
<g id="mg8mru.tif">
	<g>
		<path class="st1" d="M73.63,153.35c0.37-1.83,0.53-3.73,1.14-5.47c2.41-6.96,8.83-11.32,16.41-11.32c110.22,0,220.44,0,330.66,0
			c13.11,0,26.23,0,39.34,0c8.8,0,15.68,5.76,17.27,14.42c0.06,0.31,0.07,0.64,0.08,0.95c0.02,0.56,0.02,1.12,0.02,1.68
			c0,83.64-0.03,167.27,0.05,250.91c0.01,7.23-5.03,14.73-12.85,16.57c-1.69,0.4-3.47,0.57-5.22,0.58
			c-42.34,0.03-84.67,0.02-127.01,0.02c-0.55,0-1.1,0-1.77,0c0.28,2.71,0.54,5.28,0.81,7.84c0.52,4.96,1.05,9.92,1.58,14.88
			c0.53,4.96,1.06,9.92,1.58,14.88c0.52,4.92,1.01,9.85,1.54,14.77c0.3,2.75,0.6,5.5-0.17,8.21c-2.02,7.09-6.66,11.34-13.93,12.69
			c-0.19,0.03-0.36,0.14-0.53,0.22c-30.22,0-60.45,0-90.67,0c-0.3-0.09-0.59-0.2-0.89-0.25c-8.1-1.24-14.57-9.03-14.04-17.15
			c0.29-4.54,0.88-9.05,1.37-13.58c0.59-5.51,1.21-11.03,1.82-16.54c0.53-4.8,1.07-9.6,1.59-14.4c0.42-3.8,0.81-7.6,1.24-11.57
			c-0.63,0-1.18,0-1.72,0c-31.38,0-62.76,0-94.14,0c-11.95,0-23.91,0.01-35.86,0c-7.68-0.01-14.03-4.32-16.53-11.36
			c-0.63-1.77-0.78-3.72-1.15-5.58C73.63,320.94,73.63,237.14,73.63,153.35z M276.22,144.83c-61.33,0-122.65,0-183.98,0
			c-0.44,0-0.88-0.01-1.32,0c-5.11,0.09-8.89,3.91-8.89,9.04c0,83.48,0,166.95,0.01,250.43c0,0.91,0.13,1.84,0.38,2.71
			c1.15,3.99,4.57,6.36,9.09,6.36c123.09,0,246.19,0,369.28,0c0.28,0,0.56,0.01,0.84,0c3.23-0.15,5.73-1.57,7.45-4.32
			c1.05-1.68,1.29-3.56,1.29-5.52c-0.01-82.96-0.01-165.91-0.01-248.87c0-0.4,0.01-0.8-0.01-1.2c-0.13-2.55-1.1-4.73-3.02-6.43
			c-1.86-1.65-4.07-2.21-6.53-2.21C399.28,144.84,337.75,144.83,276.22,144.83z M230.35,431.42c-0.76,6.86-1.5,13.56-2.23,20.27
			c-0.92,8.42-1.82,16.84-2.76,25.25c-0.2,1.77,0.01,3.44,0.81,5c1.77,3.44,4.66,4.92,8.5,4.92c28.42-0.03,56.84-0.01,85.25-0.02
			c0.48,0,0.96-0.01,1.44-0.04c4.68-0.3,8.41-4.74,7.92-9.4c-1.43-13.54-2.85-27.09-4.28-40.63c-0.19-1.78-0.4-3.56-0.61-5.35
			C293,431.42,261.72,431.42,230.35,431.42z"/>
		<path class="st1" d="M89.04,379.81c0-74.54,0-148.97,0-223.49c124.98,0,249.92,0,374.94,0c0,74.47,0,148.93,0,223.49
			C339.01,379.81,214.07,379.81,89.04,379.81z M218.01,309.34c-1.87-1.22-3.85-2.57-5.89-3.81c-0.64-0.39-1.44-0.65-2.19-0.7
			c-2.19-0.15-4.42,0.03-6.58-0.28c-7.23-1.05-12.66-5.05-16.89-10.81c-9.25-12.57-10.23-32.23-2.36-46.17
			c3.4-6.02,8-10.75,14.57-13.28c0.79-0.31,1.19-0.73,1.47-1.52c14.01-39.28,54.05-62.83,95.23-55.93
			c20.09,3.37,36.87,12.83,50.4,28.02c7.34,8.24,12.8,17.62,16.5,28.01c0.17,0.47,0.55,1.05,0.97,1.21
			c7.33,2.76,12.28,8.05,15.73,14.87c3.82,7.54,5.1,15.58,4.37,23.96c-0.67,7.85-3.04,15.1-7.89,21.39
			c-5.31,6.89-12.17,10.8-21.11,10.52c-3.04-0.09-6.08-0.02-9.11-0.01c-1.11,0-1.41,0.51-0.91,1.51c0.62,1.25,1.3,2.48,1.88,3.75
			c3.73,8.19,5.1,16.71,3.23,25.58c-0.49,2.34-1.58,4.56-2.43,6.94c0.12,0.08,0.42,0.28,0.7,0.48c4.15,2.92,8.32,5.8,12.43,8.76
			c8.48,6.11,15,13.96,20.23,22.93c0.45,0.77,0.9,1.01,1.77,1.01c25.47-0.02,50.93-0.02,76.4-0.02c0.42,0,0.84,0,1.24,0
			c0-71.87,0-143.54,0-215.28c-122.2,0-244.34,0-366.53,0c0,71.78,0,143.48,0,215.2c28.09,0,56.08,0,83.7,0
			c0.4-1.45,0.55-2.82,1.15-3.97c1.05-2.01,2.25-3.97,3.59-5.79c8.21-11.12,19.22-18.31,32.17-22.74c2.09-0.72,2.12-0.74,1.58-2.88
			c-1.84-7.31-2.41-14.68-0.49-22.05C215.77,315.21,216.99,312.29,218.01,309.34z M234.09,315.17c0.4,0.53,0.6,0.87,0.87,1.14
			c2.85,2.91,5.49,6.06,8.6,8.66c13.89,11.63,29.91,15.99,47.75,13c14.25-2.39,26.02-9.49,35.12-20.58
			c16.37-19.96,21.2-42.75,15.02-67.71c-3.44-13.9-10.9-25.5-22.25-34.38c-12.84-10.05-27.55-13.92-43.7-12.61
			c-12.32,1-23.4,5.3-32.98,13.14c-14.22,11.64-21.71,26.96-23.7,45.02c-1.56,14.09,0.85,27.6,6.71,40.52
			c0.94,2.08,2.24,3.2,4.38,3.89c11.21,3.61,22.73,4.66,34.41,4.49c0.39-0.01,0.9-0.41,1.14-0.78c1.93-2.97,4.65-4.62,8.17-4.68
			c4.87-0.09,9.75-0.07,14.63-0.01c5.31,0.06,9.57,4.41,9.59,9.69c0.02,5.34-4.25,9.68-9.65,9.72c-4.84,0.04-9.67,0.04-14.51,0
			c-3.56-0.03-6.29-1.64-8.16-4.64c-0.45-0.72-0.91-0.92-1.71-0.91c-8.25,0.12-16.45-0.45-24.58-1.93
			C237.6,315.9,235.98,315.55,234.09,315.17z M250.65,339.83c1.21,4.05,4.41,9.56,7.79,13.58c5.84,6.97,13.21,12,21.04,16.41
			c0.56,0.31,1.61,0.22,2.21-0.1c4.13-2.25,8.28-4.5,12.28-6.97c7.67-4.74,14.04-10.81,18.19-18.95c0.86-1.68,1.57-3.45,2.35-5.17
			c-0.07-0.07-0.15-0.14-0.22-0.21c-9.77,5.54-20.24,8.52-31.46,8.78C271.55,347.47,260.9,345.04,250.65,339.83z M218.01,233.15
			c13.58-24.9,34.28-38.93,63.11-38.96c28.87-0.03,49.62,13.99,63.14,38.76c1.49-0.09,2.91-0.17,4.37-0.25
			c-10.16-24.96-38.54-48-75.48-44.07c-16.57,1.76-30.88,8.6-42.92,20.11c-7.14,6.83-12.64,14.81-16.55,23.92
			C215.19,233.07,216.68,232.4,218.01,233.15z M305.24,375.67c0.11-1.39-0.28-2.49-1.44-3.22c-1.11-0.69-2.28-0.7-3.38,0.02
			c-1.14,0.74-1.56,1.82-1.37,3.2C301.13,375.67,303.14,375.67,305.24,375.67z M260.14,375.68c0.08-2.28-1.3-3.81-3.22-3.72
			c-1.92,0.09-3.13,1.62-2.89,3.72C256.04,375.68,258.06,375.68,260.14,375.68z"/>
	</g>
</g>
<path class="st2" d="M359.84,74.2c-0.08,2.41-0.92,3.71-2.51,4.42c-1.77,0.79-3.31,0.27-4.72-0.99c-3.33-2.98-6.57-6.09-10.09-8.84
	c-13.04-10.18-27.73-16.89-43.93-20.29c-9.48-1.99-19.05-2.71-28.7-2.08c-20.6,1.35-39.37,7.95-56.2,19.96
	c-4.79,3.42-9.22,7.26-13.44,11.37c-1.45,1.42-3.3,1.62-4.95,0.69c-1.57-0.89-2.42-2.67-1.91-4.5c0.23-0.83,0.78-1.68,1.4-2.29
	c12.02-11.95,26-20.83,41.91-26.64c8.88-3.24,18.02-5.34,27.43-6.34c6.9-0.74,13.8-0.91,20.7-0.38c22.9,1.76,43.62,9.45,61.92,23.38
	c4.09,3.11,7.83,6.69,11.64,10.15C359.18,72.52,359.54,73.7,359.84,74.2z"/>
<path class="st3" d="M275.32,69.07c24.3,0.46,44.27,8.46,60.9,24.62c1.21,1.17,1.81,2.54,1.38,4.21c-0.42,1.61-1.49,2.62-3.1,3.02
	c-1.69,0.42-3.01-0.29-4.19-1.46c-5.17-5.12-10.96-9.41-17.37-12.86c-8.56-4.61-17.66-7.53-27.33-8.62
	c-19.18-2.15-36.81,2.13-52.71,13.09c-3.57,2.46-6.76,5.47-10.06,8.31c-1.24,1.06-2.48,1.93-4.18,1.58c-1.56-0.32-2.7-1.26-3.15-2.8
	c-0.47-1.61-0.1-3.06,1.13-4.28c4.24-4.21,8.86-7.95,13.88-11.19c10.56-6.81,22.09-11.04,34.52-12.74
	C268.83,69.44,272.67,69.29,275.32,69.07z"/>
<path class="st4" d="M315.44,119.23c-0.06,1.72-0.89,2.96-2.44,3.66c-1.62,0.73-3.07,0.38-4.45-0.72c-2.89-2.31-5.65-4.86-8.78-6.8
	c-8.63-5.35-18.12-7.29-28.21-6.2c-10.37,1.12-19.26,5.42-26.72,12.67c-1.29,1.25-2.75,1.78-4.47,1.2
	c-1.62-0.55-2.55-1.75-2.76-3.44c-0.18-1.41,0.36-2.57,1.36-3.55c7.43-7.28,16.2-12.16,26.39-14.23
	c16.35-3.31,31.18,0.21,44.39,10.42c1.54,1.19,2.96,2.56,4.39,3.89C315.02,116.95,315.52,117.98,315.44,119.23z"/>
</svg>
