<?xml version="1.0" encoding="utf-8"?>
<!-- Generator: Adobe Illustrator 25.4.1, SVG Export Plug-In . SVG Version: 6.00 Build 0)  -->
<svg version="1.1" id="Calque_1" xmlns="http://www.w3.org/2000/svg" xmlns:xlink="http://www.w3.org/1999/xlink" x="0px" y="0px"
	 viewBox="0 0 608.24 500" style="enable-background:new 0 0 608.24 500;" xml:space="preserve">
<style type="text/css">
	.st0{fill:#5B5B5B;}
</style>
<g id="_x36_yimi7.tif">
	<g>
		<path class="st0" d="M330.65,418.55c0-20.4,0-40.8,0-61.4c2.25,0,4.39-0.07,6.52,0.06c0.37,0.02,0.86,0.85,1.02,1.38
			c2.89,9.95,5.73,19.92,8.59,29.88c0.22,0.77,0.49,1.53,1.07,2.22c0-11.12,0-22.25,0-33.45c2.69,0,5.22,0,7.88,0
			c0,20.51,0,40.91,0,61.3c-2.27,0-4.54,0-6.81,0c-3.26-10.69-6.52-21.38-9.78-32.08c-0.07-0.22-0.07-0.46-0.11-0.69
			c-0.15,0.13-0.29,0.26-0.44,0.39c0,1.19,0,2.38,0,3.57c-0.02,9.6-0.04,19.2-0.06,28.8C335.9,418.55,333.27,418.55,330.65,418.55z"
			/>
		<path class="st0" d="M374.35,418.55c-0.06-0.59-0.17-1.18-0.17-1.77c-0.01-19.33-0.01-38.66,0-58c0-0.47,0.06-0.93,0.1-1.65
			c0.93,0,1.8,0,2.68,0c4.48,0,8.95-0.02,13.43,0.01c4.3,0.02,6.18,1.95,6.18,6.27c0,15.99,0,31.98,0,47.97
			c0,4.65-0.7,5.65-5.02,7.16C385.81,418.55,380.08,418.55,374.35,418.55z M382.29,365.23c0,15.15,0,30.07,0,45.02
			c2.17,0,4.22,0,6.25,0c0-15.1,0-30.07,0-45.02C386.38,365.23,384.38,365.23,382.29,365.23z"/>
		<path class="st0" d="M255.78,418.55c-4.06-1.58-4.84-2.73-4.84-7.22c0-15.75,0-31.51,0-47.26c0-5.05,1.87-6.93,6.89-6.93
			c3.22,0,6.45-0.03,9.67,0.01c4.05,0.04,6,2.03,6.01,6.09c0.01,2.62,0,5.24,0,8.01c-2.56,0.56-5.04,1.1-7.79,1.7
			c0-2.63,0-5.09,0-7.67c-2.29,0-4.35,0-6.53,0c0,14.96,0,29.91,0,44.98c2.03,0,4.03,0,6.18,0c0-5.83,0-11.7,0-17.78
			c-1.21,0-2.49,0-3.95,0c0.58-2.73,1.11-5.23,1.66-7.85c3.38,0,6.76,0,10.35,0c0.03,0.65,0.09,1.33,0.09,2.01
			c0.01,8.24,0.01,16.47,0,24.71c0,4.55-0.72,5.62-4.84,7.22C264.37,418.55,260.08,418.55,255.78,418.55z"/>
		<path class="st0" d="M419.84,418.55c-4.28-1.74-4.84-2.59-4.84-7.33c0-2.09-0.05-4.18,0.04-6.26c0.02-0.46,0.44-1.2,0.81-1.29
			c2.23-0.57,4.51-0.99,7.04-1.52c0,1.48,0,2.77,0,4.06c0,1.31,0,2.61,0,4.05c2.2,0,4.27,0,6.48,0c0-5.81,0-11.69,0-17.84
			c-2.64,0-5.35,0-8.07,0c-4.45,0-6.29-1.84-6.29-6.3c0-7.76-0.01-15.52,0-23.27c0-3.72,1.87-5.65,5.58-5.69
			c3.7-0.04,7.4-0.04,11.1,0c3.88,0.04,5.75,1.98,5.76,5.91c0.01,2.57-0.01,5.13-0.02,7.7c0,0.11-0.06,0.23-0.13,0.45
			c-0.33,0.1-0.71,0.26-1.1,0.34c-2.15,0.46-4.31,0.9-6.64,1.39c0-2.59,0-5.07,0-7.67c-2.21,0-4.26,0-6.43,0c0,6.36,0,12.71,0,19.27
			c2.87,0,5.72,0,8.57,0c3.69,0.01,5.75,2.04,5.76,5.76c0.02,6.98,0.01,13.96,0.01,20.95c0,4.82-0.66,5.76-5.07,7.31
			C428.2,418.55,424.02,418.55,419.84,418.55z"/>
		<path class="st0" d="M212.43,418.55c-0.06-0.65-0.17-1.3-0.17-1.95c-0.01-19.15-0.01-38.29-0.01-57.44c0-0.59,0-1.17,0-1.9
			c6.8,0,13.44,0,20.19,0c0,2.57,0,5.11,0,7.83c-4.03,0-8,0-12.08,0c0,6.48,0,12.78,0,19.29c2.93,0,5.88,0,8.95,0c0,2.75,0,5.28,0,8
			c-2.98,0-5.93,0-8.97,0c0,6.06,0,11.92,0,17.98c4.06,0,8.02,0,12.14,0c0,2.85,0,5.51,0,8.18
			C225.81,418.55,219.12,418.55,212.43,418.55z"/>
		<path class="st0" d="M291.96,418.55c-0.02-5.55-0.05-11.1-0.06-16.65c-0.01-14.14,0-28.29,0-42.43c0-0.71,0-1.42,0-2.23
			c6.76,0,13.37,0,20.14,0c0,2.57,0,5.15,0,7.89c-4.05,0-8.02,0-12.1,0c0,6.46,0,12.76,0,19.26c2.94,0,5.9,0,9,0
			c0,2.71,0,5.24,0,7.93c-2.93,0-5.89,0-8.97,0c0,6.04,0,11.91,0,18.01c3.98,0,8,0,12.05,0c0,2.89,0,5.55,0,8.22
			C305.33,418.55,298.64,418.55,291.96,418.55z"/>
		<path class="st0" d="M175.89,418.55c-0.1-0.52-0.29-1.03-0.29-1.55c-0.01-19.56-0.01-39.13-0.01-58.69c0-0.29,0.04-0.59,0.08-1.03
			c2.55,0,5.09,0,7.84,0c0,17.6,0,35.22,0,53.06c4.24,0,8.26,0,12.43,0c0,2.88,0,5.55,0,8.21
			C189.27,418.55,182.58,418.55,175.89,418.55z"/>
		<path class="st0" d="M529.4,172.57c1.52,0.44,3.05,0.87,4.75,1.36c-0.81,3.31-1.62,6.77-2.5,10.22
			c-1.19,4.66-2.43,9.31-3.64,13.97c-0.05,0.19-0.16,0.46-0.08,0.57c1.9,2.74,0.2,5.8,0.74,8.67c0.09,0.45-0.81,1.09-1.25,1.65
			c0.11,0.1,0.22,0.19,0.33,0.29c0.25-0.19,0.51-0.38,1-0.75c-0.41,5.68,1.75,10.73,2.77,16c0.11,0.55-0.21,1.18-0.25,1.39
			c0.43,0.74,0.89,1.24,1.03,1.81c3.46,14.12,6.9,28.24,10.33,42.37c4.42,18.18,8.83,36.36,13.24,54.54c0.14,0.57,0.24,1.15,0.4,1.9
			c-12.59,0-25.08,0-37.86,0c-6.09-25.2-12.22-50.54-18.34-75.87c-0.1-0.01-0.21-0.03-0.31-0.04
			c-5.64,25.28-11.27,50.56-16.93,75.94c-13.08,0-26.11,0-39.31,0c1.37-5.66,2.69-11.21,4.04-16.75
			c7.72-31.78,15.45-63.57,23.14-95.36c0.34-1.42,0.3-2.95,0.39-4.43c0.55-9.24-0.78-18.2-3.09-27.19
			c-5.41-21.06-10.35-42.24-15.48-63.37c-0.14-0.57-0.31-1.13-0.5-1.83c-2.49,0-4.92,0-7.56,0c2.56-11.9,5.08-23.58,7.61-35.34
			c4.07,0,8.01-0.06,11.94,0.06c0.7,0.02,1.37,0.81,2.07,1.21c0.46,0.27,0.96,0.48,1.44,0.71c0.08-0.14,0.17-0.27,0.25-0.41
			c-0.33-0.45-0.65-0.9-1.06-1.48c4.93,0,9.74,0,14.73,0c1.14,4.98,2.29,10,3.46,15.08c-3-2.26-5.92-4.46-9.09-6.86
			c-0.08,2.32,1.77,2.51,2.73,3.41c2.27,2.13,4.71,4.07,7.02,6.16c0.38,0.35,0.47,1.07,0.6,1.64c4.4,18.24,8.79,36.49,13.19,54.73
			c0.14,0.57,0.3,1.14,0.73,1.74c5.64-25.29,11.28-50.59,16.93-75.93c13.11,0,26.11,0,39.32,0c-7.3,30.16-14.57,60.25-21.92,90.59
			c-1.65-0.32-3.27-0.64-4.9-0.95C529.46,172.2,529.43,172.38,529.4,172.57z M512.99,167.51c2.12,0.91,4.21,2.44,6.37,2.54
			c1.68,0.08,3.36,1.75,5.13,0.36c0.07-0.06,0.55,0.46,0.88,0.65c0.29,0.18,0.62,0.28,1.08,0.48c-0.25-0.86-0.42-1.47-0.51-1.77
			c-1.58-0.28-3.17-0.45-4.7-0.86c-1.1-0.29-2.11-0.91-3.17-1.35c-1.69-0.7-3.4-0.73-5.1-0.02c0.26-1.17-0.19-2.19-1.19-2.59
			c-1-0.4-2.22-0.59-3.27-0.42c-2.02,0.33-3.68-0.21-5.31-1.29c-1.04-0.68-2.23-1.78-3.27-1.69c-2.93,0.26-5.7,0.07-8.37-1.14
			c-0.71-0.32-1.33-0.85-1.98-1.29c0.08-0.15,0.15-0.3,0.23-0.45c-2.01-0.14-4.02-0.28-6.03-0.42c-0.02,0.17-0.04,0.35-0.06,0.52
			c1.56,0.72,3.13,1.41,4.66,2.16c3.38,1.66,7.35,1.53,10.64,3.45c0.14,0.08,0.35,0.04,0.52,0.09c1.84,0.55,3.85-0.09,5.67,1.12
			c0.92,0.61,2.69-0.54,3.38,1.24c0.03,0.07,0.45,0,0.68-0.03C510.57,166.65,511.93,166.29,512.99,167.51z M511.19,254.73
			c5.46-4.7,8.23-11.23,12.17-16.91c-0.88,0.4-2.27,0.62-2.4,1.16c-0.39,1.62-1.7,2.38-2.53,3.57c-1.04,1.48-1.58,3.18-2.86,4.66
			C513.71,249.36,512.62,252.19,511.19,254.73z M528.01,202.65c-0.16-0.13-0.32-0.27-0.48-0.4c-1.87,2.21-3.74,4.43-5.61,6.64
			c0.18,0.15,0.36,0.3,0.53,0.45C524.31,207.11,526.16,204.88,528.01,202.65z M528.64,171.35c1.05-0.6,1.95-1.11,2.83-1.61
			c-1.56-0.25-3.06-0.49-4.83-0.78C527.5,169.97,528.11,170.71,528.64,171.35z M530.49,174.63c-0.02-0.11-0.04-0.22-0.06-0.33
			c-1.96-0.74-3.91-1.48-5.87-2.22c-0.08,0.18-0.17,0.36-0.25,0.54c1.63,0.75,3.23,1.53,4.89,2.21
			C529.55,174.98,530.06,174.71,530.49,174.63z M483.47,158.16c0.06-0.28,0.13-0.56,0.19-0.84c-1.94-0.36-3.89-0.73-5.83-1.09
			c-0.04,0.16-0.08,0.32-0.12,0.49C479.63,157.19,481.55,157.68,483.47,158.16z M473.87,155.51c0.03-0.18,0.06-0.37,0.09-0.55
			c-1.6-0.26-3.19-0.51-4.79-0.77c-0.03,0.21-0.06,0.41-0.1,0.62C470.67,155.04,472.27,155.28,473.87,155.51z"/>
		<path class="st0" d="M82.47,82.37c17.18,0,34.12,0,51.23,0c0.45,3.88,0.91,7.72,1.35,11.56c1.51,13.33,3,26.66,4.53,39.99
			c0.21,1.79,0.18,3.48-0.95,5.01c-0.08,0.11,0.31,0.58,0.32,0.6c-0.73,1.08-1.42,1.93-1.94,2.88c-1.57,2.91-3.07,5.86-4.6,8.79
			c0.12,0.08,0.24,0.16,0.36,0.24c2.19-3.6,4.37-7.19,6.56-10.79c0.16,0.03,0.33,0.06,0.49,0.09c0.17,1.23,0.36,2.47,0.49,3.7
			c1.12,10.37,2.21,20.75,3.37,31.12c0.27,2.44,0.84,4.85,1.09,7.29c0.18,1.8,0.14,3.63,0.05,5.44c-0.02,0.44-0.63,0.85-1,1.32
			c-2.14-2.93-2.14-2.93-3.64-3.41c-0.29,0.65-0.65,1.32-0.89,2.02c-0.36,1.03-0.06,1.5,1.11,1.19c0.22-0.06,0.52,0.2,0.79,0.27
			c0.61,0.17,1.22,0.32,2.2,0.57c-0.38,1.07-0.81,2.29-1.24,3.49c-0.95-0.14-1.73-0.25-2.74-0.39c0.56,1.61,0.98,2.84,1.38,4
			c0.57,0.2,1.25,0.44,1.93,0.67c-0.06,0.16-0.11,0.32-0.17,0.48c-2.14,0.04-1.92,0.04-1.83,2.32c0.06,1.61-0.05,3.14,0.88,4.56
			c0.12,0.18-0.16,0.62-0.34,1.21c-0.45-0.55-0.74-0.91-1.1-1.36c-0.41,0.61-0.76,1.12-1.23,1.79c0.5,0.31,1.01,0.57,1.46,0.91
			c0.31,0.23,0.7,0.51,0.78,0.84c0.43,1.68,0.77,3.39,1.16,5.19c-0.7-0.13-1.38-0.25-2.5-0.46c0.88,1.22,0.97,2.75,2.74,1.46
			c0.18,1.36,1.59,2.47-0.05,3.52c2.91,2.73,1.8,6.71,3.02,10.06c-0.04-0.72-0.09-1.43-0.13-2.15c0.18-0.05,0.35-0.09,0.53-0.14
			c0.42,1.29,0.85,2.58,1.27,3.86c0.35,1.07,0.78,2.12,1.03,3.22c0.16,0.69-0.04,1.45,0.08,2.15c0.09,0.53,0.36,1.42,0.66,1.47
			c1.11,0.16,1.09,0.88,1.17,1.67c2.27,21.71,4.54,43.41,6.83,65.12c0.77,7.29,1.57,14.58,2.36,21.88c0.03,0.29,0,0.58,0,0.98
			c-11.04,0-22,0-33.16,0c-0.37-4.08-0.75-8.14-1.11-12.22c-0.63-7.25-1.22-14.5-1.91-21.74c-0.05-0.49-0.73-1.32-1.13-1.32
			c-9.55-0.07-19.09-0.06-28.84-0.06c-0.37,4.12-0.75,8.13-1.09,12.16c-0.63,7.37-1.29,14.73-1.84,22.11
			c-0.11,1.41-0.81,1.43-1.86,1.43c-8.84-0.01-17.67,0-26.51,0.05c-0.65,0-1.27,0.52-1.94,0.66c-1.29,0.28-2.59,0.49-3.9,0.64
			c-0.14,0.02-0.36-0.63-0.61-1.1c-0.96,1.19-2.14,1.44-3.41,0.63c-0.47-0.3-1.04-0.73-1.16-1.21c-0.1-0.37,0.4-0.91,0.67-1.35
			c0.32-0.52,0.69-1.02,0.92-1.36c1.24,0.33,2.7,1.2,3.64,0.8c0.77-0.32,0.91-2.14,1.47-3.68c-0.99,0.54-1.61,0.88-2.16,1.18
			c-0.21-0.66-0.45-1.42-0.72-2.29c0.61-0.09,1.42-0.21,1.95-0.28c0.46-1.58,0.89-3.03,1.29-4.39c-0.33,0.21-0.72,0.46-1.11,0.71
			c-0.31-0.59-1.02-1.41-0.85-1.72c0.41-0.72,1.26-1.2,2.03-1.65c0.6-0.73,1.2-1.46,2.23-2.7c-2.26,1.56-2.83-0.27-3.9-0.93
			c0.04-0.17,0.09-0.33,0.13-0.5c0.87,0.26,1.74,0.53,2.91,0.88c-0.91-6.08,0.88-11.89,0.98-18.03c-2.32,0-4.68,0-7.34,0
			c2.58-12.29,5.1-24.32,7.64-36.47c1.08,0,2.13,0,3.5,0c1.57-13.92,3.12-27.74,4.73-42.01c4.81,3.79,9.4,7.41,13.97,11.01
			c-0.73,0.98-1.14,1.54-1.56,2.09c0.07,0.08,0.13,0.15,0.2,0.23c0.24-0.16,0.51-0.29,0.7-0.5c1.12-1.2,2.12-1.06,3.46-0.14
			c2.51,1.72,5.22,3.16,7.79,4.81c0.63,0.4,1.02,1.17,1.7,1.99c0.25,0.21,0.71,0.61,1.17,1.01c-0.12,0.13-0.23,0.27-0.35,0.4
			c-0.22-0.21-0.45-0.41-0.67-0.62c-1.52,1.6-2.73,3.32-2.01,5.19c0.91,0.98,1.58,1.7,2.36,2.55c0.35-0.32,1.02-0.91,1.69-1.51
			c0.13,0.03,0.25,0.06,0.38,0.09c-0.22,0.69-0.45,1.38-0.66,2.08c-0.07,0.24-0.16,0.52-0.12,0.76c0.45,2.84,0.46,2.84-2.16,4.83
			c-0.07-0.42-0.13-0.78-0.21-1.24c-0.52,0.09-1.03,0.2-1.55,0.28c-0.47,0.07-0.94,0.12-1.54,0.2c-0.1,0.71,0,1.58-0.37,2.13
			c-0.37,0.54-1.22,0.76-2.04,1.22c-0.14-1.39-0.26-2.57-0.38-3.76c-0.74,0.85-1.37,1.57-2.01,2.3c1.26,0.41,2.04,1.47,2.01,3.15
			c0,0.28,0.55,0.83,0.82,0.81c0.59-0.04,1.32-0.22,1.7-0.61c0.51-0.53,0.65-1.4,1.15-1.95c0.2-0.22,1.01-0.16,1.34,0.06
			c0.41,0.28,0.61,0.87,0.81,1.18c0.4-1.05,0.78-2.05,1.18-3.13c1.92,1.08,1.02,2.58,1.03,3.83c0.01,1.29-0.2,2.58-0.32,3.98
			c7.93,0,15.72,0,23.71,0c-0.31-3.77-0.6-7.43-0.92-11.09c-1.15-13.31-2.31-26.62-3.46-39.92c-0.5-5.76-0.97-11.53-1.5-17.29
			c-0.11-1.2-0.2-2.24,0.74-3.27c0.51-0.56,0.51-1.59,0.74-2.41c-0.26-0.09-0.51-0.17-0.77-0.26c-0.31,0.74-0.62,1.47-1.12,2.64
			c-1.86-21.43-3.69-42.49-5.52-63.56c-0.11,0.01-0.23,0.01-0.34,0.02c-0.63,7.29-1.27,14.58-1.9,21.87
			c-1.14,13.19-2.28,26.38-3.42,39.57c-0.41,4.69-1.08,9.38-1.15,14.08c-0.05,3.54-1.73,6-3.91,8.38c-0.22,0.24-0.39,0.51-0.31,1.04
			c0.58-0.56,1.19-1.1,1.72-1.7c0.52-0.6,0.95-1.27,1.79-1.76c-0.33,3.9-0.63,7.8-1,11.69c-0.25,2.66-0.5,5.34-0.94,7.97
			c-0.27,1.59-0.71,1.75-2.11,1.55c-0.11,0.59-0.17,1.19-0.34,1.76c-0.15,0.5-0.42,0.96-0.63,1.44c0.55,0.06,1.1,0.12,1.88,0.2
			c0.06,0.42,0.14,1.03,0.17,1.22c-0.72,0.38-1.21,0.58-1.65,0.87c-0.52,0.35-1,0.77-1.42,1.11c-2.61-1.88-5.24-3.56-7.58-5.56
			c-1.03-0.88-1.5-2.44-2.18-3.62c-1.37,1.04-2.52,0.9-4.64-0.7c-3.07-2.31-6.16-4.6-9.3-6.8c-1.36-0.95-2.13-1.85-1.92-3.74
			c1.36-11.97,2.57-23.95,3.83-35.93c1.25-11.86,2.49-23.72,3.74-35.58c1.26-11.98,2.51-23.96,3.76-35.94
			C81.1,95.41,81.78,88.95,82.47,82.37z M85.6,247.72c-0.6-0.08-1.23-0.16-1.85-0.25c-0.22,0.74-0.22,1.63-0.66,2.13
			c-1.51,1.75-1.58,2.07,0.29,3.25c0.37,0.23,1.4,0.05,1.64-0.28c0.33-0.46,0.52-1.5,0.23-1.87
			C83.99,249.08,83.98,248.63,85.6,247.72z M141.16,215.72c-0.41,0.82-0.82,1.28-0.8,1.72c0.01,0.36,0.54,0.69,0.84,1.04
			c0.31-0.46,0.75-0.88,0.86-1.38C142.13,216.83,141.65,216.43,141.16,215.72z"/>
		<path class="st0" d="M240.02,255.23c-2.59-1.47-5.14-3.04-7.8-4.39c-2.25-1.15-4.66-1.99-6.92-3.13
			c-0.45-0.23-0.85-1.26-0.74-1.81c0.94-4.49,1.99-8.97,3.06-13.43c0.87-3.62,1.82-7.21,2.73-10.82c0.06-0.25,0.01-0.52-0.31-0.92
			c-0.18,0.35-0.42,0.68-0.51,1.06c-0.7,2.9-1.16,5.88-2.1,8.7c-1.4,4.18-2.43,8.43-3.57,12.68c-1.48,5.5-1.69,5.4-6.78,2.76
			c-3-1.56-6.12-2.91-9.24-4.21c-4.29-1.78-8.66-3.38-12.96-5.14c-0.44-0.18-0.77-0.84-0.96-1.35c-0.16-0.42-0.03-0.94-0.03-1.42
			c0-37.83,0-75.66,0-113.49c0-0.76,0-1.52,0-2.48c-2.6,0-5.02,0-7.61,0c2.57-11.84,5.1-23.46,7.65-35.23c0.79,0,1.49,0,2.2,0
			c20,0,39.99,0,59.99,0c17.68,0,30.76,12.81,30.81,30.56c0.11,37.29,0.09,74.58,0,111.87c-0.04,15.51-10.31,27.82-25.59,30.31
			c-7.03,1.15-14.25,1.21-21.35-0.18L240.02,255.23z M221.31,192.78c0.14,0.11,0.29,0.22,0.43,0.33c-0.65,0.22-1.29,0.44-2.08,0.7
			c1.27,1.33,2.35,2.46,3.43,3.59c-0.07,0.07-0.14,0.14-0.2,0.22c-0.59-0.18-1.18-0.36-1.77-0.54c-0.06,0.15-0.13,0.31-0.19,0.46
			c0.73,0.3,1.45,0.66,2.21,0.88c0.86,0.25,1.8,0.25,2.62,0.56c1.19,0.45,1.17,0.53,2.07-0.18c-0.75-0.52-1.55-1.08-2.48-1.74
			c0.69-0.14,1.18-0.24,1.92-0.39c-0.65-0.46-1.04-0.74-1.56-1.1c2.19-0.58,1.6-2.43,2.09-3.5c-0.61,0.22-1.2,0.44-1.81,0.66
			c-0.96-2.07,0.71-2.54,1.68-3.09c1.06-0.6,2.45-1.39,3.56,0.6c-0.64,0.11-1.33,0.04-1.7,0.35c-0.48,0.41-0.7,1.11-1.22,2.01
			c0.96-0.06,1.51-0.09,2.02-0.13c1.2,3.34-1.29,6.06-1.61,9.33c0.61-0.37,1.13-0.68,1.91-1.14c0,2.3,0.33,4.48-0.09,6.51
			c-0.42,2.02-1.71,3.79-1.82,6.04c-0.06,1.16-1.26,2.22-1.8,3.4c-0.22,0.49-0.04,1.16-0.04,1.75c0.21,0.01,0.42,0.02,0.62,0.03
			c0.39-0.59,0.77-1.18,1.31-2c0.24,0.4,0.54,0.91,0.84,1.4c0.65-0.5,1.12-0.85,1.79-1.36c-0.14,1.32-0.25,2.44-0.38,3.65
			c5.86,0,11.62,0,17.55,0c0-0.78,0-1.49,0-2.19c0-30.72-0.02-61.45,0.04-92.17c0-2.61,0.52-5.22,0.8-7.78c-5.89,0-11.72,0-17.67,0
			c0,0.83,0,1.53,0,2.24c0,21.3-0.01,42.6,0.03,63.89c0,1.88-1.04,3.12-2.49,3.5c-2.36,0.61-4.25,1.59-5.35,3.76
			c0.49,0.67,1,1.36,1.52,2.06c-0.06,0.15-0.12,0.3-0.17,0.46C223.97,193.49,222.64,193.14,221.31,192.78z"/>
		<path class="st0" d="M328.7,277.5c0.03,0.01,0.35,0.14,0.76,0.31c0.1-0.46,0.19-0.86,0.29-1.33c-0.52-0.23-1.05-0.45-1.62-0.7
			c0-14.86,0-29.71,0-44.6c3.63-1.81,7.27-3.63,10.91-5.43c0.23-0.11,0.64-0.17,0.8-0.04c1.45,1.2,2.63,0.22,3.91-0.36
			c1.81-0.82,3.77-1.36,5.48-2.34c1.48-0.85,3.08-1.26,4.59-1.91c4.03-1.75,7.96-3.73,11.91-5.67c0.89-0.43,1.64-1.15,2.53-1.57
			c1.33-0.61,2.77-0.98,4.09-1.61c2.88-1.36,5.71-2.83,8.59-4.21c0.85-0.41,1.77-0.66,2.64-1.01c4.84-1.95,9.67-3.91,14.55-5.89
			c0,6.79,0,13.83,0,21.06c-10.98,0-21.93,0-32.99,0c0,23.02,0,45.84,0,68.88c15.66,0,31.32,0,47.11,0c0,11.98,0,23.76,0,35.74
			c-0.77,0-1.47,0-2.17,0c-14.21,0-28.42-0.13-42.63,0.1c-3.52,0.06-6.14-1.1-8.62-3.23c-0.09-0.08-0.21-0.11,0.08,0.04
			c-0.92,0.18-1.48,0.27-2.04,0.4c-0.24,0.05-0.48,0.16-0.71,0.25c0.17,0.18,0.35,0.37,0.52,0.55c0.5,0.52,1,1.05,1.56,1.63
			c-2.84,1.11-3.43-1.47-4.88-2.46c-0.91-0.62-1.7-1.4-2.74-1.95c-0.29,2.56,2.91,2.62,3.45,4.65c-8.8,0-17.5,0-26.34,0
			c0-5.84,0-11.59,0-17.77c2.21,1.9,4.18,3.6,6.19,5.33c-0.2-3.85-3.88-4.59-5.69-6.88c-0.68,0.3-1.19,0.53-1.69,0.75
			c-0.07-0.15-0.15-0.31-0.22-0.46c0.44-0.27,0.89-0.54,1.42-0.86c-0.4-0.12-0.66-0.19-1.08-0.31c0.79-0.67,1.47-1.26,2.48-2.12
			c-0.84-0.32-1.49-0.56-2.22-0.84c1.14-1.32,0.58-3.9,3.46-3.93c-0.75-1.27-1.33-2.26-1.88-3.19c-0.09-1.63-0.19-3.29-0.3-5.2
			c0.09-0.14,0.42-0.64,0.82-1.24c0.19,0.47,0.42,1.06,0.6,1.49c0.85-0.05,1.58-0.1,2.73-0.17c0.06-0.34,0.18-1.11,0.34-2.05
			c-1.23,0.16-2.13,0.28-3.27,0.43c0.13-0.84,0.26-1.68,0.4-2.54c0.63,0,1.17,0,1.89,0C330.66,283.85,329.67,280.64,328.7,277.5z
			 M348.89,310.09c-0.16,0.19-0.32,0.38-0.48,0.56c0.64,0.56,1.49,1.01,1.89,1.71c0.91,1.59,1.41,3.45,2.47,4.91
			c0.73,0.99,2.09,1.58,3.26,2.16c0.54,0.26,1.3,0.06,1.96,0.07c0.43,0.01,1.13,0.16,1.23-0.02c0.28-0.5,0.53-1.2,0.39-1.72
			c-0.17-0.63-0.75-1.16-1.15-1.73c0.16,0,0.33,0.01,0.49,0.01c0.32-1.13,0.49-2.34,1.01-3.37c0.71-1.42,0.44-2.29-1.04-2.92
			c-0.36,2.02-0.72,4.03-1.15,6.42C354.52,313.94,351.7,312.02,348.89,310.09z M345.8,323.01c0.08-0.14,0.17-0.28,0.25-0.42
			c-1.56-0.96-3.13-1.92-4.69-2.87c-0.1,0.17-0.2,0.34-0.3,0.51C342.64,321.15,344.22,322.08,345.8,323.01z M362.73,322.54
			c0.72-0.17,1.24-0.3,1.96-0.47c-0.71-0.93-0.94-2.29-2.44-1.27C362.4,321.36,362.53,321.85,362.73,322.54z"/>
		<path class="st0" d="M392.29,117.01c-9.08,6.93-18.17,13.85-27.25,20.78l0.06,0.05c0-4.82,0-9.63,0-14.34
			c-2.72-0.63-5.19-0.99-7.5-1.81c-1.23-0.43-2.09-1.61-3.71-1.5c-1.13,0.07-2.3-0.57-3.42-0.99c-2.48-0.64-4.96-1.28-7.57-1.95
			c0.28-0.21,0.56-0.42,0.9-0.67c-0.6-0.99-1.2-1.36-2.59-1.33c-1.85,0.04-3.71-0.84-5.59-1.23c-0.73-0.15-1.52-0.02-2.28-0.02
			c-0.02,0.18-0.04,0.35-0.06,0.53c2.9,0.88,5.8,1.76,8.7,2.64c-0.01,0.12-0.01,0.24-0.02,0.36c-7.22,0-14.44,0-21.8,0
			c0.39-1.79,0.69-3.68,1.28-5.47c0.11-0.35,1.33-0.48,2.02-0.45c0.51,0.02,1,0.47,1.48,0.73c0.31-0.86,0.55-1.52,0.94-2.58
			c-1.16,0.2-2.17,0.37-3.49,0.6c-0.08-0.59-0.4-1.38-0.25-2.08c1.74-8.34,3.55-16.67,5.35-24.99c0.06-0.29,0.2-0.56,0.31-0.88
			c28.11,0,56.19,0,84.36,0c0,4.97,0,9.85,0,14.79c-0.28-0.06-0.57-0.11-1.24-0.25c0.42,1.58,0.93,2.89,1.09,4.25
			c0.2,1.7,0.12,3.43,0.13,5.15c0.01,2.68,0.03,5.37-0.01,8.05c-0.01,0.62-0.14,1.3-0.42,1.84c-0.22,0.44-0.96,1.08-1.11,1
			c-0.52-0.3-0.89-0.87-1.59-1.63c-1.14-0.13-2.76-0.31-4.38-0.49c0.08-0.67,0.17-1.4,0.25-2.13c-2.73-0.43-3.15-0.17-4.13,2.57
			c-0.62-0.44-1.22-0.85-1.9-1.33c-1.38,2.51-4.43,1.62-6.58,2.81c-0.68-0.18-1.37-0.52-2.04-0.51c-9.24,0.15-18.49,0.38-27.73,0.54
			c-3.53,0.06-7.06,0.01-10.59,0.01c-0.02,0.23-0.04,0.47-0.06,0.7c2.4,0.74,4.79,1.5,7.2,2.21c1.3,0.39,2.72,0.52,3.9,1.12
			c1.5,0.76,1.77,0.02,1.9-1.14c0.08-0.69,0.01-1.4,0.01-2.06C374.14,117.18,383.27,118.68,392.29,117.01z M407.64,104.19
			c0.32,2.47,0.59,4.53,0.91,6.98c0.63-1.82,1.04-3.22,1.58-4.56c0.71-1.78-0.6-2.91-1.29-4.23c-0.06-0.12-1.04,0.02-1.07,0.14
			c-0.31,1.7-1.92,1.36-2.92,1.96c-0.46,0.28-0.78,0.77-1.17,1.17c0.13,0.13,0.26,0.25,0.38,0.38
			C405.16,105.47,406.25,104.91,407.64,104.19z M329.06,113.77c0.94,0.16,1.65,0.29,2.36,0.42c0.13-0.19,0.26-0.38,0.4-0.56
			c-0.56-0.52-1.12-1.03-1.81-1.67C329.61,112.71,329.4,113.11,329.06,113.77z M405.44,110.69c0.22,0.06,0.43,0.12,0.65,0.18
			c0.16-1.11,1.37-2.04,0.81-3.27c-0.22-0.05-0.45-0.09-0.67-0.14C405.97,108.54,405.7,109.62,405.44,110.69z"/>
		<path class="st0" d="M365.04,137.78c0,4.12-0.01,8.24-0.01,12.35c0,4.12,0.13,8.24-0.04,12.35c-0.16,3.95,0.11,7.88-0.42,11.87
			c-0.53,3.93,0.46,8.07,0.8,12.33c10.61,0,21.39,0,32.24,0c0,3.96,0,7.71,0,11.43c-6.83,3.14-13.63,6.32-20.47,9.4
			c-3.66,1.65-7.41,3.11-11.1,4.72c-1.12,0.49-2.09,1.37-3.23,1.79c-3.2,1.18-6.54,1.81-9.65,3.44c-4.88,2.56-10.06,4.55-15.09,6.82
			c-3.37,1.51-6.71,3.08-10.27,4.71c0-20.4,0-40.44,0-60.38c0.38-0.2,1.05-0.48,1.03-0.55c-0.2-0.64-0.51-1.25-0.88-2.06
			c3.54-2.7,7.23-5.52,10.92-8.33c8.3-6.33,16.6-12.67,24.91-19c0.42-0.32,0.89-0.56,1.34-0.84
			C365.1,137.83,365.04,137.78,365.04,137.78z M329.83,166.68c-0.13,0.25-0.27,0.49-0.4,0.74c0.56,0.51,1.05,1.32,1.69,1.46
			c1.33,0.29,2.73,0.24,4.1,0.3c0.37,0.02,0.74-0.09,1.11-0.14c-0.01-0.1-0.02-0.2-0.03-0.3
			C334.15,168.05,331.99,167.37,329.83,166.68z M345.6,169.29c-0.18,0.15-0.35,0.3-0.53,0.46c0.67,0.76,1.27,1.58,2.02,2.24
			c0.35,0.3,0.98,0.28,1.48,0.41c0.09-0.2,0.17-0.4,0.26-0.6C347.75,170.96,346.67,170.12,345.6,169.29z M341.74,168.71
			c-0.08,0.21-0.16,0.42-0.24,0.63c1.04,2.08,1.45,2.22,3.05,0.63C343.52,169.51,342.63,169.11,341.74,168.71z"/>
		<path class="st0" d="M204.68,307.67c2.05-2.41,3.91-4.59,6.12-7.17c-0.57,2.49-1.1,4.47-1.47,6.48c-0.2,1.09-0.14,2.24-0.21,3.36
			c-0.02,0.34-0.01,0.7-0.11,1.02c-0.65,2.06-1.36,4.1-1.98,6.16c-0.62,2.05-1.18,4.12-1.73,6.19c-0.19,0.71-0.26,1.45-0.42,2.36
			c-3.5,0-7.2,0-11.11,0c0.25-2.05-0.81-4.24,1.04-6.05c0.17-0.16,0.23-0.51,0.22-0.77c-0.05-1.36-0.2-2.72-0.2-4.08
			c-0.01-24.93-0.01-49.86-0.01-74.79c0-0.71,0-1.42,0-2.58c2.09,0.66,4.01,1.13,5.81,1.86c2.63,1.07,5.18,2.36,7.77,3.52
			c4.21,1.87,8.41,3.75,12.65,5.55c1.09,0.46,1.2,1.1,1.19,2.2c-0.04,4.15-1.95,7.78-2.97,11.65c-0.58,2.21-0.74,4.54-1.08,6.81
			c-0.08,0.51-0.11,1.03-0.23,1.54c-0.82,3.5-1.7,6.99-2.48,10.5c-0.5,2.24-0.83,4.51-1.29,6.76c-0.08,0.38-0.34,0.73-0.57,1.06
			c-0.19,0.27-0.61,0.46-0.67,0.74c-0.46,2.11-0.85,4.24-1.27,6.37c-0.05,0.27-0.07,0.59-0.22,0.8c-2.36,3.23-4.74,6.44-7.1,9.66
			C204.35,306.85,204.4,306.93,204.68,307.67z"/>
		<path class="st0" d="M239.97,255.17c-0.5,0.17-0.99,0.48-1.49,0.49c-2.37,0.05-4.75,0.02-7.13,0.02
			c-1.08,5.86,1.31,11.88-2.01,17.62c0.72-0.23,1.05-0.33,1.53-0.48c0,0.73,0,1.37,0,2.02c0,14.97-0.07,29.95,0.07,44.92
			c0.02,2.36-1.36,4.04-1.67,6.45c-0.31-0.56-0.43-0.78-0.69-1.25c-0.04,0.75-0.06,1.25-0.08,1.76c-7.37,0-14.67,0-22.04,0
			c1.69-7.74,3.28-15.31,5.03-22.83c0.45-1.95,1.43-3.79,2.14-5.68c0.89-2.36,1.55-4.84,2.7-7.07c0.9-1.72,2.41-3.12,3.35-4.95
			c-1.04,1.1-2.07,2.2-3.11,3.3c-0.1-0.04-0.21-0.08-0.31-0.12c0.19-0.93,0.42-1.86,0.56-2.8c0.49-3.21,0.83-6.44,1.44-9.63
			c0.54-2.81,1.44-5.55,2.05-8.35c0.54-2.48,0.85-5,1.38-7.48c0.74-3.41,1.59-6.79,2.39-10.19c0.21-0.92,0.68-1.11,1.57-0.78
			c4.09,1.56,8.2,3.08,12.32,4.59c0.65,0.24,1.36,0.34,2.04,0.5C240.02,255.23,239.97,255.17,239.97,255.17z"/>
		<path class="st0" d="M143.51,384.67c0,2.56,0,5.04,0,7.63c-28.33,0-56.58,0-85,0c-0.53-2.45-1.07-4.93-1.66-7.63
			C85.77,384.67,114.56,384.67,143.51,384.67z"/>
		<path class="st0" d="M556.3,384.58c-0.51,2.39-0.92,4.62-1.5,6.8c-0.11,0.43-0.81,0.74-1.3,1.01c-0.23,0.13-0.58,0.02-0.88,0.02
			c-26.97,0-53.93,0-80.9,0c-0.64,0-1.29,0-2.04,0c0-2.67,0-5.2,0-7.83C498.53,384.58,527.32,384.58,556.3,384.58z"/>
		<path class="st0" d="M454.71,360.54c0.63-1.33,1.16-2.44,1.68-3.55c0.23,0.09,0.45,0.17,0.68,0.26c0.04,2.63,0.02,5.25,0.01,7.87
			c-0.31,0-0.62,0-0.92,0c-0.08-1-0.15-1.99-0.24-3.1c-0.63,0.46-0.62,2.77-2.02,0.53c-0.1,0.39-0.13,0.6-0.21,0.81
			c-0.22,0.58-0.45,1.15-0.68,1.73c-0.17-0.56-0.48-1.12-0.5-1.69c-0.07-1.72-0.05-3.45,0-5.18c0.01-0.35,0.29-0.68,0.45-1.02
			c0.31,0.28,0.75,0.5,0.9,0.85C454.21,358.8,454.41,359.61,454.71,360.54z"/>
		<path class="st0" d="M301.88,278.23c-0.38,0.99-0.75,1.94-1.28,3.33c-0.44-0.63-0.74-1.03-1.01-1.46
			c-0.14-0.22-0.21-0.48-0.31-0.72c-0.29,0.22-0.61,0.42-0.86,0.68c-0.41,0.42-0.74,0.93-1.19,1.3c-0.46,0.39-1,0.73-1.56,0.96
			c-0.37,0.15-0.84,0.09-1.26,0.12c-0.14-0.2-0.27-0.41-0.41-0.61c0.53-0.12,1.06-0.24,1.58-0.36c-0.16-0.26-0.32-0.53-0.48-0.79
			c-0.54,0.07-1.09,0.11-1.63,0.23c-0.51,0.11-1,0.32-1.51,0.4c-0.08,0.01-0.39-0.59-0.32-0.66c0.43-0.45,0.88-1.04,1.42-1.17
			c0.71-0.18,1.53-0.08,2.27,0.09c1.12,0.25,2.02-0.32,2.59-0.97C299.23,277.13,300.49,277.59,301.88,278.23z"/>
		<path class="st0" d="M548.61,179.64c0.46-1.55,0.91-3.11,1.37-4.66c-0.18-0.07-0.36-0.14-0.54-0.21c0.79-0.39,1.58-0.79,2.29-1.15
			c1.33,3.27-0.4,5.7-2.18,8.42c-0.54-0.86-1-1.59-1.45-2.31C548.27,179.69,548.44,179.67,548.61,179.64z"/>
		<path class="st0" d="M449.56,365.41c-1.74-0.94-0.97-2.25-1.08-3.23c-0.13-1.17-0.03-2.36-0.03-3.65
			c-0.34-0.08-0.63-0.09-0.87-0.21c-0.32-0.16-0.59-0.39-0.88-0.6c0.3-0.19,0.58-0.52,0.9-0.56c0.7-0.09,1.43-0.1,2.13-0.01
			c0.55,0.07,1.08,0.36,1.61,0.55c-0.49,0.3-0.97,0.59-1.78,1.09C449.56,360.63,449.56,362.84,449.56,365.41z"/>
		<path class="st0" d="M61.69,329.11c-0.51,0.55-1.01,1.09-1.52,1.64c-0.24-0.35-0.48-0.69-0.63-0.9c-1.04,0.66-2.25,1.43-3.46,2.2
			c-0.1-0.12-0.2-0.24-0.3-0.37c0.17-0.29,0.33-0.57,0.79-1.36c-0.87,0.35-1.27,0.57-1.69,0.65c-0.28,0.05-0.78-0.01-0.85-0.18
			c-0.11-0.24,0.02-0.86,0.14-0.89c2.38-0.52,4.76-0.97,7.15-1.44C61.44,328.68,61.56,328.9,61.69,329.11z"/>
		<path class="st0" d="M538.25,211.17c1.92,1.38,1.91,1.7,0.2,3.26c-0.72,0.66-1.3,1.47-1.94,2.21c-1.06-0.74-1.05-1.37,0.34-1.77
			C535.23,213.68,535.39,213.3,538.25,211.17z"/>
		<path class="st0" d="M146.21,219.24c0.35-1.27,0.53-1.92,0.81-2.93c0.48,0.67,0.75,1.05,0.96,1.34c0.77-0.65,1.46-1.47,2.34-1.91
			c0.8-0.4,1.8-0.42,2.72-0.53c0.06-0.01,0.41,0.86,0.27,1.05c-0.26,0.33-0.77,0.56-1.2,0.62c-1.21,0.17-2.27,0.41-3.18,1.41
			C148.45,218.83,147.41,218.85,146.21,219.24z"/>
		<path class="st0" d="M324.13,272.16c0.09,0.78,0.17,1.39,0.24,1.99c0.08,0.7,0.26,1.42,0.15,2.09c-0.03,0.2-1.04,0.52-1.33,0.34
			c-0.56-0.34-1.17-0.93-1.32-1.53C321.37,273.06,322.06,272.35,324.13,272.16z"/>
		<path class="st0" d="M545.32,186.97c-0.09-1.4-0.55-2.73-0.13-3.66c0.36-0.81,1.72-1.18,2.65-1.75
			C548.6,183.02,547.35,185.68,545.32,186.97z"/>
		<path class="st0" d="M152.45,230.85c0.11-1.28,0.48-2.61,0.26-3.84c-0.24-1.36-1.02-2.62-1.68-4.21c2.08,0.49,2.68,1.86,2.76,3.14
			c0.1,1.61-0.37,3.25-0.59,4.87C152.95,230.82,152.7,230.83,152.45,230.85z"/>
		<path class="st0" d="M146.59,206.9c-0.2-0.81-0.54-1.5-0.48-2.15c0.05-0.59,0.51-1.15,0.8-1.72c0.59,0.43,1.54,0.75,1.7,1.3
			C149.07,206.03,148.37,206.8,146.59,206.9z"/>
		<path class="st0" d="M541.71,219.31c-2.17-1.52-2.57-2.76-1.41-4.09C541.92,216.24,542.18,216.95,541.71,219.31z"/>
		<path class="st0" d="M320.82,291.96c-0.89-1.09-1.48-1.69-1.87-2.4c-0.06-0.11,0.79-1.04,1.2-1.02c0.54,0.02,1.43,0.53,1.51,0.96
			C321.77,290.08,321.26,290.78,320.82,291.96z"/>
		<path class="st0" d="M296.87,266.68c-0.81,0.67-1.29,1.06-1.76,1.45c-0.44-0.57-1.12-1.1-1.22-1.72
			c-0.06-0.38,0.83-1.31,1.19-1.26C295.62,265.21,296.07,265.94,296.87,266.68z"/>
		<path class="st0" d="M315.22,290.16c0.59,0.77,1.21,1.28,1.12,1.54c-0.25,0.71-0.8,1.31-1.23,1.96c-0.47-0.52-1.27-1.01-1.32-1.57
			C313.75,291.59,314.54,291.02,315.22,290.16z"/>
		<path class="st0" d="M409.39,127.04c-0.59,0.5-1.1,1.11-1.25,1.03c-0.69-0.35-1.28-0.89-1.9-1.37c0.43-0.48,0.85-0.96,1.28-1.45
			C408.06,125.79,408.62,126.31,409.39,127.04z"/>
		<path class="st0" d="M297,274.13c-1.75,1.45-2.37,1.31-2.97-0.26c-0.11-0.28-0.37-0.51-0.57-0.75c-0.19-0.24-0.4-0.47-0.35-1.05
			C294.34,272.72,295.56,273.36,297,274.13z"/>
		<path class="st0" d="M158,190.45c0.57,0.78,1.25,1.32,1.19,1.73c-0.07,0.45-0.81,0.99-1.33,1.09c-0.35,0.07-1.24-0.72-1.19-0.86
			C156.9,191.8,157.39,191.3,158,190.45z"/>
		<path class="st0" d="M326.24,281.06c-0.42-0.78-0.95-1.31-0.84-1.63c0.16-0.47,0.77-1.08,1.19-1.07c0.42,0,0.83,0.68,1.24,1.07
			C327.4,279.87,326.97,280.32,326.24,281.06z"/>
		<path class="st0" d="M548.33,192.12c-1.08,0.69-1.76,1.2-2.52,1.53c-0.14,0.06-0.61-0.65-0.93-1c0.64-0.51,1.23-1.11,1.94-1.48
			C547.02,191.05,547.57,191.62,548.33,192.12z"/>
		<path class="st0" d="M543.24,192.47c-0.55,0.58-0.9,1.03-1.35,1.34c-0.08,0.05-0.87-0.59-0.82-0.75c0.25-0.79,0.67-1.52,1.03-2.27
			C542.4,191.24,542.7,191.68,543.24,192.47z"/>
		<path class="st0" d="M322.02,302.41c-0.67,0.63-1.07,1.12-1.58,1.41c-0.11,0.06-0.93-0.64-0.88-0.84
			c0.14-0.52,0.51-1.09,0.96-1.36C320.72,301.49,321.32,302.02,322.02,302.41z"/>
		<path class="st0" d="M316.17,308.82c0.07-1.11,0.09-2.23,0.25-3.34c0.03-0.18,0.64-0.27,0.98-0.41c0.05,0.36,0.22,0.75,0.13,1.07
			c-0.24,0.88-0.6,1.73-0.91,2.59C316.47,308.76,316.32,308.79,316.17,308.82z"/>
		<path class="st0" d="M151.28,193.54c0.58-0.82,0.87-1.23,1.35-1.91c0.55,0.51,1.07,0.89,1.44,1.38c0.11,0.14-0.2,0.86-0.31,0.85
			C153.06,193.84,152.36,193.7,151.28,193.54z"/>
		<path class="st0" d="M537.33,199.51c-0.63,1.28-1.29,1.79-2.43,0.63c0.4-0.57,0.8-1.13,1.33-1.89
			C536.61,198.69,536.95,199.08,537.33,199.51z"/>
		<path class="st0" d="M539.97,201c-0.53-0.84-0.95-1.3-1.09-1.84c-0.05-0.2,0.54-0.57,0.84-0.86c0.33,0.48,0.74,0.93,0.96,1.46
			C540.76,199.95,540.38,200.33,539.97,201z"/>
		<path class="st0" d="M154.56,181.76c0.66-0.31,1.32-0.61,1.98-0.92c0.02,0.4,0.2,1.02,0.02,1.16c-0.46,0.35-1.08,0.48-1.63,0.7
			C154.8,182.39,154.68,182.08,154.56,181.76z"/>
		<path class="st0" d="M145.81,199.22c0.22,0.3,0.67,0.7,0.6,0.89c-0.15,0.39-0.59,0.94-0.9,0.93c-0.36-0.01-0.94-0.5-1.01-0.86
			c-0.08-0.44,0.26-0.96,0.42-1.44C145.23,198.9,145.52,199.06,145.81,199.22z"/>
	</g>
</g>
</svg>
