<?xml version="1.0" encoding="utf-8"?>
<!-- Generator: Adobe Illustrator 25.4.1, SVG Export Plug-In . SVG Version: 6.00 Build 0)  -->
<svg version="1.1" id="Calque_1" xmlns="http://www.w3.org/2000/svg" xmlns:xlink="http://www.w3.org/1999/xlink" x="0px" y="0px"
	 viewBox="0 0 848.64 500" style="enable-background:new 0 0 848.64 500;" xml:space="preserve">
<style type="text/css">
	.st0{fill:#e7e7e7;}
</style>
<g id="urx5mK_00000146466257012067440260000013953516661462119841_">
	<g>
		<path class="st0" d="M457.01,202.48c12.31-2.41,24.41-5.04,36.64-6.88c1.85-0.28,5.3,2.69,6.23,4.9
			c9.3,22.15,18.21,44.47,27.26,66.72c1.14,2.81,2.45,5.55,4.88,7.91c-2.06-27.05-4.12-54.1-6.24-81.87c15.75,0,31.14,0,46.98,0
			c0.18,1.51,0.52,3.02,0.53,4.54c0.47,60.26,0.81,120.52,1.51,180.78c0.08,7.1-1.79,9.9-9.12,9.78
			c-7.36-0.11-14.84,0.51-22.09,1.79c-7.24,1.28-10.21-1.79-12.71-8.09c-8.28-20.85-17.11-41.49-25.75-62.19
			c-0.69-1.65-1.52-3.23-2.78-5.9c0,23.67,0,46.1,0,69.11c-14.52,0-29.67,0-45.34,0C457.01,322.92,457.01,263.05,457.01,202.48z"/>
		<path class="st0" d="M349.17,390.32c-16.64,1.32-32.08,2.69-47.54,3.51c-1.45,0.08-3.86-3.08-4.51-5.14
			c-4.74-15.1-9.14-30.32-13.66-45.49c-0.73-2.45-1.55-4.87-2.33-7.31c-0.96,0.05-1.92,0.1-2.88,0.15c0,11.7,0.28,23.4-0.06,35.09
			c-0.58,19.81,1.88,16.13-16.46,16.49c-10.51,0.21-21.03,0.04-32.08,0.04c0-64.09,0-127.37,0-191.28c2.33-0.19,4.6-0.53,6.88-0.53
			c17.71,0.04,35.42,0.39,53.13,0.16c16.02-0.21,28.58,6.5,38.83,18.17c22.66,25.79,23.37,73.63-0.69,96.84
			c-1.71,1.65-1.89,6.24-1.06,8.92c6.07,19.67,12.6,39.19,18.96,58.77C346.74,381.97,347.66,385.26,349.17,390.32z M278.63,291.32
			c11.18-4.28,15.27-14.42,13.79-32.41c-0.9-10.96-5.12-16.75-13.79-18.48C278.63,257.22,278.63,273.95,278.63,291.32z"/>
		<path class="st0" d="M224.87,294.7c-3.28,18.91-4.83,38.32-10.18,56.62c-11.65,39.87-47.75,46.92-77.84,35.66
			c-16.1-6.02-25.04-19.44-29.54-35.17c-3.61-12.6-6.25-25.75-7.09-38.81c-1.74-26.93-2.08-54.03,7.43-79.94
			c14.57-39.65,66.33-51.41,94.25-21.46c13.11,14.06,16.79,32.04,19.01,50.29c1.3,10.74,1.56,21.6,2.29,32.41
			C223.75,294.43,224.31,294.56,224.87,294.7z M162.09,235.99c-1.25,0.06-2.49,0.12-3.74,0.19c-1.28,5.72-3.47,11.4-3.67,17.16
			c-0.77,21.32-1.19,42.67-1.11,64.01c0.03,8.91,1.41,17.84,2.66,26.69c0.39,2.75,2.35,5.28,3.59,7.91
			c0.79-0.03,1.57-0.06,2.36-0.09c1.14-3.27,3.23-6.54,3.26-9.83c0.29-31.82,0.34-63.65,0.11-95.48
			C165.51,243.02,163.29,239.51,162.09,235.99z"/>
		<path class="st0" d="M840.2,241.01c-12.26,0.55-23.81,1.06-35.89,1.6c0,9.84,0,19.21,0,29.71c10.01,0,20.12,0,30.6,0
			c0,15.76,0,30.4,0,45.69c-9.87,0-19.3,0-29.28,0c0,12.66,0,24.69,0,37.62c11.21,0,22.46,0,34.37,0c0,17.63,0,34.37,0,52.3
			c-14.36-0.91-28.47-1.73-42.57-2.7c-12.39-0.86-24.77-2.07-37.17-2.74c-4.57-0.25-6.54-1.57-6.53-6.5
			c0.13-66.64,0.09-133.28,0.13-199.92c0-1.26,0.34-2.52,0.61-4.4c28.55-2.36,56.87-4.7,85.72-7.09
			C840.2,203.58,840.2,221.68,840.2,241.01z"/>
		<path class="st0" d="M8.44,413.84c0-77.56,0-154.33,0-231.66c31.03,0,62.04,0,94.12,0c-1.46,15.66-2.73,31.08-4.61,46.42
			c-0.18,1.46-4.17,3.42-6.45,3.5c-10.27,0.38-20.55,0.17-31.43,0.17c0,12.34,0,24.07,0,36.62c10.41,0,20.85,0,31.97,0
			c0,16.74,0,32.69,0,49.93c-10.57,0-21.2,0-32.56,0c0,18.12,0,34.97,0,51.83c0,9.51,0.2,19.04-0.17,28.54
			c-0.08,2.02-1.94,5.39-3.48,5.71C40.4,408.11,24.84,410.82,8.44,413.84z"/>
		<path class="st0" d="M669.31,260.71c-9.78,0-18.11,0-27.14,0c0-15.79-0.13-30.77,0.2-45.74c0.03-1.47,2.74-4.06,4.32-4.16
			c33.45-1.99,66.91-3.7,101.06-5.5c0,16.58,0,32.53,0,49.26c-8.79,0-17.66,0-27.57,0c0,48.43,0,96.09,0,144.18
			c-17.33,0-33.63,0-50.87,0C669.31,353.21,669.31,307.67,669.31,260.71z"/>
		<path class="st0" d="M346.92,245.56c0-17.14,0-32.68,0-49.47c34.78,2.76,69.09,5.49,103.93,8.25c0,16.45,0,32.38,0,49.02
			c-8.56,0-16.92,0-26.18,0c0,44.38,0,88.07,0,132.46c-17.35,0-33.78,0-50.97,0c0-46.45,0-92.84,0-140.26
			C364.46,245.56,355.93,245.56,346.92,245.56z"/>
		<path class="st0" d="M635.92,392.49c-17.38,0-33.95,0-51.09,0c0-63.61,0-126.87,0-190.63c16.93,0,33.7,0,51.09,0
			C635.92,265.38,635.92,328.6,635.92,392.49z"/>
	</g>
</g>
</svg>
