<?xml version="1.0" encoding="utf-8"?>
<!-- Generator: Adobe Illustrator 25.4.1, SVG Export Plug-In . SVG Version: 6.00 Build 0)  -->
<svg version="1.1" id="Calque_1" xmlns="http://www.w3.org/2000/svg" xmlns:xlink="http://www.w3.org/1999/xlink" x="0px" y="0px"
	 viewBox="0 0 610.55 500" style="enable-background:new 0 0 610.55 500;" xml:space="preserve">
<style type="text/css">
	.st0{fill:#5B5B5B;}
</style>
<g id="ff4655ff">
	<path class="st0" d="M170.12,68.77c1.6-0.95,2.62,0.97,3.48,1.99c55.57,69.52,111.21,138.99,166.77,208.51
		c1.14,0.99,0.28,3.11-1.26,2.88c-26.61,0.03-53.22,0.01-79.82,0.01c-2.13,0.03-4.17-1.04-5.48-2.7
		c-27.61-34.49-55.2-69-82.8-103.49c-1.17-1.39-1.78-3.2-1.7-5.01c0-33.32,0.01-66.65-0.01-99.98
		C169.31,70.2,169.28,69.18,170.12,68.77z"/>
	<path class="st0" d="M427.13,68.61c1.14-0.43,2.39,0.62,2.22,1.81c0.04,33.34-0.01,66.68,0.02,100.02
		c0.08,1.89-0.34,3.84-1.57,5.33c-8.39,10.5-16.79,20.99-25.18,31.48c-1.4,1.82-3.69,2.82-5.97,2.71
		c-26.43-0.03-52.86,0.02-79.29-0.02c-1.56,0.24-2.45-1.86-1.3-2.88c36.65-45.85,73.33-91.69,110.01-137.54
		C426.35,69.12,426.7,68.82,427.13,68.61z"/>
	<path class="st0" d="M244.4,339.5c8.02-1.23,16.44,0.19,23.57,4.09c6.91,3.74,12.6,9.72,15.97,16.82
		c3.75,7.79,4.62,16.9,2.51,25.29c-2.01,8.12-6.87,15.48-13.51,20.57c-11.35,8.94-27.98,10.26-40.62,3.27
		c-7.27-3.9-13.17-10.28-16.5-17.84c-4.19-9.38-4.25-20.51-0.16-29.94C220.59,350.05,231.83,341.31,244.4,339.5 M246.42,352.13
		c-8.05,1.22-15.13,6.93-18.29,14.4c-3.26,7.43-2.62,16.45,1.73,23.31c3.57,5.78,9.65,10,16.37,11.08
		c6.84,1.2,14.12-0.91,19.33-5.48c5.94-5.09,9.16-13.11,8.49-20.89c-0.51-6.95-4.07-13.62-9.63-17.83
		C259.39,352.81,252.72,351.09,246.42,352.13z"/>
	<path class="st0" d="M46.16,341.22c3.12-0.85,6.42-0.16,9.61-0.4c1.14,0.16,2.86-0.43,3.51,0.85c0.22,1.67,0.08,3.36,0.1,5.05
		c0,14.7-0.01,29.41,0,44.11c12.89-16.11,25.76-32.22,38.64-48.34c0.67-0.84,1.59-1.58,2.71-1.6c3.7-0.16,7.4,0.02,11.1-0.07
		c1.38,0.03,2.92-0.24,4.1,0.68c-4.31,5.68-8.87,11.16-13.29,16.75c-13.23,16.57-26.47,33.13-39.71,49.69
		c-0.98,1.2-1.85,2.53-3.03,3.57c-1.16,0.95-2.77,0.66-4.15,0.73c-3.2-0.11-6.41,0.17-9.6-0.22V341.22z"/>
	<path class="st0" d="M135.66,343.79c1.37-1.86,3.63-2.99,5.94-2.94c2.86,0.01,5.72-0.05,8.58,0.03c0.98-0.11,1.54,0.91,1.41,1.78
		c0,22.58,0,45.16,0,67.73c0.13,0.87-0.4,1.93-1.41,1.82c-3.54,0.04-7.08,0.04-10.62-0.01c-1.3,0.04-2.32-0.88-3.05-1.85
		c-6.12-7.69-12.27-15.35-18.39-23.04c-6.23,7.76-12.43,15.55-18.65,23.33c-0.67,0.85-1.63,1.57-2.76,1.56
		c-4.06,0.09-8.12-0.02-12.18,0.05c-0.99-0.07-2.24,0.25-2.86-0.78C99.56,388.82,117.69,366.36,135.66,343.79 M125.57,376.54
		c4.2,5.23,8.34,10.5,12.58,15.7c0.03-10.48,0.02-20.95,0.01-31.43C133.95,366.03,129.76,371.28,125.57,376.54z"/>
	<path class="st0" d="M167.63,342.64c-0.1-0.8,0.34-1.78,1.26-1.76c3.56-0.09,7.14-0.05,10.7-0.02c1.02-0.11,1.66,0.9,1.49,1.83
		c0.02,18.92,0.01,37.84,0.01,56.76c9.9,0.04,19.8-0.03,29.69,0.03c0.85-0.18,1.38,0.89,0.71,1.46c-2.58,3.32-5.24,6.58-7.86,9.87
		c-0.79,1.07-2.14,1.51-3.43,1.41c-10.43-0.04-20.87,0.04-31.31-0.04c-0.96,0.04-1.36-1-1.27-1.8
		C167.63,387.81,167.62,365.22,167.63,342.64z"/>
	<path class="st0" d="M299.53,342.66c-0.23-1.04,0.61-1.98,1.66-1.81c18.04-0.02,36.08-0.01,54.11-0.01
		c0.83-0.12,1.82,0.4,1.74,1.35c0.06,4.89,0.01,9.78,0.02,14.67c0.11,1.17-0.51,2.19-1.23,3.05c-5.21,6.44-10.33,12.94-15.55,19.37
		c-0.26,0.45-1.12,1.06-0.46,1.58c7.89,9.92,15.84,19.79,23.72,29.72c0.57,0.47,0.58,1.61-0.35,1.58c-4.68,0.1-9.36,0.05-14.04,0.03
		c-1.83,0.03-2.87-1.68-3.88-2.93c-7.24-9.09-14.49-18.17-21.76-27.23c-0.54-0.67-1.37-1.63-0.62-2.45
		c6.84-8.69,13.81-17.28,20.69-25.95c-10.19-0.05-20.38,0.09-30.56-0.07c-0.18,19.09,0.01,38.19-0.1,57.28
		c0.12,0.89-0.8,1.48-1.6,1.36c-3.54,0-7.07,0.06-10.61-0.03c-0.94,0.01-1.32-1.05-1.2-1.83
		C299.53,387.79,299.53,365.23,299.53,342.66z"/>
	<path class="st0" d="M375.03,342.7c-0.16-0.91,0.43-1.95,1.45-1.83c3.37-0.06,6.75-0.03,10.12-0.02c1.26-0.08,2.48,0.52,3.23,1.54
		c16.83,21.06,33.66,42.13,50.5,63.19c1.45,1.94,3.19,3.69,4.44,5.78c-0.12,0.2-0.36,0.59-0.48,0.79c-4.08,0.21-8.18,0-12.26,0.09
		c-1.61,0.03-3.56,0.16-4.63-1.31c-6.32-7.84-12.59-15.74-18.88-23.61c-6.23,7.76-12.43,15.55-18.65,23.32
		c-0.67,0.86-1.64,1.57-2.77,1.57c-3.53,0.05-7.05,0.04-10.57,0.01c-1.05,0.15-1.66-0.91-1.49-1.84
		C375.03,387.81,375.04,365.25,375.03,342.7 M388.47,360.83c-0.02,10.47-0.02,20.94,0,31.42c4.2-5.23,8.38-10.48,12.57-15.72
		C396.85,371.3,392.69,366.03,388.47,360.83z"/>
	<path class="st0" d="M434.39,342.72c-0.11-0.78,0.24-1.8,1.17-1.82c3.36-0.14,6.72-0.02,10.08-0.06c1.3-0.09,2.67,0.34,3.46,1.43
		c12.95,16.17,25.86,32.38,38.82,48.55c0-16.05-0.01-32.09,0-48.14c-0.22-1.01,0.57-1.99,1.63-1.83c3.56,0.01,7.11-0.08,10.66,0.05
		c0.91,0.04,1.24,1.05,1.14,1.82c0,22.55,0,45.09,0,67.64c0.11,0.77-0.23,1.81-1.15,1.82c-3.53,0.1-7.07,0.03-10.6,0.04
		c-1.17,0.05-2.27-0.52-2.96-1.44c-12.94-16.16-25.83-32.35-38.78-48.5c-0.02,9.47,0.03,18.94-0.02,28.41
		c0.25,0.84-0.95,1.57-1.46,0.8c-3.72-4.51-7.31-9.13-10.97-13.68c-0.82-0.89-1.08-2.1-1.02-3.27
		C434.39,363.93,434.37,353.32,434.39,342.72z"/>
	<path class="st0" d="M510.63,342.19c-0.11-0.92,0.87-1.45,1.68-1.34c14.83-0.03,29.66,0,44.49-0.01c1.28-0.08,2.63,0.34,3.41,1.42
		c2.63,3.27,5.28,6.54,7.86,9.85c0.68,0.56,0.17,1.66-0.69,1.51c-7.75,0.06-15.51,0-23.27,0.03c-0.04,18.91,0.05,37.82,0.04,56.73
		c0.18,0.9-0.44,1.94-1.45,1.84c-3.54,0.03-7.09,0.05-10.62-0.01c-0.75,0.07-1.41-0.6-1.33-1.34c-0.13-19.07-0.01-38.15-0.11-57.22
		c-6.12-0.02-12.24,0.02-18.35-0.01c-0.81,0.1-1.78-0.46-1.66-1.38C510.58,348.89,510.57,345.54,510.63,342.19z"/>
</g>
</svg>
