<?xml version="1.0" encoding="utf-8"?>
<!-- Generator: Adobe Illustrator 25.4.1, SVG Export Plug-In . SVG Version: 6.00 Build 0)  -->
<svg version="1.1" id="Calque_1" xmlns="http://www.w3.org/2000/svg" xmlns:xlink="http://www.w3.org/1999/xlink" x="0px" y="0px"
	 viewBox="0 0 861.95 500" style="enable-background:new 0 0 861.95 500;" xml:space="preserve">
<style type="text/css">
	.st0{fill:#e7e7e7;}
</style>
<g id="qTfmCT_00000069376588241670448290000009903260371964104355_">
	<g>
		<path class="st0" d="M42.79,197.26c12.15,0,23.92,0,36.34,0c2.69,36.55,5.37,73.12,8.06,109.69c0.81-0.01,1.62-0.01,2.42-0.02
			c2.59-36.48,5.18-72.97,7.78-109.68c16.97,0,33.55,0,50.65,0c2.69,36.66,5.37,73.15,8.05,109.63c0.81,0,1.62,0,2.43,0
			c2.67-36.46,5.34-72.92,8.03-109.62c12.13,0,23.91,0,36.32,0c0.09,1.7,0.18,3.44,0.29,5.19c1.52,23.47-2.71,46.48-5.76,69.57
			c-4.55,34.51-9.26,68.99-13.91,103.48c-0.29,2.14-0.67,4.26-1.07,6.75c-16.69,0-33.24,0-50.27,0
			c-3.04-37.37-5.02-74.79-8.27-112.09c-0.76,0.01-1.52,0.03-2.28,0.04c-2.65,37.23-5.3,74.45-7.98,112.05c-16.81,0-33.35,0-50.38,0
			c-1.1-7.7-2.26-15.41-3.3-23.13c-5.74-42.75-11.73-85.47-16.96-128.28C41.66,219.88,42.79,208.64,42.79,197.26z"/>
		<path class="st0" d="M697.95,278.23c0-26.68,0-53.36,0-80.3c12.37,0,23.96,0,35.9,0c0,61.53,0,122.92,0,184.83
			c-11.39,0-22.5,0.14-33.6-0.2c-1.26-0.04-3-2.63-3.56-4.35c-6.93-21.38-13.67-42.82-20.5-64.22c-1.31-4.1-2.84-8.13-4.27-12.2
			c-0.58,0.13-1.17,0.26-1.75,0.4c0,26.66,0,53.31,0,80.3c-12.45,0-24.16,0-36.16,0c0-61.44,0-122.68,0-184.82
			c6,0,11.91-0.08,17.82,0.02c5.95,0.1,13.35-1.67,17.43,1.2c3.84,2.7,4.28,10.35,6.06,15.88c6.36,19.81,12.65,39.64,19,59.46
			c0.47,1.47,1.16,2.88,1.75,4.32C696.69,278.44,697.32,278.33,697.95,278.23z"/>
		<path class="st0" d="M386.75,297.45c6.28,16.87,12.24,33.46,18.68,49.86c2.5,6.35,3.74,12.65,3.39,19.43
			c-0.26,5.1-0.05,10.23-0.05,15.83c-11.76,0-22.88,0.12-34-0.18c-1.17-0.03-2.78-2.44-3.31-4.04
			c-7.07-21.16-13.98-42.37-20.93-63.57c-0.84-2.56-1.41-5.48-5.69-3.64c0,23.45,0,47.07,0,71.09c-13.77,0-27.15,0-40.9,0
			c0-61.59,0-123.13,0-185.24c7.44,0,14.73,0,22.01,0c16.5,0,33-0.05,49.5,0.01c16.56,0.07,27.57,10.18,28.14,26.73
			c0.53,15.65,0.34,31.33,0.12,46.99C403.53,282.83,398.34,292.19,386.75,297.45z M345.08,230.68c0,15.83,0,30.88,0,46.27
			c4.48,0,8.63,0.01,12.77,0c3.26-0.01,4.87-1.67,4.87-4.93c0-12.15,0.18-24.3-0.18-36.44c-0.05-1.67-2.55-4.4-4.23-4.67
			C354.11,230.22,349.73,230.68,345.08,230.68z"/>
		<path class="st0" d="M626.19,291.17c0,19.66,0.02,39.32-0.02,58.98c-0.01,2.99-0.26,5.99-0.5,8.98
			c-1.13,13.96-13.26,24.59-26.38,23.89c-16.12-0.86-32.33-0.68-48.46-0.01c-8.53,0.35-19.88-7.55-22.14-15.11
			c-1.42-4.74-2.78-9.72-2.81-14.6c-0.21-41.82-0.18-83.64-0.04-125.45c0.04-11.76,3.26-22.23,14.83-27.87
			c2.73-1.33,6-2.12,9.03-2.16c16.49-0.21,33.02,0.59,49.47-0.3c14.66-0.79,25.9,11.24,26.51,24.21
			c0.54,11.47,0.44,22.98,0.51,34.47C626.25,267.84,626.19,279.51,626.19,291.17z M584.99,289.79c0.02,0,0.03,0,0.05,0
			c0-16.15,0-32.3,0-48.45c0-10.63,0-10.63-10.72-10.62c-6.79,0.01-7.4,0.61-7.41,7.42c-0.02,33.3,0.02,66.6-0.09,99.9
			c-0.04,11.87,0,11.57,11.53,11.37c5.76-0.1,6.63-0.87,6.63-6.68C585,325.09,584.99,307.44,584.99,289.79z"/>
		<path class="st0" d="M296.39,382.36c-12.52,0-24.94,0-37.87,0c-1.09-11.86-2.17-23.56-3.27-35.55c-6.48,0-12.7,0-19.34,0
			c-1.08,11.97-2.13,23.68-3.2,35.58c-12.86,0-25.29,0-38.22,0c-0.1-1.92-0.17-3.69-0.29-5.45c-1.57-23.67,3.18-46.75,6.64-69.94
			c5.16-34.58,10.46-69.13,15.71-103.7c0.3-1.96,0.71-3.9,1.11-6.07c18.65,0,37.07,0,55.95,0c1.9,12.4,3.81,24.71,5.68,37.02
			c5.7,37.53,11.8,75,16.85,112.61C297.7,358.41,296.39,370.33,296.39,382.36z M246.84,249.66c-0.82,0.02-1.63,0.03-2.45,0.05
			c-1.71,19.21-3.42,38.42-5.14,57.73c4.69,0,8.54,0,12.74,0C250.24,287.86,248.54,268.76,246.84,249.66z"/>
		<path class="st0" d="M742.94,197.91c27.83,0,55.41,0,83.3,0c0,12.65,0,25.06,0,38.01c-13.9,0-27.78,0-42.11,0
			c0,7.55,0,14.59,0,22.29c13.9,0,27.94,0,42.2,0c0,13.08,0,25.51,0,38.62c-14.04,0-28.07,0-42.36,0c0,16.07,0,31.46,0,47.34
			c14.06,0,27.98,0,42.24,0c0,13.01,0,25.53,0,38.35c-27.7,0-55.27,0-83.27,0C742.94,321.16,742.94,259.81,742.94,197.91z"/>
		<path class="st0" d="M464.55,344.42c18.43,0,36.02,0,53.77,0c0,12.91,0,25.33,0,38.08c-33.28,0-66.33,0-100.17,0
			c1.34-15.11-2.31-29.98,5.32-44.86c16.26-31.67,30.95-64.14,46.27-96.29c0.69-1.45,1.31-2.94,2.29-5.12c-18.18,0-35.71,0-53.53,0
			c0-12.98,0-25.4,0-38.19c33.13,0,66.19,0,100.16,0c-1.67,14.46,2.51,28.9-4.77,43.31c-16.72,33.12-32.18,66.88-48.16,100.38
			C465.47,342.29,465.23,342.88,464.55,344.42z"/>
		<path class="st0" d="M430.87,188.02c0-17.84,0-35.61,0-54.88c9.96,0.82,19.83,1.24,29.56,2.61c4.54,0.64,6.82,4.78,6.9,9.32
			c0.19,11.15,0.28,22.32,0.01,33.47c-0.14,5.97-2.96,9.06-8.95,9.37C449.44,188.36,440.46,188.02,430.87,188.02z M446.75,178.48
			c0.57,0.34,1.13,0.69,1.7,1.03c1.02-1.6,2.87-3.16,2.92-4.79c0.3-9.1,0.17-18.22,0.19-27.34c0-3.19-1.62-4.27-4.81-3.85
			C446.75,155.38,446.75,166.93,446.75,178.48z"/>
		<path class="st0" d="M473.55,133.95c5.18,0,9.81,0,15.06,0c0.11,1.83,0.29,3.57,0.3,5.31c0.03,11.15,0.06,22.31,0,33.46
			c-0.02,2.83,0.1,5.21,4.51,3.78c0-13.92,0-27.99,0-42.37c5.42,0,10.32,0,15.95,0c0,4.34,0,8.61,0,12.88
			c-0.01,8.66,0.05,17.32-0.05,25.97c-0.13,10.99-5.56,16.57-16.66,16.56c-3.9,0-8.3-0.42-11.55-2.26c-3.13-1.77-7.06-5.54-7.21-8.6
			C473.14,163.95,473.55,149.16,473.55,133.95z"/>
		<path class="st0" d="M354.61,188.28c-5.57,0-10.65,0-16.04,0c-0.39-3.15-0.74-6.08-1.14-9.29c-1.85,0-3.56,0-5.49,0
			c-0.4,3.15-0.78,6.06-1.19,9.24c-5.38,0-10.45,0-16.23,0c2.68-18.15,5.33-36.12,8.01-54.26c7.78,0,15.21,0,23.04,0
			C348.57,152.03,351.56,169.99,354.61,188.28z M336.86,168.59c-0.64-6.41-1.24-12.49-1.85-18.57c-0.33,0-0.67,0-1,0
			c-0.75,6.1-1.5,12.2-2.29,18.57C333.59,168.59,334.98,168.59,336.86,168.59z"/>
		<path class="st0" d="M313.64,157.52c-5.12,0-9.89,0-15.44,0c0-3.65,0.28-7.27-0.13-10.8c-0.19-1.61-1.73-3.07-2.66-4.6
			c-0.99,1.47-2.79,2.91-2.83,4.4c-0.26,9.82-0.26,19.65-0.01,29.47c0.04,1.49,1.83,2.93,2.81,4.39c0.93-1.54,2.4-2.99,2.67-4.63
			c0.45-2.74,0.12-5.6,0.12-8.77c5.27,0,10.16,0,15.02,0c2.11,9.65,0.05,16.19-6.2,19.89c-7.31,4.33-20.73,3.95-25.89-1.6
			c-2.38-2.55-4-6.68-4.21-10.21c-0.58-9.46-0.33-18.98-0.18-28.47c0.09-5.76,3.25-9.69,8.5-11.82c6.62-2.69,13.36-2.57,19.99-0.08
			c5.14,1.93,8.17,5.68,8.41,11.28C313.77,149.74,313.64,153.51,313.64,157.52z"/>
		<path class="st0" d="M575.67,188.72c-5.67,0-9.98,0-15.49,0c3.33-19.47-5.68-36.54-10.58-54.39c0.49-0.24,0.63-0.35,0.78-0.37
			c13.6-1.18,13.61-1.18,15.98,11.98c0.38,2.09,0.64,4.21,1.73,6.35c1.09-5.02,2.29-10.01,3.22-15.06c0.48-2.63,1.62-3.64,4.34-3.46
			c3.46,0.23,6.96,0.06,10.85,0.06C581.59,152.03,572.01,168.84,575.67,188.72z"/>
		<path class="st0" d="M512.72,144.64c0-3.73,0-6.98,0-10.55c11.46,0,22.69,0,34.26,0c0,3.35,0,6.6,0,10.43
			c-2.84,0.15-5.73,0.3-9.12,0.48c0,14.42,0,28.67,0,43.25c-5.42,0-10.34,0-15.82,0c0-14.18,0-28.41,0-43.2
			C518.78,144.91,516.04,144.79,512.72,144.64z"/>
		<path class="st0" d="M411.66,188.3c-8.39,0-16.33,0-24.7,0c0-17.95,0-35.82,0-54.09c4.89,0,9.92,0,15.54,0
			c0,14.34,0,28.56,0,43.07c3.32,0.18,6.08,0.33,9.16,0.5C411.66,181.23,411.66,184.47,411.66,188.3z"/>
		<path class="st0" d="M357.72,134c5.22,0,9.99,0,15.35,0c0,14.42,0,28.66,0,43.33c3.33,0,6.1,0,9.29,0c0,3.8,0,7.17,0,10.88
			c-8.13,0-16.2,0-24.63,0C357.72,170.21,357.72,152.34,357.72,134z"/>
		<path class="st0" d="M417.58,156.44c0.01,1.66,0.59,3.65-0.13,4.89c-1.06,1.84-3.02,4.33-4.64,4.36c-1.74,0.04-4.66-2.19-5.05-3.9
			c-0.8-3.46-0.47-7.25-0.18-10.87c0.25-3.13,2.57-5.11,5.47-4.22c1.83,0.56,3.41,2.91,4.4,4.82
			C418.12,152.85,417.57,154.79,417.58,156.44z M413.01,150.33c-0.24,0.01-0.48,0.01-0.72,0.02c0,3.89,0,7.77,0,11.66
			c0.24-0.01,0.48-0.01,0.72-0.02C413.01,158.1,413.01,154.22,413.01,150.33z"/>
		<path class="st0" d="M419.31,146.84c1.92,0,2.96-0.18,3.89,0.05c1.13,0.27,2.17,0.9,3.24,1.37c-0.6,0.81-1.22,1.6-1.78,2.43
			c-0.4,0.59-1.12,1.74-1.04,1.79c4.9,3.78-1.9,7.37-0.23,11.13c0.15,0.35-1.27,1.39-1.95,2.11c-0.71-0.69-2.01-1.36-2.03-2.06
			C419.23,158.22,419.31,152.78,419.31,146.84z"/>
	</g>
</g>
</svg>
