<svg width="189" height="189" viewBox="0 0 189 189" fill="none" xmlns="http://www.w3.org/2000/svg">
<path d="M157.666 130.956C159.885 128.597 160.842 125.322 160.242 122.14C159.837 118.964 157.857 116.208 154.975 114.811C155.647 112.977 155.766 110.988 155.318 109.086C154.731 106.543 153.127 104.35 150.882 103.019C148.527 101.58 145.738 101.021 143.01 101.444C141.607 101.788 136.082 103.534 109.347 111.92C109.118 108.629 108.832 105.452 108.603 103.934H108.602C108.326 102.162 107.291 100.598 105.768 99.6526C104.244 98.7069 102.384 98.4718 100.674 99.0111C90.7305 102.217 82.6223 109.504 78.3747 119.049C76.9818 121.843 75.3243 124.499 73.4227 126.977C72.7467 125.32 70.9372 124.435 69.2147 124.917L37.7272 133.304C34.7318 134.11 32.1746 136.065 30.6092 138.744C29.0451 141.422 28.5991 144.611 29.3684 147.616L36.7533 175.41C37.5609 178.406 39.5148 180.964 42.1946 182.528C44.8731 184.093 48.0603 184.539 51.0658 183.769L75.1108 177.357C76.5663 177.018 77.6525 175.805 77.8302 174.323L79.977 173.979C85.6932 173.513 91.4372 173.513 97.152 173.979C106.37 175.554 116.016 173.836 125.061 171.717V171.719C133.884 169.85 142.401 166.758 150.366 162.529L151.311 162.014C154.66 160.211 159.898 157.492 159.469 151.222C159.353 149 158.508 146.878 157.065 145.183C159.184 143.206 160.342 140.407 160.242 137.512C160.241 135.08 159.32 132.739 157.666 130.956ZM49.3491 177.185C48.153 177.517 46.8751 177.355 45.799 176.736C44.7228 176.118 43.9396 175.093 43.624 173.893L36.2967 145.984C35.9644 144.787 36.1267 143.508 36.7452 142.432C37.3637 141.356 38.3886 140.573 39.5885 140.259L66.9252 132.987L70.4754 171.459L49.3491 177.185ZM150.168 127.547C148.59 128.221 147.621 129.83 147.764 131.539C147.907 133.249 149.13 134.674 150.798 135.076C152.887 135.563 153.116 136.708 153.146 137.738C153.146 139.313 152.058 140.601 149.739 141.517C148.113 142.197 147.129 143.867 147.321 145.619C147.513 147.371 148.834 148.79 150.569 149.103C151.594 149.508 152.296 150.465 152.372 151.564C152.372 153.081 151.342 153.939 147.993 155.715L146.991 156.259C139.606 160.203 131.705 163.093 123.519 164.847C115.369 167.189 106.844 167.928 98.4143 167.022C91.9198 166.429 85.3861 166.429 78.8917 167.022L77.2892 167.28L74.4267 136.965C78.5749 132.595 82.0557 127.636 84.7599 122.251C88.0019 114.911 94.072 109.192 101.591 106.394C101.905 109.256 102.249 114.266 102.392 116.154H102.394C102.273 117.443 102.76 118.713 103.71 119.589C104.644 120.382 105.918 120.641 107.087 120.277L144.3 108.626C145.294 108.509 146.3 108.72 147.162 109.227C147.749 109.553 148.182 110.099 148.365 110.745C148.654 111.853 148.176 113.02 147.192 113.608C145.811 114.621 145.235 116.405 145.76 118.036C146.287 119.665 147.797 120.775 149.51 120.792C152.801 120.792 153.088 122.394 153.231 123.283C153.374 124.169 153.632 126.116 150.168 127.547L150.168 127.547Z" fill="#FFC000"/>
<path d="M77.7746 54.2968L97.554 89.7918L97.6971 91.3943C97.8862 93.3622 99.6357 94.8051 101.605 94.6146C102.549 94.5239 103.419 94.0613 104.024 93.3278C104.627 92.5955 104.916 91.6524 104.825 90.7081L100.13 41.7021C100.084 41.2689 100.163 40.8318 100.359 40.442C100.618 40.028 101.073 39.7788 101.561 39.7839L144.757 38.8971C145.134 38.9022 145.494 39.0568 145.759 39.3264C146.14 39.7571 146.326 40.327 146.274 40.9008L143.354 93.4563C143.299 94.4058 143.625 95.3374 144.259 96.0466C144.893 96.7559 145.782 97.1827 146.731 97.2351H146.932C148.832 97.2376 150.404 95.754 150.51 93.8577L153.373 41.1288C153.586 38.5295 152.692 35.9622 150.912 34.0582C149.261 32.3586 146.982 31.4155 144.614 31.4539L101.418 32.3407C98.9429 32.3919 96.6171 33.5343 95.0632 35.4614L81.5237 41.8446C79.3781 42.8465 77.7413 44.6905 77.0013 46.9395C76.2269 49.3931 76.5067 52.0577 77.7744 54.2963L77.7746 54.2968ZM83.7858 49.1724C83.8996 48.8159 84.159 48.5245 84.5014 48.3712L93.0889 44.3637L95.7508 72.0442L83.9288 50.8336V50.8323C83.6618 50.3186 83.6209 49.718 83.8138 49.1723L83.7858 49.1724Z" fill="#FFC000"/>
<path d="M122.913 55.6446C117.8 55.7008 113.105 58.4802 110.598 62.9362C108.089 67.3936 108.149 72.849 110.755 77.2487C113.361 81.6498 118.114 84.3258 123.229 84.2696H123.515C127.25 84.1929 130.794 82.6019 133.333 79.8607C135.9 77.1208 137.288 73.4814 137.197 69.7267C137.191 66.0261 135.733 62.4746 133.138 59.8372C130.542 57.1984 127.015 55.6828 123.314 55.6151L122.913 55.6446ZM130.041 69.7565C130.099 71.6414 129.409 73.4725 128.123 74.8514C126.882 76.1971 125.144 76.9728 123.315 76.9983C121.476 76.9689 119.721 76.2277 118.418 74.9307C117.115 73.6323 116.366 71.8803 116.329 70.0428C116.228 68.1707 116.884 66.337 118.15 64.9528C119.416 63.5688 121.183 62.7523 123.056 62.6858C124.919 62.6858 126.705 63.4295 128.016 64.7522C129.327 66.0735 130.057 67.8651 130.041 69.727L130.041 69.7565Z" fill="#FFC000"/>
<path d="M110.607 25.1003H111.18C113.086 24.7373 114.356 22.9214 114.042 21.0071L111.867 7.00894C111.552 5.05629 109.711 3.72999 107.76 4.04676C105.807 4.3624 104.481 6.20129 104.796 8.15404L107.029 22.0946C107.313 23.844 108.835 25.1232 110.607 25.1002L110.607 25.1003Z" fill="#FFC000"/>
<path d="M147.561 26.2734C148.697 26.2607 149.759 25.7073 150.423 24.7847L158.582 13.478C159.426 11.9049 158.98 9.94972 157.538 8.89665C156.096 7.84364 154.097 8.0149 152.857 9.2992L144.669 20.5781C143.856 21.6618 143.726 23.1122 144.332 24.3249C144.938 25.5363 146.177 26.3031 147.532 26.3031L147.561 26.2734Z" fill="#FFC000"/>
<path d="M71.3625 37.2101C72.9356 38.0548 74.8908 37.6088 75.9438 36.1674C76.9968 34.7246 76.8256 32.7258 75.5413 31.4853L64.0913 23.2122C63.3476 22.4927 62.3291 22.1311 61.2978 22.2192C60.2665 22.3087 59.3247 22.839 58.7139 23.6747C58.1043 24.5105 57.8858 25.5699 58.1158 26.5794C58.3459 27.5877 59.0001 28.4477 59.9126 28.9371L71.3625 37.2101Z" fill="#FFC000"/>
</svg>
