<svg width="189" height="189" viewBox="0 0 189 189" fill="none" xmlns="http://www.w3.org/2000/svg">
<path d="M166.821 53.3855L154.527 49.0959L175.55 25.5949C176.627 24.3564 175.257 22.506 173.73 23.1839L124.938 46.7632C123.677 47.3727 123.797 49.1096 125.091 49.561L137.385 53.8507L116.336 77.4236C115.259 78.6621 116.629 80.5125 118.156 79.8346L166.948 56.2553C168.21 55.6458 168.115 53.8368 166.821 53.3851L166.821 53.3855Z" fill="#ED713C"/>
<path d="M152.339 106.989L132.219 86.8673C130.886 85.5343 129.078 84.7845 127.193 84.7845C125.308 84.7845 123.498 85.5343 122.165 86.8673L102.046 106.989L76.8785 132.157V132.156C74.1672 134.73 70.5705 136.165 66.8319 136.165C63.0934 136.165 59.4968 134.73 56.7854 132.156C54.1229 129.491 52.627 125.877 52.627 122.109C52.627 118.342 54.1231 114.728 56.7854 112.064L102.074 66.7746C103.407 65.4416 104.157 63.6336 104.157 61.7485C104.157 59.8633 103.407 58.0541 102.074 56.7211L81.9543 36.6009C80.6213 35.2679 78.8133 34.5181 76.9269 34.5181C75.0417 34.5181 73.2338 35.2679 71.9008 36.6009L26.6117 81.89C15.9664 92.5611 9.99178 107.022 10 122.097C10.0095 137.17 16.0009 151.623 26.6592 162.282C37.3185 172.94 51.7724 178.933 66.8447 178.942C81.9187 178.951 96.3795 172.976 107.052 162.33L152.341 117.041V117.042C153.674 115.709 154.423 113.9 154.423 112.015C154.423 110.129 153.675 108.321 152.341 106.988L152.339 106.989ZM76.9254 51.6815L86.992 61.7481L76.9254 71.8148L66.8588 61.7481L76.9254 51.6815ZM127.19 122.08L117.123 112.013L127.19 101.947L137.257 112.013L127.19 122.08Z" fill="#ED713C"/>
</svg>
