<?xml version="1.0" encoding="utf-8"?>
<!-- Generator: Adobe Illustrator 25.4.1, SVG Export Plug-In . SVG Version: 6.00 Build 0)  -->
<svg version="1.1" id="Calque_1" xmlns="http://www.w3.org/2000/svg" xmlns:xlink="http://www.w3.org/1999/xlink" x="0px" y="0px"
	 viewBox="0 0 410 503" style="enable-background:new 0 0 410 503;" xml:space="preserve">
<style type="text/css">
	.st0{fill:#1D1D1B;}
	.st1{fill:#FFFFFF;}
	.st2{fill:#161616;}
	.st3{fill:#CECECE;}
	.st4{fill:#F0F0F0;}
	.st5{clip-path:url(#SVGID_00000145749662187409961140000005241184350238565275_);}
</style>
<g>
	<rect x="43.7" y="96.1" class="st0" width="317" height="317"/>
	<path class="st1" d="M360.7,414.1h-12c-0.6,0-1-0.4-1-1s0.4-1,1-1h12c0.6,0,1,0.4,1,1S361.3,414.1,360.7,414.1z M336.7,414.1h-12
		c-0.6,0-1-0.4-1-1s0.4-1,1-1h12c0.6,0,1,0.4,1,1S337.3,414.1,336.7,414.1z M312.7,414.1h-12c-0.6,0-1-0.4-1-1s0.4-1,1-1h12
		c0.6,0,1,0.4,1,1S313.3,414.1,312.7,414.1z M288.7,414.1h-12c-0.6,0-1-0.4-1-1s0.4-1,1-1h12c0.6,0,1,0.4,1,1
		S289.3,414.1,288.7,414.1z M264.7,414.1h-12c-0.6,0-1-0.4-1-1s0.4-1,1-1h12c0.6,0,1,0.4,1,1S265.3,414.1,264.7,414.1z M240.7,414.1
		h-12c-0.6,0-1-0.4-1-1s0.4-1,1-1h12c0.6,0,1,0.4,1,1S241.3,414.1,240.7,414.1z M216.7,414.1h-12c-0.6,0-1-0.4-1-1s0.4-1,1-1h12
		c0.6,0,1,0.4,1,1S217.3,414.1,216.7,414.1z M192.7,414.1h-12c-0.6,0-1-0.4-1-1s0.4-1,1-1h12c0.6,0,1,0.4,1,1
		S193.3,414.1,192.7,414.1z M168.7,414.1h-12c-0.6,0-1-0.4-1-1s0.4-1,1-1h12c0.6,0,1,0.4,1,1S169.3,414.1,168.7,414.1z M144.7,414.1
		h-12c-0.6,0-1-0.4-1-1s0.4-1,1-1h12c0.6,0,1,0.4,1,1S145.3,414.1,144.7,414.1z M120.7,414.1h-12c-0.6,0-1-0.4-1-1s0.4-1,1-1h12
		c0.6,0,1,0.4,1,1S121.3,414.1,120.7,414.1z M96.7,414.1h-12c-0.6,0-1-0.4-1-1s0.4-1,1-1h12c0.6,0,1,0.4,1,1S97.3,414.1,96.7,414.1z
		 M72.7,414.1h-12c-0.6,0-1-0.4-1-1s0.4-1,1-1h12c0.6,0,1,0.4,1,1S73.3,414.1,72.7,414.1z M48.7,414.1h-5c-0.6,0-1-0.4-1-1v-7
		c0-0.6,0.4-1,1-1s1,0.4,1,1v6h4c0.6,0,1,0.4,1,1S49.3,414.1,48.7,414.1z M360.7,406.1c-0.6,0-1-0.4-1-1v-12c0-0.6,0.4-1,1-1
		s1,0.4,1,1v12C361.7,405.6,361.3,406.1,360.7,406.1z M43.7,395.1c-0.6,0-1-0.4-1-1v-12c0-0.6,0.4-1,1-1s1,0.4,1,1v12
		C44.7,394.6,44.3,395.1,43.7,395.1z M360.7,382.1c-0.6,0-1-0.4-1-1v-12c0-0.6,0.4-1,1-1s1,0.4,1,1v12
		C361.7,381.6,361.3,382.1,360.7,382.1z M43.7,371.1c-0.6,0-1-0.4-1-1v-12c0-0.6,0.4-1,1-1s1,0.4,1,1v12
		C44.7,370.6,44.3,371.1,43.7,371.1z M360.7,358.1c-0.6,0-1-0.4-1-1v-12c0-0.6,0.4-1,1-1s1,0.4,1,1v12
		C361.7,357.6,361.3,358.1,360.7,358.1z M43.7,347.1c-0.6,0-1-0.4-1-1v-12c0-0.6,0.4-1,1-1s1,0.4,1,1v12
		C44.7,346.6,44.3,347.1,43.7,347.1z M360.7,334.1c-0.6,0-1-0.4-1-1v-12c0-0.6,0.4-1,1-1s1,0.4,1,1v12
		C361.7,333.6,361.3,334.1,360.7,334.1z M43.7,323.1c-0.6,0-1-0.4-1-1v-12c0-0.6,0.4-1,1-1s1,0.4,1,1v12
		C44.7,322.6,44.3,323.1,43.7,323.1z M360.7,310.1c-0.6,0-1-0.4-1-1v-12c0-0.6,0.4-1,1-1s1,0.4,1,1v12
		C361.7,309.6,361.3,310.1,360.7,310.1z M43.7,299.1c-0.6,0-1-0.4-1-1v-12c0-0.6,0.4-1,1-1s1,0.4,1,1v12
		C44.7,298.6,44.3,299.1,43.7,299.1z M360.7,286.1c-0.6,0-1-0.4-1-1v-12c0-0.6,0.4-1,1-1s1,0.4,1,1v12
		C361.7,285.6,361.3,286.1,360.7,286.1z M43.7,275.1c-0.6,0-1-0.4-1-1v-12c0-0.6,0.4-1,1-1s1,0.4,1,1v12
		C44.7,274.6,44.3,275.1,43.7,275.1z M360.7,262.1c-0.6,0-1-0.4-1-1v-12c0-0.6,0.4-1,1-1s1,0.4,1,1v12
		C361.7,261.6,361.3,262.1,360.7,262.1z M43.7,251.1c-0.6,0-1-0.4-1-1v-12c0-0.6,0.4-1,1-1s1,0.4,1,1v12
		C44.7,250.6,44.3,251.1,43.7,251.1z M360.7,238.1c-0.6,0-1-0.4-1-1v-12c0-0.6,0.4-1,1-1s1,0.4,1,1v12
		C361.7,237.6,361.3,238.1,360.7,238.1z M43.7,227.1c-0.6,0-1-0.4-1-1v-12c0-0.6,0.4-1,1-1s1,0.4,1,1v12
		C44.7,226.6,44.3,227.1,43.7,227.1z M360.7,214.1c-0.6,0-1-0.4-1-1v-12c0-0.6,0.4-1,1-1s1,0.4,1,1v12
		C361.7,213.6,361.3,214.1,360.7,214.1z M43.7,203.1c-0.6,0-1-0.4-1-1v-12c0-0.6,0.4-1,1-1s1,0.4,1,1v12
		C44.7,202.6,44.3,203.1,43.7,203.1z M360.7,190.1c-0.6,0-1-0.4-1-1v-12c0-0.6,0.4-1,1-1s1,0.4,1,1v12
		C361.7,189.6,361.3,190.1,360.7,190.1z M43.7,179.1c-0.6,0-1-0.4-1-1v-12c0-0.6,0.4-1,1-1s1,0.4,1,1v12
		C44.7,178.6,44.3,179.1,43.7,179.1z M360.7,166.1c-0.6,0-1-0.4-1-1v-12c0-0.6,0.4-1,1-1s1,0.4,1,1v12
		C361.7,165.6,361.3,166.1,360.7,166.1z M43.7,155.1c-0.6,0-1-0.4-1-1v-12c0-0.6,0.4-1,1-1s1,0.4,1,1v12
		C44.7,154.6,44.3,155.1,43.7,155.1z M360.7,142.1c-0.6,0-1-0.4-1-1v-12c0-0.6,0.4-1,1-1s1,0.4,1,1v12
		C361.7,141.6,361.3,142.1,360.7,142.1z M43.7,131.1c-0.6,0-1-0.4-1-1v-12c0-0.6,0.4-1,1-1s1,0.4,1,1v12
		C44.7,130.6,44.3,131.1,43.7,131.1z M360.7,118.1c-0.6,0-1-0.4-1-1v-12c0-0.6,0.4-1,1-1s1,0.4,1,1v12
		C361.7,117.6,361.3,118.1,360.7,118.1z M43.7,107.1c-0.6,0-1-0.4-1-1v-10c0-0.6,0.4-1,1-1h2c0.6,0,1,0.4,1,1s-0.4,1-1,1h-1v9
		C44.7,106.6,44.3,107.1,43.7,107.1z M357.7,97.1h-12c-0.6,0-1-0.4-1-1s0.4-1,1-1h12c0.6,0,1,0.4,1,1S358.3,97.1,357.7,97.1z
		 M333.7,97.1h-12c-0.6,0-1-0.4-1-1s0.4-1,1-1h12c0.6,0,1,0.4,1,1S334.3,97.1,333.7,97.1z M309.7,97.1h-12c-0.6,0-1-0.4-1-1
		s0.4-1,1-1h12c0.6,0,1,0.4,1,1S310.3,97.1,309.7,97.1z M285.7,97.1h-12c-0.6,0-1-0.4-1-1s0.4-1,1-1h12c0.6,0,1,0.4,1,1
		S286.3,97.1,285.7,97.1z M261.7,97.1h-12c-0.6,0-1-0.4-1-1s0.4-1,1-1h12c0.6,0,1,0.4,1,1S262.3,97.1,261.7,97.1z M237.7,97.1h-12
		c-0.6,0-1-0.4-1-1s0.4-1,1-1h12c0.6,0,1,0.4,1,1S238.3,97.1,237.7,97.1z M213.7,97.1h-12c-0.6,0-1-0.4-1-1s0.4-1,1-1h12
		c0.6,0,1,0.4,1,1S214.3,97.1,213.7,97.1z M189.7,97.1h-12c-0.6,0-1-0.4-1-1s0.4-1,1-1h12c0.6,0,1,0.4,1,1S190.3,97.1,189.7,97.1z
		 M165.7,97.1h-12c-0.6,0-1-0.4-1-1s0.4-1,1-1h12c0.6,0,1,0.4,1,1S166.3,97.1,165.7,97.1z M141.7,97.1h-12c-0.6,0-1-0.4-1-1
		s0.4-1,1-1h12c0.6,0,1,0.4,1,1S142.3,97.1,141.7,97.1z M117.7,97.1h-12c-0.6,0-1-0.4-1-1s0.4-1,1-1h12c0.6,0,1,0.4,1,1
		S118.3,97.1,117.7,97.1z M93.7,97.1h-12c-0.6,0-1-0.4-1-1s0.4-1,1-1h12c0.6,0,1,0.4,1,1S94.3,97.1,93.7,97.1z M69.7,97.1h-12
		c-0.6,0-1-0.4-1-1s0.4-1,1-1h12c0.6,0,1,0.4,1,1S70.3,97.1,69.7,97.1z"/>
</g>
<g>
	<g>
		<g>
			<g>
				<g>
					<polygon class="st2" points="170.5,320.6 108.1,350.4 108.1,465.9 170.4,495.4 230.1,465.6 230.2,351.4 					"/>
					<path class="st3" d="M170.4,497l-63.8-30.2l0.1-117.4l63.9-30.5l61.2,31.5l-0.1,116L170.4,497z M109.6,465l60.8,28.7l58.3-29.1
						l0.1-112.3l-58.2-30l-60.8,29.1L109.6,465z"/>
				</g>
				<g>
					<g>
						<polygon class="st3" points="170.6,332.8 173.6,339.2 180.5,340.3 175.4,345.1 176.5,352.1 170.3,348.7 164,351.8 
							165.3,344.9 160.4,339.9 167.4,339 						"/>
					</g>
					<g>
						<polygon class="st3" points="186.2,339.7 188.1,343.9 192.7,344.6 189.3,347.8 190,352.3 186,350.1 181.9,352.2 182.7,347.7 
							179.5,344.4 184.1,343.8 						"/>
					</g>
					<g>
						<polygon class="st3" points="155.2,339.1 157.1,343.3 161.7,344 158.3,347.2 159,351.7 155,349.5 150.9,351.6 151.7,347.1 
							148.5,343.8 153.1,343.2 						"/>
					</g>
				</g>
			</g>
			<g>
				<g>
					<g>
						<path class="st3" d="M168.8,459.8c-27.6-0.5-49.6-23.4-49.1-51c0.5-27.6,23.4-49.6,51-49.1c27.6,0.5,49.6,23.4,49.1,51
							C219.3,438.3,196.4,460.3,168.8,459.8z"/>
					</g>
				</g>
			</g>
			<g>
				<g id="_x34_WjNNy.tif_00000119084551758968880490000007733987468992578691_">
					<g>
						<g>
							<path class="st2" d="M179.4,416.3c1.1,0.4,2.1,0.7,3.2,1.1c0.8,0.3,1.5,0.7,2.1,1.3c1.2,1.2,2.5,2,4.2,2.5
								c1.6,0.4,2.7,1.7,3.5,3.1c0.4,0.7,1,1.1,1.8,1.3c1.7,0.4,3.3,1,4.9,1.4c4.7,1.2,7.4,4.4,8.6,8.9c0.3,1.2,0.5,2.5,0.8,3.7
								c0.2,0.6-0.2,1-0.5,1.4c-3.1,3.3-6.7,6.3-10.6,8.7c-5.5,3.5-11.5,5.8-17.9,7c-1.7,0.3-3.4,0.6-5.1,0.5
								c-2.4-0.1-4.9-0.1-7.3,0c-5.9,0.3-11.5-1.2-16.9-3.3c-6.8-2.7-12.7-6.6-17.8-11.8c-0.6-0.6-0.7-1-0.5-1.9
								c0.4-1.9,0.7-3.9,1.4-5.7c1.3-3.7,3.8-6.3,7.7-7.4c1.6-0.5,3.3-1,4.9-1.4c1-0.3,1.8-0.7,2.3-1.7c0.8-1.6,2.2-2.6,4-3.1
								c0.9-0.2,1.8-0.6,2.4-1.3c1.8-2,4.1-2.7,6.5-3.4c0.1,1.8-0.1,3.5-0.8,5.1c-0.4,0.1-0.7,0.3-1.1,0.4c-0.6,0.1-0.8,0.3-0.4,1
								c1,2,2.7,3.3,4.4,4.6c0.4,0.3,0.8,0.3,1.3,0.3c3.9,0,7.7,0,11.6,0c0.5,0,1.1-0.1,1.5-0.4c1.3-1,2.6-2,3.6-3.4
								c1.3-1.8,1.2-1.8-0.8-2.5C179.6,419.7,179.4,418,179.4,416.3z M161.5,439.9c0-0.7,0-1.4,0-2.1c0-3.4-0.1-6.8-0.1-10.2
								c0-0.5-0.2-0.8-0.7-0.7c-0.3,0-0.8-0.1-0.7,0.5c0.2,1.2-0.2,2.4-0.2,3.7c0,7,0,14,0,21c0,0.7,0.1,1,0.9,1
								c0.9,0,0.8-0.5,0.8-1.1C161.5,448,161.5,444,161.5,439.9z M179.6,453.2c0.7,0.2,0.9-0.2,0.9-0.9c0-4.9,0-9.8,0-14.8
								c0-3.4-0.1-6.7-0.1-10.1c0-0.5-0.3-0.8-0.8-0.8c-0.5,0-0.7,0.2-0.7,0.7c0,0.5,0,1,0,1.6c0,7.8,0,15.6,0,23.4
								C178.8,453,178.9,453.3,179.6,453.2z"/>
						</g>
						<g>
							<path class="st1" d="M179.4,416.3c-0.1,1.8,0.1,3.5,0.8,5.1c-5.3,5-14.7,5.1-20.1,0c0.7-1.7,0.9-3.4,0.8-5.1
								c0-0.6,0-1.1,0.1-1.7c0.1-0.6-0.2-1.1-0.6-1.6c-1.5-1.4-3-2.8-3.7-4.8c-0.5-1.3-0.8-2.5-1-3.9c-0.1-0.6-0.3-0.8-0.9-1.1
								c-2.3-1.2-3.1-3.3-3.4-5.7c-0.2-1.8,0.2-3.5,1.7-4.7c0.7,0,1,0.3,1.1,1c0.1,0.7,0.2,1.5,0.3,2.2c0.1,0.3,0,0.8,0.5,0.8
								c0.6,0,0.3-0.5,0.3-0.8c0-3.1,0.1-6.3,0.4-9.4c0.3-2.3,0.6-4.6,1.5-6.8c0.3-0.7,0.7-0.9,1.3-0.4c1,0.7,2.2,1.3,3.3,1.8
								c4.8,2.1,9.8,3,15,1.6c2.2-0.6,4.3-1.3,6.4-2c1.5-0.5,1.6-0.4,2,1.1c0.3,1.5,0.5,3.1,0.5,4.6c0,3.2,0,6.4-0.4,9.6
								c0,0.2-0.2,0.6,0.2,0.7c0.4,0.1,0.4-0.3,0.4-0.6c0.1-0.7,0.3-1.4,0.3-2.1c0-0.9,0.4-1.3,1.3-1.4c1.1,1.1,1.8,2.4,1.7,4.1
								c-0.1,1.8-0.6,3.5-1.7,5c-0.5,0.6-1.1,1.2-1.8,1.4c-0.6,0.2-0.7,0.5-0.8,1c-0.3,1.3-0.5,2.6-1,3.8c-0.7,1.7-1.8,3.2-3.3,4.3
								c-0.9,0.8-1.3,1.7-1.1,2.8C179.4,415.6,179.4,415.9,179.4,416.3z"/>
							<path class="st2" d="M170.2,425.7c-3.8,0-7.6-1.3-10.4-3.9l-0.2-0.2l0.1-0.3c0.6-1.6,0.9-3.2,0.8-4.9l0-0.6
								c0-0.4,0-0.8,0.1-1.2c0-0.5-0.1-0.8-0.5-1.1c-1.4-1.3-3-2.8-3.9-5c-0.5-1.3-0.8-2.6-1.1-3.9c-0.1-0.4-0.2-0.6-0.6-0.8
								c-2.7-1.4-3.4-4-3.7-6.1c-0.3-2.2,0.3-3.9,1.8-5.2l0.1-0.1l0.2,0c0,0,0,0,0,0c0.7,0,1.5,0.3,1.6,1.5c0,0.4,0.1,0.9,0.2,1.3
								c0-3.1,0.2-5.8,0.4-8.5c0.2-2.1,0.6-4.6,1.5-6.9c0.1-0.2,0.3-0.8,0.9-1c0.4-0.1,0.8,0,1.2,0.3c1,0.7,2.1,1.2,3.3,1.7
								c5.4,2.3,10.1,2.8,14.6,1.6c1.3-0.4,2.6-0.8,3.9-1.2c0.8-0.3,1.7-0.5,2.5-0.8c0.8-0.3,1.4-0.4,1.8-0.1
								c0.5,0.3,0.6,0.8,0.8,1.6c0.3,1.4,0.5,3,0.5,4.7c0,2.4,0,4.5-0.1,6.4c0.3-0.5,0.9-0.6,1.4-0.7l0.2,0l0.2,0.2
								c1.3,1.3,1.9,2.8,1.9,4.5c-0.1,2-0.7,3.8-1.8,5.3c-0.6,0.8-1.3,1.3-2,1.6c-0.3,0.1-0.4,0.2-0.5,0.7c-0.2,1.3-0.5,2.6-1.1,3.9
								c-0.7,1.7-1.8,3.2-3.4,4.5c-0.8,0.7-1.1,1.4-1,2.4c0,0.2,0,0.5,0,0.7l0,0.3c-0.1,1.9,0.2,3.5,0.8,4.9l0.1,0.3l-0.2,0.2
								C177.8,424.3,174,425.7,170.2,425.7z M160.7,421.2c5.1,4.6,13.8,4.6,18.9,0c-0.5-1.4-0.8-3-0.7-5l0-0.3c0-0.2,0-0.4,0-0.6
								c-0.2-1.3,0.2-2.4,1.3-3.3c1.5-1.2,2.5-2.6,3.1-4.1c0.5-1.2,0.8-2.5,1-3.8c0.1-0.6,0.3-1.1,1.2-1.4c0.6-0.2,1.1-0.6,1.6-1.2
								c1-1.3,1.5-2.9,1.6-4.7c0.1-1.3-0.4-2.5-1.4-3.5c-0.4,0.1-0.6,0.3-0.6,0.9c0,0.5-0.1,1-0.2,1.5c0,0.2-0.1,0.4-0.1,0.6l0,0.1
								c0,0.2,0,0.5-0.3,0.8c-0.1,0.1-0.3,0.2-0.6,0.1c-0.3,0-0.5-0.2-0.6-0.3c-0.2-0.3-0.1-0.6-0.1-0.8c0,0,0-0.1,0-0.1
								c0.3-2.7,0.4-5.7,0.4-9.5c0-1.7-0.2-3.1-0.5-4.5c0-0.2-0.2-0.9-0.3-1c-0.1-0.1-0.8,0.1-1,0.2c-0.8,0.3-1.7,0.5-2.5,0.8
								c-1.3,0.4-2.6,0.8-3.9,1.2c-4.8,1.3-9.7,0.8-15.3-1.6c-1.2-0.5-2.4-1.1-3.4-1.8c-0.2-0.2-0.3-0.2-0.3-0.2c0,0-0.1,0-0.2,0.4
								c-0.9,2.2-1.2,4.6-1.5,6.6c-0.3,2.9-0.5,5.9-0.4,9.3c0,0,0,0.1,0,0.1c0,0.2,0.1,0.6-0.1,0.9c-0.2,0.2-0.4,0.3-0.7,0.3
								c-0.8,0-0.9-0.8-1-1c0-0.1,0-0.1,0-0.2c-0.1-0.7-0.3-1.5-0.4-2.2c0-0.4-0.1-0.6-0.4-0.6c-1.1,1-1.6,2.4-1.3,4.1
								c0.4,2.8,1.3,4.4,3.1,5.3c0.7,0.3,1,0.8,1.2,1.5c0.3,1.3,0.5,2.6,1,3.8c0.8,1.9,2.3,3.3,3.6,4.6c0.6,0.6,0.9,1.2,0.8,2
								c0,0.4,0,0.7-0.1,1.1l0,0.5C161.6,417.9,161.3,419.6,160.7,421.2z"/>
						</g>
						<g>
							<path class="st4" d="M161.5,439.9c0,4,0,8,0,12c0,0.6,0.1,1.1-0.8,1.1c-0.8,0-0.9-0.4-0.9-1c0-7,0-14,0-21
								c0-1.2,0.4-2.4,0.2-3.7c-0.1-0.6,0.3-0.5,0.7-0.5c0.6-0.1,0.7,0.2,0.7,0.7c0,3.4,0,6.8,0.1,10.2
								C161.5,438.5,161.5,439.2,161.5,439.9z"/>
						</g>
						<g>
							<path class="st4" d="M179.6,453.2c-0.7,0.2-0.8-0.2-0.8-0.8c0-7.8,0-15.6,0-23.4c0-0.5,0-1,0-1.6c0-0.5,0.2-0.7,0.7-0.7
								c0.5,0,0.8,0.3,0.8,0.8c0.1,3.4,0.1,6.7,0.1,10.1c0,4.9,0,9.8,0,14.8C180.4,452.9,180.3,453.3,179.6,453.2z"/>
						</g>
					</g>
				</g>
				<g>
					<circle class="st1" cx="170.8" cy="399" r="21"/>
					<path class="st2" d="M170.8,420.5c-11.9,0-21.5-9.7-21.5-21.5s9.7-21.5,21.5-21.5s21.5,9.7,21.5,21.5S182.7,420.5,170.8,420.5z
						 M170.8,378.5c-11.3,0-20.5,9.2-20.5,20.5s9.2,20.5,20.5,20.5c11.3,0,20.5-9.2,20.5-20.5S182.2,378.5,170.8,378.5z"/>
				</g>
				<g>
					<path class="st2" d="M191.8,404.7c-1.1,0.1-1.5,0.6-1.6,1.6c0,0.8-0.2,1.6-0.4,2.4c-0.1,0.3,0,0.8-0.5,0.7
						c-0.5-0.1-0.3-0.5-0.2-0.8c0.4-3.7,0.5-7.5,0.5-11.2c0-1.8-0.2-3.6-0.6-5.4c-0.4-1.8-0.6-1.9-2.4-1.3c-2.6,0.8-5.2,1.6-7.8,2.3
						c-6.4,1.7-12.4,0.6-18.2-1.8c-1.4-0.6-2.8-1.2-4.1-2.1c-0.8-0.5-1.3-0.3-1.6,0.5c-1.1,2.5-1.5,5.2-1.8,7.9
						c-0.4,3.6-0.6,7.3-0.5,11c0,0.3,0.3,0.9-0.4,1c-0.6,0-0.5-0.6-0.6-0.9c-0.2-0.8-0.4-1.7-0.4-2.6c-0.1-0.8-0.5-1.2-1.3-1.2
						c-0.5-3.7-1-7.4-0.4-11.2c0.4-2.6,0.8-5.2,3-7c1.1-0.9,1.7-1.9,2-3.1c1.7-6.2,6.4-8.9,12.5-10.2c5.9-1.2,10.7,0.4,15.2,3.8
						c1.6,1.2,3.4,2.4,5.3,3.3c2.1,0.9,4.2,1.1,6.3,0.2c0.8-0.3,0.9-0.1,1.1,0.6c0.5,2.2-0.8,5.2-3.2,6.7c-0.5,0.3-0.7,0.7-0.5,1.2
						c1.5,4.6,1.2,9.4,0.8,14.1C191.8,403.6,191.8,404.2,191.8,404.7z"/>
				</g>
			</g>
		</g>
		<g>
			<path class="st2" d="M192.1,390.5c0,0,2.7-13.5-9.6-13.8c-12.4-0.2-14.8,6-14.8,6S186,393.6,192.1,390.5z"/>
		</g>
	</g>
	<g>
		<g>
			<g>
				<path class="st3" d="M169.8,359.7v2c0.3,0,0.6,0,0.9,0c12.8,0.3,24.8,5.5,33.7,14.8c8.9,9.3,13.7,21.4,13.4,34.2
					c-0.2,12.6-5.4,24.5-14.4,33.4c-9,8.9-21,13.7-33.6,13.7c-0.3,0-0.6,0-1,0c-12.8-0.3-24.8-5.5-33.7-14.8
					c-8.9-9.3-13.7-21.4-13.4-34.2c0.2-12.6,5.4-24.5,14.4-33.4c9-8.9,21-13.7,33.6-13.7L169.8,359.7 M169.8,359.7
					c-27.2,0-49.5,21.8-50,49.1c-0.5,27.6,21.5,50.5,49.1,51c0.3,0,0.7,0,1,0c27.2,0,49.5-21.8,50-49.1c0.5-27.6-21.5-50.5-49.1-51
					C170.4,359.7,170.1,359.7,169.8,359.7L169.8,359.7z"/>
			</g>
		</g>
	</g>
</g>
<g>
	<rect x="5.7" y="376.1" class="st3" width="74" height="74"/>
</g>
<g>
	<path d="M41,401.9L41,401.9l-5.3,2.8l-0.8-3.1l6.6-3.5H45v30H41V401.9z"/>
</g>
<g>
	<g>
		<g>
			<g>
				<polygon class="st2" points="238.5,31.6 176.1,61.4 176,176.9 238.4,206.4 298.1,176.6 298.2,62.4 				"/>
				<path class="st3" d="M238.4,208l-63.8-30.2l0.1-117.4l63.9-30.5l61.2,31.5l-0.1,116L238.4,208z M177.5,176l60.8,28.7l58.3-29.1
					l0.1-112.3l-58.2-30l-60.8,29.1L177.5,176z"/>
			</g>
		</g>
	</g>
</g>
<g>
	<g>
		<g>
			<g>
				<polygon class="st2" points="214.5,31.6 152.1,61.4 152,176.9 214.4,206.4 274.1,176.6 274.2,62.4 				"/>
				<path class="st3" d="M214.4,208l-63.8-30.2l0.1-117.4l63.9-30.5l61.2,31.5l-0.1,116L214.4,208z M153.5,176l60.8,28.7l58.3-29.1
					l0.1-112.3l-58.2-30l-60.8,29.1L153.5,176z"/>
			</g>
		</g>
	</g>
</g>
<g>
	<g>
		<g>
			<g>
				<polygon class="st2" points="191.5,31.6 129.1,61.4 129,176.9 191.4,206.4 251.1,176.6 251.2,62.4 				"/>
				<path class="st3" d="M191.4,208l-63.8-30.2l0.1-117.4l63.9-30.5l61.2,31.5l-0.1,116L191.4,208z M130.5,176l60.8,28.7l58.3-29.1
					l0.1-112.3l-58.2-30l-60.8,29.1L130.5,176z"/>
			</g>
		</g>
	</g>
</g>
<g>
	<g>
		<g>
			<g>
				<polygon class="st2" points="169.5,31.6 107.1,61.4 107,176.9 169.4,206.4 229.1,176.6 229.2,62.4 				"/>
				<path class="st3" d="M169.4,208l-63.8-30.2l0.1-117.4l63.9-30.5l61.2,31.5l-0.1,116L169.4,208z M108.5,176l60.8,28.7l58.3-29.1
					l0.1-112.3l-58.2-30l-60.8,29.1L108.5,176z"/>
			</g>
		</g>
	</g>
</g>
<g>
	<g>
		<g>
			<g>
				<g>
					<polygon class="st2" points="198,322.2 135.6,352 135.6,467.5 197.9,496.9 257.6,467.1 257.7,352.9 					"/>
					<path class="st3" d="M197.9,498.6l-63.8-30.2l0.1-117.4l63.9-30.5l61.2,31.5l-0.1,116L197.9,498.6z M137.1,466.5l60.8,28.7
						l58.3-29.1l0.1-112.3l-58.2-30l-60.8,29.1L137.1,466.5z"/>
				</g>
				<g>
					<g>
						<path class="st3" d="M204.6,354.5l-6.8-3.8l-7,3.5l1.5-7.7l-5.5-5.5l7.7-1l3.6-6.9l3.3,7.1l7.7,1.3l-5.7,5.3L204.6,354.5z
							 M197.8,349.7l5.5,3l-0.9-6.2l4.6-4.3l-6.2-1l-2.7-5.7l-2.9,5.6l-6.2,0.8l4.4,4.5l-1.2,6.2L197.8,349.7z"/>
					</g>
					<g>
						<polygon class="st3" points="213.7,341.3 215.7,345.4 220.2,346.2 216.8,349.3 217.5,353.9 213.5,351.7 209.4,353.7 
							210.2,349.2 207,345.9 211.6,345.3 						"/>
					</g>
					<g>
						<polygon class="st3" points="182.7,340.7 184.7,344.8 189.2,345.6 185.8,348.7 186.5,353.3 182.5,351.1 178.4,353.1 
							179.3,348.6 176,345.3 180.6,344.7 						"/>
					</g>
				</g>
			</g>
			<g>
				<g>
					<g>
						<path class="st3" d="M196.3,461.3c-27.6-0.5-49.6-23.4-49.1-51c0.5-27.6,23.4-49.6,51-49.1c27.6,0.5,49.6,23.4,49.1,51
							C246.8,439.9,223.9,461.9,196.3,461.3z"/>
					</g>
				</g>
			</g>
			<g>
				<g id="_x34_WjNNy.tif_00000000190422857618820780000018266590823127019942_">
					<g>
						<g>
							<path class="st2" d="M207.4,417.5c1.1,0.4,2.1,0.7,3.2,1.1c0.8,0.3,1.5,0.7,2.1,1.3c1.2,1.2,2.5,2,4.2,2.5
								c1.6,0.4,2.7,1.7,3.5,3.1c0.4,0.7,1,1.1,1.8,1.3c1.7,0.4,3.3,1,4.9,1.4c4.7,1.2,7.4,4.4,8.6,8.9c0.3,1.2,0.5,2.5,0.8,3.7
								c0.2,0.6-0.2,1-0.5,1.4c-3.1,3.3-6.7,6.3-10.6,8.7c-5.5,3.5-11.5,5.8-17.9,7c-1.7,0.3-3.4,0.6-5.1,0.5
								c-2.4-0.1-4.9-0.1-7.3,0c-5.9,0.3-11.5-1.2-16.9-3.3c-6.8-2.7-12.7-6.6-17.8-11.8c-0.6-0.6-0.7-1-0.5-1.9
								c0.4-1.9,0.7-3.9,1.4-5.7c1.3-3.7,3.8-6.3,7.7-7.4c1.6-0.5,3.3-1,4.9-1.4c1-0.3,1.8-0.7,2.3-1.7c0.8-1.6,2.2-2.6,4-3.1
								c0.9-0.2,1.8-0.6,2.4-1.3c1.8-2,4.1-2.7,6.5-3.4c0.1,1.8-0.1,3.5-0.8,5.1c-0.4,0.1-0.7,0.3-1.1,0.4c-0.6,0.1-0.8,0.3-0.4,1
								c1,2,2.7,3.3,4.4,4.6c0.4,0.3,0.8,0.3,1.3,0.3c3.9,0,7.7,0,11.6,0c0.5,0,1.1-0.1,1.5-0.4c1.3-1,2.6-2,3.6-3.4
								c1.3-1.8,1.2-1.8-0.8-2.5C207.5,421,207.3,419.3,207.4,417.5z"/>
						</g>
						<g>
							<path class="st1" d="M207.4,417.5c-0.1,1.8,0.1,3.5,0.8,5.1c-5.3,5-14.7,5.1-20.1,0c0.7-1.7,0.9-3.4,0.8-5.1
								c0-0.6,0-1.1,0.1-1.7c0.1-0.6-0.2-1.1-0.6-1.6c-1.5-1.4-3-2.8-3.7-4.8c-0.5-1.3-0.8-2.5-1-3.9c-0.1-0.6-0.3-0.8-0.9-1.1
								c-2.3-1.2-3.1-3.3-3.4-5.7c-0.2-1.8,0.2-3.5,1.7-4.7c0.7,0,1,0.3,1.1,1c0.1,0.7,0.2,1.5,0.3,2.2c0.1,0.3,0,0.8,0.5,0.8
								c0.6,0,0.3-0.5,0.3-0.8c0-3.1,0.1-6.3,0.4-9.4c0.3-2.3,0.6-4.6,1.5-6.8c0.3-0.7,0.7-0.9,1.3-0.4c1,0.7,2.2,1.3,3.3,1.8
								c4.8,2.1,9.8,3,15,1.6c2.2-0.6,4.3-1.3,6.4-2c1.5-0.5,1.6-0.4,2,1.1c0.3,1.5,0.5,3.1,0.5,4.6c0,3.2,0,6.4-0.4,9.6
								c0,0.2-0.2,0.6,0.2,0.7c0.4,0.1,0.4-0.3,0.4-0.6c0.1-0.7,0.3-1.4,0.3-2.1c0-0.9,0.4-1.3,1.3-1.4c1.1,1.1,1.8,2.4,1.7,4.1
								c-0.1,1.8-0.6,3.5-1.7,5c-0.5,0.6-1.1,1.2-1.8,1.4c-0.6,0.2-0.7,0.5-0.8,1c-0.3,1.3-0.5,2.6-1,3.8c-0.7,1.7-1.8,3.2-3.3,4.3
								c-0.9,0.8-1.3,1.7-1.1,2.8C207.4,416.9,207.4,417.2,207.4,417.5z"/>
							<path class="st2" d="M198.2,426.9c-3.8,0-7.6-1.3-10.4-3.9l-0.2-0.2l0.1-0.3c0.6-1.6,0.9-3.2,0.8-4.9l0-0.6
								c0-0.4,0-0.8,0.1-1.2c0-0.5-0.1-0.8-0.5-1.1c-1.4-1.3-3-2.8-3.9-5c-0.5-1.3-0.8-2.6-1.1-3.9c-0.1-0.4-0.2-0.6-0.6-0.8
								c-2.7-1.4-3.4-4-3.7-6.1c-0.3-2.2,0.3-3.9,1.8-5.2l0.1-0.1l0.2,0c0,0,0,0,0,0c0.7,0,1.5,0.3,1.6,1.5c0,0.4,0.1,0.9,0.2,1.3
								c0-3.1,0.2-5.8,0.4-8.5c0.2-2.1,0.6-4.6,1.5-6.9c0.1-0.2,0.3-0.8,0.9-1c0.4-0.1,0.8,0,1.2,0.3c1,0.7,2.1,1.2,3.3,1.7
								c5.4,2.3,10.1,2.8,14.6,1.6c1.3-0.4,2.6-0.8,3.9-1.2c0.8-0.3,1.7-0.5,2.5-0.8c0.8-0.3,1.4-0.4,1.8-0.1
								c0.5,0.3,0.6,0.8,0.8,1.6c0.3,1.4,0.5,3,0.5,4.7c0,2.4,0,4.5-0.1,6.4c0.3-0.5,0.9-0.6,1.4-0.7l0.2,0l0.2,0.2
								c1.3,1.3,1.9,2.8,1.9,4.5c-0.1,2-0.7,3.8-1.8,5.3c-0.6,0.8-1.3,1.3-2,1.6c-0.3,0.1-0.4,0.2-0.5,0.7c-0.2,1.3-0.6,2.6-1.1,3.9
								c-0.7,1.7-1.8,3.2-3.4,4.5c-0.8,0.7-1.1,1.4-1,2.4c0,0.2,0,0.5,0,0.7l0,0.3c-0.1,1.9,0.2,3.5,0.8,4.9l0.1,0.3l-0.2,0.2
								C205.8,425.6,202,426.9,198.2,426.9z M188.7,422.5c5.1,4.6,13.8,4.6,18.9,0c-0.5-1.4-0.8-3-0.7-5l0-0.3c0-0.2,0-0.4,0-0.6
								c-0.2-1.3,0.2-2.4,1.3-3.3c1.5-1.2,2.5-2.6,3.1-4.1c0.5-1.2,0.8-2.5,1-3.8c0.1-0.6,0.3-1.1,1.2-1.4c0.6-0.2,1.1-0.6,1.6-1.2
								c1-1.3,1.5-2.9,1.6-4.7c0.1-1.3-0.4-2.5-1.4-3.5c-0.4,0.1-0.6,0.3-0.6,0.9c0,0.5-0.1,1-0.2,1.5c0,0.2-0.1,0.4-0.1,0.6l0,0.1
								c0,0.2,0,0.5-0.3,0.8c-0.1,0.1-0.3,0.2-0.6,0.1c-0.3,0-0.5-0.2-0.6-0.3c-0.2-0.3-0.1-0.6-0.1-0.8c0,0,0-0.1,0-0.1
								c0.3-2.7,0.4-5.7,0.4-9.5c0-1.7-0.2-3.1-0.5-4.5c0-0.2-0.2-0.9-0.3-1c-0.1-0.1-0.8,0.1-1,0.2c-0.8,0.3-1.7,0.5-2.5,0.8
								c-1.3,0.4-2.6,0.8-3.9,1.2c-4.8,1.3-9.7,0.8-15.3-1.6c-1.2-0.5-2.4-1.1-3.4-1.8c-0.2-0.2-0.3-0.2-0.3-0.2c0,0-0.1,0-0.3,0.4
								c-0.9,2.2-1.2,4.6-1.5,6.6c-0.3,2.9-0.5,5.9-0.4,9.3c0,0,0,0.1,0,0.1c0,0.2,0.1,0.6-0.1,0.9c-0.2,0.2-0.4,0.3-0.7,0.3
								c-0.8,0-1-0.8-1-1c0-0.1,0-0.1,0-0.2c-0.1-0.7-0.3-1.5-0.4-2.2c0-0.4-0.1-0.6-0.4-0.6c-1.1,1-1.6,2.4-1.3,4.1
								c0.4,2.8,1.3,4.4,3.1,5.3c0.7,0.3,1,0.8,1.2,1.5c0.3,1.3,0.5,2.6,1,3.8c0.8,1.9,2.3,3.3,3.6,4.6c0.6,0.6,0.9,1.2,0.8,2
								c0,0.4,0,0.8-0.1,1.1l0,0.5C189.5,419.2,189.3,420.9,188.7,422.5z"/>
						</g>
					</g>
				</g>
				<g>
					<circle class="st1" cx="198.8" cy="400.3" r="21"/>
					<path class="st2" d="M198.8,421.8c-11.9,0-21.5-9.7-21.5-21.5s9.7-21.5,21.5-21.5s21.5,9.7,21.5,21.5S210.7,421.8,198.8,421.8z
						 M198.8,379.7c-11.3,0-20.5,9.2-20.5,20.5s9.2,20.5,20.5,20.5c11.3,0,20.5-9.2,20.5-20.5S210.1,379.7,198.8,379.7z"/>
				</g>
				<g>
					<path class="st2" d="M219.8,406c-1.1,0.1-1.5,0.6-1.6,1.6c0,0.8-0.2,1.6-0.4,2.4c-0.1,0.3,0,0.8-0.5,0.7
						c-0.5-0.1-0.3-0.5-0.2-0.8c0.4-3.7,0.5-7.5,0.5-11.2c0-1.8-0.2-3.6-0.6-5.4c-0.4-1.8-0.6-1.9-2.4-1.3c-2.6,0.8-5.2,1.6-7.8,2.3
						c-6.4,1.7-12.4,0.6-18.2-1.8c-1.4-0.6-2.8-1.2-4.1-2.1c-0.8-0.5-1.3-0.3-1.6,0.5c-1.1,2.5-1.5,5.2-1.8,7.9
						c-0.4,3.6-0.6,7.3-0.5,11c0,0.3,0.3,0.9-0.4,1c-0.6,0-0.5-0.6-0.6-0.9c-0.2-0.8-0.4-1.7-0.4-2.6c-0.1-0.8-0.5-1.2-1.3-1.2
						c-0.5-3.7-1-7.4-0.4-11.2c0.4-2.6,0.8-5.2,3-7c1.1-0.9,1.7-1.9,2-3.1c1.7-6.2,6.4-8.9,12.5-10.2c5.9-1.2,10.7,0.4,15.2,3.8
						c1.6,1.2,3.4,2.4,5.3,3.3c2.1,0.9-3.8,7.1-1.7,6.2c0.8-0.3,0.9-0.1,1.1,0.6c0.5,2.2,5.2-0.8,2.8,0.7c-0.5,0.3,1.3,0.7,1.5,1.2
						c1.5,4.6,1.2,9.4,0.8,14.1C219.8,404.9,219.8,405.4,219.8,406z"/>
				</g>
			</g>
		</g>
		<g>
			<path class="st2" d="M176,428.2l12.1-5.6c0,0,8.6,8.6,20.1,0c11.4-8.6,3.4,13.4,3.4,13.4L176,428.2z"/>
		</g>
		<g>
			<path class="st2" d="M219.6,392.1c0,0,2.7-13.5-9.6-13.8c-12.4-0.2-14.8,6-14.8,6S213.5,395.1,219.6,392.1z"/>
		</g>
		<g>
			<path class="st2" d="M217.4,407.6c0.1-0.1,0.1-0.1,0.1-0.2c0,0,0,0,0.1,0c-0.1,0.5-0.3,1.1-0.4,1.6c-0.1,0.5-0.3,0.9-0.4,1.4
				c0,0,0,0,0,0c-0.3,0.7-0.6,1.3-0.9,2c-0.3,0.6-0.7,1.2-1.1,1.7c-0.5,0.8-0.9,1.7-1.5,2.5c-0.6,0.9-1.3,1.7-2.2,2.5
				c-0.7,0.6-1.3,1.2-2,1.8c-0.1,0.1-0.2,0.2-0.2,0.4c0,0.7,0,1.3,0,2c0,0.9,0,1.9,0,2.8c0,0.7,0.1,1.4,0.2,2
				c-0.2-0.4-0.4-1-0.4-1.5c0-1.7,0-3.4,0-5c0-0.1,0-0.3,0-0.5c-0.2,0.2-0.4,0.3-0.6,0.4c-3,2.1-6.4,3.1-10.3,2.8
				c-2.5-0.2-4.8-0.8-7-1.8c-3-1.4-5.1-3.5-6.9-5.9c-1.7-2.4-3-5-3.8-7.7c-0.1-0.5-0.5-0.9-0.3-1.5c0.1-0.1,0.2-0.4,0.2-0.4
				c0.2,0,0.4,0.1,0.5,0.2c0.2,0.2,0.2,0.4,0.3,0.6c1.1,2.2,2.5,4.3,4.3,6.1c0.6,0.6,1.3,1.2,2.2,1.6c1.1,0.5,2.1,0.3,2.8-0.6
				c0.4-0.4,0.7-0.9,1-1.3c1-1.9,2.7-2.8,5.1-3c2-0.2,3.9-0.1,5.8,0.4c1.1,0.3,2,1,2.6,1.8c0.5,0.7,1,1.4,1.5,2.1
				c0.9,1,2.4,1.1,3.6,0.3c1.3-0.8,2.2-1.8,3-2.9c1.1-1.5,2-3.1,3-4.6c0.2-0.3,0.4-0.5,0.6-0.7c0.1-0.1,0.4-0.2,0.5-0.1
				c0.1,0,0.1,0.3,0.2,0.4C217.4,407.4,217.4,407.5,217.4,407.6z M198,410c-0.3,0-0.8,0-1.3,0.1c-4.5,0.7-4.9,4.6-3,6.7
				c0.8,0.9,2,1.3,3.2,1.6c3,0.7,5.8-0.2,7-2.6c1-2.1,0.2-4.4-2.5-5.3C200.4,410.1,199.3,410.1,198,410z"/>
		</g>
		<g>
			<path class="st2" d="M198.6,423.6c-4.1,0-7.5-3.1-7.5-7s3.4-7,7.5-7s7.5,3.1,7.5,7S202.8,423.6,198.6,423.6z M198.6,410.6
				c-3.6,0-6.5,2.7-6.5,6c0,3.3,2.9,6,6.5,6s6.5-2.7,6.5-6C205.1,413.3,202.2,410.6,198.6,410.6z"/>
		</g>
	</g>
	<g>
		<g>
			<g>
				<path class="st3" d="M197.3,361.2v2c0.3,0,0.6,0,0.9,0c12.8,0.3,24.8,5.5,33.7,14.8c8.9,9.3,13.7,21.4,13.4,34.2
					c-0.2,12.6-5.4,24.5-14.4,33.4c-9,8.9-21,13.7-33.6,13.7c-0.3,0-0.6,0-1,0c-26.5-0.5-47.6-22.5-47.1-49
					c0.2-12.6,5.4-24.5,14.4-33.4c9-8.9,21-13.7,33.6-13.7L197.3,361.2 M197.3,361.2c-27.2,0-49.5,21.8-50,49.1
					c-0.5,27.6,21.5,50.5,49.1,51c0.3,0,0.7,0,1,0c27.2,0,49.5-21.8,50-49.1c0.5-27.6-21.5-50.5-49.1-51
					C197.9,361.2,197.6,361.2,197.3,361.2L197.3,361.2z"/>
			</g>
		</g>
	</g>
</g>
<g>
	<g>
		<g>
			<g>
				<g>
					<polygon class="st2" points="218.5,320.6 156.1,350.4 156,465.9 218.4,495.4 278.1,465.6 278.2,351.4 					"/>
					<path class="st3" d="M218.4,497l-63.8-30.2l0.1-117.4l63.9-30.5l61.2,31.5l-0.1,116L218.4,497z M157.5,465l60.8,28.7l58.3-29.1
						l0.1-112.3l-58.2-30l-60.8,29.1L157.5,465z"/>
				</g>
				<g>
					<g>
						<polygon class="st3" points="218.6,332.8 221.6,339.2 228.5,340.3 223.4,345.1 224.4,352.1 218.3,348.7 212,351.8 
							213.3,344.9 208.4,339.9 215.3,339 						"/>
					</g>
					<g>
						<path class="st3" d="M238.6,353.3l-4.7-2.6l-4.8,2.4l1-5.3l-3.8-3.8l5.3-0.7l2.5-4.8l2.3,4.9l5.3,0.9l-3.9,3.7L238.6,353.3z
							 M234,349.6l3.4,1.9l-0.6-3.8l2.8-2.6l-3.8-0.6l-1.6-3.5l-1.8,3.4l-3.8,0.5l2.7,2.7l-0.7,3.8L234,349.6z"/>
					</g>
					<g>
						<path class="st3" d="M207.7,352.7l-4.7-2.6l-4.8,2.4l1-5.3l-3.8-3.8l5.3-0.7l2.5-4.8l2.3,4.9l5.3,0.9l-3.9,3.7L207.7,352.7z
							 M203,349l3.4,1.9l-0.6-3.8l2.8-2.6l-3.8-0.6l-1.6-3.5l-1.8,3.4l-3.8,0.5l2.7,2.7l-0.7,3.8L203,349z"/>
					</g>
				</g>
			</g>
			<g>
				<g>
					<g>
						<path class="st3" d="M216.8,459.8c-27.6-0.5-49.6-23.4-49.1-51c0.5-27.6,23.4-49.6,51-49.1c27.6,0.5,49.6,23.4,49.1,51
							C267.3,438.3,244.4,460.3,216.8,459.8z"/>
					</g>
				</g>
			</g>
			<g>
				<defs>
					<circle id="SVGID_1_" cx="217.8" cy="410.9" r="46"/>
				</defs>
				<use xlink:href="#SVGID_1_"  style="overflow:visible;fill:#CECECE;"/>
				<clipPath id="SVGID_00000170980106007689236450000005406833634704404366_">
					<use xlink:href="#SVGID_1_"  style="overflow:visible;"/>
				</clipPath>
				<g style="clip-path:url(#SVGID_00000170980106007689236450000005406833634704404366_);">
					<circle class="st1" cx="218.5" cy="405.4" r="26.7"/>
					<path class="st2" d="M218.5,432.5c-15,0-27.2-12.2-27.2-27.2s12.2-27.2,27.2-27.2s27.2,12.2,27.2,27.2S233.5,432.5,218.5,432.5
						z M218.5,379.2c-14.4,0-26.2,11.8-26.2,26.2s11.8,26.2,26.2,26.2c14.4,0,26.2-11.8,26.2-26.2S232.9,379.2,218.5,379.2z"/>
				</g>
				<g style="clip-path:url(#SVGID_00000170980106007689236450000005406833634704404366_);">
					<g>
						<path class="st2" d="M192.3,412.8c1.2,0.5,2.3,1,3.6,1.6c0-0.1,0.1,0.1,0.1,0.2c-0.2,3.1,1.3,5.6,3.3,7.9
							c3,3.5,6.8,6.2,10.9,8.2c1.2,0.6,1.6,1.3,1.4,2.5c-0.1,0.6-0.2,1.2-0.3,1.8c3.5,2,9,2,13,0c0-0.2-0.1-0.5-0.1-0.7
							c-0.3-2.2-0.2-2.5,1.8-3.5c3.7-1.8,7-4.2,9.7-7.4c2.3-2.6,4.1-5.4,3.8-8.8c1.5-0.7,2.8-1.4,4.3-2.1c-0.2,1.1-0.2,2.3-0.6,3.4
							c-0.9,2.5-1.9,5-2.9,7.4c-0.8,1.7-1.6,3.4-1.8,5.3c-0.1,1.8,0.3,3.4,1.5,4.7c1,1.2,2.2,2.3,3.2,3.4c2.7,3,2.9,5.5,0.6,8.9
							c-0.3,0.4-0.6,0.9-1,1.3c-1.2,0.9-1.1,2-0.7,3.4c1.3,5.1,2.5,10.3,3.7,15.5c0.1,0.3,0.1,0.7,0.2,1.1c-18.9,0-37.8,0-56.8,0
							c0.4-1.9,0.8-3.7,1.2-5.5c1.1-4.4,2.1-8.8,3.2-13.2c0.1-0.3-0.1-0.8-0.2-1.1c-0.6-1.1-1.4-2-2-3.1c-1.1-2.2-0.9-4.4,0.7-6.3
							c1-1.2,2-2.3,3.1-3.3c2.7-2.6,3.1-5.6,1.7-8.9c-0.5-1.3-1.2-2.6-1.9-3.9C193.6,418.8,192.7,415.9,192.3,412.8z"/>
					</g>
					<g>
						<g>
							<path class="st2" d="M230.2,403.4c-0.8-0.5-1.5-0.9-2.3-1.3c-0.1-0.1-0.3-0.1-0.4-0.1C228.3,402.4,229.2,402.9,230.2,403.4
								L230.2,403.4z"/>
						</g>
						<g>
							<path class="st2" d="M224.9,400.1C224.9,400.1,224.9,400.1,224.9,400.1c-1.3-1.1-2.5-2.1-3.6-3.4
								C222.2,397.8,223.4,399,224.9,400.1z"/>
						</g>
						<g>
							<path class="st2" d="M218.3,391c0,0,0.3,2.2,2.5,5.1C219.7,394.6,218.8,393,218.3,391z"/>
						</g>
						<g>
							<path class="st2" d="M220.9,396.3c0.1,0.1,0.2,0.3,0.4,0.4C221.2,396.6,221,396.4,220.9,396.3z"/>
						</g>
						<g>
							<path class="st2" d="M242.7,393c-3.6-10.1-14.2-16.2-24.4-13.2c-0.4,0.1-0.8,0-1.2-0.1c-3.7-1-7.4-0.9-11.1,0.3
								c-10,3.4-15.9,12.7-14.9,23.6c0.1,0.7,0.2,1.4,0.3,2.4c0.5-0.5,0.7-0.9,1.1-1.2c0.8-0.5,1.6-1.1,2.5-1.5
								c1.1-0.4,1.5-0.1,1.7,1c0.1,0.9,0.1,1.9,0.2,2.8c0.1,1.2,0.3,2.3,0.6,3.4c0.2,0.7,0.5,1.4,1.4,1.6c0.4-1.9,1.3-3.5,2.4-4.8
								c0,0,0.1-2.3,10.6-7.5c3-2,5.3-4.5,6.1-8.1c0-0.2,0.1-0.4,0.3-0.8c0.5,2,1.4,3.6,2.5,5.1c0,0.1,0.1,0.1,0.1,0.2
								c0.1,0.2,0.2,0.3,0.4,0.4c0,0,0,0,0,0c1,1.3,2.3,2.3,3.7,3.3c0,0-0.1,0-0.1,0.1c0.8,0.6,1.6,1.2,2.6,1.8
								c0.1,0,0.3,0.1,0.4,0.1c0.8,0.4,1.6,0.8,2.3,1.3c1.2,0.6,2,1.1,2.4,1.6c0.1,0.1,0.3,0.2,0.4,0.3c2.1,1.4,3.7,3.3,3.7,6
								c0,0.1,0.1,0.2,0.3,0.4c0.4-0.6,0.9-1.1,1.2-1.6c0.8-1.5,0.5-3.1,0.3-4.6c-0.2-1.3,0.3-1.9,1.7-1.8c0.8,0.1,1.6,0.5,2.3,0.9
								c0.3,0.2,0.6,0.5,0.9,0.7C244.1,400.9,244.3,397.5,242.7,393z"/>
						</g>
						<g>
							<path class="st2" d="M220.8,396.1c0,0.1,0.1,0.1,0.1,0.2C220.9,396.2,220.8,396.2,220.8,396.1z"/>
						</g>
						<g>
							<path class="st2" d="M230.2,403.4c0.8,0.5,1.6,1,2.4,1.6C232.2,404.4,231.4,403.9,230.2,403.4z"/>
						</g>
						<g>
							<path class="st2" d="M221.3,396.7C221.3,396.7,221.3,396.7,221.3,396.7C221.3,396.7,221.3,396.7,221.3,396.7z"/>
						</g>
					</g>
				</g>
			</g>
		</g>
	</g>
	<g>
		<g>
			<g>
				<path class="st3" d="M217.8,359.7v2c0.3,0,0.6,0,0.9,0c26.5,0.5,47.6,22.5,47.1,49c-0.2,12.6-5.4,24.5-14.4,33.4
					c-9,8.9-21,13.7-33.6,13.7c-0.3,0-0.6,0-1,0c-26.5-0.5-47.6-22.5-47.1-49c0.2-12.6,5.4-24.5,14.4-33.4c9-8.9,21-13.7,33.6-13.7
					L217.8,359.7 M217.8,359.7c-27.2,0-49.5,21.8-50,49.1c-0.5,27.6,21.5,50.5,49.1,51c0.3,0,0.7,0,1,0c27.2,0,49.5-21.8,50-49.1
					c0.5-27.6-21.5-50.5-49.1-51C218.4,359.7,218.1,359.7,217.8,359.7L217.8,359.7z"/>
			</g>
		</g>
	</g>
</g>
<g>
	<g>
		<g>
			<g>
				<g>
					<polygon class="st2" points="239,319.2 176.6,349 176.6,464.5 238.9,493.9 298.6,464.1 298.7,349.9 					"/>
					<path class="st3" d="M238.9,495.6l-63.8-30.2l0.1-117.4l63.9-30.5l61.2,31.5l-0.1,116L238.9,495.6z M178.1,463.5l60.8,28.7
						l58.3-29.1l0.1-112.3l-58.2-30l-60.8,29.1L178.1,463.5z"/>
				</g>
				<g>
					<g>
						<polygon class="st3" points="239.1,331.3 242.1,337.7 249,338.8 243.9,343.7 245,350.6 238.8,347.2 232.5,350.4 233.8,343.5 
							228.9,338.5 235.9,337.6 						"/>
					</g>
					<g>
						<polygon class="st3" points="254.7,338.3 256.7,342.4 261.2,343.2 257.8,346.3 258.5,350.9 254.5,348.7 250.4,350.7 
							251.2,346.2 248,342.9 252.6,342.3 						"/>
					</g>
					<g>
						<polygon class="st3" points="223.7,337.7 225.7,341.8 230.2,342.6 226.8,345.7 227.5,350.3 223.5,348.1 219.4,350.1 
							220.3,345.6 217,342.3 221.6,341.7 						"/>
					</g>
				</g>
			</g>
			<g>
				<g>
					<g>
						<path class="st3" d="M237.3,458.3c-27.6-0.5-49.6-23.4-49.1-51c0.5-27.6,23.4-49.6,51-49.1c27.6,0.5,49.6,23.4,49.1,51
							C287.8,436.9,264.9,458.9,237.3,458.3z"/>
					</g>
				</g>
			</g>
			<g>
				<g id="_x34_WjNNy.tif_00000029760148210650613380000009899014665910910903_">
					<g>
						<g>
							<path class="st2" d="M248,414.8c1.1,0.4,2.1,0.7,3.2,1.1c0.8,0.3,1.5,0.7,2.1,1.3c1.2,1.2,2.5,2,4.2,2.5
								c1.6,0.4,2.7,1.7,3.5,3.1c0.4,0.7,1,1.1,1.8,1.3c1.7,0.4,3.3,1,4.9,1.4c4.7,1.2,7.4,4.4,8.6,8.9c0.3,1.2,0.5,2.5,0.8,3.7
								c0.2,0.6-0.2,1-0.5,1.4c-3.1,3.3-6.7,6.3-10.6,8.7c-5.5,3.5-11.5,5.8-17.9,7c-1.7,0.3-3.4,0.6-5.1,0.5
								c-2.4-0.1-4.9-0.1-7.3,0c-5.9,0.3-11.5-1.2-16.9-3.3c-6.8-2.7-12.7-6.6-17.8-11.8c-0.6-0.6-0.7-1-0.5-1.9
								c0.4-1.9,0.7-3.9,1.4-5.7c1.3-3.7,3.8-6.3,7.7-7.4c1.6-0.5,3.3-1,4.9-1.4c1-0.3,1.8-0.7,2.3-1.7c0.8-1.6,2.2-2.6,4-3.1
								c0.9-0.2,1.8-0.6,2.4-1.3c1.8-2,4.1-2.7,6.5-3.4c0.1,1.8-0.1,3.5-0.8,5.1c-0.4,0.1-0.7,0.3-1.1,0.4c-0.6,0.1-0.8,0.3-0.4,1
								c1,2,2.7,3.3,4.4,4.6c0.4,0.3,0.8,0.3,1.3,0.3c3.9,0,7.7,0,11.6,0c0.5,0,1.1-0.1,1.5-0.4c1.3-1,2.6-2,3.6-3.4
								c1.3-1.8,1.2-1.8-0.8-2.5C248.1,418.3,247.9,416.6,248,414.8z M230,438.5c0-0.7,0-1.4,0-2.1c0-3.4-0.1-6.8-0.1-10.2
								c0-0.5-0.2-0.8-0.7-0.7c-0.3,0-0.8-0.1-0.7,0.5c0.2,1.2-0.2,2.4-0.2,3.7c0,7,0,14,0,21c0,0.7,0.1,1,0.9,1
								c0.9,0,0.8-0.5,0.8-1.1C230,446.5,230,442.5,230,438.5z M248.1,451.7c0.7,0.2,0.9-0.2,0.9-0.9c0-4.9,0-9.8,0-14.8
								c0-3.4-0.1-6.7-0.1-10.1c0-0.5-0.3-0.8-0.8-0.8c-0.5,0-0.7,0.2-0.7,0.7c0,0.5,0,1,0,1.6c0,7.8,0,15.6,0,23.4
								C247.3,451.5,247.4,451.8,248.1,451.7z"/>
						</g>
						<g>
							<path class="st1" d="M248,414.8c-0.1,1.8,0.1,3.5,0.8,5.1c-5.3,5-14.7,5.1-20.1,0c0.7-1.7,0.9-3.4,0.8-5.1
								c0-0.6,0-1.1,0.1-1.7c0.1-0.6-0.2-1.1-0.6-1.6c-1.5-1.4-3-2.8-3.7-4.8c-0.5-1.3-0.8-2.5-1-3.9c-0.1-0.6-0.3-0.8-0.9-1.1
								c-2.3-1.2-3.1-3.3-3.4-5.7c-0.2-1.8,0.2-3.5,1.7-4.7c0.7,0,1,0.3,1.1,1c0.1,0.7,0.2,1.5,0.3,2.2c0.1,0.3,0,0.8,0.5,0.8
								c0.6,0,0.3-0.5,0.3-0.8c0-3.1,0.1-6.3,0.4-9.4c0.3-2.3,0.6-4.6,1.5-6.8c0.3-0.7,0.7-0.9,1.3-0.4c1,0.7,2.2,1.3,3.3,1.8
								c4.8,2.1,9.8,3,15,1.6c2.2-0.6,4.3-1.3,6.4-2c1.5-0.5,1.6-0.4,2,1.1c0.3,1.5,0.5,3.1,0.5,4.6c0,3.2,0,6.4-0.4,9.6
								c0,0.2-0.2,0.6,0.2,0.7c0.4,0.1,0.4-0.3,0.4-0.6c0.1-0.7,0.3-1.4,0.3-2.1c0-0.9,0.4-1.3,1.3-1.4c1.1,1.1,1.8,2.4,1.7,4.1
								c-0.1,1.8-0.6,3.5-1.7,5c-0.5,0.6-1.1,1.2-1.8,1.4c-0.6,0.2-0.7,0.5-0.8,1c-0.3,1.3-0.5,2.6-1,3.8c-0.7,1.7-1.8,3.2-3.3,4.3
								c-0.9,0.8-1.3,1.7-1.1,2.8C247.9,414.2,247.9,414.5,248,414.8z"/>
							<path class="st2" d="M238.7,424.2c-3.8,0-7.6-1.3-10.4-3.9l-0.2-0.2l0.1-0.3c0.6-1.6,0.9-3.2,0.8-4.9l0-0.6
								c0-0.4,0-0.8,0.1-1.2c0-0.5-0.1-0.8-0.5-1.1c-1.4-1.3-3-2.8-3.9-5c-0.5-1.3-0.8-2.6-1.1-3.9c-0.1-0.4-0.2-0.6-0.6-0.8
								c-2.7-1.4-3.4-4-3.7-6.1c-0.3-2.2,0.3-3.9,1.8-5.2l0.1-0.1l0.2,0c0,0,0,0,0,0c0.7,0,1.5,0.3,1.6,1.5c0,0.4,0.1,0.9,0.2,1.3
								c0-3.1,0.2-5.8,0.4-8.5c0.2-2.1,0.6-4.6,1.5-6.9c0.1-0.2,0.3-0.8,0.9-1c0.4-0.1,0.8,0,1.2,0.3c1,0.7,2.1,1.2,3.3,1.7
								c5.4,2.3,10.1,2.8,14.6,1.6c1.3-0.4,2.6-0.8,3.9-1.2c0.8-0.3,1.7-0.5,2.5-0.8c0.8-0.3,1.4-0.4,1.8-0.1
								c0.5,0.3,0.6,0.8,0.8,1.6c0.3,1.4,0.5,3,0.5,4.7c0,2.4,0,4.5-0.1,6.4c0.3-0.5,0.9-0.6,1.4-0.7l0.2,0l0.2,0.2
								c1.3,1.3,1.9,2.8,1.9,4.5c-0.1,2-0.7,3.8-1.8,5.3c-0.6,0.8-1.3,1.3-2,1.6c-0.3,0.1-0.4,0.2-0.5,0.7c-0.2,1.3-0.5,2.6-1.1,3.9
								c-0.7,1.7-1.8,3.2-3.4,4.5c-0.8,0.7-1.1,1.4-1,2.4c0,0.2,0,0.5,0,0.7l0,0.3c-0.1,1.9,0.2,3.5,0.8,4.9l0.1,0.3l-0.2,0.2
								C246.3,422.9,242.5,424.2,238.7,424.2z M229.3,419.8c5.1,4.6,13.8,4.6,18.9,0c-0.5-1.4-0.8-3-0.7-5l0-0.3c0-0.2,0-0.4,0-0.6
								c-0.2-1.3,0.2-2.4,1.3-3.3c1.5-1.2,2.5-2.6,3.1-4.1c0.5-1.2,0.8-2.5,1-3.8c0.1-0.6,0.3-1.1,1.2-1.4c0.6-0.2,1.1-0.6,1.6-1.2
								c1-1.3,1.5-2.9,1.6-4.7c0.1-1.3-0.4-2.5-1.4-3.5c-0.4,0.1-0.6,0.3-0.6,0.9c0,0.5-0.1,1-0.2,1.5c0,0.2-0.1,0.4-0.1,0.6l0,0.1
								c0,0.2,0,0.5-0.3,0.8c-0.1,0.1-0.3,0.2-0.6,0.1c-0.3,0-0.5-0.2-0.6-0.3c-0.2-0.3-0.1-0.6-0.1-0.8c0,0,0-0.1,0-0.1
								c0.3-2.7,0.4-5.7,0.4-9.5c0-1.7-0.2-3.1-0.5-4.5c0-0.2-0.2-0.9-0.3-1c-0.1-0.1-0.8,0.1-1,0.2c-0.8,0.3-1.7,0.5-2.5,0.8
								c-1.3,0.4-2.6,0.8-3.9,1.2c-4.8,1.3-9.7,0.8-15.3-1.6c-1.2-0.5-2.4-1.1-3.4-1.8c-0.2-0.2-0.3-0.2-0.3-0.2c0,0-0.1,0-0.2,0.4
								c-0.9,2.2-1.2,4.6-1.5,6.6c-0.3,2.9-0.5,5.9-0.4,9.3c0,0,0,0.1,0,0.1c0,0.2,0.1,0.6-0.1,0.9c-0.2,0.2-0.4,0.3-0.7,0.3
								c-0.8,0-0.9-0.8-1-1c0-0.1,0-0.1,0-0.2c-0.1-0.7-0.3-1.5-0.4-2.2c0-0.4-0.1-0.6-0.4-0.6c-1.1,1-1.6,2.4-1.3,4.1
								c0.4,2.8,1.3,4.4,3.1,5.3c0.7,0.3,1,0.8,1.2,1.5c0.3,1.3,0.5,2.6,1,3.8c0.8,1.9,2.3,3.3,3.6,4.6c0.6,0.6,0.9,1.2,0.8,2
								c0,0.4,0,0.8-0.1,1.1l0,0.5C230.1,416.4,229.9,418.1,229.3,419.8z"/>
						</g>
						<g>
							<path class="st4" d="M230,438.5c0,4,0,8,0,12c0,0.6,0.1,1.1-0.8,1.1c-0.8,0-0.9-0.4-0.9-1c0-7,0-14,0-21
								c0-1.2,0.4-2.4,0.2-3.7c-0.1-0.6,0.3-0.5,0.7-0.5c0.6-0.1,0.7,0.2,0.7,0.7c0,3.4,0,6.8,0.1,10.2
								C230,437.1,230,437.8,230,438.5z"/>
						</g>
						<g>
							<path class="st4" d="M248.1,451.7c-0.7,0.2-0.8-0.2-0.8-0.8c0-7.8,0-15.6,0-23.4c0-0.5,0-1,0-1.6c0-0.5,0.2-0.7,0.7-0.7
								c0.5,0,0.8,0.3,0.8,0.8c0.1,3.4,0.1,6.7,0.1,10.1c0,4.9,0,9.8,0,14.8C249,451.5,248.8,451.9,248.1,451.7z"/>
						</g>
					</g>
				</g>
				<g>
					<circle class="st1" cx="239.3" cy="397.5" r="21"/>
					<path class="st2" d="M239.3,419.1c-11.9,0-21.5-9.7-21.5-21.5s9.7-21.5,21.5-21.5s21.5,9.7,21.5,21.5S251.2,419.1,239.3,419.1z
						 M239.3,377c-11.3,0-20.5,9.2-20.5,20.5s9.2,20.5,20.5,20.5s20.5-9.2,20.5-20.5S250.7,377,239.3,377z"/>
				</g>
				<g>
					<path class="st2" d="M260.3,403.2c-1.1,0.1-1.5,0.6-1.6,1.6c0,0.8-0.2,1.6-0.4,2.4c-0.1,0.3,0,0.8-0.5,0.7
						c-0.5-0.1-0.3-0.5-0.2-0.8c0.4-3.7,0.5-7.5,0.5-11.2c0-1.8-0.2-3.6-0.6-5.4c-0.4-1.8-0.6-1.9-2.4-1.3c-2.6,0.8-5.2,1.6-7.8,2.3
						c-6.4,1.7-12.4,0.6-18.2-1.8c-1.4-0.6-2.8-1.2-4.1-2.1c-0.8-0.5-1.3-0.3-1.6,0.5c-1.1,2.5-1.5,5.2-1.8,7.9
						c-0.4,3.6-0.6,7.3-0.5,11c0,0.3,0.3,0.9-0.4,1c-0.6,0-0.5-0.6-0.6-0.9c-0.2-0.8-0.4-1.7-0.4-2.6c-0.1-0.8-0.5-1.2-1.3-1.2
						c-0.5-3.7-1-7.4-0.4-11.2c0.4-2.6,0.8-5.2,3-7c1.1-0.9,1.7-1.9,2-3.1c1.7-6.2,6.4-8.9,12.5-10.2c5.9-1.2,10.7,0.4,15.2,3.8
						c1.6,1.2,3.4,2.4,5.3,3.3c2.1,0.9,4.2,1.1,6.3,0.2c0.8-0.3,0.9-0.1,1.1,0.6c0.5,2.2-0.8,5.2-3.2,6.7c-0.5,0.3-0.7,0.7-0.5,1.2
						c1.5,4.6,1.2,9.4,0.8,14.1C260.3,402.2,260.4,402.7,260.3,403.2z"/>
				</g>
			</g>
		</g>
		<g>
			<path class="st2" d="M260.6,389.1c0,0,2.7-13.5-9.6-13.8c-12.4-0.2-14.8,6-14.8,6S254.5,392.1,260.6,389.1z"/>
		</g>
	</g>
	<g>
		<g>
			<g>
				<path class="st3" d="M238.3,358.2v2c0.3,0,0.6,0,0.9,0c26.5,0.5,47.6,22.5,47.1,49c-0.2,12.6-5.4,24.5-14.4,33.4
					c-9,8.9-21,13.7-33.6,13.7c-0.3,0-0.6,0-1,0c-26.5-0.5-47.6-22.5-47.1-49c0.2-12.6,5.4-24.5,14.4-33.4c9-8.9,21-13.7,33.6-13.7
					L238.3,358.2 M238.3,358.2c-27.2,0-49.5,21.8-50,49.1c-0.5,27.6,21.5,50.5,49.1,51c0.3,0,0.7,0,1,0c27.2,0,49.5-21.8,50-49.1
					c0.5-27.6-21.5-50.5-49.1-51C238.9,358.2,238.6,358.2,238.3,358.2L238.3,358.2z"/>
			</g>
		</g>
	</g>
</g>
</svg>
