<?xml version="1.0" encoding="utf-8"?>
<!-- Generator: Adobe Illustrator 25.4.1, SVG Export Plug-In . SVG Version: 6.00 Build 0)  -->
<svg version="1.1" id="Calque_1" xmlns="http://www.w3.org/2000/svg" xmlns:xlink="http://www.w3.org/1999/xlink" x="0px" y="0px"
	 viewBox="0 0 410 503" style="enable-background:new 0 0 410 503;" xml:space="preserve">
<style type="text/css">
	.st0{fill:#1D1D1B;}
	.st1{fill:#FFFFFF;}
	.st2{fill:#161616;}
	.st3{fill:#CECECE;}
	.st4{fill:#F0F0F0;}
</style>
<g>
	<rect x="44.2" y="93.5" class="st0" width="317" height="317"/>
	<path class="st1" d="M361.2,411.5h-12c-0.6,0-1-0.4-1-1s0.4-1,1-1h12c0.6,0,1,0.4,1,1S361.8,411.5,361.2,411.5z M337.2,411.5h-12
		c-0.6,0-1-0.4-1-1s0.4-1,1-1h12c0.6,0,1,0.4,1,1S337.8,411.5,337.2,411.5z M313.2,411.5h-12c-0.6,0-1-0.4-1-1s0.4-1,1-1h12
		c0.6,0,1,0.4,1,1S313.8,411.5,313.2,411.5z M289.2,411.5h-12c-0.6,0-1-0.4-1-1s0.4-1,1-1h12c0.6,0,1,0.4,1,1
		S289.8,411.5,289.2,411.5z M265.2,411.5h-12c-0.6,0-1-0.4-1-1s0.4-1,1-1h12c0.6,0,1,0.4,1,1S265.8,411.5,265.2,411.5z M241.2,411.5
		h-12c-0.6,0-1-0.4-1-1s0.4-1,1-1h12c0.6,0,1,0.4,1,1S241.8,411.5,241.2,411.5z M217.2,411.5h-12c-0.6,0-1-0.4-1-1s0.4-1,1-1h12
		c0.6,0,1,0.4,1,1S217.8,411.5,217.2,411.5z M193.2,411.5h-12c-0.6,0-1-0.4-1-1s0.4-1,1-1h12c0.6,0,1,0.4,1,1
		S193.8,411.5,193.2,411.5z M169.2,411.5h-12c-0.6,0-1-0.4-1-1s0.4-1,1-1h12c0.6,0,1,0.4,1,1S169.8,411.5,169.2,411.5z M145.2,411.5
		h-12c-0.6,0-1-0.4-1-1s0.4-1,1-1h12c0.6,0,1,0.4,1,1S145.8,411.5,145.2,411.5z M121.2,411.5h-12c-0.6,0-1-0.4-1-1s0.4-1,1-1h12
		c0.6,0,1,0.4,1,1S121.8,411.5,121.2,411.5z M97.2,411.5h-12c-0.6,0-1-0.4-1-1s0.4-1,1-1h12c0.6,0,1,0.4,1,1S97.8,411.5,97.2,411.5z
		 M73.2,411.5h-12c-0.6,0-1-0.4-1-1s0.4-1,1-1h12c0.6,0,1,0.4,1,1S73.8,411.5,73.2,411.5z M49.2,411.5h-5c-0.6,0-1-0.4-1-1v-7
		c0-0.6,0.4-1,1-1s1,0.4,1,1v6h4c0.6,0,1,0.4,1,1S49.8,411.5,49.2,411.5z M361.2,403.5c-0.6,0-1-0.4-1-1v-12c0-0.6,0.4-1,1-1
		s1,0.4,1,1v12C362.2,403.1,361.8,403.5,361.2,403.5z M44.2,392.5c-0.6,0-1-0.4-1-1v-12c0-0.6,0.4-1,1-1s1,0.4,1,1v12
		C45.2,392.1,44.8,392.5,44.2,392.5z M361.2,379.5c-0.6,0-1-0.4-1-1v-12c0-0.6,0.4-1,1-1s1,0.4,1,1v12
		C362.2,379.1,361.8,379.5,361.2,379.5z M44.2,368.5c-0.6,0-1-0.4-1-1v-12c0-0.6,0.4-1,1-1s1,0.4,1,1v12
		C45.2,368.1,44.8,368.5,44.2,368.5z M361.2,355.5c-0.6,0-1-0.4-1-1v-12c0-0.6,0.4-1,1-1s1,0.4,1,1v12
		C362.2,355.1,361.8,355.5,361.2,355.5z M44.2,344.5c-0.6,0-1-0.4-1-1v-12c0-0.6,0.4-1,1-1s1,0.4,1,1v12
		C45.2,344.1,44.8,344.5,44.2,344.5z M361.2,331.5c-0.6,0-1-0.4-1-1v-12c0-0.6,0.4-1,1-1s1,0.4,1,1v12
		C362.2,331.1,361.8,331.5,361.2,331.5z M44.2,320.5c-0.6,0-1-0.4-1-1v-12c0-0.6,0.4-1,1-1s1,0.4,1,1v12
		C45.2,320.1,44.8,320.5,44.2,320.5z M361.2,307.5c-0.6,0-1-0.4-1-1v-12c0-0.6,0.4-1,1-1s1,0.4,1,1v12
		C362.2,307.1,361.8,307.5,361.2,307.5z M44.2,296.5c-0.6,0-1-0.4-1-1v-12c0-0.6,0.4-1,1-1s1,0.4,1,1v12
		C45.2,296.1,44.8,296.5,44.2,296.5z M361.2,283.5c-0.6,0-1-0.4-1-1v-12c0-0.6,0.4-1,1-1s1,0.4,1,1v12
		C362.2,283.1,361.8,283.5,361.2,283.5z M44.2,272.5c-0.6,0-1-0.4-1-1v-12c0-0.6,0.4-1,1-1s1,0.4,1,1v12
		C45.2,272.1,44.8,272.5,44.2,272.5z M361.2,259.5c-0.6,0-1-0.4-1-1v-12c0-0.6,0.4-1,1-1s1,0.4,1,1v12
		C362.2,259.1,361.8,259.5,361.2,259.5z M44.2,248.5c-0.6,0-1-0.4-1-1v-12c0-0.6,0.4-1,1-1s1,0.4,1,1v12
		C45.2,248.1,44.8,248.5,44.2,248.5z M361.2,235.5c-0.6,0-1-0.4-1-1v-12c0-0.6,0.4-1,1-1s1,0.4,1,1v12
		C362.2,235.1,361.8,235.5,361.2,235.5z M44.2,224.5c-0.6,0-1-0.4-1-1v-12c0-0.6,0.4-1,1-1s1,0.4,1,1v12
		C45.2,224.1,44.8,224.5,44.2,224.5z M361.2,211.5c-0.6,0-1-0.4-1-1v-12c0-0.6,0.4-1,1-1s1,0.4,1,1v12
		C362.2,211.1,361.8,211.5,361.2,211.5z M44.2,200.5c-0.6,0-1-0.4-1-1v-12c0-0.6,0.4-1,1-1s1,0.4,1,1v12
		C45.2,200.1,44.8,200.5,44.2,200.5z M361.2,187.5c-0.6,0-1-0.4-1-1v-12c0-0.6,0.4-1,1-1s1,0.4,1,1v12
		C362.2,187.1,361.8,187.5,361.2,187.5z M44.2,176.5c-0.6,0-1-0.4-1-1v-12c0-0.6,0.4-1,1-1s1,0.4,1,1v12
		C45.2,176.1,44.8,176.5,44.2,176.5z M361.2,163.5c-0.6,0-1-0.4-1-1v-12c0-0.6,0.4-1,1-1s1,0.4,1,1v12
		C362.2,163.1,361.8,163.5,361.2,163.5z M44.2,152.5c-0.6,0-1-0.4-1-1v-12c0-0.6,0.4-1,1-1s1,0.4,1,1v12
		C45.2,152.1,44.8,152.5,44.2,152.5z M361.2,139.5c-0.6,0-1-0.4-1-1v-12c0-0.6,0.4-1,1-1s1,0.4,1,1v12
		C362.2,139.1,361.8,139.5,361.2,139.5z M44.2,128.5c-0.6,0-1-0.4-1-1v-12c0-0.6,0.4-1,1-1s1,0.4,1,1v12
		C45.2,128.1,44.8,128.5,44.2,128.5z M361.2,115.5c-0.6,0-1-0.4-1-1v-12c0-0.6,0.4-1,1-1s1,0.4,1,1v12
		C362.2,115.1,361.8,115.5,361.2,115.5z M44.2,104.5c-0.6,0-1-0.4-1-1v-10c0-0.6,0.4-1,1-1h2c0.6,0,1,0.4,1,1s-0.4,1-1,1h-1v9
		C45.2,104.1,44.8,104.5,44.2,104.5z M358.2,94.5h-12c-0.6,0-1-0.4-1-1s0.4-1,1-1h12c0.6,0,1,0.4,1,1S358.8,94.5,358.2,94.5z
		 M334.2,94.5h-12c-0.6,0-1-0.4-1-1s0.4-1,1-1h12c0.6,0,1,0.4,1,1S334.8,94.5,334.2,94.5z M310.2,94.5h-12c-0.6,0-1-0.4-1-1
		s0.4-1,1-1h12c0.6,0,1,0.4,1,1S310.8,94.5,310.2,94.5z M286.2,94.5h-12c-0.6,0-1-0.4-1-1s0.4-1,1-1h12c0.6,0,1,0.4,1,1
		S286.8,94.5,286.2,94.5z M262.2,94.5h-12c-0.6,0-1-0.4-1-1s0.4-1,1-1h12c0.6,0,1,0.4,1,1S262.8,94.5,262.2,94.5z M238.2,94.5h-12
		c-0.6,0-1-0.4-1-1s0.4-1,1-1h12c0.6,0,1,0.4,1,1S238.8,94.5,238.2,94.5z M214.2,94.5h-12c-0.6,0-1-0.4-1-1s0.4-1,1-1h12
		c0.6,0,1,0.4,1,1S214.8,94.5,214.2,94.5z M190.2,94.5h-12c-0.6,0-1-0.4-1-1s0.4-1,1-1h12c0.6,0,1,0.4,1,1S190.8,94.5,190.2,94.5z
		 M166.2,94.5h-12c-0.6,0-1-0.4-1-1s0.4-1,1-1h12c0.6,0,1,0.4,1,1S166.8,94.5,166.2,94.5z M142.2,94.5h-12c-0.6,0-1-0.4-1-1
		s0.4-1,1-1h12c0.6,0,1,0.4,1,1S142.8,94.5,142.2,94.5z M118.2,94.5h-12c-0.6,0-1-0.4-1-1s0.4-1,1-1h12c0.6,0,1,0.4,1,1
		S118.8,94.5,118.2,94.5z M94.2,94.5h-12c-0.6,0-1-0.4-1-1s0.4-1,1-1h12c0.6,0,1,0.4,1,1S94.8,94.5,94.2,94.5z M70.2,94.5h-12
		c-0.6,0-1-0.4-1-1s0.4-1,1-1h12c0.6,0,1,0.4,1,1S70.8,94.5,70.2,94.5z"/>
</g>
<g>
	<g>
		<g>
			<g>
				<g>
					<polygon class="st2" points="171,271.1 108.7,300.9 108.6,416.4 170.9,445.8 230.6,416 230.7,301.8 					"/>
					<path class="st3" d="M170.9,447.5l-63.8-30.2l0.1-117.4l63.9-30.5l61.2,31.5l-0.1,116L170.9,447.5z M110.1,415.4l60.8,28.7
						l58.3-29.1l0.1-112.3l-58.2-30l-60.8,29.1L110.1,415.4z"/>
				</g>
				<g>
					<g>
						<polygon class="st3" points="171.1,283.2 174.1,289.6 181.1,290.8 175.9,295.6 177,302.5 170.8,299.1 164.5,302.3 
							165.8,295.4 160.9,290.4 167.9,289.5 						"/>
					</g>
					<g>
						<polygon class="st3" points="186.7,290.2 188.7,294.3 193.2,295.1 189.9,298.2 190.5,302.8 186.5,300.6 182.4,302.6 
							183.3,298.1 180,294.8 184.6,294.3 						"/>
					</g>
					<g>
						<polygon class="st3" points="155.7,289.6 157.7,293.7 162.2,294.5 158.9,297.6 159.5,302.2 155.5,300 151.4,302 152.3,297.5 
							149,294.2 153.6,293.7 						"/>
					</g>
				</g>
			</g>
			<g>
				<g>
					<g>
						<path class="st3" d="M169.3,410.3c-27.6-0.5-49.6-23.4-49.1-51c0.5-27.6,23.4-49.6,51-49.1c27.6,0.5,49.6,23.4,49.1,51
							C219.8,388.8,196.9,410.8,169.3,410.3z"/>
					</g>
				</g>
			</g>
			<g>
				<g id="_x34_WjNNy.tif_00000140695587399521952670000017910484162281276565_">
					<g>
						<g>
							<path class="st2" d="M180,366.7c1.1,0.4,2.1,0.7,3.2,1.1c0.8,0.3,1.5,0.7,2.1,1.3c1.2,1.2,2.5,2,4.2,2.5
								c1.6,0.4,2.7,1.7,3.5,3.1c0.4,0.7,1,1.1,1.8,1.3c1.7,0.4,3.3,1,4.9,1.4c4.7,1.2,7.4,4.4,8.6,8.9c0.3,1.2,0.5,2.5,0.8,3.7
								c0.2,0.6-0.2,1-0.5,1.4c-3.1,3.3-6.7,6.3-10.6,8.7c-5.5,3.5-11.5,5.8-17.9,7c-1.7,0.3-3.4,0.6-5.1,0.5
								c-2.4-0.1-4.9-0.1-7.3,0c-5.9,0.3-11.5-1.2-16.9-3.3c-6.8-2.7-12.7-6.6-17.8-11.8c-0.6-0.6-0.7-1-0.5-1.9
								c0.4-1.9,0.7-3.9,1.4-5.7c1.3-3.7,3.8-6.3,7.7-7.4c1.6-0.5,3.3-1,4.9-1.4c1-0.3,1.8-0.7,2.3-1.7c0.8-1.6,2.2-2.6,4-3.1
								c0.9-0.2,1.8-0.6,2.4-1.3c1.8-2,4.1-2.7,6.5-3.4c0.1,1.8-0.1,3.5-0.8,5.1c-0.4,0.1-0.7,0.3-1.1,0.4c-0.6,0.1-0.8,0.3-0.4,1
								c1,2,2.7,3.3,4.4,4.6c0.4,0.3,0.8,0.3,1.3,0.3c3.9,0,7.7,0,11.6,0c0.5,0,1.1-0.1,1.5-0.4c1.3-1,2.6-2,3.6-3.4
								c1.3-1.8,1.2-1.8-0.8-2.5C180.1,370.2,179.9,368.5,180,366.7z M162,390.4c0-0.7,0-1.4,0-2.1c0-3.4-0.1-6.8-0.1-10.2
								c0-0.5-0.2-0.8-0.7-0.7c-0.3,0-0.8-0.1-0.7,0.5c0.2,1.2-0.2,2.4-0.2,3.7c0,7,0,14,0,21c0,0.7,0.1,1,0.9,1
								c0.9,0,0.8-0.5,0.8-1.1C162,398.4,162,394.4,162,390.4z M180.1,403.6c0.7,0.2,0.9-0.2,0.9-0.9c0-4.9,0-9.8,0-14.8
								c0-3.4-0.1-6.7-0.1-10.1c0-0.5-0.3-0.8-0.8-0.8c-0.5,0-0.7,0.2-0.7,0.7c0,0.5,0,1,0,1.6c0,7.8,0,15.6,0,23.4
								C179.3,403.4,179.4,403.8,180.1,403.6z"/>
						</g>
						<g>
							<path class="st1" d="M180,366.7c-0.1,1.8,0.1,3.5,0.8,5.1c-5.3,5-14.7,5.1-20.1,0c0.7-1.7,0.9-3.4,0.8-5.1
								c0-0.6,0-1.1,0.1-1.7c0.1-0.6-0.2-1.1-0.6-1.6c-1.5-1.4-3-2.8-3.7-4.8c-0.5-1.3-0.8-2.5-1-3.9c-0.1-0.6-0.3-0.8-0.9-1.1
								c-2.3-1.2-3.1-3.3-3.4-5.7c-0.2-1.8,0.2-3.5,1.7-4.7c0.7,0,1,0.3,1.1,1c0.1,0.7,0.2,1.5,0.3,2.2c0.1,0.3,0,0.8,0.5,0.8
								c0.6,0,0.3-0.5,0.3-0.8c0-3.1,0.1-6.3,0.4-9.4c0.3-2.3,0.6-4.6,1.5-6.8c0.3-0.7,0.7-0.9,1.3-0.4c1,0.7,2.2,1.3,3.3,1.8
								c4.8,2.1,9.8,3,15,1.6c2.2-0.6,4.3-1.3,6.4-2c1.5-0.5,1.6-0.4,2,1.1c0.3,1.5,0.5,3.1,0.5,4.6c0,3.2,0,6.4-0.4,9.6
								c0,0.2-0.2,0.6,0.2,0.7c0.4,0.1,0.4-0.3,0.4-0.6c0.1-0.7,0.3-1.4,0.3-2.1c0-0.9,0.4-1.3,1.3-1.4c1.1,1.1,1.8,2.4,1.7,4.1
								c-0.1,1.8-0.6,3.5-1.7,5c-0.5,0.6-1.1,1.2-1.8,1.4c-0.6,0.2-0.7,0.5-0.8,1c-0.3,1.3-0.5,2.6-1,3.8c-0.7,1.7-1.8,3.2-3.3,4.3
								c-0.9,0.8-1.3,1.7-1.1,2.8C179.9,366.1,179.9,366.4,180,366.7z"/>
							<path class="st2" d="M170.7,376.1c-3.8,0-7.6-1.3-10.4-3.9l-0.2-0.2l0.1-0.3c0.6-1.6,0.9-3.2,0.8-4.9l0-0.6
								c0-0.4,0-0.8,0.1-1.2c0-0.5-0.1-0.8-0.5-1.1c-1.4-1.3-3-2.8-3.9-5c-0.5-1.3-0.8-2.6-1.1-3.9c-0.1-0.4-0.2-0.6-0.6-0.8
								c-2.7-1.4-3.4-4-3.7-6.1c-0.3-2.2,0.3-3.9,1.8-5.2l0.1-0.1l0.2,0c0,0,0,0,0,0c0.7,0,1.5,0.3,1.6,1.5c0,0.4,0.1,0.9,0.2,1.3
								c0-3.1,0.2-5.9,0.4-8.5c0.2-2.1,0.6-4.6,1.5-6.9c0.1-0.2,0.3-0.8,0.9-1c0.4-0.1,0.8,0,1.2,0.3c1,0.7,2.1,1.2,3.3,1.7
								c5.4,2.3,10.1,2.8,14.6,1.6c1.3-0.4,2.6-0.8,3.9-1.2c0.8-0.3,1.7-0.5,2.5-0.8c0.8-0.3,1.4-0.4,1.8-0.1
								c0.5,0.3,0.6,0.8,0.8,1.6c0.3,1.4,0.5,3,0.5,4.7c0,2.4,0,4.5-0.1,6.4c0.3-0.5,0.9-0.6,1.4-0.7l0.2,0l0.2,0.2
								c1.3,1.3,1.9,2.8,1.9,4.5c-0.1,2-0.7,3.8-1.8,5.3c-0.6,0.8-1.3,1.3-2,1.6c-0.3,0.1-0.4,0.2-0.5,0.7c-0.2,1.3-0.6,2.6-1.1,3.9
								c-0.7,1.7-1.8,3.2-3.4,4.5c-0.8,0.7-1.1,1.4-1,2.4c0,0.2,0,0.5,0,0.7l0,0.3c-0.1,1.9,0.2,3.5,0.8,4.9l0.1,0.3l-0.2,0.2
								C178.3,374.8,174.5,376.1,170.7,376.1z M161.3,371.7c5.1,4.6,13.8,4.6,18.9,0c-0.5-1.4-0.8-3-0.7-5l0-0.3c0-0.2,0-0.4,0-0.6
								c-0.2-1.3,0.2-2.4,1.3-3.3c1.5-1.2,2.5-2.6,3.1-4.1c0.5-1.2,0.8-2.5,1-3.8c0.1-0.6,0.3-1.1,1.2-1.4c0.6-0.2,1.1-0.6,1.6-1.2
								c1-1.3,1.5-2.9,1.6-4.7c0.1-1.3-0.4-2.5-1.4-3.5c-0.4,0.1-0.6,0.3-0.6,0.9c0,0.5-0.1,1-0.2,1.5c0,0.2-0.1,0.4-0.1,0.6l0,0.1
								c0,0.2,0,0.5-0.3,0.8c-0.1,0.1-0.3,0.2-0.6,0.1c-0.3,0-0.5-0.2-0.6-0.3c-0.2-0.3-0.1-0.6-0.1-0.8c0,0,0-0.1,0-0.1
								c0.3-2.7,0.4-5.7,0.4-9.5c0-1.7-0.2-3.1-0.5-4.5c0-0.2-0.2-0.9-0.3-1c-0.1-0.1-0.8,0.1-1,0.2c-0.8,0.3-1.7,0.5-2.5,0.8
								c-1.3,0.4-2.6,0.8-3.9,1.2c-4.8,1.3-9.7,0.8-15.3-1.6c-1.2-0.5-2.4-1-3.4-1.8c-0.2-0.2-0.3-0.2-0.3-0.2c0,0-0.1,0-0.2,0.4
								c-0.9,2.2-1.2,4.6-1.5,6.6c-0.3,2.9-0.5,5.9-0.4,9.3c0,0,0,0.1,0,0.1c0,0.2,0.1,0.6-0.1,0.9c-0.2,0.2-0.4,0.3-0.7,0.3
								c-0.8,0-0.9-0.8-1-1c0-0.1,0-0.1,0-0.2c-0.1-0.7-0.3-1.5-0.4-2.2c0-0.4-0.1-0.6-0.4-0.6c-1.1,1-1.6,2.4-1.3,4.1
								c0.4,2.8,1.3,4.4,3.1,5.3c0.7,0.3,1,0.8,1.2,1.5c0.3,1.3,0.5,2.6,1,3.8c0.8,1.9,2.3,3.3,3.6,4.6c0.6,0.6,0.9,1.2,0.8,2
								c0,0.4,0,0.8-0.1,1.1l0,0.5C162.1,368.3,161.9,370,161.3,371.7z"/>
						</g>
						<g>
							<path class="st4" d="M162,390.4c0,4,0,8,0,12c0,0.6,0.1,1.1-0.8,1.1c-0.8,0-0.9-0.4-0.9-1c0-7,0-14,0-21
								c0-1.2,0.4-2.4,0.2-3.7c-0.1-0.6,0.3-0.5,0.7-0.5c0.6-0.1,0.7,0.2,0.7,0.7c0,3.4,0,6.8,0.1,10.2C162,389,162,389.7,162,390.4
								z"/>
						</g>
						<g>
							<path class="st4" d="M180.1,403.6c-0.7,0.2-0.8-0.2-0.8-0.8c0-7.8,0-15.6,0-23.4c0-0.5,0-1,0-1.6c0-0.5,0.2-0.7,0.7-0.7
								c0.5,0,0.8,0.3,0.8,0.8c0.1,3.4,0.1,6.7,0.1,10.1c0,4.9,0,9.8,0,14.8C181,403.4,180.8,403.8,180.1,403.6z"/>
						</g>
					</g>
				</g>
				<g>
					<circle class="st1" cx="171.3" cy="349.5" r="21"/>
					<path class="st2" d="M171.3,371c-11.9,0-21.5-9.7-21.5-21.5s9.7-21.5,21.5-21.5s21.5,9.7,21.5,21.5S183.2,371,171.3,371z
						 M171.3,328.9c-11.3,0-20.5,9.2-20.5,20.5c0,11.3,9.2,20.5,20.5,20.5c11.3,0,20.5-9.2,20.5-20.5
						C191.9,338.1,182.7,328.9,171.3,328.9z"/>
				</g>
				<g>
					<path class="st2" d="M192.4,355.2c-1.1,0.1-1.5,0.6-1.6,1.6c0,0.8-0.2,1.6-0.4,2.4c-0.1,0.3,0,0.8-0.5,0.7
						c-0.5-0.1-0.3-0.5-0.2-0.8c0.4-3.7,0.5-7.5,0.5-11.2c0-1.8-0.2-3.6-0.6-5.4c-0.4-1.8-0.6-1.9-2.4-1.3c-2.6,0.8-5.2,1.6-7.8,2.3
						c-6.4,1.7-12.4,0.6-18.2-1.8c-1.4-0.6-2.8-1.2-4.1-2.1c-0.8-0.5-1.3-0.3-1.6,0.5c-1.1,2.5-1.5,5.2-1.8,7.9
						c-0.4,3.6-0.6,7.3-0.5,11c0,0.3,0.3,0.9-0.4,1c-0.6,0-0.5-0.6-0.6-0.9c-0.2-0.8-0.4-1.7-0.4-2.6c-0.1-0.8-0.5-1.2-1.3-1.2
						c-0.5-3.7-1-7.4-0.4-11.2c0.4-2.6,0.8-5.2,3-7c1.1-0.9,1.7-1.9,2-3.1c1.7-6.2,6.4-8.9,12.5-10.2c5.9-1.2,10.7,0.4,15.2,3.8
						c1.6,1.2,3.4,2.4,5.3,3.3c2.1,0.9,4.2,1.1,6.3,0.2c0.8-0.3,0.9-0.1,1.1,0.6c0.5,2.2-0.8,5.2-3.2,6.7c-0.5,0.3-0.7,0.7-0.5,1.2
						c1.5,4.6,1.2,9.4,0.8,14.1C192.3,354.1,192.4,354.6,192.4,355.2z"/>
				</g>
			</g>
		</g>
		<g>
			<path class="st2" d="M192.6,341c0,0,2.7-13.5-9.6-13.8c-12.4-0.2-14.8,6-14.8,6S186.5,344,192.6,341z"/>
		</g>
	</g>
	<g>
		<g>
			<g>
				<path class="st3" d="M170.3,310.2v2c0.3,0,0.6,0,0.9,0c26.5,0.5,47.6,22.5,47.1,49c-0.2,12.6-5.4,24.5-14.4,33.4
					c-9,8.9-21,13.7-33.6,13.7c-0.3,0-0.6,0-1,0c-12.8-0.3-24.8-5.5-33.7-14.8c-8.9-9.3-13.7-21.4-13.4-34.2
					c0.2-12.6,5.4-24.5,14.4-33.4c9-8.9,21-13.7,33.6-13.7L170.3,310.2 M170.3,310.2c-27.2,0-49.5,21.8-50,49.1
					c-0.5,27.6,21.5,50.5,49.1,51c0.3,0,0.7,0,1,0c27.2,0,49.5-21.8,50-49.1c0.5-27.6-21.5-50.5-49.1-51
					C170.9,310.2,170.6,310.2,170.3,310.2L170.3,310.2z"/>
			</g>
		</g>
	</g>
</g>
<g>
	<rect x="6.2" y="373.5" class="st3" width="74" height="74"/>
</g>
<g>
	<path d="M32.7,425.6v-2.5l3.2-3.1c7.7-7.3,11.1-11.2,11.2-15.7c0-3-1.5-5.9-6-5.9c-2.7,0-5,1.4-6.4,2.5l-1.3-2.9c2.1-1.8,5-3,8.5-3
		c6.5,0,9.2,4.4,9.2,8.7c0,5.5-4,10-10.3,16.1l-2.4,2.2v0.1h13.5v3.4H32.7z"/>
</g>
<g>
	<g>
		<g>
			<g>
				<polygon class="st3" points="239,53.1 176.6,82.9 176.6,198.4 238.9,227.8 298.6,198 298.7,83.8 				"/>
				<path class="st2" d="M238.9,229.5l-63.8-30.2l0.1-117.4L239,51.4l61.2,31.5l-0.1,116L238.9,229.5z M178.1,197.4l60.8,28.7
					l58.3-29.1l0.1-112.3l-58.2-30l-60.8,29.1L178.1,197.4z"/>
			</g>
		</g>
	</g>
</g>
<g>
	<g>
		<g>
			<g>
				<polygon class="st2" points="215,29.1 152.6,58.9 152.6,174.4 214.9,203.8 274.6,174 274.7,59.8 				"/>
				<path class="st3" d="M214.9,205.5l-63.8-30.2l0.1-117.4L215,27.4l61.2,31.5l-0.1,116L214.9,205.5z M154.1,173.4l60.8,28.7
					l58.3-29.1l0.1-112.3l-58.2-30l-60.8,29.1L154.1,173.4z"/>
			</g>
		</g>
	</g>
</g>
<g>
	<g>
		<g>
			<g>
				<polygon class="st3" points="192,53.1 129.6,82.9 129.6,198.4 191.9,227.8 251.6,198 251.7,83.8 				"/>
				<path class="st2" d="M191.9,229.5l-63.8-30.2l0.1-117.4L192,51.4l61.2,31.5l-0.1,116L191.9,229.5z M131.1,197.4l60.8,28.7
					l58.3-29.1l0.1-112.3l-58.2-30l-60.8,29.1L131.1,197.4z"/>
			</g>
		</g>
	</g>
</g>
<g>
	<g>
		<g>
			<g>
				<polygon class="st2" points="170,29.1 107.6,58.9 107.6,174.4 169.9,203.8 229.6,174 229.7,59.8 				"/>
				<path class="st3" d="M169.9,205.5l-63.8-30.2l0.1-117.4L170,27.4l61.2,31.5l-0.1,116L169.9,205.5z M109.1,173.4l60.8,28.7
					l58.3-29.1l0.1-112.3l-58.2-30l-60.8,29.1L109.1,173.4z"/>
			</g>
		</g>
	</g>
</g>
<g>
	<g>
		<g>
			<g>
				<polygon class="st2" points="191.5,317.5 129.1,347.3 129,462.8 191.3,492.2 251.1,462.4 251.2,348.2 				"/>
				<path class="st3" d="M191.4,493.9l-63.8-30.2l0.1-117.4l63.9-30.5l61.2,31.5l-0.1,116L191.4,493.9z M130.5,461.8l60.8,28.7
					l58.3-29.1l0.1-112.3l-58.2-30l-60.8,29.1L130.5,461.8z"/>
			</g>
		</g>
	</g>
</g>
<g>
	<g>
		<g>
			<g>
				<polygon class="st2" points="216.5,317.5 154.1,347.3 154,462.8 216.3,492.2 276.1,462.4 276.2,348.2 				"/>
				<path class="st3" d="M216.4,493.9l-63.8-30.2l0.1-117.4l63.9-30.5l61.2,31.5l-0.1,116L216.4,493.9z M155.5,461.8l60.8,28.7
					l58.3-29.1l0.1-112.3l-58.2-30l-60.8,29.1L155.5,461.8z"/>
			</g>
		</g>
	</g>
</g>
<g>
	<g>
		<g>
			<g>
				<g>
					<polygon class="st2" points="239.5,269.6 177.2,299.4 177.1,414.9 239.4,444.4 299.2,414.5 299.2,300.4 					"/>
					<path class="st3" d="M239.4,446l-63.8-30.2l0.1-117.4l63.9-30.5l61.2,31.5l-0.1,116L239.4,446z M178.6,414l60.8,28.7l58.3-29.1
						l0.1-112.3l-58.2-30l-60.8,29.1L178.6,414z"/>
				</g>
				<g>
					<g>
						<polygon class="st3" points="239.6,281.8 242.6,288.1 249.6,289.3 244.4,294.1 245.5,301.1 239.3,297.7 233,300.8 
							234.4,293.9 229.4,288.9 236.4,288 						"/>
					</g>
					<g>
						<polygon class="st3" points="255.2,288.7 257.2,292.9 261.7,293.6 258.4,296.8 259.1,301.3 255,299.1 250.9,301.2 
							251.8,296.7 248.5,293.4 253.1,292.8 						"/>
					</g>
					<g>
						<polygon class="st3" points="224.2,288.1 226.2,292.3 230.7,293 227.4,296.2 228.1,300.7 224,298.5 219.9,300.6 220.8,296 
							217.5,292.8 222.1,292.2 						"/>
					</g>
				</g>
			</g>
			<g>
				<g>
					<g>
						<path class="st3" d="M237.8,408.8c-27.6-0.5-49.6-23.4-49.1-51c0.5-27.6,23.4-49.6,51-49.1c27.6,0.5,49.6,23.4,49.1,51
							C288.3,387.3,265.4,409.3,237.8,408.8z"/>
					</g>
				</g>
			</g>
			<g>
				<g id="_x34_WjNNy.tif_00000130625302418707840550000001228658436598651053_">
					<g>
						<g>
							<path class="st2" d="M248.5,365.3c1.1,0.4,2.1,0.7,3.2,1.1c0.8,0.3,1.5,0.7,2.1,1.3c1.2,1.2,2.5,2,4.2,2.5
								c1.6,0.4,2.7,1.7,3.5,3.1c0.4,0.7,1,1.1,1.8,1.3c1.7,0.4,3.3,1,4.9,1.4c4.7,1.2,7.4,4.4,8.6,8.9c0.3,1.2,0.5,2.5,0.8,3.7
								c0.2,0.6-0.2,1-0.5,1.4c-3.1,3.3-6.7,6.3-10.6,8.7c-5.5,3.5-11.5,5.8-17.9,7c-1.7,0.3-3.4,0.6-5.1,0.5
								c-2.4-0.1-4.9-0.1-7.3,0c-5.9,0.3-11.5-1.2-16.9-3.3c-6.8-2.7-12.7-6.6-17.8-11.8c-0.6-0.6-0.7-1-0.5-1.9
								c0.4-1.9,0.7-3.9,1.4-5.7c1.3-3.7,3.8-6.3,7.7-7.4c1.6-0.5,3.3-1,4.9-1.4c1-0.3,1.8-0.7,2.3-1.7c0.8-1.6,2.2-2.6,4-3.1
								c0.9-0.2,1.8-0.6,2.4-1.3c1.8-2,4.1-2.7,6.5-3.4c0.1,1.8-0.1,3.5-0.8,5.1c-0.4,0.1-0.7,0.3-1.1,0.4c-0.6,0.1-0.8,0.3-0.4,1
								c1,2,2.7,3.3,4.4,4.6c0.4,0.3,0.8,0.3,1.3,0.3c3.9,0,7.7,0,11.6,0c0.5,0,1.1-0.1,1.5-0.4c1.3-1,2.6-2,3.6-3.4
								c1.3-1.8,1.2-1.8-0.8-2.5C248.6,368.7,248.4,367,248.5,365.3z M230.5,388.9c0-0.7,0-1.4,0-2.1c0-3.4-0.1-6.8-0.1-10.2
								c0-0.5-0.2-0.8-0.7-0.7c-0.3,0-0.8-0.1-0.7,0.5c0.2,1.2-0.2,2.4-0.2,3.7c0,7,0,14,0,21c0,0.7,0.1,1,0.9,1
								c0.9,0,0.8-0.5,0.8-1.1C230.5,397,230.5,392.9,230.5,388.9z M248.6,402.1c0.7,0.2,0.9-0.2,0.9-0.9c0-4.9,0-9.8,0-14.8
								c0-3.4-0.1-6.7-0.1-10.1c0-0.5-0.3-0.8-0.8-0.8c-0.5,0-0.7,0.2-0.7,0.7c0,0.5,0,1,0,1.6c0,7.8,0,15.6,0,23.4
								C247.8,402,247.9,402.3,248.6,402.1z"/>
						</g>
						<g>
							<path class="st1" d="M248.5,365.3c-0.1,1.8,0.1,3.5,0.8,5.1c-5.3,5-14.7,5.1-20.1,0c0.7-1.7,0.9-3.4,0.8-5.1
								c0-0.6,0-1.1,0.1-1.7c0.1-0.6-0.2-1.1-0.6-1.6c-1.5-1.4-3-2.8-3.7-4.8c-0.5-1.3-0.8-2.5-1-3.9c-0.1-0.6-0.3-0.8-0.9-1.1
								c-2.3-1.2-3.1-3.3-3.4-5.7c-0.2-1.8,0.2-3.5,1.7-4.7c0.7,0,1,0.3,1.1,1c0.1,0.7,0.2,1.5,0.3,2.2c0.1,0.3,0,0.8,0.5,0.8
								c0.6,0,0.3-0.5,0.3-0.8c0-3.1,0.1-6.3,0.4-9.4c0.3-2.3,0.6-4.6,1.5-6.8c0.3-0.7,0.7-0.9,1.3-0.4c1,0.7,2.2,1.3,3.3,1.8
								c4.8,2.1,9.8,3,15,1.6c2.2-0.6,4.3-1.3,6.4-2c1.5-0.5,1.6-0.4,2,1.1c0.3,1.5,0.5,3.1,0.5,4.6c0,3.2,0,6.4-0.4,9.6
								c0,0.2-0.2,0.6,0.2,0.7c0.4,0.1,0.4-0.3,0.4-0.6c0.1-0.7,0.3-1.4,0.3-2.1c0-0.9,0.4-1.3,1.3-1.4c1.1,1.1,1.8,2.4,1.7,4.1
								c-0.1,1.8-0.6,3.5-1.7,5c-0.5,0.6-1.1,1.2-1.8,1.4c-0.6,0.2-0.7,0.5-0.8,1c-0.3,1.3-0.5,2.6-1,3.8c-0.7,1.7-1.8,3.2-3.3,4.3
								c-0.9,0.8-1.3,1.7-1.1,2.8C248.5,364.6,248.5,364.9,248.5,365.3z"/>
							<path class="st2" d="M239.2,374.6c-3.8,0-7.6-1.3-10.4-3.9l-0.2-0.2l0.1-0.3c0.6-1.6,0.9-3.2,0.8-4.9l0-0.6
								c0-0.4,0-0.8,0.1-1.2c0-0.5-0.1-0.8-0.5-1.1c-1.4-1.3-3-2.8-3.9-5c-0.5-1.3-0.8-2.6-1.1-3.9c-0.1-0.4-0.2-0.6-0.6-0.8
								c-2.7-1.4-3.4-4-3.7-6.1c-0.3-2.2,0.3-3.9,1.8-5.2l0.1-0.1l0.2,0c0,0,0,0,0,0c0.7,0,1.5,0.3,1.6,1.5c0,0.4,0.1,0.8,0.2,1.3
								c0-3.1,0.2-5.9,0.4-8.5c0.2-2.1,0.6-4.6,1.5-6.9c0.1-0.2,0.3-0.8,0.9-1c0.4-0.1,0.8,0,1.2,0.3c1,0.7,2.1,1.2,3.3,1.7
								c5.4,2.3,10.1,2.8,14.6,1.6c1.3-0.4,2.6-0.8,3.9-1.2c0.8-0.3,1.7-0.5,2.5-0.8c0.8-0.3,1.4-0.4,1.8-0.1
								c0.5,0.3,0.6,0.8,0.8,1.6c0.3,1.4,0.5,3,0.5,4.7c0,2.4,0,4.5-0.1,6.4c0.3-0.5,0.9-0.6,1.4-0.7l0.2,0l0.2,0.2
								c1.3,1.3,1.9,2.8,1.9,4.5c-0.1,2-0.7,3.8-1.8,5.3c-0.6,0.8-1.3,1.3-2,1.6c-0.3,0.1-0.4,0.2-0.5,0.7c-0.2,1.3-0.5,2.6-1.1,3.9
								c-0.7,1.7-1.8,3.2-3.4,4.5c-0.8,0.7-1.1,1.4-1,2.4c0,0.2,0,0.5,0,0.7l0,0.3c-0.1,1.9,0.2,3.5,0.8,4.9l0.1,0.3l-0.2,0.2
								C246.8,373.3,243,374.6,239.2,374.6z M229.8,370.2c5.1,4.6,13.8,4.6,18.9,0c-0.5-1.4-0.8-3-0.7-5l0-0.3c0-0.2,0-0.4,0-0.6
								c-0.2-1.3,0.2-2.4,1.3-3.3c1.5-1.2,2.5-2.6,3.1-4.1c0.5-1.2,0.8-2.5,1-3.8c0.1-0.6,0.3-1.1,1.2-1.4c0.6-0.2,1.1-0.6,1.6-1.2
								c1-1.3,1.5-2.9,1.6-4.7c0.1-1.3-0.4-2.5-1.4-3.5c-0.4,0.1-0.6,0.3-0.6,0.9c0,0.5-0.1,1-0.2,1.5c0,0.2-0.1,0.4-0.1,0.7l0,0.1
								c0,0.2,0,0.5-0.3,0.8c-0.1,0.1-0.3,0.2-0.6,0.1c-0.3,0-0.5-0.2-0.6-0.3c-0.2-0.3-0.1-0.6-0.1-0.8c0,0,0-0.1,0-0.1
								c0.3-2.7,0.4-5.7,0.4-9.5c0-1.7-0.2-3.1-0.5-4.5c0-0.2-0.2-0.9-0.3-1c-0.1-0.1-0.8,0.1-1,0.2c-0.8,0.3-1.7,0.5-2.5,0.8
								c-1.3,0.4-2.6,0.8-3.9,1.2c-4.8,1.3-9.7,0.8-15.3-1.6c-1.2-0.5-2.4-1-3.4-1.8c-0.2-0.2-0.3-0.2-0.3-0.2c0,0-0.1,0-0.2,0.4
								c-0.9,2.2-1.2,4.6-1.5,6.6c-0.3,2.9-0.5,5.9-0.4,9.3c0,0,0,0.1,0,0.1c0,0.2,0.1,0.6-0.1,0.9c-0.2,0.2-0.4,0.3-0.7,0.3
								c-0.8,0-0.9-0.8-1-1c0-0.1,0-0.1,0-0.2c-0.2-0.8-0.3-1.5-0.4-2.2c0-0.4-0.1-0.6-0.4-0.6c-1.1,1-1.6,2.4-1.3,4.1
								c0.4,2.8,1.3,4.4,3.1,5.3c0.7,0.3,1,0.8,1.2,1.5c0.3,1.3,0.5,2.6,1,3.8c0.8,1.9,2.3,3.3,3.6,4.6c0.6,0.6,0.9,1.2,0.8,2
								c0,0.4,0,0.8-0.1,1.1l0,0.5C230.6,366.9,230.4,368.6,229.8,370.2z"/>
						</g>
						<g>
							<path class="st4" d="M230.5,388.9c0,4,0,8,0,12c0,0.6,0.1,1.1-0.8,1.1c-0.8,0-0.9-0.4-0.9-1c0-7,0-14,0-21
								c0-1.2,0.4-2.4,0.2-3.7c-0.1-0.6,0.3-0.5,0.7-0.5c0.6-0.1,0.7,0.2,0.7,0.7c0,3.4,0,6.8,0.1,10.2
								C230.5,387.5,230.5,388.2,230.5,388.9z"/>
						</g>
						<g>
							<path class="st4" d="M248.6,402.1c-0.7,0.2-0.8-0.2-0.8-0.8c0-7.8,0-15.6,0-23.4c0-0.5,0-1,0-1.6c0-0.5,0.2-0.7,0.7-0.7
								c0.5,0,0.8,0.3,0.8,0.8c0.1,3.4,0.1,6.7,0.1,10.1c0,4.9,0,9.8,0,14.8C249.5,401.9,249.4,402.3,248.6,402.1z"/>
						</g>
					</g>
				</g>
				<g>
					<circle class="st1" cx="239.9" cy="348" r="21"/>
					<path class="st2" d="M239.9,369.5c-11.9,0-21.5-9.7-21.5-21.5s9.7-21.5,21.5-21.5s21.5,9.7,21.5,21.5S251.7,369.5,239.9,369.5z
						 M239.9,327.5c-11.3,0-20.5,9.2-20.5,20.5c0,11.3,9.2,20.5,20.5,20.5s20.5-9.2,20.5-20.5C260.4,336.7,251.2,327.5,239.9,327.5z
						"/>
				</g>
				<g>
					<path class="st2" d="M260.9,353.7c-1.1,0.1-1.5,0.6-1.6,1.6c0,0.8-0.2,1.6-0.4,2.4c-0.1,0.3,0,0.8-0.5,0.7
						c-0.5-0.1-0.3-0.5-0.2-0.8c0.4-3.7,0.5-7.5,0.5-11.2c0-1.8-0.2-3.6-0.6-5.4c-0.4-1.8-0.6-1.9-2.4-1.3c-2.6,0.8-5.2,1.6-7.8,2.3
						c-6.4,1.7-12.4,0.6-18.2-1.8c-1.4-0.6-2.8-1.2-4.1-2.1c-0.8-0.5-1.3-0.3-1.6,0.5c-1.1,2.5-1.5,5.2-1.8,7.9
						c-0.4,3.6-0.6,7.3-0.5,11c0,0.3,0.3,0.9-0.4,1c-0.6,0-0.5-0.6-0.6-0.9c-0.2-0.8-0.4-1.7-0.4-2.6c-0.1-0.8-0.5-1.2-1.3-1.2
						c-0.5-3.7-1-7.4-0.4-11.2c0.4-2.6,0.8-5.2,3-7c1.1-0.9,1.7-1.9,2-3.1c1.7-6.2,6.4-8.9,12.5-10.2c5.9-1.2,10.7,0.4,15.2,3.8
						c1.6,1.2,3.4,2.4,5.3,3.3c2.1,0.9,4.2,1.1,6.3,0.2c0.8-0.3,0.9-0.1,1.1,0.6c0.5,2.2-0.8,5.2-3.2,6.7c-0.5,0.3-0.7,0.7-0.5,1.2
						c1.5,4.6,1.2,9.4,0.8,14.1C260.9,352.6,260.9,353.2,260.9,353.7z"/>
				</g>
			</g>
		</g>
		<g>
			<path class="st2" d="M261.2,339.5c0,0,2.7-13.5-9.6-13.8c-12.4-0.2-14.8,6-14.8,6S255,342.5,261.2,339.5z"/>
		</g>
	</g>
	<g>
		<g>
			<g>
				<path class="st3" d="M238.8,308.7v2c0.3,0,0.6,0,0.9,0c26.5,0.5,47.6,22.5,47.1,49c-0.2,12.6-5.4,24.5-14.4,33.4
					c-9,8.9-21,13.7-33.6,13.7c-0.3,0-0.6,0-1,0c-26.5-0.5-47.6-22.5-47.1-49c0.2-12.6,5.4-24.5,14.4-33.4c9-8.9,21-13.7,33.6-13.7
					L238.8,308.7 M238.8,308.7c-27.2,0-49.5,21.8-50,49.1c-0.5,27.6,21.5,50.5,49.1,51c0.3,0,0.7,0,1,0c27.2,0,49.5-21.8,50-49.1
					c0.5-27.6-21.5-50.5-49.1-51C239.5,308.7,239.1,308.7,238.8,308.7L238.8,308.7z"/>
			</g>
		</g>
	</g>
</g>
</svg>
