<?xml version="1.0" encoding="utf-8"?>
<!-- Generator: Adobe Illustrator 25.4.1, SVG Export Plug-In . SVG Version: 6.00 Build 0)  -->
<svg version="1.1" id="Calque_1" xmlns="http://www.w3.org/2000/svg" xmlns:xlink="http://www.w3.org/1999/xlink" x="0px" y="0px"
	 viewBox="0 0 410 503" style="enable-background:new 0 0 410 503;" xml:space="preserve">
<style type="text/css">
	.st0{fill:#1D1D1B;}
	.st1{fill:#FFFFFF;}
	.st2{fill:#161616;}
	.st3{fill:#CECECE;}
	.st4{fill:#F0F0F0;}
	.st5{clip-path:url(#SVGID_00000135666903898477528680000003473303433627054767_);}
</style>
<g>
	<rect x="47.1" y="97.8" class="st0" width="317" height="317"/>
	<path class="st1" d="M364.1,415.8h-12c-0.6,0-1-0.4-1-1s0.4-1,1-1h12c0.6,0,1,0.4,1,1S364.6,415.8,364.1,415.8z M340.1,415.8h-12
		c-0.6,0-1-0.4-1-1s0.4-1,1-1h12c0.6,0,1,0.4,1,1S340.6,415.8,340.1,415.8z M316.1,415.8h-12c-0.6,0-1-0.4-1-1s0.4-1,1-1h12
		c0.6,0,1,0.4,1,1S316.6,415.8,316.1,415.8z M292.1,415.8h-12c-0.6,0-1-0.4-1-1s0.4-1,1-1h12c0.6,0,1,0.4,1,1
		S292.6,415.8,292.1,415.8z M268.1,415.8h-12c-0.6,0-1-0.4-1-1s0.4-1,1-1h12c0.6,0,1,0.4,1,1S268.6,415.8,268.1,415.8z M244.1,415.8
		h-12c-0.6,0-1-0.4-1-1s0.4-1,1-1h12c0.6,0,1,0.4,1,1S244.6,415.8,244.1,415.8z M220.1,415.8h-12c-0.6,0-1-0.4-1-1s0.4-1,1-1h12
		c0.6,0,1,0.4,1,1S220.6,415.8,220.1,415.8z M196.1,415.8h-12c-0.6,0-1-0.4-1-1s0.4-1,1-1h12c0.6,0,1,0.4,1,1
		S196.6,415.8,196.1,415.8z M172.1,415.8h-12c-0.6,0-1-0.4-1-1s0.4-1,1-1h12c0.6,0,1,0.4,1,1S172.6,415.8,172.1,415.8z M148.1,415.8
		h-12c-0.6,0-1-0.4-1-1s0.4-1,1-1h12c0.6,0,1,0.4,1,1S148.6,415.8,148.1,415.8z M124.1,415.8h-12c-0.6,0-1-0.4-1-1s0.4-1,1-1h12
		c0.6,0,1,0.4,1,1S124.6,415.8,124.1,415.8z M100.1,415.8h-12c-0.6,0-1-0.4-1-1s0.4-1,1-1h12c0.6,0,1,0.4,1,1
		S100.6,415.8,100.1,415.8z M76.1,415.8h-12c-0.6,0-1-0.4-1-1s0.4-1,1-1h12c0.6,0,1,0.4,1,1S76.6,415.8,76.1,415.8z M52.1,415.8h-5
		c-0.6,0-1-0.4-1-1v-7c0-0.6,0.4-1,1-1s1,0.4,1,1v6h4c0.6,0,1,0.4,1,1S52.6,415.8,52.1,415.8z M364.1,407.8c-0.6,0-1-0.4-1-1v-12
		c0-0.6,0.4-1,1-1s1,0.4,1,1v12C365.1,407.4,364.6,407.8,364.1,407.8z M47.1,396.8c-0.6,0-1-0.4-1-1v-12c0-0.6,0.4-1,1-1s1,0.4,1,1
		v12C48.1,396.4,47.6,396.8,47.1,396.8z M364.1,383.8c-0.6,0-1-0.4-1-1v-12c0-0.6,0.4-1,1-1s1,0.4,1,1v12
		C365.1,383.4,364.6,383.8,364.1,383.8z M47.1,372.8c-0.6,0-1-0.4-1-1v-12c0-0.6,0.4-1,1-1s1,0.4,1,1v12
		C48.1,372.4,47.6,372.8,47.1,372.8z M364.1,359.8c-0.6,0-1-0.4-1-1v-12c0-0.6,0.4-1,1-1s1,0.4,1,1v12
		C365.1,359.4,364.6,359.8,364.1,359.8z M47.1,348.8c-0.6,0-1-0.4-1-1v-12c0-0.6,0.4-1,1-1s1,0.4,1,1v12
		C48.1,348.4,47.6,348.8,47.1,348.8z M364.1,335.8c-0.6,0-1-0.4-1-1v-12c0-0.6,0.4-1,1-1s1,0.4,1,1v12
		C365.1,335.4,364.6,335.8,364.1,335.8z M47.1,324.8c-0.6,0-1-0.4-1-1v-12c0-0.6,0.4-1,1-1s1,0.4,1,1v12
		C48.1,324.4,47.6,324.8,47.1,324.8z M364.1,311.8c-0.6,0-1-0.4-1-1v-12c0-0.6,0.4-1,1-1s1,0.4,1,1v12
		C365.1,311.4,364.6,311.8,364.1,311.8z M47.1,300.8c-0.6,0-1-0.4-1-1v-12c0-0.6,0.4-1,1-1s1,0.4,1,1v12
		C48.1,300.4,47.6,300.8,47.1,300.8z M364.1,287.8c-0.6,0-1-0.4-1-1v-12c0-0.6,0.4-1,1-1s1,0.4,1,1v12
		C365.1,287.4,364.6,287.8,364.1,287.8z M47.1,276.8c-0.6,0-1-0.4-1-1v-12c0-0.6,0.4-1,1-1s1,0.4,1,1v12
		C48.1,276.4,47.6,276.8,47.1,276.8z M364.1,263.8c-0.6,0-1-0.4-1-1v-12c0-0.6,0.4-1,1-1s1,0.4,1,1v12
		C365.1,263.4,364.6,263.8,364.1,263.8z M47.1,252.8c-0.6,0-1-0.4-1-1v-12c0-0.6,0.4-1,1-1s1,0.4,1,1v12
		C48.1,252.4,47.6,252.8,47.1,252.8z M364.1,239.8c-0.6,0-1-0.4-1-1v-12c0-0.6,0.4-1,1-1s1,0.4,1,1v12
		C365.1,239.4,364.6,239.8,364.1,239.8z M47.1,228.8c-0.6,0-1-0.4-1-1v-12c0-0.6,0.4-1,1-1s1,0.4,1,1v12
		C48.1,228.4,47.6,228.8,47.1,228.8z M364.1,215.8c-0.6,0-1-0.4-1-1v-12c0-0.6,0.4-1,1-1s1,0.4,1,1v12
		C365.1,215.4,364.6,215.8,364.1,215.8z M47.1,204.8c-0.6,0-1-0.4-1-1v-12c0-0.6,0.4-1,1-1s1,0.4,1,1v12
		C48.1,204.4,47.6,204.8,47.1,204.8z M364.1,191.8c-0.6,0-1-0.4-1-1v-12c0-0.6,0.4-1,1-1s1,0.4,1,1v12
		C365.1,191.4,364.6,191.8,364.1,191.8z M47.1,180.8c-0.6,0-1-0.4-1-1v-12c0-0.6,0.4-1,1-1s1,0.4,1,1v12
		C48.1,180.4,47.6,180.8,47.1,180.8z M364.1,167.8c-0.6,0-1-0.4-1-1v-12c0-0.6,0.4-1,1-1s1,0.4,1,1v12
		C365.1,167.4,364.6,167.8,364.1,167.8z M47.1,156.8c-0.6,0-1-0.4-1-1v-12c0-0.6,0.4-1,1-1s1,0.4,1,1v12
		C48.1,156.4,47.6,156.8,47.1,156.8z M364.1,143.8c-0.6,0-1-0.4-1-1v-12c0-0.6,0.4-1,1-1s1,0.4,1,1v12
		C365.1,143.4,364.6,143.8,364.1,143.8z M47.1,132.8c-0.6,0-1-0.4-1-1v-12c0-0.6,0.4-1,1-1s1,0.4,1,1v12
		C48.1,132.4,47.6,132.8,47.1,132.8z M364.1,119.8c-0.6,0-1-0.4-1-1v-12c0-0.6,0.4-1,1-1s1,0.4,1,1v12
		C365.1,119.4,364.6,119.8,364.1,119.8z M47.1,108.8c-0.6,0-1-0.4-1-1v-10c0-0.6,0.4-1,1-1h2c0.6,0,1,0.4,1,1s-0.4,1-1,1h-1v9
		C48.1,108.4,47.6,108.8,47.1,108.8z M361.1,98.8h-12c-0.6,0-1-0.4-1-1s0.4-1,1-1h12c0.6,0,1,0.4,1,1S361.6,98.8,361.1,98.8z
		 M337.1,98.8h-12c-0.6,0-1-0.4-1-1s0.4-1,1-1h12c0.6,0,1,0.4,1,1S337.6,98.8,337.1,98.8z M313.1,98.8h-12c-0.6,0-1-0.4-1-1
		s0.4-1,1-1h12c0.6,0,1,0.4,1,1S313.6,98.8,313.1,98.8z M289.1,98.8h-12c-0.6,0-1-0.4-1-1s0.4-1,1-1h12c0.6,0,1,0.4,1,1
		S289.6,98.8,289.1,98.8z M265.1,98.8h-12c-0.6,0-1-0.4-1-1s0.4-1,1-1h12c0.6,0,1,0.4,1,1S265.6,98.8,265.1,98.8z M241.1,98.8h-12
		c-0.6,0-1-0.4-1-1s0.4-1,1-1h12c0.6,0,1,0.4,1,1S241.6,98.8,241.1,98.8z M217.1,98.8h-12c-0.6,0-1-0.4-1-1s0.4-1,1-1h12
		c0.6,0,1,0.4,1,1S217.6,98.8,217.1,98.8z M193.1,98.8h-12c-0.6,0-1-0.4-1-1s0.4-1,1-1h12c0.6,0,1,0.4,1,1S193.6,98.8,193.1,98.8z
		 M169.1,98.8h-12c-0.6,0-1-0.4-1-1s0.4-1,1-1h12c0.6,0,1,0.4,1,1S169.6,98.8,169.1,98.8z M145.1,98.8h-12c-0.6,0-1-0.4-1-1
		s0.4-1,1-1h12c0.6,0,1,0.4,1,1S145.6,98.8,145.1,98.8z M121.1,98.8h-12c-0.6,0-1-0.4-1-1s0.4-1,1-1h12c0.6,0,1,0.4,1,1
		S121.6,98.8,121.1,98.8z M97.1,98.8h-12c-0.6,0-1-0.4-1-1s0.4-1,1-1h12c0.6,0,1,0.4,1,1S97.6,98.8,97.1,98.8z M73.1,98.8h-12
		c-0.6,0-1-0.4-1-1s0.4-1,1-1h12c0.6,0,1,0.4,1,1S73.6,98.8,73.1,98.8z"/>
</g>
<g>
	<g>
		<g>
			<g>
				<g>
					<polygon class="st2" points="145.9,307.4 83.5,337.2 83.4,452.7 145.7,482.1 205.5,452.3 205.5,338.2 					"/>
					<path class="st3" d="M145.8,483.8l-63.8-30.2L82,336.3l63.9-30.5l61.2,31.5l-0.1,116L145.8,483.8z M84.9,451.7l60.8,28.7
						l58.3-29.1l0.1-112.3l-58.2-30L85,338.2L84.9,451.7z"/>
				</g>
				<g>
					<g>
						<polygon class="st3" points="145.9,319.6 148.9,325.9 155.9,327.1 150.8,331.9 151.8,338.9 145.6,335.5 139.3,338.6 
							140.7,331.7 135.7,326.7 142.7,325.8 						"/>
					</g>
					<g>
						<polygon class="st3" points="161.5,326.5 163.5,330.7 168,331.4 164.7,334.6 165.4,339.1 161.3,336.9 157.2,339 158.1,334.4 
							154.8,331.2 159.4,330.6 						"/>
					</g>
					<g>
						<polygon class="st3" points="130.5,325.9 132.5,330.1 137,330.8 133.7,334 134.4,338.5 130.3,336.3 126.2,338.4 127.1,333.8 
							123.9,330.6 128.4,330 						"/>
					</g>
				</g>
			</g>
			<g>
				<g>
					<g>
						<path class="st3" d="M144.2,446.6c-27.6-0.5-49.6-23.4-49.1-51c0.5-27.6,23.4-49.6,51-49.1c27.6,0.5,49.6,23.4,49.1,51
							C194.6,425.1,171.8,447.1,144.2,446.6z"/>
					</g>
				</g>
			</g>
			<g>
				<g id="_x34_WjNNy.tif_00000173123574384317142650000001100116807296775850_">
					<g>
						<g>
							<path class="st2" d="M154.8,403c1.1,0.4,2.1,0.7,3.2,1.1c0.8,0.3,1.5,0.7,2.1,1.3c1.2,1.2,2.5,2,4.2,2.5
								c1.6,0.4,2.7,1.7,3.5,3.1c0.4,0.7,1,1.1,1.8,1.3c1.7,0.4,3.3,1,4.9,1.4c4.7,1.2,7.4,4.4,8.6,8.9c0.3,1.2,0.5,2.5,0.8,3.7
								c0.2,0.6-0.2,1-0.5,1.4c-3.1,3.3-6.7,6.3-10.6,8.7c-5.5,3.5-11.5,5.8-17.9,7c-1.7,0.3-3.4,0.6-5.1,0.5
								c-2.4-0.1-4.9-0.1-7.3,0c-5.9,0.3-11.5-1.2-16.9-3.3c-6.8-2.7-12.7-6.6-17.8-11.8c-0.6-0.6-0.7-1-0.5-1.9
								c0.4-1.9,0.7-3.9,1.4-5.7c1.3-3.7,3.8-6.3,7.7-7.4c1.6-0.5,3.3-1,4.9-1.4c1-0.3,1.8-0.7,2.3-1.7c0.8-1.6,2.2-2.6,4-3.1
								c0.9-0.2,1.8-0.6,2.4-1.3c1.8-2,4.1-2.7,6.5-3.4c0.1,1.8-0.1,3.5-0.8,5.1c-0.4,0.1-0.7,0.3-1.1,0.4c-0.6,0.1-0.8,0.3-0.4,1
								c1,2,2.7,3.3,4.4,4.6c0.4,0.3,0.8,0.3,1.3,0.3c3.9,0,7.7,0,11.6,0c0.5,0,1.1-0.1,1.5-0.4c1.3-1,2.6-2,3.6-3.4
								c1.3-1.8,1.2-1.8-0.8-2.5C154.9,406.5,154.7,404.8,154.8,403z M136.8,426.7c0-0.7,0-1.4,0-2.1c0-3.4-0.1-6.8-0.1-10.2
								c0-0.5-0.2-0.8-0.7-0.7c-0.3,0-0.8-0.1-0.7,0.5c0.2,1.2-0.2,2.4-0.2,3.7c0,7,0,14,0,21c0,0.7,0.1,1,0.9,1
								c0.9,0,0.8-0.5,0.8-1.1C136.8,434.7,136.8,430.7,136.8,426.7z M154.9,439.9c0.7,0.2,0.9-0.2,0.9-0.9c0-4.9,0-9.8,0-14.8
								c0-3.4-0.1-6.7-0.1-10.1c0-0.5-0.3-0.8-0.8-0.8c-0.5,0-0.7,0.2-0.7,0.7c0,0.5,0,1,0,1.6c0,7.8,0,15.6,0,23.4
								C154.1,439.8,154.3,440.1,154.9,439.9z"/>
						</g>
						<g>
							<path class="st1" d="M154.8,403c-0.1,1.8,0.1,3.5,0.8,5.1c-5.3,5-14.7,5.1-20.1,0c0.7-1.7,0.9-3.4,0.8-5.1
								c0-0.6,0-1.1,0.1-1.7c0.1-0.6-0.2-1.1-0.6-1.6c-1.5-1.4-3-2.8-3.7-4.8c-0.5-1.3-0.8-2.5-1-3.9c-0.1-0.6-0.3-0.8-0.9-1.1
								c-2.3-1.2-3.1-3.3-3.4-5.7c-0.2-1.8,0.2-3.5,1.7-4.7c0.7,0,1,0.3,1.1,1c0.1,0.7,0.2,1.5,0.3,2.2c0.1,0.3,0,0.8,0.5,0.8
								c0.6,0,0.3-0.5,0.3-0.8c0-3.1,0.1-6.3,0.4-9.4c0.3-2.3,0.6-4.6,1.5-6.8c0.3-0.7,0.7-0.9,1.3-0.4c1,0.7,2.2,1.3,3.3,1.8
								c4.8,2.1,9.8,3,15,1.6c2.2-0.6,4.3-1.3,6.4-2c1.5-0.5,1.6-0.4,2,1.1c0.3,1.5,0.5,3.1,0.5,4.6c0,3.2,0,6.4-0.4,9.6
								c0,0.2-0.2,0.6,0.2,0.7c0.4,0.1,0.4-0.3,0.4-0.6c0.1-0.7,0.3-1.4,0.3-2.1c0-0.9,0.4-1.3,1.3-1.4c1.1,1.1,1.8,2.4,1.7,4.1
								c-0.1,1.8-0.6,3.5-1.7,5c-0.5,0.6-1.1,1.2-1.8,1.4c-0.6,0.2-0.7,0.5-0.8,1c-0.3,1.3-0.5,2.6-1,3.8c-0.7,1.7-1.8,3.2-3.3,4.3
								c-0.9,0.8-1.3,1.7-1.1,2.8C154.8,402.4,154.8,402.7,154.8,403z"/>
							<path class="st2" d="M145.5,412.4c-3.8,0-7.6-1.3-10.4-3.9l-0.2-0.2l0.1-0.3c0.6-1.6,0.9-3.2,0.8-4.9l0-0.6
								c0-0.4,0-0.8,0.1-1.2c0-0.5-0.1-0.8-0.5-1.1c-1.4-1.3-3-2.8-3.9-5c-0.5-1.3-0.8-2.6-1.1-3.9c-0.1-0.4-0.2-0.6-0.6-0.8
								c-2.7-1.4-3.4-4-3.7-6.1c-0.3-2.2,0.3-3.9,1.8-5.2l0.1-0.1l0.2,0c0.6,0,1.5,0.3,1.6,1.5c0,0.4,0.1,0.9,0.2,1.3
								c0-3.1,0.1-5.9,0.4-8.5c0.2-2.1,0.6-4.6,1.5-6.9c0.1-0.2,0.3-0.8,0.9-1c0.4-0.1,0.8,0,1.2,0.3c1,0.7,2.1,1.2,3.3,1.7
								c5.4,2.3,10.1,2.8,14.6,1.6c1.3-0.4,2.6-0.8,3.9-1.2c0.8-0.3,1.7-0.5,2.5-0.8c0.8-0.3,1.4-0.4,1.8-0.1
								c0.5,0.3,0.6,0.8,0.8,1.6c0.3,1.4,0.5,3,0.5,4.7c0,2.4,0,4.5-0.1,6.4c0.3-0.5,0.9-0.6,1.4-0.7l0.2,0l0.2,0.2
								c1.3,1.3,1.9,2.8,1.9,4.5c-0.1,2-0.7,3.8-1.8,5.3c-0.6,0.8-1.3,1.3-2,1.6c-0.3,0.1-0.4,0.2-0.5,0.7c-0.2,1.3-0.5,2.6-1.1,3.9
								c-0.7,1.7-1.8,3.2-3.4,4.5c-0.8,0.7-1.1,1.4-1,2.4c0,0.2,0,0.5,0,0.7l0,0.3c-0.1,1.9,0.2,3.5,0.8,4.9l0.1,0.3l-0.2,0.2
								C153.2,411.1,149.4,412.4,145.5,412.4z M136.1,408c5.1,4.6,13.8,4.6,18.9,0c-0.5-1.4-0.8-3-0.7-5l0-0.3c0-0.2,0-0.4,0-0.6
								c-0.2-1.3,0.2-2.4,1.3-3.3c1.5-1.2,2.5-2.6,3.1-4.1c0.5-1.2,0.8-2.5,1-3.8c0.1-0.6,0.3-1.1,1.2-1.4c0.6-0.2,1.1-0.6,1.6-1.2
								c1-1.3,1.5-2.9,1.6-4.7c0.1-1.3-0.4-2.5-1.4-3.5c-0.4,0.1-0.6,0.3-0.6,0.9c0,0.5-0.1,1-0.2,1.5c0,0.2-0.1,0.4-0.1,0.6l0,0.1
								c0,0.2,0,0.5-0.3,0.8c-0.1,0.1-0.3,0.2-0.6,0.1c-0.3,0-0.5-0.2-0.6-0.3c-0.2-0.3-0.1-0.6-0.1-0.8c0,0,0-0.1,0-0.1
								c0.3-2.7,0.4-5.7,0.4-9.5c0-1.7-0.2-3.1-0.5-4.5c0-0.2-0.2-0.9-0.3-1c-0.1-0.1-0.8,0.1-1,0.2c-0.8,0.3-1.7,0.5-2.5,0.8
								c-1.3,0.4-2.6,0.8-3.9,1.2c-4.8,1.3-9.7,0.8-15.3-1.6c-1.2-0.5-2.4-1-3.4-1.8c-0.2-0.2-0.3-0.2-0.3-0.2c0,0-0.1,0-0.3,0.4
								c-0.9,2.2-1.2,4.6-1.5,6.6c-0.3,2.9-0.5,5.9-0.4,9.3c0,0,0,0.1,0,0.1c0,0.2,0.1,0.6-0.1,0.9c-0.2,0.2-0.4,0.3-0.7,0.3
								c-0.9,0-1-0.8-1-1c0-0.1,0-0.1,0-0.2c-0.1-0.7-0.3-1.5-0.4-2.2c0-0.4-0.1-0.6-0.4-0.6c-1.1,1-1.6,2.4-1.3,4.1
								c0.4,2.8,1.3,4.4,3.1,5.3c0.7,0.3,1,0.8,1.2,1.5c0.3,1.3,0.5,2.6,1,3.8c0.8,1.9,2.3,3.3,3.6,4.6c0.6,0.6,0.9,1.2,0.8,2
								c0,0.4,0,0.8-0.1,1.1l0,0.5C136.9,404.7,136.7,406.4,136.1,408z"/>
						</g>
						<g>
							<path class="st4" d="M136.8,426.7c0,4,0,8,0,12c0,0.6,0.1,1.1-0.8,1.1c-0.8,0-0.9-0.4-0.9-1c0-7,0-14,0-21
								c0-1.2,0.4-2.4,0.2-3.7c-0.1-0.6,0.3-0.5,0.7-0.5c0.6-0.1,0.7,0.2,0.7,0.7c0,3.4,0,6.8,0.1,10.2
								C136.8,425.3,136.8,426,136.8,426.7z"/>
						</g>
						<g>
							<path class="st4" d="M154.9,439.9c-0.7,0.2-0.8-0.2-0.8-0.8c0-7.8,0-15.6,0-23.4c0-0.5,0-1,0-1.6c0-0.5,0.2-0.7,0.7-0.7
								c0.5,0,0.8,0.3,0.8,0.8c0.1,3.4,0.1,6.7,0.1,10.1c0,4.9,0,9.8,0,14.8C155.8,439.7,155.7,440.1,154.9,439.9z"/>
						</g>
					</g>
				</g>
				<g>
					<circle class="st1" cx="146.2" cy="385.8" r="21"/>
					<path class="st2" d="M146.2,407.3c-11.9,0-21.5-9.7-21.5-21.5s9.7-21.5,21.5-21.5c11.9,0,21.5,9.7,21.5,21.5
						S158.1,407.3,146.2,407.3z M146.2,365.2c-11.3,0-20.5,9.2-20.5,20.5s9.2,20.5,20.5,20.5s20.5-9.2,20.5-20.5
						S157.5,365.2,146.2,365.2z"/>
				</g>
				<g>
					<path class="st2" d="M167.2,391.5c-1.1,0.1-1.5,0.6-1.6,1.6c0,0.8-0.2,1.6-0.4,2.4c-0.1,0.3,0,0.8-0.5,0.7
						c-0.5-0.1-0.3-0.5-0.2-0.8c0.4-3.7,0.5-7.5,0.5-11.2c0-1.8-0.2-3.6-0.6-5.4c-0.4-1.8-0.6-1.9-2.4-1.3c-2.6,0.8-5.2,1.6-7.8,2.3
						c-6.4,1.7-12.4,0.6-18.2-1.8c-1.4-0.6-2.8-1.2-4.1-2.1c-0.8-0.5-1.3-0.3-1.6,0.5c-1.1,2.5-1.5,5.2-1.8,7.9
						c-0.4,3.6-0.6,7.3-0.5,11c0,0.3,0.3,0.9-0.4,1c-0.6,0-0.5-0.6-0.6-0.9c-0.2-0.8-0.4-1.7-0.4-2.6c-0.1-0.8-0.5-1.2-1.3-1.2
						c-0.5-3.7-1-7.4-0.4-11.2c0.4-2.6,0.8-5.2,3-7c1.1-0.9,1.7-1.9,2-3.1c1.7-6.2,6.4-8.9,12.5-10.2c5.9-1.2,10.7,0.4,15.2,3.8
						c1.6,1.2,3.4,2.4,5.3,3.3c2.1,0.9,4.2,1.1,6.3,0.2c0.8-0.3,0.9-0.1,1.1,0.6c0.5,2.2-0.8,5.2-3.2,6.7c-0.5,0.3-0.7,0.7-0.5,1.2
						c1.5,4.6,1.2,9.4,0.8,14.1C167.2,390.4,167.2,390.9,167.2,391.5z"/>
				</g>
			</g>
		</g>
		<g>
			<path class="st2" d="M167.5,377.3c0,0,2.7-13.5-9.6-13.8c-12.4-0.2-14.8,6-14.8,6S161.4,380.3,167.5,377.3z"/>
		</g>
	</g>
	<g>
		<g>
			<g>
				<path class="st3" d="M145.1,346.5v2c0.3,0,0.6,0,0.9,0c26.5,0.5,47.6,22.5,47.1,49c-0.2,12.6-5.4,24.5-14.4,33.4
					c-9,8.9-21,13.7-33.6,13.7c-0.3,0-0.6,0-1,0c-12.8-0.3-24.8-5.5-33.7-14.8c-8.9-9.3-13.7-21.4-13.4-34.2
					c0.2-12.6,5.4-24.5,14.4-33.4c9-8.9,21-13.7,33.6-13.7L145.1,346.5 M145.1,346.5c-27.2,0-49.5,21.8-50,49.1
					c-0.5,27.6,21.5,50.5,49.1,51c0.3,0,0.7,0,1,0c27.2,0,49.5-21.8,50-49.1c0.5-27.6-21.5-50.5-49.1-51
					C145.8,346.5,145.5,346.5,145.1,346.5L145.1,346.5z"/>
			</g>
		</g>
	</g>
</g>
<g>
	<g>
		<g>
			<g>
				<g>
					<polygon class="st2" points="277.8,307.4 215.5,337.2 215.4,452.7 277.7,482.1 337.5,452.3 337.5,338.2 					"/>
					<path class="st3" d="M277.7,483.8l-63.8-30.2l0.1-117.4l63.9-30.5l61.2,31.5l-0.1,116L277.7,483.8z M216.9,451.7l60.8,28.7
						l58.3-29.1l0.1-112.3l-58.2-30L217,338.2L216.9,451.7z"/>
				</g>
				<g>
					<g>
						<polygon class="st3" points="277.9,319.6 280.9,325.9 287.9,327.1 282.7,331.9 283.8,338.9 277.6,335.5 271.3,338.6 
							272.7,331.7 267.7,326.7 274.7,325.8 						"/>
					</g>
					<g>
						<path class="st3" d="M298,340.1l-4.7-2.6l-4.8,2.4l1-5.3l-3.8-3.8l5.3-0.7l2.5-4.8l2.3,4.9l5.3,0.9l-3.9,3.7L298,340.1z
							 M293.3,336.3l3.4,1.9l-0.6-3.8l2.8-2.6l-3.8-0.6l-1.6-3.5l-1.8,3.4l-3.8,0.5l2.7,2.7l-0.7,3.8L293.3,336.3z"/>
					</g>
					<g>
						<path class="st3" d="M267,339.4l-4.7-2.6l-4.8,2.4l1-5.3l-3.8-3.8l5.3-0.7l2.5-4.8l2.3,4.9l5.3,0.9l-3.9,3.7L267,339.4z
							 M262.3,335.7l3.4,1.9l-0.6-3.8l2.8-2.6l-3.8-0.6l-1.6-3.5l-1.8,3.4l-3.8,0.5l2.7,2.7l-0.7,3.8L262.3,335.7z"/>
					</g>
				</g>
			</g>
			<g>
				<g>
					<g>
						<path class="st3" d="M276.1,446.6c-27.6-0.5-49.6-23.4-49.1-51c0.5-27.6,23.4-49.6,51-49.1c27.6,0.5,49.6,23.4,49.1,51
							C326.6,425.1,303.7,447.1,276.1,446.6z"/>
					</g>
				</g>
			</g>
			<g>
				<defs>
					<circle id="SVGID_1_" cx="277.2" cy="397.7" r="46"/>
				</defs>
				<use xlink:href="#SVGID_1_"  style="overflow:visible;fill:#CECECE;"/>
				<clipPath id="SVGID_00000007402590566137352880000008698990047861721505_">
					<use xlink:href="#SVGID_1_"  style="overflow:visible;"/>
				</clipPath>
				<g style="clip-path:url(#SVGID_00000007402590566137352880000008698990047861721505_);">
					<circle class="st1" cx="277.8" cy="392.1" r="26.7"/>
					<path class="st2" d="M277.8,419.3c-15,0-27.2-12.2-27.2-27.2s12.2-27.2,27.2-27.2s27.2,12.2,27.2,27.2S292.8,419.3,277.8,419.3
						z M277.8,365.9c-14.4,0-26.2,11.8-26.2,26.2c0,14.4,11.8,26.2,26.2,26.2c14.4,0,26.2-11.8,26.2-26.2
						C304,377.7,292.3,365.9,277.8,365.9z"/>
				</g>
				<g style="clip-path:url(#SVGID_00000007402590566137352880000008698990047861721505_);">
					<g>
						<path class="st2" d="M251.7,399.6c1.2,0.5,2.3,1,3.6,1.6c0-0.1,0.1,0.1,0.1,0.2c-0.2,3.1,1.3,5.6,3.3,7.9
							c3,3.5,6.8,6.2,10.9,8.2c1.2,0.6,1.6,1.3,1.4,2.5c-0.1,0.6-0.2,1.2-0.3,1.8c3.5,2,9,2,13,0c0-0.2-0.1-0.5-0.1-0.7
							c-0.3-2.2-0.2-2.5,1.8-3.5c3.7-1.8,7-4.2,9.7-7.4c2.3-2.6,4.1-5.4,3.8-8.8c1.5-0.7,2.8-1.4,4.3-2.1c-0.2,1.1-0.2,2.3-0.6,3.4
							c-0.9,2.5-1.9,5-2.9,7.4c-0.8,1.7-1.6,3.4-1.8,5.3c-0.1,1.8,0.3,3.4,1.5,4.7c1,1.2,2.2,2.3,3.2,3.4c2.7,3,2.9,5.5,0.6,8.9
							c-0.3,0.4-0.6,0.9-1,1.3c-1.2,0.9-1.1,2-0.7,3.4c1.3,5.1,2.5,10.3,3.7,15.5c0.1,0.3,0.1,0.7,0.2,1.1c-18.9,0-37.8,0-56.8,0
							c0.4-1.9,0.8-3.7,1.2-5.5c1.1-4.4,2.1-8.8,3.2-13.2c0.1-0.3-0.1-0.8-0.2-1.1c-0.6-1.1-1.4-2-2-3.1c-1.1-2.2-0.9-4.4,0.7-6.3
							c1-1.2,2-2.3,3.1-3.3c2.7-2.6,3.1-5.6,1.7-8.9c-0.5-1.3-1.2-2.6-1.9-3.9C252.9,405.6,252.1,402.7,251.7,399.6z"/>
					</g>
					<g>
						<g>
							<path class="st2" d="M289.6,390.1c-0.8-0.5-1.5-0.9-2.3-1.3c-0.1-0.1-0.3-0.1-0.4-0.1C287.7,389.2,288.6,389.7,289.6,390.1
								L289.6,390.1z"/>
						</g>
						<g>
							<path class="st2" d="M284.2,386.9C284.3,386.9,284.3,386.9,284.2,386.9c-1.3-1.1-2.5-2.1-3.6-3.4
								C281.5,384.6,282.7,385.8,284.2,386.9z"/>
						</g>
						<g>
							<path class="st2" d="M277.6,377.8c0,0,0.3,2.2,2.5,5.1C279,381.4,278.2,379.7,277.6,377.8z"/>
						</g>
						<g>
							<path class="st2" d="M280.3,383.1c0.1,0.1,0.2,0.3,0.4,0.4C280.5,383.4,280.4,383.2,280.3,383.1z"/>
						</g>
						<g>
							<path class="st2" d="M302,379.8c-3.6-10.1-14.2-16.2-24.4-13.2c-0.4,0.1-0.8,0-1.2-0.1c-3.7-1-7.4-0.9-11.1,0.3
								c-10,3.4-15.9,12.7-14.9,23.6c0.1,0.7,0.2,1.4,0.3,2.4c0.5-0.5,0.7-0.9,1.1-1.2c0.8-0.5,1.6-1.1,2.5-1.5
								c1.1-0.4,1.5-0.1,1.7,1c0.1,0.9,0.1,1.9,0.2,2.8c0.1,1.2,0.3,2.3,0.6,3.4c0.2,0.7,0.5,1.4,1.4,1.6c0.4-1.9,1.3-3.5,2.4-4.8
								c0,0,0.1-2.3,10.6-7.5c3-2,5.3-4.5,6.1-8.1c0-0.2,0.1-0.4,0.3-0.8c0.5,2,1.4,3.6,2.5,5.1c0,0.1,0.1,0.1,0.1,0.2
								c0.1,0.2,0.2,0.3,0.4,0.4c0,0,0,0,0,0c1,1.3,2.3,2.3,3.7,3.3c0,0-0.1,0-0.1,0.1c0.8,0.6,1.6,1.2,2.6,1.8
								c0.1,0,0.3,0.1,0.4,0.1c0.8,0.4,1.6,0.8,2.3,1.3c1.2,0.6,2,1.1,2.4,1.6c0.1,0.1,0.3,0.2,0.4,0.3c2.1,1.4,3.7,3.3,3.7,6
								c0,0.1,0.1,0.2,0.3,0.4c0.4-0.6,0.9-1.1,1.2-1.6c0.8-1.5,0.5-3.1,0.3-4.6c-0.2-1.3,0.3-1.9,1.7-1.8c0.8,0.1,1.6,0.5,2.3,0.9
								c0.3,0.2,0.6,0.5,0.9,0.7C303.5,387.6,303.6,384.2,302,379.8z"/>
						</g>
						<g>
							<path class="st2" d="M280.1,382.9c0,0.1,0.1,0.1,0.1,0.2C280.2,383,280.2,382.9,280.1,382.9z"/>
						</g>
						<g>
							<path class="st2" d="M289.6,390.1c0.8,0.5,1.6,1,2.4,1.6C291.5,391.2,290.8,390.7,289.6,390.1z"/>
						</g>
						<g>
							<path class="st2" d="M280.6,383.5C280.6,383.5,280.6,383.5,280.6,383.5C280.6,383.5,280.6,383.5,280.6,383.5z"/>
						</g>
					</g>
				</g>
			</g>
		</g>
	</g>
	<g>
		<g>
			<g>
				<path class="st3" d="M277.1,346.5v2c0.3,0,0.6,0,0.9,0c26.5,0.5,47.6,22.5,47.1,49c-0.2,12.6-5.4,24.5-14.4,33.4
					c-9,8.9-21,13.7-33.6,13.7c-0.3,0-0.6,0-1,0c-26.5-0.5-47.6-22.5-47.1-49c0.2-12.6,5.4-24.5,14.4-33.4c9-8.9,21-13.7,33.6-13.7
					L277.1,346.5 M277.1,346.5c-27.2,0-49.5,21.8-50,49.1c-0.5,27.6,21.5,50.5,49.1,51c0.3,0,0.7,0,1,0c27.2,0,49.5-21.8,50-49.1
					c0.5-27.6-21.5-50.5-49.1-51C277.8,346.5,277.4,346.5,277.1,346.5L277.1,346.5z"/>
			</g>
		</g>
	</g>
</g>
<g>
	<rect x="9.1" y="377.8" class="st3" width="74" height="74"/>
</g>
<g>
	<path d="M36.6,425.2c1.2,0.7,3.8,1.9,6.6,1.9c5.2,0,6.8-3.3,6.8-5.8c0-4.2-3.8-6-7.8-6H40v-3h2.3c3,0,6.7-1.5,6.7-5.1
		c0-2.4-1.5-4.5-5.3-4.5c-2.4,0-4.7,1.1-6,2l-1.1-3c1.6-1.2,4.6-2.3,7.8-2.3c5.9,0,8.6,3.5,8.6,7.2c0,3.1-1.8,5.7-5.5,7.1v0.1
		c3.7,0.7,6.7,3.5,6.7,7.7c0,4.8-3.7,9-10.9,9c-3.4,0-6.3-1.1-7.8-2L36.6,425.2z"/>
</g>
<g>
	<g>
		<g>
			<g>
				<polygon class="st2" points="277.8,37.4 215.5,67.2 215.4,182.7 277.7,212.1 337.5,182.3 337.5,68.2 				"/>
				<path class="st3" d="M277.7,213.8l-63.8-30.2L214,66.3l63.9-30.5L339,67.3l-0.1,116L277.7,213.8z M216.9,181.7l60.8,28.7
					l58.3-29.1L336,69.1l-58.2-30L217,68.2L216.9,181.7z"/>
			</g>
		</g>
	</g>
</g>
<g>
	<g>
		<g>
			<g>
				<polygon class="st2" points="144.8,37.4 82.5,67.2 82.4,182.7 144.7,212.1 204.5,182.3 204.5,68.2 				"/>
				<path class="st3" d="M144.7,213.8l-63.8-30.2L81,66.3l63.9-30.5L206,67.3l-0.1,116L144.7,213.8z M83.9,181.7l60.8,28.7
					l58.3-29.1L203,69.1l-58.2-30L84,68.2L83.9,181.7z"/>
			</g>
		</g>
	</g>
</g>
<g>
	<path class="st3" d="M189.5,238.6l3.2,23l2.1,17.8h0.3l2.1-17.8l3.2-23h5.3l-3.2,23l-3.2,23h-8.8l-3.2-23l-3.2-23H189.5z"/>
	<path class="st3" d="M209.8,244.9c0-2,0.6-3.5,1.7-4.6c1.1-1.1,2.7-1.7,4.6-1.7h7.2c2,0,3.5,0.6,4.6,1.7c1.1,1.1,1.7,2.7,1.7,4.6
		v8.9H224v-8.6c0-0.8-0.4-1.2-1.3-1.2h-6c-0.9,0-1.3,0.4-1.3,1.2v7.6c0,1.9,0.7,3.5,2.2,4.7c0.6,0.5,1.3,0.9,2.3,1.5
		c0.3,0.2,0.7,0.4,1.3,0.7l1.3,0.7c2.2,1.2,3.9,2.3,4.9,3.6c1.5,1.8,2.2,4.1,2.2,6.9v7.8c0,2-0.6,3.5-1.7,4.6
		c-1.1,1.1-2.7,1.7-4.6,1.7h-7.2c-2,0-3.5-0.6-4.6-1.7c-1.1-1.1-1.7-2.6-1.7-4.6v-8.9h5.6v8.6c0,0.9,0.4,1.3,1.3,1.3h6
		c0.9,0,1.3-0.4,1.3-1.3v-7.6c0-1.7-0.7-3.2-2.2-4.3c-0.6-0.4-1.3-0.9-2.3-1.5c-0.3-0.2-0.7-0.4-1.3-0.7l-1.3-0.7
		c-2.2-1.2-3.8-2.4-4.9-3.7c-1.5-1.8-2.2-4.2-2.2-7V244.9z"/>
</g>
</svg>
