<?xml version="1.0" encoding="utf-8"?>
<!-- Generator: Adobe Illustrator 25.4.1, SVG Export Plug-In . SVG Version: 6.00 Build 0)  -->
<svg version="1.1" id="Calque_1" xmlns="http://www.w3.org/2000/svg" xmlns:xlink="http://www.w3.org/1999/xlink" x="0px" y="0px"
	 viewBox="0 0 410 503" style="enable-background:new 0 0 410 503;" xml:space="preserve">
<style type="text/css">
	.st0{fill:#1D1D1B;}
	.st1{fill:#FFFFFF;}
	.st2{fill:#161616;}
	.st3{fill:#CECECE;}
	.st4{fill:#F0F0F0;}
	.st5{clip-path:url(#SVGID_00000093886802243094577950000007928679885615915905_);}
</style>
<g>
	<rect x="50.1" y="99.8" class="st0" width="317" height="317"/>
	<path class="st1" d="M367.1,417.8h-12c-0.6,0-1-0.4-1-1s0.4-1,1-1h12c0.6,0,1,0.4,1,1S367.6,417.8,367.1,417.8z M343.1,417.8h-12
		c-0.6,0-1-0.4-1-1s0.4-1,1-1h12c0.6,0,1,0.4,1,1S343.6,417.8,343.1,417.8z M319.1,417.8h-12c-0.6,0-1-0.4-1-1s0.4-1,1-1h12
		c0.6,0,1,0.4,1,1S319.6,417.8,319.1,417.8z M295.1,417.8h-12c-0.6,0-1-0.4-1-1s0.4-1,1-1h12c0.6,0,1,0.4,1,1
		S295.6,417.8,295.1,417.8z M271.1,417.8h-12c-0.6,0-1-0.4-1-1s0.4-1,1-1h12c0.6,0,1,0.4,1,1S271.6,417.8,271.1,417.8z M247.1,417.8
		h-12c-0.6,0-1-0.4-1-1s0.4-1,1-1h12c0.6,0,1,0.4,1,1S247.6,417.8,247.1,417.8z M223.1,417.8h-12c-0.6,0-1-0.4-1-1s0.4-1,1-1h12
		c0.6,0,1,0.4,1,1S223.6,417.8,223.1,417.8z M199.1,417.8h-12c-0.6,0-1-0.4-1-1s0.4-1,1-1h12c0.6,0,1,0.4,1,1
		S199.6,417.8,199.1,417.8z M175.1,417.8h-12c-0.6,0-1-0.4-1-1s0.4-1,1-1h12c0.6,0,1,0.4,1,1S175.6,417.8,175.1,417.8z M151.1,417.8
		h-12c-0.6,0-1-0.4-1-1s0.4-1,1-1h12c0.6,0,1,0.4,1,1S151.6,417.8,151.1,417.8z M127.1,417.8h-12c-0.6,0-1-0.4-1-1s0.4-1,1-1h12
		c0.6,0,1,0.4,1,1S127.6,417.8,127.1,417.8z M103.1,417.8h-12c-0.6,0-1-0.4-1-1s0.4-1,1-1h12c0.6,0,1,0.4,1,1
		S103.6,417.8,103.1,417.8z M79.1,417.8h-12c-0.6,0-1-0.4-1-1s0.4-1,1-1h12c0.6,0,1,0.4,1,1S79.6,417.8,79.1,417.8z M55.1,417.8h-5
		c-0.6,0-1-0.4-1-1v-7c0-0.6,0.4-1,1-1s1,0.4,1,1v6h4c0.6,0,1,0.4,1,1S55.6,417.8,55.1,417.8z M367.1,409.8c-0.6,0-1-0.4-1-1v-12
		c0-0.6,0.4-1,1-1s1,0.4,1,1v12C368.1,409.4,367.6,409.8,367.1,409.8z M50.1,398.8c-0.6,0-1-0.4-1-1v-12c0-0.6,0.4-1,1-1s1,0.4,1,1
		v12C51.1,398.4,50.6,398.8,50.1,398.8z M367.1,385.8c-0.6,0-1-0.4-1-1v-12c0-0.6,0.4-1,1-1s1,0.4,1,1v12
		C368.1,385.4,367.6,385.8,367.1,385.8z M50.1,374.8c-0.6,0-1-0.4-1-1v-12c0-0.6,0.4-1,1-1s1,0.4,1,1v12
		C51.1,374.4,50.6,374.8,50.1,374.8z M367.1,361.8c-0.6,0-1-0.4-1-1v-12c0-0.6,0.4-1,1-1s1,0.4,1,1v12
		C368.1,361.4,367.6,361.8,367.1,361.8z M50.1,350.8c-0.6,0-1-0.4-1-1v-12c0-0.6,0.4-1,1-1s1,0.4,1,1v12
		C51.1,350.4,50.6,350.8,50.1,350.8z M367.1,337.8c-0.6,0-1-0.4-1-1v-12c0-0.6,0.4-1,1-1s1,0.4,1,1v12
		C368.1,337.4,367.6,337.8,367.1,337.8z M50.1,326.8c-0.6,0-1-0.4-1-1v-12c0-0.6,0.4-1,1-1s1,0.4,1,1v12
		C51.1,326.4,50.6,326.8,50.1,326.8z M367.1,313.8c-0.6,0-1-0.4-1-1v-12c0-0.6,0.4-1,1-1s1,0.4,1,1v12
		C368.1,313.4,367.6,313.8,367.1,313.8z M50.1,302.8c-0.6,0-1-0.4-1-1v-12c0-0.6,0.4-1,1-1s1,0.4,1,1v12
		C51.1,302.4,50.6,302.8,50.1,302.8z M367.1,289.8c-0.6,0-1-0.4-1-1v-12c0-0.6,0.4-1,1-1s1,0.4,1,1v12
		C368.1,289.4,367.6,289.8,367.1,289.8z M50.1,278.8c-0.6,0-1-0.4-1-1v-12c0-0.6,0.4-1,1-1s1,0.4,1,1v12
		C51.1,278.4,50.6,278.8,50.1,278.8z M367.1,265.8c-0.6,0-1-0.4-1-1v-12c0-0.6,0.4-1,1-1s1,0.4,1,1v12
		C368.1,265.4,367.6,265.8,367.1,265.8z M50.1,254.8c-0.6,0-1-0.4-1-1v-12c0-0.6,0.4-1,1-1s1,0.4,1,1v12
		C51.1,254.4,50.6,254.8,50.1,254.8z M367.1,241.8c-0.6,0-1-0.4-1-1v-12c0-0.6,0.4-1,1-1s1,0.4,1,1v12
		C368.1,241.4,367.6,241.8,367.1,241.8z M50.1,230.8c-0.6,0-1-0.4-1-1v-12c0-0.6,0.4-1,1-1s1,0.4,1,1v12
		C51.1,230.4,50.6,230.8,50.1,230.8z M367.1,217.8c-0.6,0-1-0.4-1-1v-12c0-0.6,0.4-1,1-1s1,0.4,1,1v12
		C368.1,217.4,367.6,217.8,367.1,217.8z M50.1,206.8c-0.6,0-1-0.4-1-1v-12c0-0.6,0.4-1,1-1s1,0.4,1,1v12
		C51.1,206.4,50.6,206.8,50.1,206.8z M367.1,193.8c-0.6,0-1-0.4-1-1v-12c0-0.6,0.4-1,1-1s1,0.4,1,1v12
		C368.1,193.4,367.6,193.8,367.1,193.8z M50.1,182.8c-0.6,0-1-0.4-1-1v-12c0-0.6,0.4-1,1-1s1,0.4,1,1v12
		C51.1,182.4,50.6,182.8,50.1,182.8z M367.1,169.8c-0.6,0-1-0.4-1-1v-12c0-0.6,0.4-1,1-1s1,0.4,1,1v12
		C368.1,169.4,367.6,169.8,367.1,169.8z M50.1,158.8c-0.6,0-1-0.4-1-1v-12c0-0.6,0.4-1,1-1s1,0.4,1,1v12
		C51.1,158.4,50.6,158.8,50.1,158.8z M367.1,145.8c-0.6,0-1-0.4-1-1v-12c0-0.6,0.4-1,1-1s1,0.4,1,1v12
		C368.1,145.4,367.6,145.8,367.1,145.8z M50.1,134.8c-0.6,0-1-0.4-1-1v-12c0-0.6,0.4-1,1-1s1,0.4,1,1v12
		C51.1,134.4,50.6,134.8,50.1,134.8z M367.1,121.8c-0.6,0-1-0.4-1-1v-12c0-0.6,0.4-1,1-1s1,0.4,1,1v12
		C368.1,121.4,367.6,121.8,367.1,121.8z M50.1,110.8c-0.6,0-1-0.4-1-1v-10c0-0.6,0.4-1,1-1h2c0.6,0,1,0.4,1,1s-0.4,1-1,1h-1v9
		C51.1,110.4,50.6,110.8,50.1,110.8z M364.1,100.8h-12c-0.6,0-1-0.4-1-1s0.4-1,1-1h12c0.6,0,1,0.4,1,1S364.6,100.8,364.1,100.8z
		 M340.1,100.8h-12c-0.6,0-1-0.4-1-1s0.4-1,1-1h12c0.6,0,1,0.4,1,1S340.6,100.8,340.1,100.8z M316.1,100.8h-12c-0.6,0-1-0.4-1-1
		s0.4-1,1-1h12c0.6,0,1,0.4,1,1S316.6,100.8,316.1,100.8z M292.1,100.8h-12c-0.6,0-1-0.4-1-1s0.4-1,1-1h12c0.6,0,1,0.4,1,1
		S292.6,100.8,292.1,100.8z M268.1,100.8h-12c-0.6,0-1-0.4-1-1s0.4-1,1-1h12c0.6,0,1,0.4,1,1S268.6,100.8,268.1,100.8z M244.1,100.8
		h-12c-0.6,0-1-0.4-1-1s0.4-1,1-1h12c0.6,0,1,0.4,1,1S244.6,100.8,244.1,100.8z M220.1,100.8h-12c-0.6,0-1-0.4-1-1s0.4-1,1-1h12
		c0.6,0,1,0.4,1,1S220.6,100.8,220.1,100.8z M196.1,100.8h-12c-0.6,0-1-0.4-1-1s0.4-1,1-1h12c0.6,0,1,0.4,1,1
		S196.6,100.8,196.1,100.8z M172.1,100.8h-12c-0.6,0-1-0.4-1-1s0.4-1,1-1h12c0.6,0,1,0.4,1,1S172.6,100.8,172.1,100.8z M148.1,100.8
		h-12c-0.6,0-1-0.4-1-1s0.4-1,1-1h12c0.6,0,1,0.4,1,1S148.6,100.8,148.1,100.8z M124.1,100.8h-12c-0.6,0-1-0.4-1-1s0.4-1,1-1h12
		c0.6,0,1,0.4,1,1S124.6,100.8,124.1,100.8z M100.1,100.8h-12c-0.6,0-1-0.4-1-1s0.4-1,1-1h12c0.6,0,1,0.4,1,1
		S100.6,100.8,100.1,100.8z M76.1,100.8h-12c-0.6,0-1-0.4-1-1s0.4-1,1-1h12c0.6,0,1,0.4,1,1S76.6,100.8,76.1,100.8z"/>
</g>
<g>
	<g>
		<g>
			<g>
				<g>
					<polygon class="st2" points="148.9,309.4 86.5,339.2 86.4,454.7 148.7,484.1 208.5,454.3 208.5,340.2 					"/>
					<path class="st3" d="M148.8,485.8l-63.8-30.2L85,338.3l63.9-30.5l61.2,31.5l-0.1,116L148.8,485.8z M87.9,453.7l60.8,28.7
						l58.3-29.1l0.1-112.3l-58.2-30L88,340.2L87.9,453.7z"/>
				</g>
				<g>
					<g>
						<polygon class="st3" points="148.9,321.6 151.9,327.9 158.9,329.1 153.8,333.9 154.8,340.9 148.6,337.5 142.3,340.6 
							143.7,333.7 138.7,328.7 145.7,327.8 						"/>
					</g>
					<g>
						<polygon class="st3" points="164.5,328.5 166.5,332.7 171,333.4 167.7,336.6 168.4,341.1 164.3,338.9 160.2,341 161.1,336.4 
							157.8,333.2 162.4,332.6 						"/>
					</g>
					<g>
						<polygon class="st3" points="133.5,327.9 135.5,332.1 140,332.8 136.7,336 137.4,340.5 133.3,338.3 129.2,340.4 130.1,335.8 
							126.9,332.6 131.4,332 						"/>
					</g>
				</g>
			</g>
			<g>
				<g>
					<g>
						<path class="st3" d="M147.2,448.6c-27.6-0.5-49.6-23.4-49.1-51c0.5-27.6,23.4-49.6,51-49.1c27.6,0.5,49.6,23.4,49.1,51
							C197.6,427.1,174.8,449.1,147.2,448.6z"/>
					</g>
				</g>
			</g>
			<g>
				<g id="_x34_WjNNy.tif_00000105408817446140417760000005751068454369089668_">
					<g>
						<g>
							<path class="st2" d="M157.8,405c1.1,0.4,2.1,0.7,3.2,1.1c0.8,0.3,1.5,0.7,2.1,1.3c1.2,1.2,2.5,2,4.2,2.5
								c1.6,0.4,2.7,1.7,3.5,3.1c0.4,0.7,1,1.1,1.8,1.3c1.7,0.4,3.3,1,4.9,1.4c4.7,1.2,7.4,4.4,8.6,8.9c0.3,1.2,0.5,2.5,0.8,3.7
								c0.2,0.6-0.2,1-0.5,1.4c-3.1,3.3-6.7,6.3-10.6,8.7c-5.5,3.5-11.5,5.8-17.9,7c-1.7,0.3-3.4,0.6-5.1,0.5
								c-2.4-0.1-4.9-0.1-7.3,0c-5.9,0.3-11.5-1.2-16.9-3.3c-6.8-2.7-12.7-6.6-17.8-11.8c-0.6-0.6-0.7-1-0.5-1.9
								c0.4-1.9,0.7-3.9,1.4-5.7c1.3-3.7,3.8-6.3,7.7-7.4c1.6-0.5,3.3-1,4.9-1.4c1-0.3,1.8-0.7,2.3-1.7c0.8-1.6,2.2-2.6,4-3.1
								c0.9-0.2,1.8-0.6,2.4-1.3c1.8-2,4.1-2.7,6.5-3.4c0.1,1.8-0.1,3.5-0.8,5.1c-0.4,0.1-0.7,0.3-1.1,0.4c-0.6,0.1-0.8,0.3-0.4,1
								c1,2,2.7,3.3,4.4,4.6c0.4,0.3,0.8,0.3,1.3,0.3c3.9,0,7.7,0,11.6,0c0.5,0,1.1-0.1,1.5-0.4c1.3-1,2.6-2,3.6-3.4
								c1.3-1.8,1.2-1.8-0.8-2.5C157.9,408.5,157.7,406.8,157.8,405z M139.8,428.7c0-0.7,0-1.4,0-2.1c0-3.4-0.1-6.8-0.1-10.2
								c0-0.5-0.2-0.8-0.7-0.7c-0.3,0-0.8-0.1-0.7,0.5c0.2,1.2-0.2,2.4-0.2,3.7c0,7,0,14,0,21c0,0.7,0.1,1,0.9,1
								c0.9,0,0.8-0.5,0.8-1.1C139.8,436.7,139.8,432.7,139.8,428.7z M157.9,441.9c0.7,0.2,0.9-0.2,0.9-0.9c0-4.9,0-9.8,0-14.8
								c0-3.4-0.1-6.7-0.1-10.1c0-0.5-0.3-0.8-0.8-0.8c-0.5,0-0.7,0.2-0.7,0.7c0,0.5,0,1,0,1.6c0,7.8,0,15.6,0,23.4
								C157.1,441.8,157.3,442.1,157.9,441.9z"/>
						</g>
						<g>
							<path class="st1" d="M157.8,405c-0.1,1.8,0.1,3.5,0.8,5.1c-5.3,5-14.7,5.1-20.1,0c0.7-1.7,0.9-3.4,0.8-5.1
								c0-0.6,0-1.1,0.1-1.7c0.1-0.6-0.2-1.1-0.6-1.6c-1.5-1.4-3-2.8-3.7-4.8c-0.5-1.3-0.8-2.5-1-3.9c-0.1-0.6-0.3-0.8-0.9-1.1
								c-2.3-1.2-3.1-3.3-3.4-5.7c-0.2-1.8,0.2-3.5,1.7-4.7c0.7,0,1,0.3,1.1,1c0.1,0.7,0.2,1.5,0.3,2.2c0.1,0.3,0,0.8,0.5,0.8
								c0.6,0,0.3-0.5,0.3-0.8c0-3.1,0.1-6.3,0.4-9.4c0.3-2.3,0.6-4.6,1.5-6.8c0.3-0.7,0.7-0.9,1.3-0.4c1,0.7,2.2,1.3,3.3,1.8
								c4.8,2.1,9.8,3,15,1.6c2.2-0.6,4.3-1.3,6.4-2c1.5-0.5,1.6-0.4,2,1.1c0.3,1.5,0.5,3.1,0.5,4.6c0,3.2,0,6.4-0.4,9.6
								c0,0.2-0.2,0.6,0.2,0.7c0.4,0.1,0.4-0.3,0.4-0.6c0.1-0.7,0.3-1.4,0.3-2.1c0-0.9,0.4-1.3,1.3-1.4c1.1,1.1,1.8,2.4,1.7,4.1
								c-0.1,1.8-0.6,3.5-1.7,5c-0.5,0.6-1.1,1.2-1.8,1.4c-0.6,0.2-0.7,0.5-0.8,1c-0.3,1.3-0.5,2.6-1,3.8c-0.7,1.7-1.8,3.2-3.3,4.3
								c-0.9,0.8-1.3,1.7-1.1,2.8C157.8,404.4,157.8,404.7,157.8,405z"/>
							<path class="st2" d="M148.5,414.4c-3.8,0-7.6-1.3-10.4-3.9l-0.2-0.2l0.1-0.3c0.6-1.6,0.9-3.2,0.8-4.9l0-0.6
								c0-0.4,0-0.8,0.1-1.2c0-0.5-0.1-0.8-0.5-1.1c-1.4-1.3-3-2.8-3.9-5c-0.5-1.3-0.8-2.6-1.1-3.9c-0.1-0.4-0.2-0.6-0.6-0.8
								c-2.7-1.4-3.4-4-3.7-6.1c-0.3-2.2,0.3-3.9,1.8-5.2l0.1-0.1l0.2,0c0,0,0,0,0,0c0.7,0,1.5,0.3,1.6,1.5c0,0.4,0.1,0.9,0.2,1.3
								c0-3.1,0.1-5.9,0.4-8.5c0.2-2.1,0.6-4.6,1.5-6.9c0.1-0.2,0.3-0.8,0.9-1c0.4-0.1,0.8,0,1.2,0.3c1,0.7,2.1,1.2,3.3,1.7
								c5.4,2.3,10.1,2.8,14.6,1.6c1.3-0.4,2.6-0.8,3.9-1.2c0.8-0.3,1.7-0.5,2.5-0.8c0.8-0.3,1.4-0.4,1.8-0.1
								c0.5,0.3,0.6,0.8,0.8,1.6c0.3,1.4,0.5,3,0.5,4.7c0,2.4,0,4.5-0.1,6.4c0.3-0.5,0.9-0.6,1.4-0.7l0.2,0l0.2,0.2
								c1.3,1.3,1.9,2.8,1.9,4.5c-0.1,2-0.7,3.8-1.8,5.3c-0.6,0.8-1.3,1.3-2,1.6c-0.3,0.1-0.4,0.2-0.5,0.7c-0.2,1.3-0.5,2.6-1.1,3.9
								c-0.7,1.7-1.8,3.2-3.4,4.5c-0.8,0.7-1.1,1.4-1,2.4c0,0.2,0,0.5,0,0.7l0,0.3c-0.1,1.9,0.2,3.5,0.8,4.9l0.1,0.3l-0.2,0.2
								C156.2,413.1,152.4,414.4,148.5,414.4z M139.1,410c5.1,4.6,13.8,4.6,18.9,0c-0.5-1.4-0.8-3-0.7-5l0-0.3c0-0.2,0-0.4,0-0.6
								c-0.2-1.3,0.2-2.4,1.3-3.3c1.5-1.2,2.5-2.6,3.1-4.1c0.5-1.2,0.8-2.5,1-3.8c0.1-0.6,0.3-1.1,1.2-1.4c0.6-0.2,1.1-0.6,1.6-1.2
								c1-1.3,1.5-2.9,1.6-4.7c0.1-1.3-0.4-2.5-1.4-3.5c-0.4,0.1-0.6,0.3-0.6,0.9c0,0.5-0.1,1-0.2,1.5c0,0.2-0.1,0.4-0.1,0.6l0,0.1
								c0,0.2,0,0.5-0.3,0.8c-0.1,0.1-0.3,0.2-0.6,0.1c-0.3,0-0.5-0.2-0.6-0.3c-0.2-0.3-0.1-0.6-0.1-0.8c0,0,0-0.1,0-0.1
								c0.3-2.7,0.4-5.7,0.4-9.5c0-1.7-0.2-3.1-0.5-4.5c0-0.2-0.2-0.9-0.3-1c-0.1-0.1-0.8,0.1-1,0.2c-0.8,0.3-1.7,0.5-2.5,0.8
								c-1.3,0.4-2.6,0.8-3.9,1.2c-4.8,1.3-9.7,0.8-15.3-1.6c-1.2-0.5-2.4-1-3.4-1.8c-0.2-0.2-0.3-0.2-0.3-0.2c0,0-0.1,0-0.3,0.4
								c-0.9,2.2-1.2,4.6-1.5,6.6c-0.3,2.9-0.5,5.9-0.4,9.3c0,0,0,0.1,0,0.1c0,0.2,0.1,0.6-0.1,0.9c-0.2,0.2-0.4,0.3-0.7,0.3
								c-0.9,0-1-0.8-1-1c0-0.1,0-0.1,0-0.2c-0.1-0.7-0.3-1.5-0.4-2.2c0-0.4-0.1-0.6-0.4-0.6c-1.1,1-1.6,2.4-1.3,4.1
								c0.4,2.8,1.3,4.4,3.1,5.3c0.7,0.3,1,0.8,1.2,1.5c0.3,1.3,0.5,2.6,1,3.8c0.8,1.9,2.3,3.3,3.6,4.6c0.6,0.6,0.9,1.2,0.8,2
								c0,0.4,0,0.8-0.1,1.1l0,0.5C139.9,406.7,139.7,408.4,139.1,410z"/>
						</g>
						<g>
							<path class="st4" d="M139.8,428.7c0,4,0,8,0,12c0,0.6,0.1,1.1-0.8,1.1c-0.8,0-0.9-0.4-0.9-1c0-7,0-14,0-21
								c0-1.2,0.4-2.4,0.2-3.7c-0.1-0.6,0.3-0.5,0.7-0.5c0.6-0.1,0.7,0.2,0.7,0.7c0,3.4,0,6.8,0.1,10.2
								C139.8,427.3,139.8,428,139.8,428.7z"/>
						</g>
						<g>
							<path class="st4" d="M157.9,441.9c-0.7,0.2-0.8-0.2-0.8-0.8c0-7.8,0-15.6,0-23.4c0-0.5,0-1,0-1.6c0-0.5,0.2-0.7,0.7-0.7
								c0.5,0,0.8,0.3,0.8,0.8c0.1,3.4,0.1,6.7,0.1,10.1c0,4.9,0,9.8,0,14.8C158.8,441.7,158.7,442.1,157.9,441.9z"/>
						</g>
					</g>
				</g>
				<g>
					<circle class="st1" cx="149.2" cy="387.8" r="21"/>
					<path class="st2" d="M149.2,409.3c-11.9,0-21.5-9.7-21.5-21.5s9.7-21.5,21.5-21.5c11.9,0,21.5,9.7,21.5,21.5
						S161.1,409.3,149.2,409.3z M149.2,367.2c-11.3,0-20.5,9.2-20.5,20.5s9.2,20.5,20.5,20.5s20.5-9.2,20.5-20.5
						S160.5,367.2,149.2,367.2z"/>
				</g>
				<g>
					<path class="st2" d="M170.2,393.5c-1.1,0.1-1.5,0.6-1.6,1.6c0,0.8-0.2,1.6-0.4,2.4c-0.1,0.3,0,0.8-0.5,0.7
						c-0.5-0.1-0.3-0.5-0.2-0.8c0.4-3.7,0.5-7.5,0.5-11.2c0-1.8-0.2-3.6-0.6-5.4c-0.4-1.8-0.6-1.9-2.4-1.3c-2.6,0.8-5.2,1.6-7.8,2.3
						c-6.4,1.7-12.4,0.6-18.2-1.8c-1.4-0.6-2.8-1.2-4.1-2.1c-0.8-0.5-1.3-0.3-1.6,0.5c-1.1,2.5-1.5,5.2-1.8,7.9
						c-0.4,3.6-0.6,7.3-0.5,11c0,0.3,0.3,0.9-0.4,1c-0.6,0-0.5-0.6-0.6-0.9c-0.2-0.8-0.4-1.7-0.4-2.6c-0.1-0.8-0.5-1.2-1.3-1.2
						c-0.5-3.7-1-7.4-0.4-11.2c0.4-2.6,0.8-5.2,3-7c1.1-0.9,1.7-1.9,2-3.1c1.7-6.2,6.4-8.9,12.5-10.2c5.9-1.2,10.7,0.4,15.2,3.8
						c1.6,1.2,3.4,2.4,5.3,3.3c2.1,0.9,4.2,1.1,6.3,0.2c0.8-0.3,0.9-0.1,1.1,0.6c0.5,2.2-0.8,5.2-3.2,6.7c-0.5,0.3-0.7,0.7-0.5,1.2
						c1.5,4.6,1.2,9.4,0.8,14.1C170.2,392.4,170.2,392.9,170.2,393.5z"/>
				</g>
			</g>
		</g>
		<g>
			<path class="st2" d="M170.5,379.3c0,0,2.7-13.5-9.6-13.8c-12.4-0.2-14.8,6-14.8,6S164.4,382.3,170.5,379.3z"/>
		</g>
	</g>
	<g>
		<g>
			<g>
				<path class="st3" d="M148.1,348.5v2c0.3,0,0.6,0,0.9,0c26.5,0.5,47.6,22.5,47.1,49c-0.2,12.6-5.4,24.5-14.4,33.4
					c-9,8.9-21,13.7-33.6,13.7c-0.3,0-0.6,0-1,0c-12.8-0.3-24.8-5.5-33.7-14.8c-8.9-9.3-13.7-21.4-13.4-34.2
					c0.2-12.6,5.4-24.5,14.4-33.4c9-8.9,21-13.7,33.6-13.7L148.1,348.5 M148.1,348.5c-27.2,0-49.5,21.8-50,49.1
					c-0.5,27.6,21.5,50.5,49.1,51c0.3,0,0.7,0,1,0c27.2,0,49.5-21.8,50-49.1c0.5-27.6-21.5-50.5-49.1-51
					C148.8,348.5,148.5,348.5,148.1,348.5L148.1,348.5z"/>
			</g>
		</g>
	</g>
</g>
<g>
	<g>
		<g>
			<g>
				<g>
					<polygon class="st2" points="280.8,309.4 218.5,339.2 218.4,454.7 280.7,484.1 340.5,454.3 340.5,340.2 					"/>
					<path class="st3" d="M280.7,485.8l-63.8-30.2l0.1-117.4l63.9-30.5l61.2,31.5l-0.1,116L280.7,485.8z M219.9,453.7l60.8,28.7
						l58.3-29.1l0.1-112.3l-58.2-30L220,340.2L219.9,453.7z"/>
				</g>
				<g>
					<g>
						<polygon class="st3" points="280.9,321.6 283.9,327.9 290.9,329.1 285.7,333.9 286.8,340.9 280.6,337.5 274.3,340.6 
							275.7,333.7 270.7,328.7 277.7,327.8 						"/>
					</g>
					<g>
						<path class="st3" d="M301,342.1l-4.7-2.6l-4.8,2.4l1-5.3l-3.8-3.8l5.3-0.7l2.5-4.8l2.3,4.9l5.3,0.9l-3.9,3.7L301,342.1z
							 M296.3,338.3l3.4,1.9l-0.6-3.8l2.8-2.6l-3.8-0.6l-1.6-3.5l-1.8,3.4l-3.8,0.5l2.7,2.7l-0.7,3.8L296.3,338.3z"/>
					</g>
					<g>
						<path class="st3" d="M270,341.4l-4.7-2.6l-4.8,2.4l1-5.3l-3.8-3.8l5.3-0.7l2.5-4.8l2.3,4.9l5.3,0.9l-3.9,3.7L270,341.4z
							 M265.3,337.7l3.4,1.9l-0.6-3.8l2.8-2.6l-3.8-0.6l-1.6-3.5l-1.8,3.4l-3.8,0.5l2.7,2.7l-0.7,3.8L265.3,337.7z"/>
					</g>
				</g>
			</g>
			<g>
				<g>
					<g>
						<path class="st3" d="M279.1,448.6c-27.6-0.5-49.6-23.4-49.1-51c0.5-27.6,23.4-49.6,51-49.1c27.6,0.5,49.6,23.4,49.1,51
							C329.6,427.1,306.7,449.1,279.1,448.6z"/>
					</g>
				</g>
			</g>
			<g>
				<defs>
					<circle id="SVGID_1_" cx="280.2" cy="399.7" r="46"/>
				</defs>
				<use xlink:href="#SVGID_1_"  style="overflow:visible;fill:#CECECE;"/>
				<clipPath id="SVGID_00000094597966818786223140000008329222508232779180_">
					<use xlink:href="#SVGID_1_"  style="overflow:visible;"/>
				</clipPath>
				<g style="clip-path:url(#SVGID_00000094597966818786223140000008329222508232779180_);">
					<circle class="st1" cx="280.8" cy="394.1" r="26.7"/>
					<path class="st2" d="M280.8,421.3c-15,0-27.2-12.2-27.2-27.2s12.2-27.2,27.2-27.2s27.2,12.2,27.2,27.2S295.8,421.3,280.8,421.3
						z M280.8,367.9c-14.4,0-26.2,11.8-26.2,26.2c0,14.4,11.8,26.2,26.2,26.2c14.4,0,26.2-11.8,26.2-26.2
						C307,379.7,295.3,367.9,280.8,367.9z"/>
				</g>
				<g style="clip-path:url(#SVGID_00000094597966818786223140000008329222508232779180_);">
					<g>
						<path class="st2" d="M254.7,401.6c1.2,0.5,2.3,1,3.6,1.6c0-0.1,0.1,0.1,0.1,0.2c-0.2,3.1,1.3,5.6,3.3,7.9
							c3,3.5,6.8,6.2,10.9,8.2c1.2,0.6,1.6,1.3,1.4,2.5c-0.1,0.6-0.2,1.2-0.3,1.8c3.5,2,9,2,13,0c0-0.2-0.1-0.5-0.1-0.7
							c-0.3-2.2-0.2-2.5,1.8-3.5c3.7-1.8,7-4.2,9.7-7.4c2.3-2.6,4.1-5.4,3.8-8.8c1.5-0.7,2.8-1.4,4.3-2.1c-0.2,1.1-0.2,2.3-0.6,3.4
							c-0.9,2.5-1.9,5-2.9,7.4c-0.8,1.7-1.6,3.4-1.8,5.3c-0.1,1.8,0.3,3.4,1.5,4.7c1,1.2,2.2,2.3,3.2,3.4c2.7,3,2.9,5.5,0.6,8.9
							c-0.3,0.4-0.6,0.9-1,1.3c-1.2,0.9-1.1,2-0.7,3.4c1.3,5.1,2.5,10.3,3.7,15.5c0.1,0.3,0.1,0.7,0.2,1.1c-18.9,0-37.8,0-56.8,0
							c0.4-1.9,0.8-3.7,1.2-5.5c1.1-4.4,2.1-8.8,3.2-13.2c0.1-0.3-0.1-0.8-0.2-1.1c-0.6-1.1-1.4-2-2-3.1c-1.1-2.2-0.9-4.4,0.7-6.3
							c1-1.2,2-2.3,3.1-3.3c2.7-2.6,3.1-5.6,1.7-8.9c-0.5-1.3-1.2-2.6-1.9-3.9C255.9,407.6,255.1,404.7,254.7,401.6z"/>
					</g>
					<g>
						<g>
							<path class="st2" d="M292.6,392.1c-0.8-0.5-1.5-0.9-2.3-1.3c-0.1-0.1-0.3-0.1-0.4-0.1C290.7,391.2,291.6,391.7,292.6,392.1
								L292.6,392.1z"/>
						</g>
						<g>
							<path class="st2" d="M287.2,388.9C287.3,388.9,287.3,388.9,287.2,388.9c-1.3-1.1-2.5-2.1-3.6-3.4
								C284.5,386.6,285.7,387.8,287.2,388.9z"/>
						</g>
						<g>
							<path class="st2" d="M280.6,379.8c0,0,0.3,2.2,2.5,5.1C282,383.4,281.2,381.7,280.6,379.8z"/>
						</g>
						<g>
							<path class="st2" d="M283.3,385.1c0.1,0.1,0.2,0.3,0.4,0.4C283.5,385.4,283.4,385.2,283.3,385.1z"/>
						</g>
						<g>
							<path class="st2" d="M305,381.8c-3.6-10.1-14.2-16.2-24.4-13.2c-0.4,0.1-0.8,0-1.2-0.1c-3.7-1-7.4-0.9-11.1,0.3
								c-10,3.4-15.9,12.7-14.9,23.6c0.1,0.7,0.2,1.4,0.3,2.4c0.5-0.5,0.7-0.9,1.1-1.2c0.8-0.5,1.6-1.1,2.5-1.5
								c1.1-0.4,1.5-0.1,1.7,1c0.1,0.9,0.1,1.9,0.2,2.8c0.1,1.2,0.3,2.3,0.6,3.4c0.2,0.7,0.5,1.4,1.4,1.6c0.4-1.9,1.3-3.5,2.4-4.8
								c0,0,0.1-2.3,10.6-7.5c3-2,5.3-4.5,6.1-8.1c0-0.2,0.1-0.4,0.3-0.8c0.5,2,1.4,3.6,2.5,5.1c0,0.1,0.1,0.1,0.1,0.2
								c0.1,0.2,0.2,0.3,0.4,0.4c0,0,0,0,0,0c1,1.3,2.3,2.3,3.7,3.3c0,0-0.1,0-0.1,0.1c0.8,0.6,1.6,1.2,2.6,1.8
								c0.1,0,0.3,0.1,0.4,0.1c0.8,0.4,1.6,0.8,2.3,1.3c1.2,0.6,2,1.1,2.4,1.6c0.1,0.1,0.3,0.2,0.4,0.3c2.1,1.4,3.7,3.3,3.7,6
								c0,0.1,0.1,0.2,0.3,0.4c0.4-0.6,0.9-1.1,1.2-1.6c0.8-1.5,0.5-3.1,0.3-4.6c-0.2-1.3,0.3-1.9,1.7-1.8c0.8,0.1,1.6,0.5,2.3,0.9
								c0.3,0.2,0.6,0.5,0.9,0.7C306.5,389.6,306.6,386.2,305,381.8z"/>
						</g>
						<g>
							<path class="st2" d="M283.1,384.9c0,0.1,0.1,0.1,0.1,0.2C283.2,385,283.2,384.9,283.1,384.9z"/>
						</g>
						<g>
							<path class="st2" d="M292.6,392.1c0.8,0.5,1.6,1,2.4,1.6C294.5,393.2,293.8,392.7,292.6,392.1z"/>
						</g>
						<g>
							<path class="st2" d="M283.6,385.5C283.6,385.5,283.6,385.5,283.6,385.5C283.6,385.5,283.6,385.5,283.6,385.5z"/>
						</g>
					</g>
				</g>
			</g>
		</g>
	</g>
	<g>
		<g>
			<g>
				<path class="st3" d="M280.1,348.5v2c0.3,0,0.6,0,0.9,0c26.5,0.5,47.6,22.5,47.1,49c-0.2,12.6-5.4,24.5-14.4,33.4
					c-9,8.9-21,13.7-33.6,13.7c-0.3,0-0.6,0-1,0c-26.5-0.5-47.6-22.5-47.1-49c0.2-12.6,5.4-24.5,14.4-33.4c9-8.9,21-13.7,33.6-13.7
					L280.1,348.5 M280.1,348.5c-27.2,0-49.5,21.8-50,49.1c-0.5,27.6,21.5,50.5,49.1,51c0.3,0,0.7,0,1,0c27.2,0,49.5-21.8,50-49.1
					c0.5-27.6-21.5-50.5-49.1-51C280.8,348.5,280.4,348.5,280.1,348.5L280.1,348.5z"/>
			</g>
		</g>
	</g>
</g>
<g>
	<rect x="12.1" y="379.8" class="st3" width="74" height="74"/>
</g>
<g>
	<path d="M51.1,431.9v-8.2H37.2v-2.7l13.4-19.2H55v18.6h4.2v3.2H55v8.2H51.1z M51.1,420.6v-10c0-1.6,0-3.1,0.1-4.7h-0.1
		c-0.9,1.8-1.7,3-2.5,4.4l-7.3,10.2v0.1H51.1z"/>
</g>
<g>
	<g>
		<g>
			<g>
				<polygon class="st2" points="280.8,39.4 218.5,69.2 218.4,184.7 280.7,214.1 340.5,184.3 340.5,70.2 				"/>
				<path class="st3" d="M280.7,215.8l-63.8-30.2L217,68.3l63.9-30.5L342,69.3l-0.1,116L280.7,215.8z M219.9,183.7l60.8,28.7
					l58.3-29.1L339,71.1l-58.2-30L220,70.2L219.9,183.7z"/>
			</g>
		</g>
	</g>
</g>
<g>
	<g>
		<g>
			<g>
				<polygon class="st2" points="147.8,39.4 85.5,69.2 85.4,184.7 147.7,214.1 207.5,184.3 207.5,70.2 				"/>
				<path class="st3" d="M147.7,215.8l-63.8-30.2L84,68.3l63.9-30.5L209,69.3l-0.1,116L147.7,215.8z M86.9,183.7l60.8,28.7
					l58.3-29.1L206,71.1l-58.2-30L87,70.2L86.9,183.7z"/>
			</g>
		</g>
	</g>
</g>
<g>
	<path class="st3" d="M142.5,240.6l3.2,23l2.1,17.8h0.3l2.1-17.8l3.2-23h8.8l3.2,23l2.1,17.8h0.3l2.1-17.8l3.2-23h5.3l-3.2,23
		l-3.2,23h-8.8l-3.2-23l-2.1-17.8h-0.3l-2.2,17.8l-3.2,23h-8.8l-3.2-23l-3.2-23H142.5z"/>
	<path class="st3" d="M183.2,286.7v-46.1h5.6v46.1H183.2z"/>
	<path class="st3" d="M200.4,240.6l6.8,23l2.4,9.8l-0.3-9.8v-23h5.4v46.1h-5.3l-6.8-23l-2.4-9.8l0.3,9.8v23h-5.4v-46.1H200.4z"/>
	<path class="st3" d="M226.3,240.6l6.8,23l2.4,9.8l-0.3-9.8v-23h5.4v46.1h-5.3l-6.8-23l-2.4-9.8l0.3,9.8v23H221v-46.1H226.3z"/>
	<path class="st3" d="M264.2,286.7h-16.9v-46.1h16.9v5.3h-11.3V261h11.3v5.3h-11.3v15.2h11.3V286.7z"/>
	<path class="st3" d="M282.3,240.6c2,0,3.5,0.6,4.6,1.7c1.1,1.1,1.7,2.7,1.7,4.6v7.8c0,2.5-0.4,4.5-1.2,5.9
		c-0.9,1.5-2.2,2.5-4.1,3.1c1.9,0.6,3.3,1.6,4.1,3.1c0.8,1.4,1.2,3.4,1.2,5.9v14.1H283v-14.8c0-2.1-0.4-3.6-1.2-4.4
		c-0.8-0.8-2.2-1.2-4.2-1.2h-3.2v20.4h-5.6v-46.1H282.3z M274.4,261h3.2c2,0,3.4-0.4,4.2-1.2c0.8-0.8,1.2-2.3,1.2-4.4v-8.2
		c0-0.8-0.4-1.2-1.3-1.2h-7.3V261z"/>
</g>
</svg>
