<svg width="973" height="910" viewBox="0 0 973 910" fill="none" xmlns="http://www.w3.org/2000/svg">
<path fill-rule="evenodd" clip-rule="evenodd" d="M704.212 125.396L708.302 144.785L719.734 195.499L668.631 207.015L657.523 209.474C772.202 287.671 816.978 430.859 773.931 557.427L790.302 631.361L853.51 617.367C928.708 441.968 868.879 232.606 704.21 125.393L704.212 125.396ZM643.365 92.8556C467.907 17.6057 258.432 77.5869 151.246 242.389L170.785 238.064L221.499 226.631L233.014 277.735L235.323 289.078C313.525 174.23 457.159 129.21 583.801 172.342L657.357 156.058L643.365 92.8556ZM820.971 678.212L801.817 682.452L750.869 693.736L737.045 631.29C658.874 746.031 515.534 790.969 388.948 747.929L315.015 764.301L329.007 827.51C504.387 902.674 713.774 842.861 820.981 678.203L820.971 678.212ZM182.066 289.007L118.858 303C43.7372 478.393 103.463 687.802 268.158 794.975L264.067 775.586L252.644 724.87L315.081 711.047C200.298 632.886 155.378 489.549 198.447 362.949L182.066 289.007Z" fill="#161616"/>
<circle cx="486.695" cy="459.614" r="117.738" stroke="#ED713C" stroke-width="3.77768" stroke-linecap="round" stroke-linejoin="round" stroke-dasharray="10.07 10.07"/>
<path d="M417.662 316.917L456.743 288.213L505.708 301.392L520.723 386.545L479.266 415.943L431.921 397.785L417.662 316.917Z" fill="#1B1D21" stroke="url(#paint0_linear_3786_98535)" stroke-width="3.77768" stroke-linecap="round" stroke-linejoin="round"/>
<path d="M445.866 308.013L489.338 286.532L535.271 308.013L535.271 394.48L489.338 416.232L445.866 390.129L445.866 308.013Z" fill="#1B1D21" stroke="url(#paint1_linear_3786_98535)" stroke-width="3.77768" stroke-linecap="round" stroke-linejoin="round"/>
<path d="M476.584 302.882L523.126 289.277L564.631 318.407L549.616 403.56L500.604 417.007L462.325 383.751L476.584 302.882Z" fill="#1B1D21" stroke="url(#paint2_linear_3786_98535)" stroke-width="3.77768" stroke-linecap="round" stroke-linejoin="round"/>
<path d="M420.054 514.465L463.669 493.276L509.457 515.065L508.876 601.53L462.798 622.974L419.502 596.579L420.054 514.465Z" fill="#1B1D21" stroke="url(#paint3_linear_3786_98535)" stroke-width="3.77768" stroke-linecap="round" stroke-linejoin="round"/>
<path d="M465.136 511.033L466.87 514.732L470.859 515.368L467.911 518.2L468.547 522.187L464.963 520.222L461.321 522.072L462.073 518.084L459.24 515.194L463.287 514.674L465.136 511.033Z" fill="#CECECE"/>
<path d="M474.154 515.079L475.31 517.448L477.911 517.911L475.946 519.702L476.35 522.361L474.038 521.089L471.668 522.245L472.131 519.644L470.281 517.737L472.94 517.39L474.154 515.079Z" fill="#CECECE"/>
<path d="M456.236 514.732L457.392 517.101L459.993 517.563L458.028 519.355L458.432 522.013L456.12 520.742L453.75 521.898L454.27 519.297L452.363 517.39L455.022 517.043L456.236 514.732Z" fill="#CECECE"/>
<path d="M464.083 587.357C448.129 587.068 435.412 573.833 435.701 557.883C435.99 541.932 449.227 529.218 465.182 529.507C481.136 529.796 493.853 543.03 493.564 558.981C493.275 574.989 480.037 587.703 464.083 587.357Z" fill="#CECECE"/>
<path d="M470.261 562.217C470.897 562.449 471.475 562.622 472.111 562.853C472.574 563.026 472.978 563.258 473.325 563.604C474.019 564.298 474.77 564.76 475.753 565.049C476.678 565.28 477.314 566.032 477.776 566.841C478.007 567.245 478.354 567.476 478.816 567.592C479.799 567.823 480.724 568.17 481.649 568.401C484.366 569.095 485.926 570.944 486.62 573.545C486.794 574.238 486.909 574.989 487.083 575.683C487.198 576.03 486.967 576.261 486.794 576.492C485.002 578.399 482.921 580.133 480.666 581.52C477.487 583.543 474.019 584.872 470.319 585.565C469.336 585.739 468.354 585.912 467.371 585.854C465.984 585.797 464.539 585.797 463.151 585.854C459.741 586.028 456.504 585.161 453.382 583.947C449.452 582.387 446.041 580.133 443.093 577.128C442.746 576.781 442.689 576.55 442.804 576.03C443.035 574.932 443.209 573.776 443.613 572.736C444.365 570.597 445.81 569.095 448.064 568.459C448.989 568.17 449.972 567.881 450.897 567.65C451.475 567.476 451.937 567.245 452.226 566.667C452.689 565.743 453.498 565.165 454.538 564.876C455.059 564.76 455.579 564.529 455.926 564.125C456.966 562.969 458.296 562.564 459.683 562.16C459.741 563.2 459.625 564.182 459.221 565.107C458.989 565.165 458.816 565.28 458.585 565.338C458.238 565.396 458.122 565.512 458.354 565.916C458.932 567.072 459.914 567.823 460.897 568.575C461.128 568.748 461.359 568.748 461.648 568.748C463.903 568.748 466.099 568.748 468.354 568.748C468.643 568.748 468.99 568.69 469.221 568.517C469.972 567.939 470.724 567.361 471.302 566.552C472.053 565.512 471.996 565.512 470.839 565.107C470.319 564.24 470.204 563.258 470.261 562.217ZM459.857 575.914C459.857 575.51 459.857 575.105 459.857 574.701C459.857 572.736 459.799 570.771 459.799 568.806C459.799 568.517 459.683 568.343 459.394 568.401C459.221 568.401 458.932 568.343 458.989 568.69C459.105 569.384 458.874 570.077 458.874 570.828C458.874 574.874 458.874 578.919 458.874 582.965C458.874 583.369 458.932 583.543 459.394 583.543C459.914 583.543 459.857 583.254 459.857 582.907C459.857 580.538 459.857 578.226 459.857 575.914ZM470.319 583.543C470.724 583.658 470.839 583.427 470.839 583.023C470.839 580.191 470.839 577.359 470.839 574.469C470.839 572.504 470.782 570.597 470.782 568.632C470.782 568.343 470.608 568.17 470.319 568.17C470.03 568.17 469.915 568.286 469.915 568.575C469.915 568.863 469.915 569.152 469.915 569.499C469.915 574.007 469.915 578.515 469.915 583.023C469.857 583.427 469.915 583.601 470.319 583.543Z" fill="#161616"/>
<path d="M470.263 562.217C470.205 563.258 470.321 564.24 470.725 565.165C467.662 568.054 462.228 568.112 459.107 565.165C459.511 564.182 459.627 563.2 459.569 562.217C459.569 561.871 459.569 561.582 459.627 561.235C459.685 560.888 459.511 560.599 459.28 560.31C458.413 559.501 457.546 558.692 457.141 557.536C456.852 556.785 456.679 556.091 456.563 555.282C456.505 554.936 456.39 554.82 456.043 554.647C454.713 553.953 454.251 552.739 454.077 551.352C453.962 550.312 454.193 549.33 455.06 548.636C455.465 548.636 455.638 548.81 455.696 549.214C455.754 549.619 455.812 550.081 455.869 550.486C455.927 550.659 455.869 550.948 456.158 550.948C456.505 550.948 456.332 550.659 456.332 550.486C456.332 548.694 456.39 546.845 456.563 545.053C456.737 543.724 456.91 542.395 457.43 541.123C457.604 540.719 457.835 540.603 458.182 540.892C458.76 541.297 459.453 541.643 460.089 541.932C462.864 543.146 465.754 543.666 468.76 542.857C470.032 542.51 471.246 542.106 472.459 541.701C473.326 541.412 473.384 541.47 473.616 542.337C473.789 543.204 473.905 544.128 473.905 544.995C473.905 546.845 473.905 548.694 473.673 550.543C473.673 550.659 473.558 550.89 473.789 550.948C474.02 551.006 474.02 550.775 474.02 550.601C474.078 550.197 474.194 549.792 474.194 549.388C474.194 548.867 474.425 548.636 474.945 548.578C475.581 549.214 475.985 549.965 475.928 550.948C475.87 551.988 475.581 552.971 474.945 553.838C474.656 554.184 474.309 554.531 473.905 554.647C473.558 554.762 473.5 554.936 473.442 555.225C473.269 555.976 473.153 556.727 472.864 557.421C472.459 558.403 471.824 559.27 470.956 559.906C470.436 560.368 470.205 560.888 470.321 561.524C470.205 561.871 470.205 562.044 470.263 562.217Z" fill="white"/>
<path d="M464.888 567.65C462.691 567.65 460.495 566.899 458.876 565.396L458.761 565.28L458.818 565.107C459.165 564.182 459.339 563.258 459.281 562.275L459.281 561.929C459.281 561.697 459.281 561.466 459.339 561.235C459.339 560.946 459.281 560.773 459.05 560.599C458.24 559.848 457.315 558.981 456.795 557.71C456.506 556.958 456.333 556.207 456.159 555.456C456.102 555.225 456.044 555.109 455.812 554.993C454.252 554.184 453.847 552.682 453.674 551.468C453.5 550.197 453.847 549.214 454.714 548.463L454.772 548.405L454.888 548.405C455.292 548.405 455.755 548.579 455.812 549.272C455.812 549.503 455.87 549.792 455.928 550.023C455.928 548.232 456.044 546.671 456.159 545.111C456.275 543.897 456.506 542.453 457.026 541.123C457.084 541.008 457.2 540.661 457.547 540.545C457.778 540.488 458.009 540.545 458.24 540.719C458.818 541.123 459.454 541.412 460.148 541.701C463.269 543.03 465.986 543.319 468.587 542.626C469.339 542.395 470.09 542.164 470.842 541.932C471.304 541.759 471.824 541.643 472.287 541.47C472.749 541.297 473.096 541.239 473.327 541.412C473.616 541.586 473.674 541.875 473.79 542.337C473.963 543.146 474.079 544.071 474.079 545.053C474.079 546.44 474.079 547.654 474.021 548.752C474.194 548.463 474.541 548.405 474.83 548.347L474.946 548.347L475.061 548.463C475.813 549.214 476.16 550.081 476.16 551.064C476.102 552.219 475.755 553.26 475.119 554.127C474.772 554.589 474.368 554.878 473.963 555.051C473.79 555.109 473.732 555.167 473.674 555.456C473.559 556.207 473.385 556.958 473.038 557.71C472.634 558.692 471.998 559.559 471.073 560.31C470.611 560.715 470.437 561.119 470.495 561.697C470.495 561.813 470.495 561.986 470.495 562.102L470.495 562.275C470.437 563.373 470.611 564.298 470.957 565.107L471.015 565.28L470.9 565.396C469.281 566.899 467.084 567.65 464.888 567.65ZM459.454 565.107C462.402 567.766 467.431 567.766 470.379 565.107C470.09 564.298 469.917 563.373 469.975 562.217L469.975 562.044C469.975 561.929 469.975 561.813 469.975 561.697C469.859 560.946 470.09 560.31 470.726 559.79C471.593 559.097 472.171 558.288 472.518 557.421C472.807 556.727 472.981 555.976 473.096 555.225C473.154 554.878 473.27 554.589 473.79 554.416C474.137 554.3 474.426 554.069 474.715 553.722C475.293 552.971 475.582 552.046 475.64 551.006C475.697 550.255 475.408 549.561 474.83 548.983C474.599 549.041 474.483 549.156 474.483 549.503C474.483 549.792 474.426 550.081 474.368 550.37C474.368 550.486 474.31 550.601 474.31 550.717L474.31 550.775C474.31 550.89 474.31 551.064 474.137 551.237C474.079 551.295 473.963 551.353 473.79 551.295C473.616 551.295 473.501 551.179 473.443 551.121C473.327 550.948 473.385 550.775 473.385 550.659L473.385 550.601C473.559 549.041 473.616 547.307 473.616 545.111C473.616 544.129 473.501 543.319 473.327 542.51C473.327 542.395 473.212 541.99 473.154 541.932C473.096 541.875 472.691 541.99 472.576 542.048C472.113 542.221 471.593 542.337 471.131 542.51C470.379 542.742 469.628 542.973 468.876 543.204C466.102 543.955 463.269 543.666 460.032 542.279C459.339 541.99 458.645 541.643 458.067 541.239C457.951 541.123 457.893 541.123 457.893 541.123C457.893 541.123 457.836 541.123 457.778 541.355C457.258 542.626 457.084 544.013 456.911 545.169C456.737 546.845 456.622 548.579 456.68 550.543L456.68 550.601C456.68 550.717 456.737 550.948 456.622 551.121C456.506 551.237 456.391 551.295 456.217 551.295C455.755 551.295 455.697 550.832 455.639 550.717C455.639 550.659 455.639 550.659 455.639 550.601C455.581 550.197 455.466 549.734 455.408 549.33C455.408 549.099 455.35 548.983 455.177 548.983C454.541 549.561 454.252 550.37 454.425 551.353C454.656 552.971 455.177 553.895 456.217 554.416C456.622 554.589 456.795 554.878 456.911 555.282C457.084 556.034 457.2 556.785 457.489 557.479C457.951 558.577 458.818 559.386 459.57 560.137C459.917 560.484 460.09 560.83 460.032 561.293C460.032 561.524 460.032 561.755 459.974 561.929L459.974 562.217C459.917 563.142 459.801 564.125 459.454 565.107Z" fill="#161616"/>
<path d="M459.858 575.914C459.858 578.226 459.858 580.538 459.858 582.849C459.858 583.196 459.915 583.485 459.395 583.485C458.933 583.485 458.875 583.254 458.875 582.907C458.875 578.862 458.875 574.816 458.875 570.771C458.875 570.077 459.106 569.384 458.991 568.632C458.933 568.286 459.164 568.344 459.395 568.344C459.742 568.286 459.8 568.459 459.8 568.748C459.8 570.713 459.8 572.678 459.858 574.643C459.858 575.105 459.858 575.51 459.858 575.914Z" fill="#F0F0F0"/>
<path d="M470.321 583.543C469.917 583.659 469.859 583.428 469.859 583.081C469.859 578.573 469.859 574.065 469.859 569.557C469.859 569.269 469.859 568.98 469.859 568.633C469.859 568.344 469.974 568.228 470.264 568.228C470.553 568.228 470.726 568.402 470.726 568.691C470.784 570.656 470.784 572.563 470.784 574.528C470.784 577.359 470.784 580.191 470.784 583.081C470.842 583.428 470.726 583.659 470.321 583.543Z" fill="#F0F0F0"/>
<path d="M465.236 564.356C471.94 564.356 477.375 558.923 477.375 552.22C477.375 545.517 471.94 540.083 465.236 540.083C458.531 540.083 453.097 545.517 453.097 552.22C453.097 558.923 458.531 564.356 465.236 564.356Z" fill="white"/>
<path d="M465.236 564.703C458.357 564.703 452.808 559.097 452.808 552.278C452.808 545.458 458.415 539.852 465.236 539.852C472.057 539.852 477.664 545.458 477.664 552.278C477.664 559.097 472.114 564.703 465.236 564.703ZM465.236 540.372C458.704 540.372 453.386 545.689 453.386 552.22C453.386 558.75 458.704 564.067 465.236 564.067C471.768 564.067 477.086 558.75 477.086 552.22C477.086 545.689 471.825 540.372 465.236 540.372Z" fill="#161616"/>
<path d="M477.375 555.514C476.739 555.572 476.507 555.861 476.45 556.438C476.45 556.901 476.334 557.363 476.218 557.825C476.161 557.999 476.218 558.288 475.929 558.23C475.64 558.172 475.756 557.941 475.814 557.768C476.045 555.629 476.103 553.433 476.103 551.295C476.103 550.255 475.987 549.214 475.756 548.174C475.525 547.134 475.409 547.076 474.369 547.423C472.866 547.885 471.363 548.348 469.86 548.752C466.16 549.735 462.692 549.099 459.339 547.712C458.53 547.365 457.721 547.018 456.969 546.498C456.507 546.209 456.218 546.325 456.045 546.787C455.409 548.232 455.178 549.792 455.004 551.353C454.773 553.433 454.657 555.572 454.715 557.71C454.715 557.883 454.889 558.23 454.484 558.288C454.137 558.288 454.195 557.941 454.137 557.768C454.021 557.305 453.906 556.785 453.906 556.265C453.848 555.803 453.617 555.572 453.154 555.572C452.865 553.433 452.576 551.295 452.923 549.099C453.154 547.596 453.386 546.094 454.657 545.053C455.293 544.533 455.64 543.955 455.813 543.262C456.796 539.679 459.513 538.118 463.039 537.367C466.449 536.674 469.224 537.598 471.825 539.563C472.75 540.257 473.791 540.95 474.889 541.47C476.103 541.99 477.317 542.106 478.531 541.586C478.993 541.412 479.051 541.528 479.167 541.933C479.456 543.204 478.704 544.938 477.317 545.805C477.028 545.978 476.912 546.209 477.028 546.498C477.895 549.157 477.721 551.931 477.49 554.647C477.375 554.936 477.432 555.225 477.375 555.514Z" fill="#161616"/>
<path d="M445.238 514.465L488.854 493.276L534.641 515.065L534.06 601.53L487.983 622.974L444.687 596.579L445.238 514.465Z" fill="#1B1D21" stroke="url(#paint4_linear_3786_98535)" stroke-width="3.77768" stroke-linecap="round" stroke-linejoin="round"/>
<path d="M490.321 511.033L492.055 514.732L496.044 515.368L493.096 518.2L493.731 522.187L490.147 520.222L486.506 522.072L487.257 518.084L484.425 515.194L488.471 514.674L490.321 511.033Z" fill="#CECECE"/>
<path d="M499.338 515.079L500.494 517.448L503.096 517.911L501.13 519.702L501.535 522.361L499.223 521.089L496.853 522.245L497.315 519.644L495.465 517.737L498.124 517.39L499.338 515.079Z" fill="#CECECE"/>
<path d="M481.42 514.732L482.576 517.101L485.178 517.563L483.212 519.355L483.617 522.013L481.305 520.742L478.935 521.898L479.455 519.297L477.547 517.39L480.206 517.043L481.42 514.732Z" fill="#CECECE"/>
<path d="M489.268 587.357C473.314 587.068 460.597 573.833 460.886 557.883C461.175 541.932 474.412 529.218 490.366 529.507C506.32 529.796 519.037 543.03 518.748 558.981C518.459 574.989 505.222 587.703 489.268 587.357Z" fill="#CECECE"/>
<path d="M495.446 562.217C496.082 562.449 496.66 562.622 497.296 562.853C497.758 563.026 498.163 563.258 498.51 563.604C499.203 564.298 499.955 564.76 500.937 565.049C501.862 565.28 502.498 566.032 502.961 566.841C503.192 567.245 503.539 567.476 504.001 567.592C504.984 567.823 505.909 568.17 506.833 568.401C509.55 569.095 511.111 570.944 511.805 573.545C511.978 574.238 512.094 574.989 512.267 575.683C512.383 576.03 512.152 576.261 511.978 576.492C510.186 578.399 508.105 580.133 505.851 581.52C502.672 583.543 499.203 584.872 495.504 585.565C494.521 585.739 493.538 585.912 492.556 585.854C491.168 585.797 489.723 585.797 488.336 585.854C484.925 586.028 481.688 585.161 478.567 583.947C474.636 582.387 471.226 580.133 468.278 577.128C467.931 576.781 467.873 576.55 467.989 576.03C468.22 574.932 468.393 573.776 468.798 572.736C469.549 570.597 470.995 569.095 473.249 568.459C474.174 568.17 475.156 567.881 476.081 567.65C476.659 567.476 477.122 567.245 477.411 566.667C477.873 565.743 478.683 565.165 479.723 564.876C480.243 564.76 480.764 564.529 481.11 564.125C482.151 562.969 483.48 562.564 484.868 562.16C484.925 563.2 484.81 564.182 484.405 565.107C484.174 565.165 484.001 565.28 483.769 565.338C483.423 565.396 483.307 565.512 483.538 565.916C484.116 567.072 485.099 567.823 486.082 568.575C486.313 568.748 486.544 568.748 486.833 568.748C489.087 568.748 491.284 568.748 493.538 568.748C493.827 568.748 494.174 568.69 494.405 568.517C495.157 567.939 495.908 567.361 496.486 566.552C497.238 565.512 497.18 565.512 496.024 565.107C495.504 564.24 495.388 563.258 495.446 562.217ZM485.041 575.914C485.041 575.51 485.041 575.105 485.041 574.701C485.041 572.736 484.983 570.771 484.983 568.806C484.983 568.517 484.868 568.343 484.579 568.401C484.405 568.401 484.116 568.343 484.174 568.69C484.29 569.384 484.058 570.077 484.058 570.828C484.058 574.874 484.058 578.919 484.058 582.965C484.058 583.369 484.116 583.543 484.579 583.543C485.099 583.543 485.041 583.254 485.041 582.907C485.041 580.538 485.041 578.226 485.041 575.914ZM495.504 583.543C495.908 583.658 496.024 583.427 496.024 583.023C496.024 580.191 496.024 577.359 496.024 574.469C496.024 572.504 495.966 570.597 495.966 568.632C495.966 568.343 495.793 568.17 495.504 568.17C495.215 568.17 495.099 568.286 495.099 568.575C495.099 568.863 495.099 569.152 495.099 569.499C495.099 574.007 495.099 578.515 495.099 583.023C495.041 583.427 495.099 583.601 495.504 583.543Z" fill="#161616"/>
<path d="M495.447 562.217C495.39 563.258 495.505 564.24 495.91 565.165C492.846 568.054 487.413 568.112 484.291 565.165C484.696 564.182 484.811 563.2 484.754 562.217C484.754 561.871 484.754 561.582 484.811 561.235C484.869 560.888 484.696 560.599 484.464 560.31C483.597 559.501 482.73 558.692 482.326 557.536C482.037 556.785 481.863 556.091 481.748 555.282C481.69 554.936 481.574 554.82 481.227 554.647C479.898 553.953 479.435 552.739 479.262 551.352C479.146 550.312 479.378 549.33 480.245 548.636C480.649 548.636 480.823 548.81 480.881 549.214C480.938 549.619 480.996 550.081 481.054 550.486C481.112 550.659 481.054 550.948 481.343 550.948C481.69 550.948 481.516 550.659 481.516 550.486C481.516 548.694 481.574 546.845 481.748 545.053C481.921 543.724 482.094 542.395 482.615 541.123C482.788 540.719 483.019 540.603 483.366 540.892C483.944 541.297 484.638 541.643 485.274 541.932C488.048 543.146 490.939 543.666 493.944 542.857C495.216 542.51 496.43 542.106 497.644 541.701C498.511 541.412 498.569 541.47 498.8 542.337C498.973 543.204 499.089 544.128 499.089 544.995C499.089 546.845 499.089 548.694 498.858 550.543C498.858 550.659 498.742 550.89 498.973 550.948C499.205 551.006 499.205 550.775 499.205 550.601C499.263 550.197 499.378 549.792 499.378 549.388C499.378 548.867 499.609 548.636 500.13 548.578C500.765 549.214 501.17 549.965 501.112 550.948C501.054 551.988 500.765 552.971 500.13 553.838C499.841 554.184 499.494 554.531 499.089 554.647C498.742 554.762 498.684 554.936 498.627 555.225C498.453 555.976 498.338 556.727 498.049 557.421C497.644 558.403 497.008 559.27 496.141 559.906C495.621 560.368 495.39 560.888 495.505 561.524C495.39 561.871 495.39 562.044 495.447 562.217Z" fill="white"/>
<path d="M490.072 567.65C487.876 567.65 485.679 566.899 484.061 565.396L483.945 565.28L484.003 565.107C484.35 564.182 484.523 563.258 484.465 562.275L484.465 561.929C484.465 561.697 484.465 561.466 484.523 561.235C484.523 560.946 484.465 560.773 484.234 560.599C483.425 559.848 482.5 558.981 481.98 557.71C481.691 556.958 481.517 556.207 481.344 555.456C481.286 555.225 481.228 555.109 480.997 554.993C479.436 554.184 479.032 552.682 478.858 551.468C478.685 550.197 479.032 549.214 479.899 548.463L479.957 548.405L480.072 548.405C480.477 548.405 480.939 548.579 480.997 549.272C480.997 549.503 481.055 549.792 481.113 550.023C481.113 548.232 481.228 546.671 481.344 545.111C481.46 543.897 481.691 542.453 482.211 541.123C482.269 541.008 482.384 540.661 482.731 540.545C482.962 540.488 483.194 540.545 483.425 540.719C484.003 541.123 484.639 541.412 485.332 541.701C488.454 543.03 491.171 543.319 493.772 542.626C494.523 542.395 495.275 542.164 496.026 541.932C496.489 541.759 497.009 541.643 497.471 541.47C497.934 541.297 498.281 541.239 498.512 541.412C498.801 541.586 498.859 541.875 498.974 542.337C499.148 543.146 499.263 544.071 499.263 545.053C499.263 546.44 499.263 547.654 499.206 548.752C499.379 548.463 499.726 548.405 500.015 548.347L500.13 548.347L500.246 548.463C500.998 549.214 501.344 550.081 501.344 551.064C501.287 552.219 500.94 553.26 500.304 554.127C499.957 554.589 499.552 554.878 499.148 555.051C498.974 555.109 498.917 555.167 498.859 555.456C498.743 556.207 498.57 556.958 498.223 557.71C497.818 558.692 497.182 559.559 496.258 560.31C495.795 560.715 495.622 561.119 495.679 561.697C495.679 561.813 495.679 561.986 495.679 562.102L495.679 562.275C495.622 563.373 495.795 564.298 496.142 565.107L496.2 565.28L496.084 565.396C494.466 566.899 492.269 567.65 490.072 567.65ZM484.639 565.107C487.587 567.766 492.616 567.766 495.564 565.107C495.275 564.298 495.101 563.373 495.159 562.217L495.159 562.044C495.159 561.929 495.159 561.813 495.159 561.697C495.044 560.946 495.275 560.31 495.911 559.79C496.778 559.097 497.356 558.288 497.703 557.421C497.992 556.727 498.165 555.976 498.281 555.225C498.338 554.878 498.454 554.589 498.974 554.416C499.321 554.3 499.61 554.069 499.899 553.722C500.477 552.971 500.766 552.046 500.824 551.006C500.882 550.255 500.593 549.561 500.015 548.983C499.784 549.041 499.668 549.156 499.668 549.503C499.668 549.792 499.61 550.081 499.552 550.37C499.552 550.486 499.495 550.601 499.495 550.717L499.495 550.775C499.495 550.89 499.495 551.064 499.321 551.237C499.263 551.295 499.148 551.353 498.974 551.295C498.801 551.295 498.685 551.179 498.628 551.121C498.512 550.948 498.57 550.775 498.57 550.659L498.57 550.601C498.743 549.041 498.801 547.307 498.801 545.111C498.801 544.129 498.685 543.319 498.512 542.51C498.512 542.395 498.396 541.99 498.338 541.932C498.281 541.875 497.876 541.99 497.76 542.048C497.298 542.221 496.778 542.337 496.315 542.51C495.564 542.742 494.812 542.973 494.061 543.204C491.286 543.955 488.454 543.666 485.217 542.279C484.523 541.99 483.829 541.643 483.251 541.239C483.136 541.123 483.078 541.123 483.078 541.123C483.078 541.123 483.02 541.123 482.962 541.355C482.442 542.626 482.269 544.013 482.095 545.169C481.922 546.845 481.806 548.579 481.864 550.543L481.864 550.601C481.864 550.717 481.922 550.948 481.806 551.121C481.691 551.237 481.575 551.295 481.402 551.295C480.939 551.295 480.881 550.832 480.824 550.717C480.824 550.659 480.824 550.659 480.824 550.601C480.766 550.197 480.65 549.734 480.592 549.33C480.592 549.099 480.535 548.983 480.361 548.983C479.725 549.561 479.436 550.37 479.61 551.353C479.841 552.971 480.361 553.895 481.402 554.416C481.806 554.589 481.98 554.878 482.095 555.282C482.269 556.034 482.384 556.785 482.673 557.479C483.136 558.577 484.003 559.386 484.754 560.137C485.101 560.484 485.275 560.83 485.217 561.293C485.217 561.524 485.217 561.755 485.159 561.929L485.159 562.217C485.101 563.142 484.986 564.125 484.639 565.107Z" fill="#161616"/>
<path d="M485.042 575.914C485.042 578.226 485.042 580.538 485.042 582.849C485.042 583.196 485.1 583.485 484.58 583.485C484.117 583.485 484.06 583.254 484.06 582.907C484.06 578.862 484.06 574.816 484.06 570.771C484.06 570.077 484.291 569.384 484.175 568.632C484.117 568.286 484.349 568.344 484.58 568.344C484.927 568.286 484.984 568.459 484.984 568.748C484.984 570.713 484.984 572.678 485.042 574.643C485.042 575.105 485.042 575.51 485.042 575.914Z" fill="#F0F0F0"/>
<path d="M495.506 583.543C495.101 583.659 495.043 583.428 495.043 583.081C495.043 578.573 495.043 574.065 495.043 569.557C495.043 569.269 495.043 568.98 495.043 568.633C495.043 568.344 495.159 568.228 495.448 568.228C495.737 568.228 495.911 568.402 495.911 568.691C495.968 570.656 495.968 572.563 495.968 574.528C495.968 577.359 495.968 580.191 495.968 583.081C496.026 583.428 495.911 583.659 495.506 583.543Z" fill="#F0F0F0"/>
<path d="M490.42 564.356C497.124 564.356 502.559 558.923 502.559 552.22C502.559 545.517 497.124 540.083 490.42 540.083C483.716 540.083 478.281 545.517 478.281 552.22C478.281 558.923 483.716 564.356 490.42 564.356Z" fill="white"/>
<path d="M490.42 564.703C483.541 564.703 477.992 559.097 477.992 552.278C477.992 545.458 483.599 539.852 490.42 539.852C497.241 539.852 502.848 545.458 502.848 552.278C502.848 559.097 497.299 564.703 490.42 564.703ZM490.42 540.372C483.888 540.372 478.57 545.689 478.57 552.22C478.57 558.75 483.888 564.067 490.42 564.067C496.952 564.067 502.27 558.75 502.27 552.22C502.27 545.689 497.01 540.372 490.42 540.372Z" fill="#161616"/>
<path d="M502.559 555.514C501.923 555.572 501.692 555.86 501.634 556.438C501.634 556.901 501.519 557.363 501.403 557.825C501.345 557.999 501.403 558.288 501.114 558.23C500.825 558.172 500.941 557.941 500.998 557.768C501.23 555.629 501.287 553.433 501.287 551.295C501.287 550.255 501.172 549.214 500.941 548.174C500.709 547.134 500.594 547.076 499.553 547.423C498.05 547.885 496.547 548.347 495.045 548.752C491.345 549.734 487.877 549.099 484.524 547.712C483.715 547.365 482.906 547.018 482.154 546.498C481.692 546.209 481.403 546.325 481.229 546.787C480.593 548.232 480.362 549.792 480.189 551.353C479.957 553.433 479.842 555.572 479.9 557.71C479.9 557.883 480.073 558.23 479.668 558.288C479.322 558.288 479.379 557.941 479.322 557.768C479.206 557.305 479.09 556.785 479.09 556.265C479.033 555.803 478.801 555.571 478.339 555.571C478.05 553.433 477.761 551.295 478.108 549.099C478.339 547.596 478.57 546.094 479.842 545.053C480.478 544.533 480.825 543.955 480.998 543.262C481.981 539.679 484.697 538.118 488.224 537.367C491.634 536.673 494.409 537.598 497.01 539.563C497.935 540.257 498.975 540.95 500.074 541.47C501.287 541.99 502.501 542.106 503.715 541.586C504.178 541.412 504.235 541.528 504.351 541.933C504.64 543.204 503.889 544.938 502.501 545.805C502.212 545.978 502.097 546.209 502.212 546.498C503.079 549.157 502.906 551.931 502.675 554.647C502.559 554.936 502.617 555.225 502.559 555.514Z" fill="#161616"/>
<path d="M470.423 515.724L514.038 494.535L559.826 516.324L559.245 602.789L513.167 624.233L469.871 597.838L470.423 515.724Z" fill="#1B1D21" stroke="url(#paint5_linear_3786_98535)" stroke-width="3.77768" stroke-linecap="round" stroke-linejoin="round"/>
<path d="M515.506 512.293L517.24 515.991L521.229 516.627L518.281 519.459L518.916 523.447L515.333 521.482L511.691 523.331L512.442 519.343L509.61 516.454L513.656 515.934L515.506 512.293Z" fill="#CECECE"/>
<path d="M524.523 516.338L525.679 518.708L528.281 519.17L526.315 520.961L526.72 523.62L524.408 522.348L522.038 523.504L522.5 520.904L520.65 518.997L523.309 518.65L524.523 516.338Z" fill="#CECECE"/>
<path d="M506.605 515.991L507.761 518.36L510.362 518.823L508.397 520.614L508.801 523.273L506.489 522.001L504.119 523.157L504.639 520.557L502.732 518.649L505.391 518.303L506.605 515.991Z" fill="#CECECE"/>
<path d="M514.452 588.616C498.498 588.327 485.781 575.092 486.07 559.142C486.359 543.191 499.597 530.477 515.551 530.766C531.505 531.055 544.222 544.289 543.933 560.24C543.644 576.248 530.407 588.962 514.452 588.616Z" fill="#CECECE"/>
<path d="M520.631 563.477C521.266 563.708 521.844 563.881 522.48 564.112C522.943 564.286 523.347 564.517 523.694 564.864C524.388 565.557 525.139 566.019 526.122 566.308C527.047 566.54 527.683 567.291 528.145 568.1C528.376 568.504 528.723 568.736 529.186 568.851C530.168 569.082 531.093 569.429 532.018 569.66C534.735 570.354 536.296 572.203 536.989 574.804C537.163 575.497 537.278 576.249 537.452 576.942C537.567 577.289 537.336 577.52 537.163 577.751C535.371 579.658 533.29 581.392 531.035 582.779C527.856 584.802 524.388 586.131 520.688 586.825C519.706 586.998 518.723 587.171 517.74 587.114C516.353 587.056 514.908 587.056 513.521 587.114C510.11 587.287 506.873 586.42 503.752 585.206C499.821 583.646 496.41 581.392 493.462 578.387C493.115 578.04 493.058 577.809 493.173 577.289C493.404 576.191 493.578 575.035 493.983 573.995C494.734 571.856 496.179 570.354 498.433 569.718C499.358 569.429 500.341 569.14 501.266 568.909C501.844 568.736 502.306 568.504 502.595 567.927C503.058 567.002 503.867 566.424 504.908 566.135C505.428 566.019 505.948 565.788 506.295 565.384C507.335 564.228 508.665 563.823 510.052 563.419C510.11 564.459 509.994 565.441 509.59 566.366C509.359 566.424 509.185 566.54 508.954 566.597C508.607 566.655 508.492 566.771 508.723 567.175C509.301 568.331 510.283 569.082 511.266 569.834C511.497 570.007 511.729 570.007 512.018 570.007C514.272 570.007 516.469 570.007 518.723 570.007C519.012 570.007 519.359 569.949 519.59 569.776C520.341 569.198 521.093 568.62 521.671 567.811C522.422 566.771 522.365 566.771 521.209 566.366C520.688 565.499 520.573 564.517 520.631 563.477ZM510.226 577.173C510.226 576.769 510.226 576.364 510.226 575.96C510.226 573.995 510.168 572.03 510.168 570.065C510.168 569.776 510.052 569.603 509.763 569.66C509.59 569.66 509.301 569.603 509.359 569.949C509.474 570.643 509.243 571.336 509.243 572.088C509.243 576.133 509.243 580.178 509.243 584.224C509.243 584.628 509.301 584.802 509.763 584.802C510.283 584.802 510.226 584.513 510.226 584.166C510.226 581.797 510.226 579.485 510.226 577.173ZM520.688 584.802C521.093 584.917 521.209 584.686 521.209 584.282C521.209 581.45 521.209 578.618 521.209 575.728C521.209 573.764 521.151 571.856 521.151 569.891C521.151 569.603 520.977 569.429 520.688 569.429C520.399 569.429 520.284 569.545 520.284 569.834C520.284 570.123 520.284 570.412 520.284 570.758C520.284 575.266 520.284 579.774 520.284 584.282C520.226 584.686 520.284 584.86 520.688 584.802Z" fill="#161616"/>
<path d="M520.632 563.476C520.574 564.517 520.69 565.499 521.094 566.424C518.031 569.313 512.597 569.371 509.476 566.424C509.88 565.441 509.996 564.459 509.938 563.476C509.938 563.13 509.938 562.841 509.996 562.494C510.054 562.147 509.88 561.858 509.649 561.569C508.782 560.76 507.915 559.951 507.51 558.795C507.221 558.044 507.048 557.35 506.932 556.541C506.874 556.195 506.759 556.079 506.412 555.906C505.082 555.212 504.62 553.999 504.447 552.612C504.331 551.571 504.562 550.589 505.429 549.895C505.834 549.895 506.007 550.069 506.065 550.473C506.123 550.878 506.181 551.34 506.239 551.745C506.296 551.918 506.239 552.207 506.528 552.207C506.874 552.207 506.701 551.918 506.701 551.745C506.701 549.953 506.759 548.104 506.932 546.312C507.106 544.983 507.279 543.654 507.799 542.382C507.973 541.978 508.204 541.862 508.551 542.151C509.129 542.556 509.822 542.902 510.458 543.191C513.233 544.405 516.123 544.925 519.129 544.116C520.401 543.769 521.615 543.365 522.829 542.96C523.696 542.671 523.753 542.729 523.985 543.596C524.158 544.463 524.274 545.387 524.274 546.254C524.274 548.104 524.274 549.953 524.042 551.802C524.042 551.918 523.927 552.149 524.158 552.207C524.389 552.265 524.389 552.034 524.389 551.86C524.447 551.456 524.563 551.051 524.563 550.647C524.563 550.126 524.794 549.895 525.314 549.837C525.95 550.473 526.355 551.224 526.297 552.207C526.239 553.247 525.95 554.23 525.314 555.097C525.025 555.443 524.678 555.79 524.274 555.906C523.927 556.021 523.869 556.195 523.811 556.484C523.638 557.235 523.522 557.986 523.233 558.68C522.829 559.662 522.193 560.529 521.326 561.165C520.805 561.627 520.574 562.147 520.69 562.783C520.574 563.13 520.574 563.303 520.632 563.476Z" fill="white"/>
<path d="M515.257 568.909C513.06 568.909 510.864 568.158 509.245 566.655L509.13 566.54L509.187 566.366C509.534 565.442 509.708 564.517 509.65 563.534L509.65 563.188C509.65 562.956 509.65 562.725 509.708 562.494C509.708 562.205 509.65 562.032 509.419 561.858C508.609 561.107 507.685 560.24 507.164 558.969C506.875 558.217 506.702 557.466 506.528 556.715C506.471 556.484 506.413 556.368 506.182 556.253C504.621 555.443 504.216 553.941 504.043 552.727C503.869 551.456 504.216 550.473 505.083 549.722L505.141 549.664L505.257 549.664C505.661 549.664 506.124 549.838 506.182 550.531C506.182 550.762 506.239 551.051 506.297 551.282C506.297 549.491 506.413 547.93 506.528 546.37C506.644 545.156 506.875 543.712 507.396 542.382C507.453 542.267 507.569 541.92 507.916 541.805C508.147 541.747 508.378 541.805 508.609 541.978C509.187 542.382 509.823 542.671 510.517 542.96C513.638 544.29 516.355 544.579 518.956 543.885C519.708 543.654 520.459 543.423 521.211 543.192C521.673 543.018 522.194 542.903 522.656 542.729C523.118 542.556 523.465 542.498 523.696 542.671C523.986 542.845 524.043 543.134 524.159 543.596C524.332 544.405 524.448 545.33 524.448 546.312C524.448 547.699 524.448 548.913 524.39 550.011C524.564 549.722 524.91 549.664 525.199 549.606L525.315 549.606L525.431 549.722C526.182 550.473 526.529 551.34 526.529 552.323C526.471 553.479 526.124 554.519 525.488 555.386C525.142 555.848 524.737 556.137 524.332 556.31C524.159 556.368 524.101 556.426 524.043 556.715C523.928 557.466 523.754 558.217 523.407 558.969C523.003 559.951 522.367 560.818 521.442 561.569C520.98 561.974 520.806 562.379 520.864 562.956C520.864 563.072 520.864 563.245 520.864 563.361L520.864 563.534C520.806 564.632 520.98 565.557 521.326 566.366L521.384 566.54L521.269 566.655C519.65 568.158 517.454 568.909 515.257 568.909ZM509.823 566.366C512.771 569.025 517.8 569.025 520.748 566.366C520.459 565.557 520.286 564.632 520.344 563.477L520.344 563.303C520.344 563.188 520.344 563.072 520.344 562.956C520.228 562.205 520.459 561.569 521.095 561.049C521.962 560.356 522.54 559.547 522.887 558.68C523.176 557.986 523.35 557.235 523.465 556.484C523.523 556.137 523.639 555.848 524.159 555.675C524.506 555.559 524.795 555.328 525.084 554.981C525.662 554.23 525.951 553.305 526.009 552.265C526.066 551.514 525.777 550.82 525.199 550.242C524.968 550.3 524.853 550.416 524.853 550.762C524.853 551.051 524.795 551.34 524.737 551.629C524.737 551.745 524.679 551.86 524.679 551.976L524.679 552.034C524.679 552.149 524.679 552.323 524.506 552.496C524.448 552.554 524.332 552.612 524.159 552.554C523.986 552.554 523.87 552.438 523.812 552.38C523.696 552.207 523.754 552.034 523.754 551.918L523.754 551.86C523.928 550.3 523.986 548.566 523.986 546.37C523.986 545.388 523.87 544.579 523.696 543.769C523.696 543.654 523.581 543.249 523.523 543.192C523.465 543.134 523.061 543.249 522.945 543.307C522.483 543.48 521.962 543.596 521.5 543.769C520.748 544.001 519.997 544.232 519.246 544.463C516.471 545.214 513.638 544.925 510.401 543.538C509.708 543.249 509.014 542.903 508.436 542.498C508.32 542.382 508.263 542.382 508.263 542.382C508.263 542.382 508.205 542.382 508.147 542.614C507.627 543.885 507.453 545.272 507.28 546.428C507.107 548.104 506.991 549.838 507.049 551.803L507.049 551.86C507.049 551.976 507.107 552.207 506.991 552.38C506.875 552.496 506.76 552.554 506.586 552.554C506.124 552.554 506.066 552.092 506.008 551.976C506.008 551.918 506.008 551.918 506.008 551.86C505.95 551.456 505.835 550.993 505.777 550.589C505.777 550.358 505.719 550.242 505.546 550.242C504.91 550.82 504.621 551.629 504.794 552.612C505.026 554.23 505.546 555.155 506.586 555.675C506.991 555.848 507.164 556.137 507.28 556.542C507.453 557.293 507.569 558.044 507.858 558.738C508.32 559.836 509.187 560.645 509.939 561.396C510.286 561.743 510.459 562.09 510.401 562.552C510.401 562.783 510.401 563.014 510.344 563.188L510.344 563.477C510.286 564.401 510.17 565.384 509.823 566.366Z" fill="#161616"/>
<path d="M510.227 577.173C510.227 579.485 510.227 581.797 510.227 584.108C510.227 584.455 510.285 584.744 509.764 584.744C509.302 584.744 509.244 584.513 509.244 584.166C509.244 580.121 509.244 576.075 509.244 572.03C509.244 571.336 509.475 570.643 509.36 569.892C509.302 569.545 509.533 569.603 509.764 569.603C510.111 569.545 510.169 569.718 510.169 570.007C510.169 571.972 510.169 573.937 510.227 575.902C510.227 576.364 510.227 576.769 510.227 577.173Z" fill="#F0F0F0"/>
<path d="M520.69 584.802C520.286 584.918 520.228 584.687 520.228 584.34C520.228 579.832 520.228 575.324 520.228 570.817C520.228 570.528 520.228 570.239 520.228 569.892C520.228 569.603 520.344 569.487 520.633 569.487C520.922 569.487 521.095 569.661 521.095 569.95C521.153 571.915 521.153 573.822 521.153 575.787C521.153 578.619 521.153 581.45 521.153 584.34C521.211 584.687 521.095 584.918 520.69 584.802Z" fill="#F0F0F0"/>
<path d="M515.605 565.615C522.309 565.615 527.744 560.182 527.744 553.479C527.744 546.776 522.309 541.343 515.605 541.343C508.901 541.343 503.466 546.776 503.466 553.479C503.466 560.182 508.901 565.615 515.605 565.615Z" fill="white"/>
<path d="M515.605 565.962C508.726 565.962 503.177 560.356 503.177 553.537C503.177 546.717 508.784 541.111 515.605 541.111C522.426 541.111 528.033 546.717 528.033 553.537C528.033 560.356 522.484 565.962 515.605 565.962ZM515.605 541.632C509.073 541.632 503.755 546.948 503.755 553.479C503.755 560.009 509.073 565.326 515.605 565.326C522.137 565.326 527.455 560.009 527.455 553.479C527.455 546.948 522.195 541.632 515.605 541.632Z" fill="#161616"/>
<path d="M527.744 556.773C527.108 556.831 526.877 557.12 526.819 557.698C526.819 558.16 526.703 558.622 526.588 559.085C526.53 559.258 526.588 559.547 526.299 559.489C526.01 559.431 526.125 559.2 526.183 559.027C526.414 556.888 526.472 554.692 526.472 552.554C526.472 551.514 526.356 550.474 526.125 549.433C525.894 548.393 525.778 548.335 524.738 548.682C523.235 549.144 521.732 549.607 520.229 550.011C516.53 550.994 513.061 550.358 509.709 548.971C508.899 548.624 508.09 548.277 507.339 547.757C506.876 547.468 506.587 547.584 506.414 548.046C505.778 549.491 505.547 551.051 505.373 552.612C505.142 554.692 505.026 556.831 505.084 558.969C505.084 559.142 505.258 559.489 504.853 559.547C504.506 559.547 504.564 559.2 504.506 559.027C504.391 558.564 504.275 558.044 504.275 557.524C504.217 557.062 503.986 556.831 503.524 556.831C503.234 554.692 502.945 552.554 503.292 550.358C503.524 548.855 503.755 547.353 505.026 546.312C505.662 545.792 506.009 545.214 506.183 544.521C507.165 540.938 509.882 539.377 513.408 538.626C516.819 537.933 519.593 538.857 522.194 540.822C523.119 541.516 524.16 542.209 525.258 542.729C526.472 543.249 527.686 543.365 528.9 542.845C529.362 542.672 529.42 542.787 529.536 543.192C529.825 544.463 529.073 546.197 527.686 547.064C527.397 547.237 527.281 547.468 527.397 547.757C528.264 550.416 528.091 553.19 527.859 555.906C527.744 556.195 527.802 556.484 527.744 556.773Z" fill="#161616"/>
<g filter="url(#filter0_f_3786_98535)">
<path d="M445.106 398L452.872 453.333L457.968 496.155L458.696 496.155L463.793 453.333L471.559 398L484.421 398L476.655 453.333L468.889 508.665L447.532 508.665L439.766 453.333L432 398L445.106 398V398Z" fill="#E323FF"/>
<path d="M494.905 413.184C494.905 408.363 496.352 404.748 499.005 402.097C501.659 399.446 505.518 398 510.101 398L527.469 398C532.293 398 535.912 399.446 538.565 402.097C541.218 404.748 542.666 408.604 542.666 413.184L542.666 434.634L529.158 434.634L529.158 413.907C529.158 411.979 528.193 411.015 526.022 411.015L511.549 411.015C509.378 411.015 508.413 411.979 508.413 413.907L508.413 432.224C508.413 436.803 510.101 440.659 513.72 443.551C515.167 444.757 516.855 445.721 519.268 447.167C519.991 447.649 520.956 448.131 522.403 448.854L525.539 450.541C530.846 453.433 534.947 456.084 537.359 459.217C540.977 463.556 542.666 469.099 542.666 475.847L542.666 494.646C542.666 499.467 541.218 503.082 538.565 505.733C535.912 508.384 532.052 509.83 527.469 509.83L510.101 509.83C505.277 509.83 501.659 508.384 499.005 505.733C496.352 503.082 494.905 499.467 494.905 494.646L494.905 473.196L508.413 473.196L508.413 493.923C508.413 496.093 509.378 497.057 511.549 497.057L526.022 497.057C528.193 497.057 529.158 496.093 529.158 493.923L529.158 475.606C529.158 471.509 527.469 467.894 523.851 465.243C522.403 464.279 520.715 463.074 518.303 461.628C517.579 461.146 516.614 460.663 515.167 459.94L512.031 458.253C506.724 455.361 502.865 452.469 500.212 449.336C496.593 444.998 494.905 439.213 494.905 432.465L494.905 413.184V413.184Z" fill="#E323FF"/>
</g>
<path d="M445.106 398L452.872 453.333L457.968 496.155L458.696 496.155L463.793 453.333L471.559 398L484.421 398L476.655 453.333L468.889 508.665L447.532 508.665L439.766 453.333L432 398L445.106 398V398Z" fill="#E323FF"/>
<path d="M494.905 413.184C494.905 408.363 496.352 404.748 499.005 402.097C501.659 399.446 505.518 398 510.101 398L527.469 398C532.293 398 535.912 399.446 538.565 402.097C541.218 404.748 542.666 408.604 542.666 413.184L542.666 434.634L529.158 434.634L529.158 413.907C529.158 411.979 528.193 411.015 526.022 411.015L511.549 411.015C509.378 411.015 508.413 411.979 508.413 413.907L508.413 432.224C508.413 436.803 510.101 440.659 513.72 443.551C515.167 444.757 516.855 445.721 519.268 447.167C519.991 447.649 520.956 448.131 522.403 448.854L525.539 450.541C530.846 453.433 534.947 456.084 537.359 459.217C540.977 463.556 542.666 469.099 542.666 475.847L542.666 494.646C542.666 499.467 541.218 503.082 538.565 505.733C535.912 508.384 532.052 509.83 527.469 509.83L510.101 509.83C505.277 509.83 501.659 508.384 499.005 505.733C496.352 503.082 494.905 499.467 494.905 494.646L494.905 473.196L508.413 473.196L508.413 493.923C508.413 496.093 509.378 497.057 511.549 497.057L526.022 497.057C528.193 497.057 529.158 496.093 529.158 493.923L529.158 475.606C529.158 471.509 527.469 467.894 523.851 465.243C522.403 464.279 520.715 463.074 518.303 461.628C517.579 461.146 516.614 460.663 515.167 459.94L512.031 458.253C506.724 455.361 502.865 452.469 500.212 449.336C496.593 444.998 494.905 439.213 494.905 432.465L494.905 413.184V413.184Z" fill="#E323FF"/>
<rect x="3.26569" y="417.266" width="313.593" height="211.182" rx="29.3913" fill="#E7E7E7" fill-opacity="0.1"/>
<path d="M74.9425 523.409L67.9126 550.377L59.9607 550.377L55.6583 532.629L51.2021 550.377L43.2503 550.377L36.4124 523.409L43.4423 523.409L47.3222 543.039L52.1241 523.409L59.3461 523.409L63.9559 543.039L67.8742 523.409L74.9425 523.409ZM81.5406 526.713C80.3882 526.713 79.4406 526.38 78.6979 525.714C77.9808 525.023 77.6223 524.178 77.6223 523.179C77.6223 522.154 77.9808 521.309 78.6979 520.643C79.4406 519.952 80.3882 519.606 81.5406 519.606C82.6674 519.606 83.5894 519.952 84.3065 520.643C85.0492 521.309 85.4205 522.154 85.4205 523.179C85.4205 524.178 85.0492 525.023 84.3065 525.714C83.5894 526.38 82.6674 526.713 81.5406 526.713ZM84.8059 528.941L84.8059 550.377L78.2369 550.377L78.2369 528.941L84.8059 528.941ZM102.627 528.711C105.137 528.711 107.135 529.53 108.62 531.169C110.131 532.783 110.887 535.011 110.887 537.853L110.887 550.377L104.356 550.377L104.356 538.737C104.356 537.303 103.985 536.189 103.242 535.395C102.499 534.601 101.501 534.204 100.246 534.204C98.9908 534.204 97.992 534.601 97.2493 535.395C96.5066 536.189 96.1353 537.303 96.1353 538.737L96.1353 550.377L89.5663 550.377L89.5663 528.941L96.1353 528.941L96.1353 531.784C96.8011 530.836 97.6975 530.093 98.8243 529.556C99.9511 528.992 101.219 528.711 102.627 528.711ZM130.161 532.514C130.929 531.336 131.89 530.414 133.042 529.748C134.194 529.056 135.475 528.711 136.884 528.711L136.884 535.664L135.078 535.664C133.439 535.664 132.21 536.022 131.39 536.739C130.571 537.431 130.161 538.66 130.161 540.427L130.161 550.377L123.592 550.377L123.592 528.941L130.161 528.941L130.161 532.514ZM160.23 539.313C160.23 539.928 160.191 540.568 160.114 541.234L145.248 541.234C145.35 542.565 145.773 543.59 146.515 544.307C147.284 544.998 148.219 545.344 149.32 545.344C150.959 545.344 152.098 544.653 152.739 543.27L159.73 543.27C159.372 544.678 158.719 545.946 157.771 547.073C156.849 548.2 155.684 549.083 154.275 549.723C152.867 550.364 151.292 550.684 149.55 550.684C147.45 550.684 145.581 550.236 143.942 549.339C142.303 548.443 141.022 547.162 140.1 545.498C139.178 543.833 138.717 541.887 138.717 539.659C138.717 537.431 139.165 535.484 140.062 533.82C140.984 532.155 142.264 530.875 143.903 529.978C145.542 529.082 147.425 528.634 149.55 528.634C151.625 528.634 153.469 529.069 155.082 529.94C156.695 530.811 157.95 532.053 158.847 533.666C159.769 535.279 160.23 537.162 160.23 539.313ZM153.507 537.584C153.507 536.458 153.123 535.561 152.355 534.895C151.586 534.229 150.626 533.897 149.473 533.897C148.372 533.897 147.437 534.217 146.669 534.857C145.926 535.497 145.465 536.406 145.286 537.584L153.507 537.584ZM194.465 528.941L188.665 550.377L181.404 550.377L178.024 536.47L174.528 550.377L167.306 550.377L161.467 528.941L168.036 528.941L171.071 544.269L174.682 528.941L181.635 528.941L185.284 544.192L188.281 528.941L194.465 528.941ZM195.664 539.62C195.664 537.418 196.074 535.484 196.894 533.82C197.739 532.155 198.878 530.875 200.313 529.978C201.747 529.082 203.347 528.634 205.114 528.634C206.625 528.634 207.944 528.941 209.071 529.556C210.224 530.17 211.107 530.977 211.722 531.976L211.722 528.941L218.291 528.941L218.291 550.377L211.722 550.377L211.722 547.342C211.082 548.341 210.185 549.147 209.033 549.762C207.906 550.377 206.587 550.684 205.076 550.684C203.335 550.684 201.747 550.236 200.313 549.339C198.878 548.417 197.739 547.124 196.894 545.459C196.074 543.769 195.664 541.823 195.664 539.62ZM211.722 539.659C211.722 538.02 211.261 536.726 210.339 535.779C209.442 534.831 208.341 534.358 207.035 534.358C205.729 534.358 204.615 534.831 203.693 535.779C202.797 536.701 202.349 537.981 202.349 539.62C202.349 541.259 202.797 542.565 203.693 543.539C204.615 544.486 205.729 544.96 207.035 544.96C208.341 544.96 209.442 544.486 210.339 543.539C211.261 542.591 211.722 541.298 211.722 539.659ZM229.612 532.514C230.38 531.336 231.341 530.414 232.493 529.748C233.646 529.056 234.926 528.711 236.335 528.711L236.335 535.664L234.529 535.664C232.89 535.664 231.661 536.022 230.841 536.739C230.022 537.431 229.612 538.66 229.612 540.427L229.612 550.377L223.043 550.377L223.043 528.941L229.612 528.941L229.612 532.514ZM238.168 539.62C238.168 537.418 238.578 535.484 239.398 533.82C240.243 532.155 241.382 530.875 242.817 529.978C244.251 529.082 245.851 528.634 247.618 528.634C249.027 528.634 250.307 528.928 251.46 529.517C252.638 530.106 253.56 530.9 254.226 531.899L254.226 521.95L260.795 521.95L260.795 550.377L254.226 550.377L254.226 547.303C253.611 548.328 252.728 549.147 251.575 549.762C250.448 550.377 249.129 550.684 247.618 550.684C245.851 550.684 244.251 550.236 242.817 549.339C241.382 548.417 240.243 547.124 239.398 545.459C238.578 543.769 238.168 541.823 238.168 539.62ZM254.226 539.659C254.226 538.02 253.765 536.726 252.843 535.779C251.946 534.831 250.845 534.358 249.539 534.358C248.233 534.358 247.119 534.831 246.197 535.779C245.301 536.701 244.852 537.981 244.852 539.62C244.852 541.259 245.301 542.565 246.197 543.539C247.119 544.486 248.233 544.96 249.539 544.96C250.845 544.96 251.946 544.486 252.843 543.539C253.765 542.591 254.226 541.298 254.226 539.659ZM274.267 550.684C272.398 550.684 270.733 550.364 269.273 549.723C267.813 549.083 266.661 548.212 265.816 547.111C264.971 545.984 264.497 544.73 264.395 543.347L270.887 543.347C270.964 544.089 271.309 544.691 271.924 545.152C272.539 545.613 273.294 545.844 274.19 545.844C275.01 545.844 275.637 545.69 276.073 545.383C276.534 545.05 276.764 544.627 276.764 544.115C276.764 543.5 276.444 543.052 275.804 542.77C275.164 542.463 274.126 542.13 272.692 541.772C271.156 541.413 269.875 541.042 268.851 540.658C267.826 540.248 266.943 539.62 266.2 538.775C265.457 537.904 265.086 536.739 265.086 535.279C265.086 534.05 265.419 532.936 266.085 531.937C266.776 530.913 267.775 530.106 269.081 529.517C270.413 528.928 271.988 528.634 273.806 528.634C276.495 528.634 278.608 529.3 280.145 530.631C281.707 531.963 282.603 533.73 282.834 535.933L276.764 535.933C276.662 535.19 276.329 534.601 275.765 534.165C275.228 533.73 274.51 533.512 273.614 533.512C272.846 533.512 272.257 533.666 271.847 533.973C271.437 534.255 271.232 534.652 271.232 535.164C271.232 535.779 271.553 536.24 272.193 536.547C272.859 536.854 273.883 537.162 275.266 537.469C276.854 537.879 278.147 538.289 279.146 538.698C280.145 539.083 281.015 539.723 281.758 540.619C282.526 541.49 282.923 542.668 282.949 544.153C282.949 545.408 282.59 546.535 281.873 547.534C281.182 548.507 280.17 549.275 278.839 549.839C277.532 550.402 276.009 550.684 274.267 550.684Z" fill="white"/>
<path d="M143.525 471.006L143.525 465.705L155.664 448.341L163.001 448.341L163.001 465.321L166.151 465.321L166.151 471.006L163.001 471.006L163.001 476L156.432 476L156.432 471.006L143.525 471.006ZM156.893 455.563L150.439 465.321L156.893 465.321L156.893 455.563ZM173.095 476.307C171.942 476.307 170.995 475.974 170.252 475.309C169.535 474.617 169.177 473.772 169.177 472.773C169.177 471.749 169.535 470.891 170.252 470.199C170.995 469.508 171.942 469.162 173.095 469.162C174.222 469.162 175.144 469.508 175.861 470.199C176.603 470.891 176.975 471.749 176.975 472.773C176.975 473.772 176.603 474.617 175.861 475.309C175.144 475.974 174.222 476.307 173.095 476.307Z" fill="#FCC000"/>
<rect x="3.26569" y="417.266" width="313.593" height="211.182" rx="29.3913" stroke="#FCC000" stroke-width="6.53139"/>
<rect x="656.054" y="279.266" width="313.507" height="211.182" rx="29.3913" fill="#E7E7E7" fill-opacity="0.1"/>
<path d="M725.766 368.788C728.609 368.788 731.093 369.351 733.218 370.478C735.344 371.605 736.983 373.193 738.136 375.241C739.314 377.265 739.903 379.608 739.903 382.271C739.903 384.909 739.314 387.252 738.136 389.301C736.983 391.35 735.331 392.938 733.18 394.065C731.054 395.192 728.583 395.755 725.766 395.755H715.663V368.788H725.766ZM725.343 390.07C727.828 390.07 729.761 389.391 731.144 388.034C732.527 386.676 733.218 384.755 733.218 382.271C733.218 379.787 732.527 377.854 731.144 376.471C729.761 375.088 727.828 374.396 725.343 374.396H722.232V390.07H725.343ZM750.143 377.892C750.911 376.714 751.871 375.792 753.024 375.126C754.176 374.435 755.457 374.089 756.865 374.089V381.042H755.06C753.421 381.042 752.191 381.401 751.372 382.118C750.552 382.809 750.143 384.038 750.143 385.805V395.755H743.574V374.319H750.143V377.892ZM758.699 384.999C758.699 382.796 759.109 380.863 759.928 379.198C760.773 377.533 761.913 376.253 763.347 375.357C764.781 374.46 766.382 374.012 768.149 374.012C769.66 374.012 770.979 374.319 772.106 374.934C773.258 375.549 774.142 376.355 774.756 377.354V374.319H781.325V395.755H774.756V392.72C774.116 393.719 773.22 394.526 772.067 395.14C770.94 395.755 769.622 396.062 768.111 396.062C766.369 396.062 764.781 395.614 763.347 394.718C761.913 393.796 760.773 392.502 759.928 390.838C759.109 389.148 758.699 387.201 758.699 384.999ZM774.756 385.037C774.756 383.398 774.295 382.105 773.373 381.157C772.477 380.21 771.376 379.736 770.07 379.736C768.764 379.736 767.65 380.21 766.728 381.157C765.831 382.079 765.383 383.36 765.383 384.999C765.383 386.638 765.831 387.944 766.728 388.917C767.65 389.865 768.764 390.338 770.07 390.338C771.376 390.338 772.477 389.865 773.373 388.917C774.295 387.97 774.756 386.676 774.756 385.037ZM796.834 379.774H793.3V395.755H786.731V379.774H784.349V374.319H786.731V373.705C786.731 371.067 787.486 369.069 788.997 367.712C790.508 366.329 792.723 365.638 795.643 365.638C796.129 365.638 796.488 365.65 796.719 365.676V371.246C795.464 371.169 794.58 371.349 794.068 371.784C793.556 372.219 793.3 373.001 793.3 374.127V374.319H796.834V379.774ZM811.867 390.185V395.755H808.525C806.144 395.755 804.287 395.179 802.955 394.026C801.624 392.848 800.958 390.94 800.958 388.302V379.774H798.345V374.319H800.958V369.095H807.527V374.319H811.829V379.774H807.527V388.379C807.527 389.02 807.68 389.481 807.988 389.762C808.295 390.044 808.807 390.185 809.524 390.185H811.867ZM845.564 374.319L832.118 405.935H825.05L829.967 395.025L821.247 374.319H828.584L833.54 387.726L838.457 374.319H845.564ZM857.696 396.062C855.596 396.062 853.701 395.614 852.011 394.718C850.346 393.821 849.027 392.541 848.054 390.876C847.107 389.212 846.633 387.265 846.633 385.037C846.633 382.835 847.12 380.901 848.093 379.237C849.066 377.546 850.398 376.253 852.088 375.357C853.778 374.46 855.673 374.012 857.773 374.012C859.873 374.012 861.768 374.46 863.459 375.357C865.149 376.253 866.481 377.546 867.454 379.237C868.427 380.901 868.914 382.835 868.914 385.037C868.914 387.24 868.414 389.186 867.415 390.876C866.442 392.541 865.098 393.821 863.382 394.718C861.692 395.614 859.796 396.062 857.696 396.062ZM857.696 390.377C858.951 390.377 860.014 389.916 860.885 388.994C861.781 388.072 862.229 386.753 862.229 385.037C862.229 383.321 861.794 382.002 860.923 381.08C860.078 380.158 859.028 379.698 857.773 379.698C856.493 379.698 855.43 380.158 854.585 381.08C853.74 381.977 853.317 383.296 853.317 385.037C853.317 386.753 853.727 388.072 854.546 388.994C855.392 389.916 856.442 390.377 857.696 390.377ZM893.565 374.319V395.755H886.996V392.835C886.33 393.783 885.421 394.551 884.269 395.14C883.142 395.704 881.887 395.985 880.504 395.985C878.865 395.985 877.418 395.627 876.163 394.91C874.908 394.167 873.935 393.104 873.244 391.721C872.552 390.338 872.206 388.712 872.206 386.843V374.319H878.737V385.959C878.737 387.393 879.108 388.507 879.851 389.301C880.594 390.095 881.593 390.492 882.847 390.492C884.128 390.492 885.139 390.095 885.882 389.301C886.625 388.507 886.996 387.393 886.996 385.959V374.319H893.565ZM904.853 377.892C905.621 376.714 906.581 375.792 907.734 375.126C908.886 374.435 910.167 374.089 911.575 374.089V381.042H909.77C908.131 381.042 906.901 381.401 906.082 382.118C905.262 382.809 904.853 384.038 904.853 385.805V395.755H898.284V374.319H904.853V377.892ZM761.078 454.024C759.106 454.024 757.339 453.704 755.776 453.063C754.214 452.423 752.959 451.476 752.012 450.221C751.09 448.966 750.603 447.455 750.552 445.688H757.544C757.646 446.687 757.992 447.455 758.581 447.993C759.17 448.505 759.938 448.761 760.886 448.761C761.859 448.761 762.627 448.543 763.191 448.108C763.754 447.647 764.036 447.02 764.036 446.226C764.036 445.56 763.805 445.009 763.344 444.574C762.909 444.138 762.358 443.78 761.692 443.498C761.052 443.216 760.13 442.896 758.927 442.538C757.185 442 755.764 441.462 754.662 440.924C753.561 440.387 752.614 439.593 751.82 438.543C751.026 437.493 750.629 436.123 750.629 434.432C750.629 431.922 751.538 429.963 753.356 428.555C755.175 427.121 757.544 426.404 760.463 426.404C763.434 426.404 765.828 427.121 767.647 428.555C769.465 429.963 770.438 431.935 770.566 434.471H763.459C763.408 433.6 763.088 432.921 762.499 432.435C761.91 431.922 761.155 431.666 760.233 431.666C759.439 431.666 758.798 431.884 758.312 432.319C757.825 432.729 757.582 433.331 757.582 434.125C757.582 434.996 757.992 435.674 758.811 436.161C759.631 436.648 760.911 437.173 762.653 437.736C764.394 438.325 765.803 438.888 766.878 439.426C767.98 439.964 768.927 440.745 769.721 441.769C770.515 442.794 770.912 444.113 770.912 445.726C770.912 447.263 770.515 448.659 769.721 449.913C768.953 451.168 767.826 452.167 766.341 452.91C764.855 453.653 763.101 454.024 761.078 454.024ZM773.648 443.076C773.648 440.95 774.084 439.055 774.955 437.39C775.851 435.726 777.042 434.432 778.527 433.51C780.038 432.563 781.677 432.089 783.444 432.089C784.802 432.089 786.018 432.332 787.094 432.819C788.169 433.28 789.04 433.933 789.706 434.778V432.319H796.275V463.973H789.706V451.066C788.963 451.962 788.054 452.679 786.978 453.217C785.928 453.755 784.725 454.024 783.367 454.024C781.626 454.024 780.012 453.563 778.527 452.641C777.042 451.719 775.851 450.426 774.955 448.761C774.084 447.096 773.648 445.201 773.648 443.076ZM789.706 443.037C789.706 441.885 789.475 440.924 789.014 440.156C788.579 439.362 788.003 438.773 787.286 438.389C786.569 437.979 785.813 437.774 785.019 437.774C784.251 437.774 783.508 437.979 782.791 438.389C782.074 438.773 781.485 439.362 781.024 440.156C780.563 440.95 780.333 441.923 780.333 443.076C780.333 444.228 780.563 445.201 781.024 445.995C781.485 446.763 782.074 447.352 782.791 447.762C783.508 448.146 784.251 448.338 785.019 448.338C785.788 448.338 786.53 448.146 787.247 447.762C787.99 447.352 788.579 446.751 789.014 445.957C789.475 445.163 789.706 444.19 789.706 443.037ZM822.194 432.319V453.755H815.625V450.835C814.959 451.783 814.05 452.551 812.897 453.14C811.771 453.704 810.516 453.985 809.133 453.985C807.494 453.985 806.047 453.627 804.792 452.91C803.537 452.167 802.564 451.104 801.872 449.721C801.181 448.338 800.835 446.712 800.835 444.843V432.319H807.366V443.959C807.366 445.393 807.737 446.507 808.48 447.301C809.222 448.095 810.221 448.492 811.476 448.492C812.756 448.492 813.768 448.095 814.511 447.301C815.253 446.507 815.625 445.393 815.625 443.959V432.319H822.194ZM825.606 442.999C825.606 440.796 826.016 438.863 826.835 437.198C827.68 435.533 828.82 434.253 830.254 433.357C831.688 432.46 833.289 432.012 835.056 432.012C836.567 432.012 837.886 432.319 839.013 432.934C840.165 433.549 841.049 434.355 841.663 435.354V432.319H848.232V453.755H841.663V450.72C841.023 451.719 840.127 452.526 838.974 453.14C837.848 453.755 836.529 454.062 835.018 454.062C833.276 454.062 831.688 453.614 830.254 452.718C828.82 451.796 827.68 450.502 826.835 448.838C826.016 447.148 825.606 445.201 825.606 442.999ZM841.663 443.037C841.663 441.398 841.203 440.105 840.281 439.157C839.384 438.21 838.283 437.736 836.977 437.736C835.671 437.736 834.557 438.21 833.635 439.157C832.738 440.079 832.29 441.36 832.29 442.999C832.29 444.638 832.738 445.944 833.635 446.917C834.557 447.865 835.671 448.338 836.977 448.338C838.283 448.338 839.384 447.865 840.281 446.917C841.203 445.97 841.663 444.676 841.663 443.037ZM851.679 442.999C851.679 440.796 852.088 438.863 852.908 437.198C853.753 435.533 854.893 434.253 856.327 433.357C857.761 432.46 859.362 432.012 861.129 432.012C862.537 432.012 863.818 432.307 864.97 432.896C866.148 433.485 867.07 434.279 867.736 435.277V425.328H874.305V453.755H867.736V450.682C867.121 451.706 866.238 452.526 865.085 453.14C863.959 453.755 862.64 454.062 861.129 454.062C859.362 454.062 857.761 453.614 856.327 452.718C854.893 451.796 853.753 450.502 852.908 448.838C852.088 447.148 851.679 445.201 851.679 442.999ZM867.736 443.037C867.736 441.398 867.275 440.105 866.353 439.157C865.457 438.21 864.356 437.736 863.049 437.736C861.743 437.736 860.629 438.21 859.707 439.157C858.811 440.079 858.363 441.36 858.363 442.999C858.363 444.638 858.811 445.944 859.707 446.917C860.629 447.865 861.743 448.338 863.049 448.338C864.356 448.338 865.457 447.865 866.353 446.917C867.275 445.97 867.736 444.676 867.736 443.037Z" fill="white"/>
<path d="M797.869 332.737C798.739 332.046 799.136 331.726 799.059 331.777C801.569 329.702 803.541 327.999 804.975 326.668C806.435 325.336 807.664 323.94 808.663 322.48C809.662 321.021 810.161 319.599 810.161 318.216C810.161 317.166 809.918 316.347 809.431 315.758C808.945 315.169 808.215 314.874 807.242 314.874C806.269 314.874 805.5 315.246 804.937 315.988C804.399 316.705 804.13 317.73 804.13 319.061H797.792C797.843 316.885 798.304 315.066 799.175 313.607C800.071 312.147 801.236 311.071 802.67 310.38C804.13 309.688 805.744 309.342 807.511 309.342C810.558 309.342 812.85 310.124 814.387 311.686C815.949 313.248 816.73 315.284 816.73 317.794C816.73 320.534 815.795 323.082 813.926 325.438C812.056 327.769 809.675 330.048 806.781 332.276H817.153V337.616H797.869V332.737ZM823.771 338.307C822.619 338.307 821.671 337.974 820.929 337.309C820.211 336.617 819.853 335.772 819.853 334.773C819.853 333.749 820.211 332.891 820.929 332.199C821.671 331.508 822.619 331.162 823.771 331.162C824.898 331.162 825.82 331.508 826.537 332.199C827.28 332.891 827.651 333.749 827.651 334.773C827.651 335.772 827.28 336.617 826.537 337.309C825.82 337.974 824.898 338.307 823.771 338.307Z" fill="#FCC000"/>
<rect x="656.054" y="279.266" width="313.507" height="211.182" rx="29.3913" stroke="#FCC000" stroke-width="6.53139"/>
<rect x="358.266" y="695.266" width="313.593" height="211.182" rx="29.3913" fill="#E7E7E7" fill-opacity="0.1"/>
<path d="M414.74 797.555C414.74 794.891 415.317 792.523 416.469 790.448C417.621 788.348 419.222 786.722 421.271 785.569C423.345 784.391 425.689 783.802 428.301 783.802C431.502 783.802 434.242 784.647 436.522 786.338C438.801 788.028 440.325 790.333 441.093 793.252H433.871C433.333 792.126 432.565 791.268 431.566 790.679C430.593 790.09 429.479 789.795 428.224 789.795C426.201 789.795 424.562 790.499 423.307 791.908C422.052 793.316 421.425 795.199 421.425 797.555C421.425 799.911 422.052 801.793 423.307 803.202C424.562 804.61 426.201 805.315 428.224 805.315C429.479 805.315 430.593 805.02 431.566 804.431C432.565 803.842 433.333 802.984 433.871 801.857H441.093C440.325 804.777 438.801 807.082 436.522 808.772C434.242 810.437 431.502 811.269 428.301 811.269C425.689 811.269 423.345 810.693 421.271 809.54C419.222 808.362 417.621 806.736 416.469 804.662C415.317 802.587 414.74 800.218 414.74 797.555ZM458.292 789.411C460.751 789.411 462.723 790.23 464.208 791.869C465.693 793.483 466.436 795.711 466.436 798.554V811.077H459.905V799.437C459.905 798.003 459.534 796.889 458.791 796.095C458.049 795.301 457.05 794.904 455.795 794.904C454.54 794.904 453.541 795.301 452.799 796.095C452.056 796.889 451.685 798.003 451.685 799.437V811.077H445.116V782.65H451.685V792.523C452.351 791.575 453.26 790.819 454.412 790.256C455.565 789.693 456.858 789.411 458.292 789.411ZM469.695 800.321C469.695 798.118 470.104 796.185 470.924 794.52C471.769 792.855 472.909 791.575 474.343 790.679C475.777 789.782 477.378 789.334 479.145 789.334C480.656 789.334 481.975 789.641 483.101 790.256C484.254 790.871 485.137 791.677 485.752 792.676V789.641H492.321V811.077H485.752V808.042C485.112 809.041 484.215 809.848 483.063 810.462C481.936 811.077 480.617 811.384 479.106 811.384C477.365 811.384 475.777 810.936 474.343 810.04C472.909 809.118 471.769 807.824 470.924 806.16C470.104 804.47 469.695 802.523 469.695 800.321ZM485.752 800.359C485.752 798.72 485.291 797.427 484.369 796.479C483.473 795.532 482.372 795.058 481.065 795.058C479.759 795.058 478.645 795.532 477.723 796.479C476.827 797.401 476.379 798.682 476.379 800.321C476.379 801.96 476.827 803.266 477.723 804.239C478.645 805.187 479.759 805.66 481.065 805.66C482.372 805.66 483.473 805.187 484.369 804.239C485.291 803.291 485.752 801.998 485.752 800.359ZM503.642 782.65V811.077H497.073V782.65H503.642ZM514.972 782.65V811.077H508.403V782.65H514.972ZM539.938 800.013C539.938 800.628 539.9 801.268 539.823 801.934H524.957C525.059 803.266 525.482 804.29 526.224 805.007C526.993 805.699 527.927 806.045 529.029 806.045C530.668 806.045 531.807 805.353 532.447 803.97H539.439C539.08 805.379 538.427 806.646 537.48 807.773C536.558 808.9 535.393 809.784 533.984 810.424C532.576 811.064 531 811.384 529.259 811.384C527.159 811.384 525.289 810.936 523.65 810.04C522.011 809.143 520.731 807.863 519.809 806.198C518.887 804.534 518.426 802.587 518.426 800.359C518.426 798.131 518.874 796.185 519.771 794.52C520.692 792.855 521.973 791.575 523.612 790.679C525.251 789.782 527.133 789.334 529.259 789.334C531.333 789.334 533.177 789.769 534.791 790.64C536.404 791.511 537.659 792.753 538.555 794.366C539.477 795.98 539.938 797.862 539.938 800.013ZM533.216 798.285C533.216 797.158 532.832 796.262 532.063 795.596C531.295 794.93 530.335 794.597 529.182 794.597C528.081 794.597 527.146 794.917 526.378 795.557C525.635 796.198 525.174 797.107 524.995 798.285H533.216ZM556.465 789.411C558.975 789.411 560.972 790.23 562.458 791.869C563.969 793.483 564.724 795.711 564.724 798.554V811.077H558.194V799.437C558.194 798.003 557.822 796.889 557.08 796.095C556.337 795.301 555.338 794.904 554.083 794.904C552.828 794.904 551.829 795.301 551.087 796.095C550.344 796.889 549.973 798.003 549.973 799.437V811.077H543.404V789.641H549.973V792.484C550.639 791.537 551.535 790.794 552.662 790.256C553.789 789.693 555.056 789.411 556.465 789.411ZM577.433 789.334C578.944 789.334 580.263 789.641 581.39 790.256C582.542 790.871 583.426 791.677 584.04 792.676V789.641H590.609V811.038C590.609 813.01 590.212 814.79 589.418 816.378C588.65 817.992 587.459 819.272 585.846 820.22C584.258 821.167 582.273 821.641 579.891 821.641C576.716 821.641 574.142 820.886 572.17 819.375C570.198 817.889 569.071 815.866 568.789 813.305H575.282C575.486 814.124 575.973 814.765 576.741 815.226C577.51 815.712 578.457 815.956 579.584 815.956C580.941 815.956 582.017 815.559 582.811 814.765C583.63 813.996 584.04 812.754 584.04 811.038V808.004C583.4 809.003 582.516 809.822 581.39 810.462C580.263 811.077 578.944 811.384 577.433 811.384C575.666 811.384 574.065 810.936 572.631 810.04C571.197 809.118 570.057 807.824 569.212 806.16C568.392 804.47 567.983 802.523 567.983 800.321C567.983 798.118 568.392 796.185 569.212 794.52C570.057 792.855 571.197 791.575 572.631 790.679C574.065 789.782 575.666 789.334 577.433 789.334ZM584.04 800.359C584.04 798.72 583.579 797.427 582.657 796.479C581.761 795.532 580.66 795.058 579.354 795.058C578.047 795.058 576.933 795.532 576.011 796.479C575.115 797.401 574.667 798.682 574.667 800.321C574.667 801.96 575.115 803.266 576.011 804.239C576.933 805.187 578.047 805.66 579.354 805.66C580.66 805.66 581.761 805.187 582.657 804.239C583.579 803.291 584.04 801.998 584.04 800.359ZM615.568 800.013C615.568 800.628 615.529 801.268 615.452 801.934H600.586C600.688 803.266 601.111 804.29 601.854 805.007C602.622 805.699 603.557 806.045 604.658 806.045C606.297 806.045 607.437 805.353 608.077 803.97H615.068C614.71 805.379 614.057 806.646 613.109 807.773C612.187 808.9 611.022 809.784 609.613 810.424C608.205 811.064 606.63 811.384 604.888 811.384C602.788 811.384 600.919 810.936 599.28 810.04C597.641 809.143 596.36 807.863 595.438 806.198C594.516 804.534 594.055 802.587 594.055 800.359C594.055 798.131 594.504 796.185 595.4 794.52C596.322 792.855 597.602 791.575 599.241 790.679C600.88 789.782 602.763 789.334 604.888 789.334C606.963 789.334 608.807 789.769 610.42 790.64C612.034 791.511 613.288 792.753 614.185 794.366C615.107 795.98 615.568 797.862 615.568 800.013ZM608.845 798.285C608.845 797.158 608.461 796.262 607.693 795.596C606.924 794.93 605.964 794.597 604.812 794.597C603.71 794.597 602.776 794.917 602.007 795.557C601.265 796.198 600.804 797.107 600.624 798.285H608.845ZM379.338 869.384C377.238 869.384 375.342 868.936 373.652 868.04C371.988 867.143 370.669 865.863 369.695 864.198C368.748 862.534 368.274 860.587 368.274 858.359C368.274 856.157 368.761 854.223 369.734 852.559C370.707 850.868 372.039 849.575 373.729 848.679C375.419 847.782 377.314 847.334 379.414 847.334C381.514 847.334 383.41 847.782 385.1 848.679C386.79 849.575 388.122 850.868 389.095 852.559C390.068 854.223 390.555 856.157 390.555 858.359C390.555 860.562 390.055 862.508 389.057 864.198C388.083 865.863 386.739 867.143 385.023 868.04C383.333 868.936 381.438 869.384 379.338 869.384ZM379.338 863.699C380.592 863.699 381.655 863.238 382.526 862.316C383.422 861.394 383.871 860.075 383.871 858.359C383.871 856.643 383.435 855.324 382.564 854.402C381.719 853.48 380.669 853.019 379.414 853.019C378.134 853.019 377.071 853.48 376.226 854.402C375.381 855.299 374.958 856.618 374.958 858.359C374.958 860.075 375.368 861.394 376.188 862.316C377.033 863.238 378.083 863.699 379.338 863.699ZM405.987 863.507V869.077H402.645C400.263 869.077 398.406 868.501 397.074 867.348C395.743 866.17 395.077 864.262 395.077 861.624V853.096H392.465V847.641H395.077V842.417H401.646V847.641H405.948V853.096H401.646V861.701C401.646 862.341 401.799 862.802 402.107 863.084C402.414 863.366 402.926 863.507 403.643 863.507H405.987ZM422.822 847.411C425.281 847.411 427.253 848.23 428.738 849.869C430.223 851.483 430.966 853.711 430.966 856.554V869.077H424.435V857.437C424.435 856.003 424.064 854.889 423.321 854.095C422.579 853.301 421.58 852.904 420.325 852.904C419.07 852.904 418.071 853.301 417.329 854.095C416.586 854.889 416.215 856.003 416.215 857.437V869.077H409.646V840.65H416.215V850.523C416.881 849.575 417.79 848.819 418.942 848.256C420.095 847.693 421.388 847.411 422.822 847.411ZM455.737 858.013C455.737 858.628 455.699 859.268 455.622 859.934H440.755C440.858 861.266 441.28 862.29 442.023 863.007C442.791 863.699 443.726 864.045 444.827 864.045C446.466 864.045 447.606 863.353 448.246 861.97H455.238C454.879 863.379 454.226 864.646 453.278 865.773C452.356 866.9 451.191 867.784 449.783 868.424C448.374 869.064 446.799 869.384 445.058 869.384C442.958 869.384 441.088 868.936 439.449 868.04C437.81 867.143 436.53 865.863 435.608 864.198C434.686 862.534 434.225 860.587 434.225 858.359C434.225 856.131 434.673 854.185 435.569 852.52C436.491 850.855 437.772 849.575 439.411 848.679C441.05 847.782 442.932 847.334 445.058 847.334C447.132 847.334 448.976 847.769 450.589 848.64C452.203 849.511 453.458 850.753 454.354 852.366C455.276 853.98 455.737 855.862 455.737 858.013ZM449.014 856.285C449.014 855.158 448.63 854.262 447.862 853.596C447.094 852.93 446.133 852.597 444.981 852.597C443.88 852.597 442.945 852.917 442.177 853.557C441.434 854.198 440.973 855.107 440.794 856.285H449.014ZM465.771 851.214C466.54 850.036 467.5 849.114 468.652 848.448C469.805 847.757 471.085 847.411 472.494 847.411V854.364H470.688C469.049 854.364 467.82 854.723 467.001 855.44C466.181 856.131 465.771 857.36 465.771 859.127V869.077H459.202V847.641H465.771V851.214ZM490.343 864.006H498.948V869.077H483.774V842.11H490.343V864.006ZM522.288 858.013C522.288 858.628 522.249 859.268 522.173 859.934H507.306C507.408 861.266 507.831 862.29 508.574 863.007C509.342 863.699 510.277 864.045 511.378 864.045C513.017 864.045 514.157 863.353 514.797 861.97H521.788C521.43 863.379 520.777 864.646 519.829 865.773C518.907 866.9 517.742 867.784 516.333 868.424C514.925 869.064 513.35 869.384 511.608 869.384C509.508 869.384 507.639 868.936 506 868.04C504.361 867.143 503.08 865.863 502.158 864.198C501.236 862.534 500.775 860.587 500.775 858.359C500.775 856.131 501.224 854.185 502.12 852.52C503.042 850.855 504.322 849.575 505.961 848.679C507.6 847.782 509.483 847.334 511.608 847.334C513.683 847.334 515.527 847.769 517.14 848.64C518.754 849.511 520.008 850.753 520.905 852.366C521.827 853.98 522.288 855.862 522.288 858.013ZM515.565 856.285C515.565 855.158 515.181 854.262 514.413 853.596C513.644 852.93 512.684 852.597 511.532 852.597C510.43 852.597 509.496 852.917 508.727 853.557C507.985 854.198 507.524 855.107 507.344 856.285H515.565ZM524.447 858.321C524.447 856.118 524.857 854.185 525.676 852.52C526.522 850.855 527.661 849.575 529.095 848.679C530.529 847.782 532.13 847.334 533.897 847.334C535.408 847.334 536.727 847.641 537.854 848.256C539.006 848.871 539.89 849.677 540.505 850.676V847.641H547.073V869.077H540.505V866.042C539.864 867.041 538.968 867.848 537.815 868.462C536.689 869.077 535.37 869.384 533.859 869.384C532.117 869.384 530.529 868.936 529.095 868.04C527.661 867.118 526.522 865.824 525.676 864.16C524.857 862.47 524.447 860.523 524.447 858.321ZM540.505 858.359C540.505 856.72 540.044 855.427 539.122 854.479C538.225 853.532 537.124 853.058 535.818 853.058C534.512 853.058 533.398 853.532 532.476 854.479C531.579 855.401 531.131 856.682 531.131 858.321C531.131 859.96 531.579 861.266 532.476 862.239C533.398 863.187 534.512 863.66 535.818 863.66C537.124 863.66 538.225 863.187 539.122 862.239C540.044 861.291 540.505 859.998 540.505 858.359ZM559.97 847.334C561.481 847.334 562.8 847.641 563.927 848.256C565.079 848.871 565.962 849.677 566.577 850.676V847.641H573.146V869.038C573.146 871.01 572.749 872.79 571.955 874.378C571.187 875.992 569.996 877.272 568.383 878.22C566.795 879.167 564.81 879.641 562.428 879.641C559.253 879.641 556.679 878.886 554.707 877.375C552.735 875.889 551.608 873.866 551.326 871.305H557.819C558.023 872.124 558.51 872.765 559.278 873.226C560.047 873.712 560.994 873.956 562.121 873.956C563.478 873.956 564.554 873.559 565.348 872.765C566.167 871.996 566.577 870.754 566.577 869.038V866.004C565.937 867.003 565.053 867.822 563.927 868.462C562.8 869.077 561.481 869.384 559.97 869.384C558.203 869.384 556.602 868.936 555.168 868.04C553.734 867.118 552.594 865.824 551.749 864.16C550.929 862.47 550.52 860.523 550.52 858.321C550.52 856.118 550.929 854.185 551.749 852.52C552.594 850.855 553.734 849.575 555.168 848.679C556.602 847.782 558.203 847.334 559.97 847.334ZM566.577 858.359C566.577 856.72 566.116 855.427 565.194 854.479C564.298 853.532 563.197 853.058 561.891 853.058C560.584 853.058 559.47 853.532 558.548 854.479C557.652 855.401 557.204 856.682 557.204 858.321C557.204 859.96 557.652 861.266 558.548 862.239C559.47 863.187 560.584 863.66 561.891 863.66C563.197 863.66 564.298 863.187 565.194 862.239C566.116 861.291 566.577 859.998 566.577 858.359ZM599.065 847.641V869.077H592.496V866.157C591.83 867.105 590.921 867.873 589.769 868.462C588.642 869.026 587.387 869.307 586.004 869.307C584.365 869.307 582.918 868.949 581.663 868.232C580.408 867.489 579.435 866.426 578.744 865.043C578.052 863.66 577.706 862.034 577.706 860.165V847.641H584.237V859.281C584.237 860.715 584.608 861.829 585.351 862.623C586.094 863.417 587.092 863.814 588.347 863.814C589.628 863.814 590.639 863.417 591.382 862.623C592.125 861.829 592.496 860.715 592.496 859.281V847.641H599.065ZM623.99 858.013C623.99 858.628 623.951 859.268 623.874 859.934H609.008C609.11 861.266 609.533 862.29 610.276 863.007C611.044 863.699 611.979 864.045 613.08 864.045C614.719 864.045 615.859 863.353 616.499 861.97H623.49C623.132 863.379 622.479 864.646 621.531 865.773C620.609 866.9 619.444 867.784 618.035 868.424C616.627 869.064 615.052 869.384 613.31 869.384C611.21 869.384 609.341 868.936 607.702 868.04C606.063 867.143 604.782 865.863 603.86 864.198C602.938 862.534 602.477 860.587 602.477 858.359C602.477 856.131 602.926 854.185 603.822 852.52C604.744 850.855 606.024 849.575 607.663 848.679C609.302 847.782 611.185 847.334 613.31 847.334C615.385 847.334 617.229 847.769 618.842 848.64C620.456 849.511 621.71 850.753 622.607 852.366C623.529 853.98 623.99 855.862 623.99 858.013ZM617.267 856.285C617.267 855.158 616.883 854.262 616.115 853.596C615.346 852.93 614.386 852.597 613.234 852.597C612.132 852.597 611.198 852.917 610.429 853.557C609.687 854.198 609.226 855.107 609.046 856.285H617.267ZM634.024 851.214C634.792 850.036 635.753 849.114 636.905 848.448C638.058 847.757 639.338 847.411 640.747 847.411V854.364H638.941C637.302 854.364 636.073 854.723 635.253 855.44C634.434 856.131 634.024 857.36 634.024 859.127V869.077H627.455V847.641H634.024V851.214ZM652.607 869.384C650.737 869.384 649.072 869.064 647.613 868.424C646.153 867.784 645.001 866.913 644.155 865.812C643.31 864.685 642.836 863.43 642.734 862.047H649.226C649.303 862.79 649.649 863.392 650.263 863.852C650.878 864.313 651.633 864.544 652.53 864.544C653.349 864.544 653.977 864.39 654.412 864.083C654.873 863.75 655.104 863.327 655.104 862.815C655.104 862.201 654.784 861.752 654.143 861.471C653.503 861.163 652.466 860.831 651.032 860.472C649.495 860.113 648.215 859.742 647.19 859.358C646.166 858.948 645.282 858.321 644.54 857.476C643.797 856.605 643.426 855.44 643.426 853.98C643.426 852.751 643.758 851.637 644.424 850.638C645.116 849.613 646.115 848.807 647.421 848.218C648.752 847.629 650.327 847.334 652.146 847.334C654.835 847.334 656.948 848 658.484 849.332C660.046 850.663 660.943 852.43 661.173 854.633H655.104C655.001 853.89 654.668 853.301 654.105 852.866C653.567 852.43 652.85 852.213 651.954 852.213C651.185 852.213 650.596 852.366 650.187 852.674C649.777 852.955 649.572 853.352 649.572 853.865C649.572 854.479 649.892 854.94 650.532 855.248C651.198 855.555 652.223 855.862 653.605 856.17C655.193 856.579 656.487 856.989 657.485 857.399C658.484 857.783 659.355 858.423 660.098 859.32C660.866 860.19 661.263 861.368 661.288 862.854C661.288 864.109 660.93 865.235 660.213 866.234C659.521 867.207 658.51 867.976 657.178 868.539C655.872 869.103 654.348 869.384 652.607 869.384Z" fill="white"/>
<path d="M499.971 734.871C500.073 732.13 500.97 730.018 502.66 728.532C504.35 727.047 506.642 726.304 509.536 726.304C511.457 726.304 513.096 726.637 514.453 727.303C515.836 727.969 516.873 728.878 517.565 730.03C518.282 731.183 518.64 732.476 518.64 733.91C518.64 735.6 518.218 736.983 517.373 738.059C516.528 739.109 515.542 739.826 514.415 740.21V740.364C515.875 740.851 517.027 741.657 517.872 742.784C518.717 743.911 519.14 745.358 519.14 747.125C519.14 748.713 518.769 750.121 518.026 751.351C517.309 752.554 516.246 753.502 514.837 754.193C513.454 754.885 511.803 755.23 509.882 755.23C506.809 755.23 504.35 754.475 502.506 752.964C500.688 751.453 499.728 749.174 499.625 746.126H506.002C506.028 747.253 506.348 748.149 506.962 748.815C507.577 749.455 508.473 749.776 509.651 749.776C510.65 749.776 511.418 749.494 511.956 748.93C512.52 748.341 512.801 747.573 512.801 746.626C512.801 745.396 512.404 744.513 511.611 743.975C510.842 743.412 509.6 743.13 507.884 743.13H506.655V737.79H507.884C509.19 737.79 510.24 737.572 511.034 737.137C511.854 736.676 512.264 735.869 512.264 734.717C512.264 733.795 512.007 733.078 511.495 732.566C510.983 732.054 510.279 731.797 509.382 731.797C508.409 731.797 507.679 732.092 507.193 732.681C506.732 733.27 506.463 734 506.386 734.871H499.971ZM526.726 755.307C525.573 755.307 524.626 754.974 523.883 754.309C523.166 753.617 522.807 752.772 522.807 751.773C522.807 750.749 523.166 749.891 523.883 749.199C524.626 748.508 525.573 748.162 526.726 748.162C527.852 748.162 528.774 748.508 529.491 749.199C530.234 749.891 530.606 750.749 530.606 751.773C530.606 752.772 530.234 753.617 529.491 754.309C528.774 754.974 527.852 755.307 526.726 755.307Z" fill="#FCC000"/>
<rect x="358.266" y="695.266" width="313.593" height="211.182" rx="29.3913" stroke="#FCC000" stroke-width="6.53139"/>
<rect x="302.549" y="3.26569" width="313.593" height="211.182" rx="29.3913" fill="#E7E7E7" fill-opacity="0.1"/>
<path d="M379.536 105.925C381.098 106.258 382.353 107.04 383.301 108.269C384.248 109.472 384.722 110.855 384.722 112.418C384.722 114.671 383.928 116.464 382.34 117.796C380.778 119.102 378.588 119.755 375.771 119.755H363.21V92.7876H375.349C378.089 92.7876 380.227 93.415 381.764 94.6699C383.326 95.9248 384.107 97.6279 384.107 99.7791C384.107 101.367 383.685 102.686 382.84 103.736C382.02 104.786 380.919 105.516 379.536 105.925ZM369.778 103.697H374.081C375.157 103.697 375.976 103.467 376.539 103.006C377.129 102.519 377.423 101.815 377.423 100.893C377.423 99.9712 377.129 99.2669 376.539 98.7803C375.976 98.2937 375.157 98.0504 374.081 98.0504H369.778V103.697ZM374.619 114.454C375.72 114.454 376.565 114.21 377.154 113.724C377.769 113.212 378.076 112.482 378.076 111.534C378.076 110.586 377.756 109.844 377.116 109.306C376.501 108.768 375.643 108.499 374.542 108.499H369.778V114.454H374.619ZM409.698 98.3193V119.755H403.129V116.835C402.464 117.783 401.554 118.551 400.402 119.14C399.275 119.704 398.02 119.985 396.637 119.985C394.998 119.985 393.551 119.627 392.296 118.91C391.042 118.167 390.068 117.104 389.377 115.721C388.685 114.338 388.34 112.712 388.34 110.843V98.3193H394.87V109.959C394.87 111.393 395.242 112.507 395.984 113.301C396.727 114.095 397.726 114.492 398.981 114.492C400.261 114.492 401.273 114.095 402.015 113.301C402.758 112.507 403.129 111.393 403.129 109.959V98.3193H409.698ZM417.721 96.0913C416.568 96.0913 415.621 95.7584 414.878 95.0925C414.161 94.401 413.802 93.5559 413.802 92.5571C413.802 91.5327 414.161 90.6876 414.878 90.0217C415.621 89.3303 416.568 88.9845 417.721 88.9845C418.847 88.9845 419.769 89.3303 420.486 90.0217C421.229 90.6876 421.6 91.5327 421.6 92.5571C421.6 93.5559 421.229 94.401 420.486 95.0925C419.769 95.7584 418.847 96.0913 417.721 96.0913ZM420.986 98.3193V119.755H414.417V98.3193H420.986ZM432.315 91.3278V119.755H425.746V91.3278H432.315ZM435.77 108.999C435.77 106.796 436.179 104.863 436.999 103.198C437.844 101.533 438.984 100.253 440.418 99.3565C441.852 98.4602 443.453 98.012 445.22 98.012C446.628 98.012 447.909 98.3065 449.061 98.8956C450.239 99.4846 451.161 100.279 451.827 101.277V91.3278H458.396V119.755H451.827V116.682C451.212 117.706 450.329 118.526 449.176 119.14C448.05 119.755 446.731 120.062 445.22 120.062C443.453 120.062 441.852 119.614 440.418 118.718C438.984 117.796 437.844 116.502 436.999 114.838C436.179 113.147 435.77 111.201 435.77 108.999ZM451.827 109.037C451.827 107.398 451.366 106.105 450.444 105.157C449.548 104.21 448.446 103.736 447.14 103.736C445.834 103.736 444.72 104.21 443.798 105.157C442.902 106.079 442.454 107.36 442.454 108.999C442.454 110.638 442.902 111.944 443.798 112.917C444.72 113.865 445.834 114.338 447.14 114.338C448.446 114.338 449.548 113.865 450.444 112.917C451.366 111.969 451.827 110.676 451.827 109.037ZM493.185 98.3193L479.74 129.935H472.672L477.589 119.025L468.869 98.3193H476.206L481.162 111.726L486.079 98.3193H493.185ZM505.318 120.062C503.218 120.062 501.323 119.614 499.633 118.718C497.968 117.821 496.649 116.541 495.676 114.876C494.728 113.212 494.255 111.265 494.255 109.037C494.255 106.835 494.741 104.901 495.714 103.236C496.688 101.546 498.019 100.253 499.71 99.3565C501.4 98.4602 503.295 98.012 505.395 98.012C507.495 98.012 509.39 98.4602 511.08 99.3565C512.771 100.253 514.102 101.546 515.076 103.236C516.049 104.901 516.535 106.835 516.535 109.037C516.535 111.24 516.036 113.186 515.037 114.876C514.064 116.541 512.719 117.821 511.004 118.718C509.313 119.614 507.418 120.062 505.318 120.062ZM505.318 114.377C506.573 114.377 507.636 113.916 508.507 112.994C509.403 112.072 509.851 110.753 509.851 109.037C509.851 107.321 509.416 106.002 508.545 105.08C507.7 104.158 506.65 103.697 505.395 103.697C504.115 103.697 503.052 104.158 502.207 105.08C501.361 105.977 500.939 107.296 500.939 109.037C500.939 110.753 501.349 112.072 502.168 112.994C503.013 113.916 504.063 114.377 505.318 114.377ZM541.187 98.3193V119.755H534.618V116.835C533.952 117.783 533.043 118.551 531.89 119.14C530.764 119.704 529.509 119.985 528.126 119.985C526.487 119.985 525.04 119.627 523.785 118.91C522.53 118.167 521.557 117.104 520.865 115.721C520.174 114.338 519.828 112.712 519.828 110.843V98.3193H526.359V109.959C526.359 111.393 526.73 112.507 527.473 113.301C528.215 114.095 529.214 114.492 530.469 114.492C531.75 114.492 532.761 114.095 533.504 113.301C534.247 112.507 534.618 111.393 534.618 109.959V98.3193H541.187ZM552.474 101.892C553.243 100.714 554.203 99.7919 555.355 99.1261C556.508 98.4346 557.788 98.0889 559.197 98.0889V105.042H557.391C555.752 105.042 554.523 105.4 553.704 106.118C552.884 106.809 552.474 108.038 552.474 109.805V119.755H545.905V98.3193H552.474V101.892ZM377.356 178.062C375.256 178.062 373.361 177.614 371.671 176.718C370.006 175.821 368.687 174.541 367.714 172.876C366.766 171.212 366.293 169.265 366.293 167.037C366.293 164.835 366.779 162.901 367.752 161.236C368.726 159.546 370.057 158.253 371.748 157.357C373.438 156.46 375.333 156.012 377.433 156.012C379.533 156.012 381.428 156.46 383.118 157.357C384.809 158.253 386.14 159.546 387.113 161.236C388.087 162.901 388.573 164.835 388.573 167.037C388.573 169.24 388.074 171.186 387.075 172.876C386.102 174.541 384.757 175.821 383.042 176.718C381.351 177.614 379.456 178.062 377.356 178.062ZM377.356 172.377C378.611 172.377 379.674 171.916 380.545 170.994C381.441 170.072 381.889 168.753 381.889 167.037C381.889 165.321 381.454 164.002 380.583 163.08C379.738 162.158 378.688 161.697 377.433 161.697C376.152 161.697 375.09 162.158 374.245 163.08C373.399 163.977 372.977 165.296 372.977 167.037C372.977 168.753 373.387 170.072 374.206 170.994C375.051 171.916 376.101 172.377 377.356 172.377ZM422.829 156.319L417.028 177.755H409.767L406.387 163.849L402.891 177.755H395.669L389.83 156.319H396.399L399.434 171.647L403.045 156.319H409.998L413.647 171.57L416.644 156.319H422.829ZM438.395 156.089C440.904 156.089 442.902 156.908 444.387 158.547C445.898 160.161 446.654 162.389 446.654 165.232V177.755H440.123V166.115C440.123 164.681 439.752 163.567 439.009 162.773C438.267 161.979 437.268 161.582 436.013 161.582C434.758 161.582 433.759 161.979 433.017 162.773C432.274 163.567 431.903 164.681 431.903 166.115V177.755H425.334V156.319H431.903V159.162C432.568 158.214 433.465 157.472 434.592 156.934C435.718 156.371 436.986 156.089 438.395 156.089ZM469.462 150.788C472.305 150.788 474.789 151.351 476.915 152.478C479.041 153.605 480.68 155.193 481.832 157.241C483.01 159.264 483.599 161.608 483.599 164.271C483.599 166.909 483.01 169.252 481.832 171.301C480.68 173.35 479.028 174.938 476.876 176.065C474.751 177.191 472.28 177.755 469.462 177.755H459.359V150.788H469.462ZM469.04 172.069C471.524 172.069 473.458 171.391 474.84 170.033C476.223 168.676 476.915 166.755 476.915 164.271C476.915 161.787 476.223 159.854 474.84 158.471C473.458 157.088 471.524 156.396 469.04 156.396H465.928V172.069H469.04ZM507.476 166.691C507.476 167.306 507.438 167.946 507.361 168.612H492.495C492.597 169.944 493.02 170.968 493.762 171.685C494.531 172.377 495.465 172.723 496.566 172.723C498.206 172.723 499.345 172.031 499.985 170.648H506.977C506.618 172.057 505.965 173.324 505.018 174.451C504.096 175.578 502.931 176.462 501.522 177.102C500.113 177.742 498.538 178.062 496.797 178.062C494.697 178.062 492.827 177.614 491.188 176.718C489.549 175.821 488.269 174.541 487.347 172.876C486.425 171.212 485.964 169.265 485.964 167.037C485.964 164.809 486.412 162.863 487.309 161.198C488.23 159.533 489.511 158.253 491.15 157.357C492.789 156.46 494.671 156.012 496.797 156.012C498.871 156.012 500.715 156.447 502.329 157.318C503.942 158.189 505.197 159.431 506.093 161.044C507.015 162.658 507.476 164.54 507.476 166.691ZM500.754 164.963C500.754 163.836 500.37 162.94 499.601 162.274C498.833 161.608 497.873 161.275 496.72 161.275C495.619 161.275 494.684 161.595 493.916 162.235C493.173 162.875 492.712 163.785 492.533 164.963H500.754ZM509.636 167.037C509.636 164.809 510.084 162.863 510.98 161.198C511.902 159.533 513.17 158.253 514.783 157.357C516.422 156.46 518.292 156.012 520.392 156.012C523.081 156.012 525.322 156.716 527.114 158.125C528.933 159.533 530.124 161.518 530.687 164.079H523.696C523.106 162.44 521.967 161.621 520.277 161.621C519.073 161.621 518.113 162.094 517.395 163.042C516.678 163.964 516.32 165.296 516.32 167.037C516.32 168.779 516.678 170.123 517.395 171.071C518.113 171.993 519.073 172.454 520.277 172.454C521.967 172.454 523.106 171.634 523.696 169.995H530.687C530.124 172.505 528.933 174.477 527.114 175.911C525.296 177.345 523.055 178.062 520.392 178.062C518.292 178.062 516.422 177.614 514.783 176.718C513.17 175.821 511.902 174.541 510.98 172.876C510.084 171.212 509.636 169.265 509.636 167.037ZM547.3 177.755L540.77 168.766V177.755H534.201V149.328H540.77V165.04L547.262 156.319H555.367L546.455 167.076L555.444 177.755H547.3Z" fill="white"/>
<path d="M447.698 40.0651V33.9571H458.338V62H451.501V40.0651H447.698ZM466.558 62.3073C465.406 62.3073 464.458 61.9744 463.716 61.3085C462.999 60.6171 462.64 59.7719 462.64 58.7731C462.64 57.7488 462.999 56.8908 463.716 56.1994C464.458 55.5079 465.406 55.1622 466.558 55.1622C467.685 55.1622 468.607 55.5079 469.324 56.1994C470.067 56.8908 470.438 57.7488 470.438 58.7731C470.438 59.7719 470.067 60.6171 469.324 61.3085C468.607 61.9744 467.685 62.3073 466.558 62.3073Z" fill="#FCC000"/>
<rect x="302.549" y="3.26569" width="313.593" height="211.182" rx="29.3913" stroke="#FCC000" stroke-width="6.53139"/>
<defs>
<filter id="filter0_f_3786_98535" x="407" y="373" width="160.665" height="161.831" filterUnits="userSpaceOnUse" color-interpolation-filters="sRGB">
<feFlood flood-opacity="0" result="BackgroundImageFix"/>
<feBlend mode="normal" in="SourceGraphic" in2="BackgroundImageFix" result="shape"/>
<feGaussianBlur stdDeviation="12.5" result="effect1_foregroundBlur_3786_98535"/>
</filter>
<linearGradient id="paint0_linear_3786_98535" x1="455.309" y1="240.011" x2="375.339" y2="332.79" gradientUnits="userSpaceOnUse">
<stop stop-color="#ED713C"/>
<stop offset="1" stop-color="#FFC000"/>
</linearGradient>
<linearGradient id="paint1_linear_3786_98535" x1="496.296" y1="238.813" x2="401.43" y2="316.296" gradientUnits="userSpaceOnUse">
<stop stop-color="#ED713C"/>
<stop offset="1" stop-color="#FFC000"/>
</linearGradient>
<linearGradient id="paint2_linear_3786_98535" x1="538.264" y1="243.49" x2="431.385" y2="303.323" gradientUnits="userSpaceOnUse">
<stop stop-color="#ED713C"/>
<stop offset="1" stop-color="#FFC000"/>
</linearGradient>
<linearGradient id="paint3_linear_3786_98535" x1="470.947" y1="445.605" x2="375.563" y2="522.449" gradientUnits="userSpaceOnUse">
<stop stop-color="#ED713C"/>
<stop offset="1" stop-color="#FFC000"/>
</linearGradient>
<linearGradient id="paint4_linear_3786_98535" x1="496.131" y1="445.605" x2="400.747" y2="522.449" gradientUnits="userSpaceOnUse">
<stop stop-color="#ED713C"/>
<stop offset="1" stop-color="#FFC000"/>
</linearGradient>
<linearGradient id="paint5_linear_3786_98535" x1="521.316" y1="446.864" x2="425.932" y2="523.708" gradientUnits="userSpaceOnUse">
<stop stop-color="#ED713C"/>
<stop offset="1" stop-color="#FFC000"/>
</linearGradient>
</defs>
</svg>
