<svg width="1127" height="1127" viewBox="0 0 1127 1127" fill="none" xmlns="http://www.w3.org/2000/svg">
<g clip-path="url(#clip0_3744_98608)">
<path fill-rule="evenodd" clip-rule="evenodd" d="M825.176 261.556L826.561 281.323L830.911 333.128L778.71 337.507L767.369 338.415C870.207 431.639 894.868 579.623 834.826 699.07L840.875 774.552L905.407 769.383C1004.01 605.99 973.537 390.39 825.174 261.552L825.176 261.556ZM769.381 220.958C605.938 122.297 390.204 152.904 261.375 301.403L281.323 299.805L333.128 295.454L337.507 347.656L338.234 359.208C431.485 256.205 579.945 231.363 699.454 291.499L774.549 285.484L769.381 220.958ZM864.811 825.176L845.256 826.742L793.24 830.913L788.135 767.159C694.929 870.062 546.771 894.863 427.305 834.825L351.823 840.876L356.991 905.408C520.369 1003.97 735.993 973.52 864.822 825.168L864.811 825.176ZM285.492 351.815L220.961 356.984C122.436 520.381 152.8 736.014 301.193 864.815L299.808 845.048L295.467 793.242L359.212 788.136C256.266 694.935 231.483 546.783 291.55 427.307L285.492 351.815Z" fill="#161616"/>
<circle cx="563.695" cy="542.614" r="117.738" stroke="#ED713C" stroke-width="3.77768" stroke-linecap="round" stroke-linejoin="round" stroke-dasharray="10.07 10.07"/>
<path d="M494.662 399.917L533.743 371.213L582.708 384.392L597.723 469.545L556.266 498.943L508.921 480.785L494.662 399.917Z" fill="#1B1D21" stroke="url(#paint0_linear_3744_98608)" stroke-width="3.77768" stroke-linecap="round" stroke-linejoin="round"/>
<path d="M522.866 391.013L566.338 369.532L612.271 391.013L612.271 477.48L566.338 499.232L522.866 473.129L522.866 391.013Z" fill="#1B1D21" stroke="url(#paint1_linear_3744_98608)" stroke-width="3.77768" stroke-linecap="round" stroke-linejoin="round"/>
<path d="M553.584 385.882L600.126 372.277L641.631 401.407L626.616 486.56L577.604 500.007L539.325 466.751L553.584 385.882Z" fill="#1B1D21" stroke="url(#paint2_linear_3744_98608)" stroke-width="3.77768" stroke-linecap="round" stroke-linejoin="round"/>
<path d="M497.054 597.465L540.669 576.276L586.457 598.065L585.876 684.53L539.798 705.974L496.502 679.579L497.054 597.465Z" fill="#1B1D21" stroke="url(#paint3_linear_3744_98608)" stroke-width="3.77768" stroke-linecap="round" stroke-linejoin="round"/>
<path d="M542.136 594.033L543.87 597.732L547.859 598.368L544.911 601.2L545.547 605.187L541.963 603.222L538.321 605.072L539.073 601.084L536.24 598.194L540.287 597.674L542.136 594.033Z" fill="#CECECE"/>
<path d="M551.154 598.079L552.31 600.448L554.911 600.911L552.946 602.702L553.35 605.361L551.038 604.089L548.668 605.245L549.131 602.644L547.281 600.737L549.94 600.39L551.154 598.079Z" fill="#CECECE"/>
<path d="M533.236 597.732L534.392 600.101L536.993 600.563L535.028 602.355L535.432 605.013L533.12 603.742L530.75 604.898L531.27 602.297L529.363 600.39L532.022 600.043L533.236 597.732Z" fill="#CECECE"/>
<path d="M541.083 670.357C525.129 670.068 512.412 656.833 512.701 640.883C512.99 624.932 526.227 612.218 542.182 612.507C558.136 612.796 570.853 626.03 570.564 641.981C570.275 657.989 557.037 670.703 541.083 670.357Z" fill="#CECECE"/>
<path d="M547.261 645.217C547.897 645.449 548.475 645.622 549.111 645.853C549.574 646.026 549.978 646.258 550.325 646.604C551.019 647.298 551.77 647.76 552.753 648.049C553.678 648.28 554.314 649.032 554.776 649.841C555.007 650.245 555.354 650.476 555.816 650.592C556.799 650.823 557.724 651.17 558.649 651.401C561.366 652.095 562.926 653.944 563.62 656.545C563.794 657.238 563.909 657.989 564.083 658.683C564.198 659.03 563.967 659.261 563.794 659.492C562.002 661.399 559.921 663.133 557.666 664.52C554.487 666.543 551.019 667.872 547.319 668.565C546.336 668.739 545.354 668.912 544.371 668.854C542.984 668.797 541.539 668.797 540.151 668.854C536.741 669.028 533.504 668.161 530.382 666.947C526.452 665.387 523.041 663.133 520.093 660.128C519.746 659.781 519.689 659.55 519.804 659.03C520.035 657.932 520.209 656.776 520.613 655.736C521.365 653.597 522.81 652.095 525.064 651.459C525.989 651.17 526.972 650.881 527.897 650.65C528.475 650.476 528.937 650.245 529.226 649.667C529.689 648.743 530.498 648.165 531.538 647.876C532.059 647.76 532.579 647.529 532.926 647.125C533.966 645.969 535.296 645.564 536.683 645.16C536.741 646.2 536.625 647.182 536.221 648.107C535.989 648.165 535.816 648.28 535.585 648.338C535.238 648.396 535.122 648.512 535.354 648.916C535.932 650.072 536.914 650.823 537.897 651.575C538.128 651.748 538.359 651.748 538.648 651.748C540.903 651.748 543.099 651.748 545.354 651.748C545.643 651.748 545.99 651.69 546.221 651.517C546.972 650.939 547.724 650.361 548.302 649.552C549.053 648.512 548.996 648.512 547.839 648.107C547.319 647.24 547.204 646.258 547.261 645.217ZM536.857 658.914C536.857 658.51 536.857 658.105 536.857 657.701C536.857 655.736 536.799 653.771 536.799 651.806C536.799 651.517 536.683 651.343 536.394 651.401C536.221 651.401 535.932 651.343 535.989 651.69C536.105 652.384 535.874 653.077 535.874 653.828C535.874 657.874 535.874 661.919 535.874 665.965C535.874 666.369 535.932 666.543 536.394 666.543C536.914 666.543 536.857 666.254 536.857 665.907C536.857 663.538 536.857 661.226 536.857 658.914ZM547.319 666.543C547.724 666.658 547.839 666.427 547.839 666.023C547.839 663.191 547.839 660.359 547.839 657.469C547.839 655.504 547.782 653.597 547.782 651.632C547.782 651.343 547.608 651.17 547.319 651.17C547.03 651.17 546.915 651.286 546.915 651.575C546.915 651.863 546.915 652.152 546.915 652.499C546.915 657.007 546.915 661.515 546.915 666.023C546.857 666.427 546.915 666.601 547.319 666.543Z" fill="#161616"/>
<path d="M547.263 645.217C547.205 646.258 547.321 647.24 547.725 648.165C544.662 651.054 539.228 651.112 536.107 648.165C536.511 647.182 536.627 646.2 536.569 645.217C536.569 644.871 536.569 644.582 536.627 644.235C536.685 643.888 536.511 643.599 536.28 643.31C535.413 642.501 534.546 641.692 534.141 640.536C533.852 639.785 533.679 639.091 533.563 638.282C533.505 637.936 533.39 637.82 533.043 637.647C531.713 636.953 531.251 635.739 531.077 634.352C530.962 633.312 531.193 632.33 532.06 631.636C532.465 631.636 532.638 631.81 532.696 632.214C532.754 632.619 532.812 633.081 532.869 633.486C532.927 633.659 532.869 633.948 533.158 633.948C533.505 633.948 533.332 633.659 533.332 633.486C533.332 631.694 533.39 629.845 533.563 628.053C533.737 626.724 533.91 625.395 534.43 624.123C534.604 623.719 534.835 623.603 535.182 623.892C535.76 624.297 536.453 624.643 537.089 624.932C539.864 626.146 542.754 626.666 545.76 625.857C547.032 625.51 548.246 625.106 549.459 624.701C550.326 624.412 550.384 624.47 550.616 625.337C550.789 626.204 550.905 627.128 550.905 627.995C550.905 629.845 550.905 631.694 550.673 633.543C550.673 633.659 550.558 633.89 550.789 633.948C551.02 634.006 551.02 633.775 551.02 633.601C551.078 633.197 551.194 632.792 551.194 632.388C551.194 631.867 551.425 631.636 551.945 631.578C552.581 632.214 552.985 632.965 552.928 633.948C552.87 634.988 552.581 635.971 551.945 636.838C551.656 637.184 551.309 637.531 550.905 637.647C550.558 637.762 550.5 637.936 550.442 638.225C550.269 638.976 550.153 639.727 549.864 640.421C549.459 641.403 548.824 642.27 547.956 642.906C547.436 643.368 547.205 643.888 547.321 644.524C547.205 644.871 547.205 645.044 547.263 645.217Z" fill="white"/>
<path d="M541.888 650.65C539.691 650.65 537.495 649.899 535.876 648.396L535.761 648.28L535.818 648.107C536.165 647.182 536.339 646.258 536.281 645.275L536.281 644.929C536.281 644.697 536.281 644.466 536.339 644.235C536.339 643.946 536.281 643.773 536.05 643.599C535.24 642.848 534.315 641.981 533.795 640.71C533.506 639.958 533.333 639.207 533.159 638.456C533.102 638.225 533.044 638.109 532.812 637.993C531.252 637.184 530.847 635.682 530.674 634.468C530.5 633.197 530.847 632.214 531.714 631.463L531.772 631.405L531.888 631.405C532.292 631.405 532.755 631.579 532.812 632.272C532.812 632.503 532.87 632.792 532.928 633.023C532.928 631.232 533.044 629.671 533.159 628.111C533.275 626.897 533.506 625.453 534.026 624.123C534.084 624.008 534.2 623.661 534.547 623.545C534.778 623.488 535.009 623.545 535.24 623.719C535.818 624.123 536.454 624.412 537.148 624.701C540.269 626.03 542.986 626.319 545.587 625.626C546.339 625.395 547.09 625.164 547.842 624.932C548.304 624.759 548.824 624.643 549.287 624.47C549.749 624.297 550.096 624.239 550.327 624.412C550.616 624.586 550.674 624.875 550.79 625.337C550.963 626.146 551.079 627.071 551.079 628.053C551.079 629.44 551.079 630.654 551.021 631.752C551.194 631.463 551.541 631.405 551.83 631.347L551.946 631.347L552.061 631.463C552.813 632.214 553.16 633.081 553.16 634.064C553.102 635.219 552.755 636.26 552.119 637.127C551.772 637.589 551.368 637.878 550.963 638.051C550.79 638.109 550.732 638.167 550.674 638.456C550.559 639.207 550.385 639.958 550.038 640.71C549.634 641.692 548.998 642.559 548.073 643.31C547.611 643.715 547.437 644.119 547.495 644.697C547.495 644.813 547.495 644.986 547.495 645.102L547.495 645.275C547.437 646.373 547.611 647.298 547.957 648.107L548.015 648.28L547.9 648.396C546.281 649.899 544.084 650.65 541.888 650.65ZM536.454 648.107C539.402 650.766 544.431 650.766 547.379 648.107C547.09 647.298 546.917 646.373 546.975 645.217L546.975 645.044C546.975 644.929 546.975 644.813 546.975 644.697C546.859 643.946 547.09 643.31 547.726 642.79C548.593 642.097 549.171 641.288 549.518 640.421C549.807 639.727 549.981 638.976 550.096 638.225C550.154 637.878 550.27 637.589 550.79 637.416C551.137 637.3 551.426 637.069 551.715 636.722C552.293 635.971 552.582 635.046 552.64 634.006C552.697 633.255 552.408 632.561 551.83 631.983C551.599 632.041 551.483 632.156 551.483 632.503C551.483 632.792 551.426 633.081 551.368 633.37C551.368 633.486 551.31 633.601 551.31 633.717L551.31 633.775C551.31 633.89 551.31 634.064 551.137 634.237C551.079 634.295 550.963 634.353 550.79 634.295C550.616 634.295 550.501 634.179 550.443 634.121C550.327 633.948 550.385 633.775 550.385 633.659L550.385 633.601C550.559 632.041 550.616 630.307 550.616 628.111C550.616 627.129 550.501 626.319 550.327 625.51C550.327 625.395 550.212 624.99 550.154 624.932C550.096 624.875 549.691 624.99 549.576 625.048C549.113 625.221 548.593 625.337 548.131 625.51C547.379 625.742 546.628 625.973 545.876 626.204C543.102 626.955 540.269 626.666 537.032 625.279C536.339 624.99 535.645 624.643 535.067 624.239C534.951 624.123 534.893 624.123 534.893 624.123C534.893 624.123 534.836 624.123 534.778 624.355C534.258 625.626 534.084 627.013 533.911 628.169C533.737 629.845 533.622 631.579 533.68 633.543L533.68 633.601C533.68 633.717 533.737 633.948 533.622 634.121C533.506 634.237 533.391 634.295 533.217 634.295C532.755 634.295 532.697 633.832 532.639 633.717C532.639 633.659 532.639 633.659 532.639 633.601C532.581 633.197 532.466 632.734 532.408 632.33C532.408 632.099 532.35 631.983 532.177 631.983C531.541 632.561 531.252 633.37 531.425 634.353C531.656 635.971 532.177 636.895 533.217 637.416C533.622 637.589 533.795 637.878 533.911 638.282C534.084 639.034 534.2 639.785 534.489 640.479C534.951 641.577 535.818 642.386 536.57 643.137C536.917 643.484 537.09 643.83 537.032 644.293C537.032 644.524 537.032 644.755 536.974 644.929L536.974 645.217C536.917 646.142 536.801 647.125 536.454 648.107Z" fill="#161616"/>
<path d="M536.858 658.914C536.858 661.226 536.858 663.538 536.858 665.849C536.858 666.196 536.915 666.485 536.395 666.485C535.933 666.485 535.875 666.254 535.875 665.907C535.875 661.862 535.875 657.816 535.875 653.771C535.875 653.077 536.106 652.384 535.991 651.632C535.933 651.286 536.164 651.344 536.395 651.344C536.742 651.286 536.8 651.459 536.8 651.748C536.8 653.713 536.8 655.678 536.858 657.643C536.858 658.105 536.858 658.51 536.858 658.914Z" fill="#F0F0F0"/>
<path d="M547.321 666.543C546.917 666.659 546.859 666.428 546.859 666.081C546.859 661.573 546.859 657.065 546.859 652.557C546.859 652.269 546.859 651.98 546.859 651.633C546.859 651.344 546.974 651.228 547.264 651.228C547.553 651.228 547.726 651.402 547.726 651.691C547.784 653.656 547.784 655.563 547.784 657.528C547.784 660.359 547.784 663.191 547.784 666.081C547.842 666.428 547.726 666.659 547.321 666.543Z" fill="#F0F0F0"/>
<path d="M542.236 647.356C548.94 647.356 554.375 641.923 554.375 635.22C554.375 628.517 548.94 623.083 542.236 623.083C535.531 623.083 530.097 628.517 530.097 635.22C530.097 641.923 535.531 647.356 542.236 647.356Z" fill="white"/>
<path d="M542.236 647.703C535.357 647.703 529.808 642.097 529.808 635.278C529.808 628.458 535.415 622.852 542.236 622.852C549.057 622.852 554.664 628.458 554.664 635.278C554.664 642.097 549.114 647.703 542.236 647.703ZM542.236 623.372C535.704 623.372 530.386 628.689 530.386 635.22C530.386 641.75 535.704 647.067 542.236 647.067C548.768 647.067 554.086 641.75 554.086 635.22C554.086 628.689 548.825 623.372 542.236 623.372Z" fill="#161616"/>
<path d="M554.375 638.514C553.739 638.572 553.507 638.861 553.45 639.438C553.45 639.901 553.334 640.363 553.218 640.825C553.161 640.999 553.218 641.288 552.929 641.23C552.64 641.172 552.756 640.941 552.814 640.768C553.045 638.629 553.103 636.433 553.103 634.295C553.103 633.255 552.987 632.214 552.756 631.174C552.525 630.134 552.409 630.076 551.369 630.423C549.866 630.885 548.363 631.348 546.86 631.752C543.16 632.735 539.692 632.099 536.339 630.712C535.53 630.365 534.721 630.018 533.969 629.498C533.507 629.209 533.218 629.325 533.045 629.787C532.409 631.232 532.178 632.792 532.004 634.353C531.773 636.433 531.657 638.572 531.715 640.71C531.715 640.883 531.889 641.23 531.484 641.288C531.137 641.288 531.195 640.941 531.137 640.768C531.021 640.305 530.906 639.785 530.906 639.265C530.848 638.803 530.617 638.572 530.154 638.572C529.865 636.433 529.576 634.295 529.923 632.099C530.154 630.596 530.386 629.094 531.657 628.053C532.293 627.533 532.64 626.955 532.813 626.262C533.796 622.679 536.513 621.118 540.039 620.367C543.449 619.674 546.224 620.598 548.825 622.563C549.75 623.257 550.791 623.95 551.889 624.47C553.103 624.99 554.317 625.106 555.531 624.586C555.993 624.412 556.051 624.528 556.167 624.933C556.456 626.204 555.704 627.938 554.317 628.805C554.028 628.978 553.912 629.209 554.028 629.498C554.895 632.157 554.721 634.931 554.49 637.647C554.375 637.936 554.432 638.225 554.375 638.514Z" fill="#161616"/>
<path d="M522.238 597.465L565.854 576.276L611.641 598.065L611.06 684.53L564.983 705.974L521.687 679.579L522.238 597.465Z" fill="#1B1D21" stroke="url(#paint4_linear_3744_98608)" stroke-width="3.77768" stroke-linecap="round" stroke-linejoin="round"/>
<path d="M567.321 594.033L569.055 597.732L573.044 598.368L570.096 601.2L570.731 605.187L567.147 603.222L563.506 605.072L564.257 601.084L561.425 598.194L565.471 597.674L567.321 594.033Z" fill="#CECECE"/>
<path d="M576.338 598.079L577.494 600.448L580.096 600.911L578.13 602.702L578.535 605.361L576.223 604.089L573.853 605.245L574.315 602.644L572.465 600.737L575.124 600.39L576.338 598.079Z" fill="#CECECE"/>
<path d="M558.42 597.732L559.576 600.101L562.178 600.563L560.212 602.355L560.617 605.013L558.305 603.742L555.935 604.898L556.455 602.297L554.547 600.39L557.206 600.043L558.42 597.732Z" fill="#CECECE"/>
<path d="M566.268 670.357C550.314 670.068 537.597 656.833 537.886 640.883C538.175 624.932 551.412 612.218 567.366 612.507C583.32 612.796 596.037 626.03 595.748 641.981C595.459 657.989 582.222 670.703 566.268 670.357Z" fill="#CECECE"/>
<path d="M572.446 645.217C573.082 645.449 573.66 645.622 574.296 645.853C574.758 646.026 575.163 646.258 575.51 646.604C576.203 647.298 576.955 647.76 577.937 648.049C578.862 648.28 579.498 649.032 579.961 649.841C580.192 650.245 580.539 650.476 581.001 650.592C581.984 650.823 582.909 651.17 583.833 651.401C586.55 652.095 588.111 653.944 588.805 656.545C588.978 657.238 589.094 657.989 589.267 658.683C589.383 659.03 589.152 659.261 588.978 659.492C587.186 661.399 585.105 663.133 582.851 664.52C579.672 666.543 576.203 667.872 572.504 668.565C571.521 668.739 570.538 668.912 569.556 668.854C568.168 668.797 566.723 668.797 565.336 668.854C561.925 669.028 558.688 668.161 555.567 666.947C551.636 665.387 548.226 663.133 545.278 660.128C544.931 659.781 544.873 659.55 544.989 659.03C545.22 657.932 545.393 656.776 545.798 655.736C546.549 653.597 547.995 652.095 550.249 651.459C551.174 651.17 552.156 650.881 553.081 650.65C553.659 650.476 554.122 650.245 554.411 649.667C554.873 648.743 555.683 648.165 556.723 647.876C557.243 647.76 557.764 647.529 558.11 647.125C559.151 645.969 560.48 645.564 561.868 645.16C561.925 646.2 561.81 647.182 561.405 648.107C561.174 648.165 561.001 648.28 560.769 648.338C560.423 648.396 560.307 648.512 560.538 648.916C561.116 650.072 562.099 650.823 563.082 651.575C563.313 651.748 563.544 651.748 563.833 651.748C566.087 651.748 568.284 651.748 570.538 651.748C570.827 651.748 571.174 651.69 571.405 651.517C572.157 650.939 572.908 650.361 573.486 649.552C574.238 648.512 574.18 648.512 573.024 648.107C572.504 647.24 572.388 646.258 572.446 645.217ZM562.041 658.914C562.041 658.51 562.041 658.105 562.041 657.701C562.041 655.736 561.983 653.771 561.983 651.806C561.983 651.517 561.868 651.343 561.579 651.401C561.405 651.401 561.116 651.343 561.174 651.69C561.29 652.384 561.058 653.077 561.058 653.828C561.058 657.874 561.058 661.919 561.058 665.965C561.058 666.369 561.116 666.543 561.579 666.543C562.099 666.543 562.041 666.254 562.041 665.907C562.041 663.538 562.041 661.226 562.041 658.914ZM572.504 666.543C572.908 666.658 573.024 666.427 573.024 666.023C573.024 663.191 573.024 660.359 573.024 657.469C573.024 655.504 572.966 653.597 572.966 651.632C572.966 651.343 572.793 651.17 572.504 651.17C572.215 651.17 572.099 651.286 572.099 651.575C572.099 651.863 572.099 652.152 572.099 652.499C572.099 657.007 572.099 661.515 572.099 666.023C572.041 666.427 572.099 666.601 572.504 666.543Z" fill="#161616"/>
<path d="M572.447 645.217C572.39 646.258 572.505 647.24 572.91 648.165C569.846 651.054 564.413 651.112 561.291 648.165C561.696 647.182 561.811 646.2 561.754 645.217C561.754 644.871 561.754 644.582 561.811 644.235C561.869 643.888 561.696 643.599 561.464 643.31C560.597 642.501 559.73 641.692 559.326 640.536C559.037 639.785 558.863 639.091 558.748 638.282C558.69 637.936 558.574 637.82 558.227 637.647C556.898 636.953 556.435 635.739 556.262 634.352C556.146 633.312 556.378 632.33 557.245 631.636C557.649 631.636 557.823 631.81 557.881 632.214C557.938 632.619 557.996 633.081 558.054 633.486C558.112 633.659 558.054 633.948 558.343 633.948C558.69 633.948 558.516 633.659 558.516 633.486C558.516 631.694 558.574 629.845 558.748 628.053C558.921 626.724 559.094 625.395 559.615 624.123C559.788 623.719 560.019 623.603 560.366 623.892C560.944 624.297 561.638 624.643 562.274 624.932C565.048 626.146 567.939 626.666 570.944 625.857C572.216 625.51 573.43 625.106 574.644 624.701C575.511 624.412 575.569 624.47 575.8 625.337C575.973 626.204 576.089 627.128 576.089 627.995C576.089 629.845 576.089 631.694 575.858 633.543C575.858 633.659 575.742 633.89 575.973 633.948C576.205 634.006 576.205 633.775 576.205 633.601C576.263 633.197 576.378 632.792 576.378 632.388C576.378 631.867 576.609 631.636 577.13 631.578C577.765 632.214 578.17 632.965 578.112 633.948C578.054 634.988 577.765 635.971 577.13 636.838C576.841 637.184 576.494 637.531 576.089 637.647C575.742 637.762 575.684 637.936 575.627 638.225C575.453 638.976 575.338 639.727 575.049 640.421C574.644 641.403 574.008 642.27 573.141 642.906C572.621 643.368 572.39 643.888 572.505 644.524C572.39 644.871 572.39 645.044 572.447 645.217Z" fill="white"/>
<path d="M567.072 650.65C564.876 650.65 562.679 649.899 561.061 648.396L560.945 648.28L561.003 648.107C561.35 647.182 561.523 646.258 561.465 645.275L561.465 644.929C561.465 644.697 561.465 644.466 561.523 644.235C561.523 643.946 561.465 643.773 561.234 643.599C560.425 642.848 559.5 641.981 558.98 640.71C558.691 639.958 558.517 639.207 558.344 638.456C558.286 638.225 558.228 638.109 557.997 637.993C556.436 637.184 556.032 635.682 555.858 634.468C555.685 633.197 556.032 632.214 556.899 631.463L556.957 631.405L557.072 631.405C557.477 631.405 557.939 631.579 557.997 632.272C557.997 632.503 558.055 632.792 558.113 633.023C558.113 631.232 558.228 629.671 558.344 628.111C558.46 626.897 558.691 625.453 559.211 624.123C559.269 624.008 559.384 623.661 559.731 623.545C559.962 623.488 560.194 623.545 560.425 623.719C561.003 624.123 561.639 624.412 562.332 624.701C565.454 626.03 568.171 626.319 570.772 625.626C571.523 625.395 572.275 625.164 573.026 624.932C573.489 624.759 574.009 624.643 574.471 624.47C574.934 624.297 575.281 624.239 575.512 624.412C575.801 624.586 575.859 624.875 575.974 625.337C576.148 626.146 576.263 627.071 576.263 628.053C576.263 629.44 576.263 630.654 576.206 631.752C576.379 631.463 576.726 631.405 577.015 631.347L577.13 631.347L577.246 631.463C577.998 632.214 578.344 633.081 578.344 634.064C578.287 635.219 577.94 636.26 577.304 637.127C576.957 637.589 576.552 637.878 576.148 638.051C575.974 638.109 575.917 638.167 575.859 638.456C575.743 639.207 575.57 639.958 575.223 640.71C574.818 641.692 574.182 642.559 573.258 643.31C572.795 643.715 572.622 644.119 572.679 644.697C572.679 644.813 572.679 644.986 572.679 645.102L572.679 645.275C572.622 646.373 572.795 647.298 573.142 648.107L573.2 648.28L573.084 648.396C571.466 649.899 569.269 650.65 567.072 650.65ZM561.639 648.107C564.587 650.766 569.616 650.766 572.564 648.107C572.275 647.298 572.101 646.373 572.159 645.217L572.159 645.044C572.159 644.929 572.159 644.813 572.159 644.697C572.044 643.946 572.275 643.31 572.911 642.79C573.778 642.097 574.356 641.288 574.703 640.421C574.992 639.727 575.165 638.976 575.281 638.225C575.338 637.878 575.454 637.589 575.974 637.416C576.321 637.3 576.61 637.069 576.899 636.722C577.477 635.971 577.766 635.046 577.824 634.006C577.882 633.255 577.593 632.561 577.015 631.983C576.784 632.041 576.668 632.156 576.668 632.503C576.668 632.792 576.61 633.081 576.552 633.37C576.552 633.486 576.495 633.601 576.495 633.717L576.495 633.775C576.495 633.89 576.495 634.064 576.321 634.237C576.263 634.295 576.148 634.353 575.974 634.295C575.801 634.295 575.685 634.179 575.628 634.121C575.512 633.948 575.57 633.775 575.57 633.659L575.57 633.601C575.743 632.041 575.801 630.307 575.801 628.111C575.801 627.129 575.685 626.319 575.512 625.51C575.512 625.395 575.396 624.99 575.338 624.932C575.281 624.875 574.876 624.99 574.76 625.048C574.298 625.221 573.778 625.337 573.315 625.51C572.564 625.742 571.812 625.973 571.061 626.204C568.286 626.955 565.454 626.666 562.217 625.279C561.523 624.99 560.829 624.643 560.251 624.239C560.136 624.123 560.078 624.123 560.078 624.123C560.078 624.123 560.02 624.123 559.962 624.355C559.442 625.626 559.269 627.013 559.095 628.169C558.922 629.845 558.806 631.579 558.864 633.543L558.864 633.601C558.864 633.717 558.922 633.948 558.806 634.121C558.691 634.237 558.575 634.295 558.402 634.295C557.939 634.295 557.881 633.832 557.824 633.717C557.824 633.659 557.824 633.659 557.824 633.601C557.766 633.197 557.65 632.734 557.592 632.33C557.592 632.099 557.535 631.983 557.361 631.983C556.725 632.561 556.436 633.37 556.61 634.353C556.841 635.971 557.361 636.895 558.402 637.416C558.806 637.589 558.98 637.878 559.095 638.282C559.269 639.034 559.384 639.785 559.673 640.479C560.136 641.577 561.003 642.386 561.754 643.137C562.101 643.484 562.275 643.83 562.217 644.293C562.217 644.524 562.217 644.755 562.159 644.929L562.159 645.217C562.101 646.142 561.986 647.125 561.639 648.107Z" fill="#161616"/>
<path d="M562.042 658.914C562.042 661.226 562.042 663.538 562.042 665.849C562.042 666.196 562.1 666.485 561.58 666.485C561.117 666.485 561.06 666.254 561.06 665.907C561.06 661.862 561.06 657.816 561.06 653.771C561.06 653.077 561.291 652.384 561.175 651.632C561.117 651.286 561.349 651.344 561.58 651.344C561.927 651.286 561.984 651.459 561.984 651.748C561.984 653.713 561.984 655.678 562.042 657.643C562.042 658.105 562.042 658.51 562.042 658.914Z" fill="#F0F0F0"/>
<path d="M572.506 666.543C572.101 666.659 572.043 666.428 572.043 666.081C572.043 661.573 572.043 657.065 572.043 652.557C572.043 652.269 572.043 651.98 572.043 651.633C572.043 651.344 572.159 651.228 572.448 651.228C572.737 651.228 572.911 651.402 572.911 651.691C572.968 653.656 572.968 655.563 572.968 657.528C572.968 660.359 572.968 663.191 572.968 666.081C573.026 666.428 572.911 666.659 572.506 666.543Z" fill="#F0F0F0"/>
<path d="M567.42 647.356C574.124 647.356 579.559 641.923 579.559 635.22C579.559 628.517 574.124 623.083 567.42 623.083C560.716 623.083 555.281 628.517 555.281 635.22C555.281 641.923 560.716 647.356 567.42 647.356Z" fill="white"/>
<path d="M567.42 647.703C560.541 647.703 554.992 642.097 554.992 635.278C554.992 628.458 560.599 622.852 567.42 622.852C574.241 622.852 579.848 628.458 579.848 635.278C579.848 642.097 574.299 647.703 567.42 647.703ZM567.42 623.372C560.888 623.372 555.57 628.689 555.57 635.22C555.57 641.75 560.888 647.067 567.42 647.067C573.952 647.067 579.27 641.75 579.27 635.22C579.27 628.689 574.01 623.372 567.42 623.372Z" fill="#161616"/>
<path d="M579.559 638.514C578.923 638.572 578.692 638.86 578.634 639.438C578.634 639.901 578.519 640.363 578.403 640.825C578.345 640.999 578.403 641.288 578.114 641.23C577.825 641.172 577.941 640.941 577.998 640.768C578.23 638.629 578.287 636.433 578.287 634.295C578.287 633.255 578.172 632.214 577.941 631.174C577.709 630.134 577.594 630.076 576.553 630.423C575.05 630.885 573.547 631.347 572.045 631.752C568.345 632.734 564.877 632.099 561.524 630.712C560.715 630.365 559.906 630.018 559.154 629.498C558.692 629.209 558.403 629.325 558.229 629.787C557.593 631.232 557.362 632.792 557.189 634.353C556.957 636.433 556.842 638.572 556.9 640.71C556.9 640.883 557.073 641.23 556.668 641.288C556.322 641.288 556.379 640.941 556.322 640.768C556.206 640.305 556.09 639.785 556.09 639.265C556.033 638.803 555.801 638.571 555.339 638.571C555.05 636.433 554.761 634.295 555.108 632.099C555.339 630.596 555.57 629.094 556.842 628.053C557.478 627.533 557.825 626.955 557.998 626.262C558.981 622.679 561.697 621.118 565.224 620.367C568.634 619.673 571.409 620.598 574.01 622.563C574.935 623.257 575.975 623.95 577.074 624.47C578.287 624.99 579.501 625.106 580.715 624.586C581.178 624.412 581.235 624.528 581.351 624.933C581.64 626.204 580.889 627.938 579.501 628.805C579.212 628.978 579.097 629.209 579.212 629.498C580.079 632.157 579.906 634.931 579.675 637.647C579.559 637.936 579.617 638.225 579.559 638.514Z" fill="#161616"/>
<path d="M547.423 598.724L591.038 577.535L636.826 599.324L636.245 685.789L590.167 707.233L546.871 680.838L547.423 598.724Z" fill="#1B1D21" stroke="url(#paint5_linear_3744_98608)" stroke-width="3.77768" stroke-linecap="round" stroke-linejoin="round"/>
<path d="M592.506 595.293L594.24 598.991L598.229 599.627L595.281 602.459L595.916 606.447L592.333 604.482L588.691 606.331L589.442 602.343L586.61 599.454L590.656 598.934L592.506 595.293Z" fill="#CECECE"/>
<path d="M601.523 599.338L602.679 601.708L605.281 602.17L603.315 603.961L603.72 606.62L601.408 605.348L599.038 606.504L599.5 603.904L597.65 601.997L600.309 601.65L601.523 599.338Z" fill="#CECECE"/>
<path d="M583.605 598.991L584.761 601.36L587.362 601.823L585.397 603.614L585.801 606.273L583.489 605.001L581.119 606.157L581.639 603.557L579.732 601.649L582.391 601.303L583.605 598.991Z" fill="#CECECE"/>
<path d="M591.452 671.616C575.498 671.327 562.781 658.092 563.07 642.142C563.359 626.191 576.597 613.477 592.551 613.766C608.505 614.055 621.222 627.289 620.933 643.24C620.644 659.248 607.407 671.962 591.452 671.616Z" fill="#CECECE"/>
<path d="M597.631 646.477C598.266 646.708 598.844 646.881 599.48 647.112C599.943 647.286 600.347 647.517 600.694 647.864C601.388 648.557 602.139 649.019 603.122 649.308C604.047 649.54 604.683 650.291 605.145 651.1C605.376 651.504 605.723 651.736 606.186 651.851C607.168 652.082 608.093 652.429 609.018 652.66C611.735 653.354 613.296 655.203 613.989 657.804C614.163 658.497 614.278 659.249 614.452 659.942C614.567 660.289 614.336 660.52 614.163 660.751C612.371 662.658 610.29 664.392 608.035 665.779C604.856 667.802 601.388 669.131 597.688 669.825C596.706 669.998 595.723 670.171 594.74 670.114C593.353 670.056 591.908 670.056 590.521 670.114C587.11 670.287 583.873 669.42 580.752 668.206C576.821 666.646 573.41 664.392 570.462 661.387C570.115 661.04 570.058 660.809 570.173 660.289C570.404 659.191 570.578 658.035 570.983 656.995C571.734 654.856 573.179 653.354 575.433 652.718C576.358 652.429 577.341 652.14 578.266 651.909C578.844 651.736 579.306 651.504 579.595 650.927C580.058 650.002 580.867 649.424 581.908 649.135C582.428 649.019 582.948 648.788 583.295 648.384C584.335 647.228 585.665 646.823 587.052 646.419C587.11 647.459 586.994 648.441 586.59 649.366C586.359 649.424 586.185 649.54 585.954 649.597C585.607 649.655 585.492 649.771 585.723 650.175C586.301 651.331 587.283 652.082 588.266 652.834C588.497 653.007 588.729 653.007 589.018 653.007C591.272 653.007 593.469 653.007 595.723 653.007C596.012 653.007 596.359 652.949 596.59 652.776C597.341 652.198 598.093 651.62 598.671 650.811C599.422 649.771 599.365 649.771 598.209 649.366C597.688 648.499 597.573 647.517 597.631 646.477ZM587.226 660.173C587.226 659.769 587.226 659.364 587.226 658.96C587.226 656.995 587.168 655.03 587.168 653.065C587.168 652.776 587.052 652.603 586.763 652.66C586.59 652.66 586.301 652.603 586.359 652.949C586.474 653.643 586.243 654.336 586.243 655.088C586.243 659.133 586.243 663.178 586.243 667.224C586.243 667.628 586.301 667.802 586.763 667.802C587.283 667.802 587.226 667.513 587.226 667.166C587.226 664.797 587.226 662.485 587.226 660.173ZM597.688 667.802C598.093 667.917 598.209 667.686 598.209 667.282C598.209 664.45 598.209 661.618 598.209 658.728C598.209 656.764 598.151 654.856 598.151 652.891C598.151 652.603 597.977 652.429 597.688 652.429C597.399 652.429 597.284 652.545 597.284 652.834C597.284 653.123 597.284 653.412 597.284 653.758C597.284 658.266 597.284 662.774 597.284 667.282C597.226 667.686 597.284 667.86 597.688 667.802Z" fill="#161616"/>
<path d="M597.632 646.476C597.574 647.517 597.69 648.499 598.094 649.424C595.031 652.313 589.597 652.371 586.476 649.424C586.88 648.441 586.996 647.459 586.938 646.476C586.938 646.13 586.938 645.841 586.996 645.494C587.054 645.147 586.88 644.858 586.649 644.569C585.782 643.76 584.915 642.951 584.51 641.795C584.221 641.044 584.048 640.35 583.932 639.541C583.874 639.195 583.759 639.079 583.412 638.906C582.082 638.212 581.62 636.999 581.447 635.612C581.331 634.571 581.562 633.589 582.429 632.895C582.834 632.895 583.007 633.069 583.065 633.473C583.123 633.878 583.181 634.34 583.239 634.745C583.296 634.918 583.239 635.207 583.528 635.207C583.874 635.207 583.701 634.918 583.701 634.745C583.701 632.953 583.759 631.104 583.932 629.312C584.106 627.983 584.279 626.654 584.799 625.382C584.973 624.978 585.204 624.862 585.551 625.151C586.129 625.556 586.822 625.902 587.458 626.191C590.233 627.405 593.123 627.925 596.129 627.116C597.401 626.769 598.615 626.365 599.829 625.96C600.696 625.671 600.753 625.729 600.985 626.596C601.158 627.463 601.274 628.387 601.274 629.254C601.274 631.104 601.274 632.953 601.042 634.802C601.042 634.918 600.927 635.149 601.158 635.207C601.389 635.265 601.389 635.034 601.389 634.86C601.447 634.456 601.563 634.051 601.563 633.647C601.563 633.126 601.794 632.895 602.314 632.837C602.95 633.473 603.355 634.224 603.297 635.207C603.239 636.247 602.95 637.23 602.314 638.097C602.025 638.443 601.678 638.79 601.274 638.906C600.927 639.021 600.869 639.195 600.811 639.484C600.638 640.235 600.522 640.986 600.233 641.68C599.829 642.662 599.193 643.529 598.326 644.165C597.805 644.627 597.574 645.147 597.69 645.783C597.574 646.13 597.574 646.303 597.632 646.476Z" fill="white"/>
<path d="M592.257 651.909C590.06 651.909 587.864 651.158 586.245 649.655L586.13 649.54L586.187 649.366C586.534 648.442 586.708 647.517 586.65 646.534L586.65 646.188C586.65 645.956 586.65 645.725 586.708 645.494C586.708 645.205 586.65 645.032 586.419 644.858C585.609 644.107 584.685 643.24 584.164 641.969C583.875 641.217 583.702 640.466 583.528 639.715C583.471 639.484 583.413 639.368 583.182 639.253C581.621 638.443 581.216 636.941 581.043 635.727C580.869 634.456 581.216 633.473 582.083 632.722L582.141 632.664L582.257 632.664C582.661 632.664 583.124 632.838 583.182 633.531C583.182 633.762 583.239 634.051 583.297 634.282C583.297 632.491 583.413 630.93 583.528 629.37C583.644 628.156 583.875 626.712 584.396 625.382C584.453 625.267 584.569 624.92 584.916 624.805C585.147 624.747 585.378 624.805 585.609 624.978C586.187 625.382 586.823 625.671 587.517 625.96C590.638 627.29 593.355 627.579 595.956 626.885C596.708 626.654 597.459 626.423 598.211 626.192C598.673 626.018 599.194 625.903 599.656 625.729C600.118 625.556 600.465 625.498 600.696 625.671C600.986 625.845 601.043 626.134 601.159 626.596C601.332 627.405 601.448 628.33 601.448 629.312C601.448 630.699 601.448 631.913 601.39 633.011C601.564 632.722 601.91 632.664 602.199 632.606L602.315 632.606L602.431 632.722C603.182 633.473 603.529 634.34 603.529 635.323C603.471 636.479 603.124 637.519 602.488 638.386C602.142 638.848 601.737 639.137 601.332 639.31C601.159 639.368 601.101 639.426 601.043 639.715C600.928 640.466 600.754 641.217 600.407 641.969C600.003 642.951 599.367 643.818 598.442 644.569C597.98 644.974 597.806 645.379 597.864 645.956C597.864 646.072 597.864 646.245 597.864 646.361L597.864 646.534C597.806 647.632 597.98 648.557 598.326 649.366L598.384 649.54L598.269 649.655C596.65 651.158 594.454 651.909 592.257 651.909ZM586.823 649.366C589.771 652.025 594.8 652.025 597.748 649.366C597.459 648.557 597.286 647.632 597.344 646.477L597.344 646.303C597.344 646.188 597.344 646.072 597.344 645.956C597.228 645.205 597.459 644.569 598.095 644.049C598.962 643.356 599.54 642.547 599.887 641.68C600.176 640.986 600.35 640.235 600.465 639.484C600.523 639.137 600.639 638.848 601.159 638.675C601.506 638.559 601.795 638.328 602.084 637.981C602.662 637.23 602.951 636.305 603.009 635.265C603.066 634.514 602.777 633.82 602.199 633.242C601.968 633.3 601.853 633.416 601.853 633.762C601.853 634.051 601.795 634.34 601.737 634.629C601.737 634.745 601.679 634.86 601.679 634.976L601.679 635.034C601.679 635.149 601.679 635.323 601.506 635.496C601.448 635.554 601.332 635.612 601.159 635.554C600.986 635.554 600.87 635.438 600.812 635.38C600.696 635.207 600.754 635.034 600.754 634.918L600.754 634.86C600.928 633.3 600.986 631.566 600.986 629.37C600.986 628.388 600.87 627.579 600.696 626.769C600.696 626.654 600.581 626.249 600.523 626.192C600.465 626.134 600.061 626.249 599.945 626.307C599.483 626.48 598.962 626.596 598.5 626.769C597.748 627.001 596.997 627.232 596.246 627.463C593.471 628.214 590.638 627.925 587.401 626.538C586.708 626.249 586.014 625.903 585.436 625.498C585.32 625.382 585.263 625.382 585.263 625.382C585.263 625.382 585.205 625.382 585.147 625.614C584.627 626.885 584.453 628.272 584.28 629.428C584.107 631.104 583.991 632.838 584.049 634.803L584.049 634.86C584.049 634.976 584.107 635.207 583.991 635.38C583.875 635.496 583.76 635.554 583.586 635.554C583.124 635.554 583.066 635.092 583.008 634.976C583.008 634.918 583.008 634.918 583.008 634.86C582.95 634.456 582.835 633.993 582.777 633.589C582.777 633.358 582.719 633.242 582.546 633.242C581.91 633.82 581.621 634.629 581.794 635.612C582.026 637.23 582.546 638.155 583.586 638.675C583.991 638.848 584.164 639.137 584.28 639.542C584.453 640.293 584.569 641.044 584.858 641.738C585.32 642.836 586.187 643.645 586.939 644.396C587.286 644.743 587.459 645.09 587.401 645.552C587.401 645.783 587.401 646.014 587.344 646.188L587.344 646.477C587.286 647.401 587.17 648.384 586.823 649.366Z" fill="#161616"/>
<path d="M587.227 660.173C587.227 662.485 587.227 664.797 587.227 667.108C587.227 667.455 587.285 667.744 586.764 667.744C586.302 667.744 586.244 667.513 586.244 667.166C586.244 663.121 586.244 659.075 586.244 655.03C586.244 654.336 586.475 653.643 586.36 652.892C586.302 652.545 586.533 652.603 586.764 652.603C587.111 652.545 587.169 652.718 587.169 653.007C587.169 654.972 587.169 656.937 587.227 658.902C587.227 659.364 587.227 659.769 587.227 660.173Z" fill="#F0F0F0"/>
<path d="M597.69 667.802C597.286 667.918 597.228 667.687 597.228 667.34C597.228 662.832 597.228 658.324 597.228 653.817C597.228 653.528 597.228 653.239 597.228 652.892C597.228 652.603 597.344 652.487 597.633 652.487C597.922 652.487 598.095 652.661 598.095 652.95C598.153 654.915 598.153 656.822 598.153 658.787C598.153 661.619 598.153 664.45 598.153 667.34C598.211 667.687 598.095 667.918 597.69 667.802Z" fill="#F0F0F0"/>
<path d="M592.605 648.615C599.309 648.615 604.744 643.182 604.744 636.479C604.744 629.776 599.309 624.343 592.605 624.343C585.901 624.343 580.466 629.776 580.466 636.479C580.466 643.182 585.901 648.615 592.605 648.615Z" fill="white"/>
<path d="M592.605 648.962C585.726 648.962 580.177 643.356 580.177 636.537C580.177 629.717 585.784 624.111 592.605 624.111C599.426 624.111 605.033 629.717 605.033 636.537C605.033 643.356 599.484 648.962 592.605 648.962ZM592.605 624.632C586.073 624.632 580.755 629.948 580.755 636.479C580.755 643.009 586.073 648.326 592.605 648.326C599.137 648.326 604.455 643.009 604.455 636.479C604.455 629.948 599.195 624.632 592.605 624.632Z" fill="#161616"/>
<path d="M604.744 639.773C604.108 639.831 603.877 640.12 603.819 640.698C603.819 641.16 603.703 641.622 603.588 642.085C603.53 642.258 603.588 642.547 603.299 642.489C603.01 642.431 603.125 642.2 603.183 642.027C603.414 639.888 603.472 637.692 603.472 635.554C603.472 634.514 603.356 633.474 603.125 632.433C602.894 631.393 602.778 631.335 601.738 631.682C600.235 632.144 598.732 632.607 597.229 633.011C593.53 633.994 590.061 633.358 586.709 631.971C585.899 631.624 585.09 631.277 584.339 630.757C583.876 630.468 583.587 630.584 583.414 631.046C582.778 632.491 582.547 634.051 582.373 635.612C582.142 637.692 582.026 639.831 582.084 641.969C582.084 642.142 582.258 642.489 581.853 642.547C581.506 642.547 581.564 642.2 581.506 642.027C581.391 641.564 581.275 641.044 581.275 640.524C581.217 640.062 580.986 639.831 580.524 639.831C580.234 637.692 579.945 635.554 580.292 633.358C580.524 631.855 580.755 630.353 582.026 629.312C582.662 628.792 583.009 628.214 583.183 627.521C584.165 623.938 586.882 622.377 590.408 621.626C593.819 620.933 596.593 621.857 599.194 623.822C600.119 624.516 601.16 625.209 602.258 625.729C603.472 626.249 604.686 626.365 605.9 625.845C606.362 625.672 606.42 625.787 606.536 626.192C606.825 627.463 606.073 629.197 604.686 630.064C604.397 630.237 604.281 630.468 604.397 630.757C605.264 633.416 605.091 636.19 604.859 638.906C604.744 639.195 604.802 639.484 604.744 639.773Z" fill="#161616"/>
<g filter="url(#filter0_f_3744_98608)">
<path d="M522.105 481L529.871 536.333L534.968 579.155L535.696 579.155L540.792 536.333L548.558 481L561.421 481L553.655 536.333L545.889 591.666L524.532 591.666L516.766 536.333L509 481L522.105 481V481Z" fill="#E323FF"/>
<path d="M571.904 496.184C571.904 491.364 573.352 487.748 576.005 485.097C578.658 482.446 582.518 481 587.101 481L604.469 481C609.293 481 612.911 482.446 615.564 485.097C618.218 487.748 619.665 491.605 619.665 496.184L619.665 517.634L606.157 517.634L606.157 496.907C606.157 494.979 605.192 494.015 603.021 494.015L588.548 494.015C586.377 494.015 585.412 494.979 585.412 496.907L585.412 515.224C585.412 519.803 587.101 523.66 590.719 526.552C592.167 527.757 593.855 528.721 596.267 530.167C596.991 530.649 597.956 531.131 599.403 531.854L602.539 533.541C607.846 536.433 611.946 539.084 614.358 542.218C617.977 546.556 619.665 552.099 619.665 558.848L619.665 577.647C619.665 582.467 618.218 586.082 615.564 588.733C612.911 591.384 609.052 592.831 604.469 592.831L587.101 592.831C582.277 592.831 578.658 591.384 576.005 588.733C573.352 586.082 571.904 582.467 571.904 577.647L571.904 556.196L585.412 556.196L585.412 576.924C585.412 579.093 586.377 580.057 588.548 580.057L603.021 580.057C605.192 580.057 606.157 579.093 606.157 576.924L606.157 558.607C606.157 554.509 604.469 550.894 600.85 548.243C599.403 547.279 597.714 546.074 595.302 544.628C594.579 544.146 593.614 543.664 592.166 542.941L589.031 541.254C583.724 538.361 579.864 535.469 577.211 532.336C573.593 527.998 571.904 522.213 571.904 515.465L571.904 496.184V496.184Z" fill="#E323FF"/>
</g>
<path d="M522.105 481L529.871 536.333L534.968 579.155L535.696 579.155L540.792 536.333L548.558 481L561.421 481L553.655 536.333L545.889 591.666L524.532 591.666L516.766 536.333L509 481L522.105 481V481Z" fill="#E323FF"/>
<path d="M571.904 496.184C571.904 491.364 573.352 487.748 576.005 485.097C578.658 482.446 582.518 481 587.101 481L604.469 481C609.293 481 612.911 482.446 615.564 485.097C618.218 487.748 619.665 491.605 619.665 496.184L619.665 517.634L606.157 517.634L606.157 496.907C606.157 494.979 605.192 494.015 603.021 494.015L588.548 494.015C586.377 494.015 585.412 494.979 585.412 496.907L585.412 515.224C585.412 519.803 587.101 523.66 590.719 526.552C592.167 527.757 593.855 528.721 596.267 530.167C596.991 530.649 597.956 531.131 599.403 531.854L602.539 533.541C607.846 536.433 611.946 539.084 614.358 542.218C617.977 546.556 619.665 552.099 619.665 558.848L619.665 577.647C619.665 582.467 618.218 586.082 615.564 588.733C612.911 591.384 609.052 592.831 604.469 592.831L587.101 592.831C582.277 592.831 578.658 591.384 576.005 588.733C573.352 586.082 571.904 582.467 571.904 577.647L571.904 556.196L585.412 556.196L585.412 576.924C585.412 579.093 586.377 580.057 588.548 580.057L603.021 580.057C605.192 580.057 606.157 579.093 606.157 576.924L606.157 558.607C606.157 554.509 604.469 550.894 600.85 548.243C599.403 547.279 597.714 546.074 595.302 544.628C594.579 544.146 593.614 543.664 592.166 542.941L589.031 541.254C583.724 538.361 579.864 535.469 577.211 532.336C573.593 527.998 571.904 522.213 571.904 515.465L571.904 496.184V496.184Z" fill="#E323FF"/>
</g>
<path d="M151.943 626.409L144.913 653.377L136.961 653.377L132.658 635.629L128.202 653.377L120.25 653.377L113.412 626.409L120.442 626.409L124.322 646.039L129.124 626.409L136.346 626.409L140.956 646.039L144.874 626.409L151.943 626.409ZM158.541 629.713C157.388 629.713 156.441 629.38 155.698 628.714C154.981 628.023 154.622 627.178 154.622 626.179C154.622 625.154 154.981 624.309 155.698 623.643C156.441 622.952 157.388 622.606 158.541 622.606C159.667 622.606 160.589 622.952 161.306 623.643C162.049 624.309 162.421 625.154 162.421 626.179C162.421 627.178 162.049 628.023 161.306 628.714C160.589 629.38 159.667 629.713 158.541 629.713ZM161.806 631.941L161.806 653.377L155.237 653.377L155.237 631.941L161.806 631.941ZM179.627 631.711C182.137 631.711 184.135 632.53 185.62 634.169C187.131 635.783 187.887 638.011 187.887 640.853L187.887 653.377L181.356 653.377L181.356 641.737C181.356 640.303 180.985 639.189 180.242 638.395C179.499 637.601 178.501 637.204 177.246 637.204C175.991 637.204 174.992 637.601 174.249 638.395C173.507 639.189 173.135 640.303 173.135 641.737L173.135 653.377L166.566 653.377L166.566 631.941L173.135 631.941L173.135 634.784C173.801 633.836 174.697 633.093 175.824 632.556C176.951 631.992 178.219 631.711 179.627 631.711ZM207.161 635.514C207.929 634.336 208.89 633.414 210.042 632.748C211.194 632.056 212.475 631.711 213.884 631.711L213.884 638.664L212.078 638.664C210.439 638.664 209.21 639.022 208.39 639.739C207.571 640.431 207.161 641.66 207.161 643.427L207.161 653.377L200.592 653.377L200.592 631.941L207.161 631.941L207.161 635.514ZM237.23 642.313C237.23 642.928 237.191 643.568 237.114 644.234L222.248 644.234C222.35 645.565 222.773 646.59 223.515 647.307C224.284 647.998 225.219 648.344 226.32 648.344C227.959 648.344 229.098 647.653 229.739 646.27L236.73 646.27C236.372 647.678 235.719 648.946 234.771 650.073C233.849 651.2 232.684 652.083 231.275 652.723C229.867 653.364 228.292 653.684 226.55 653.684C224.45 653.684 222.581 653.236 220.942 652.339C219.303 651.443 218.022 650.162 217.1 648.498C216.178 646.833 215.717 644.887 215.717 642.659C215.717 640.431 216.165 638.484 217.062 636.82C217.984 635.155 219.264 633.875 220.903 632.978C222.542 632.082 224.425 631.634 226.55 631.634C228.625 631.634 230.469 632.069 232.082 632.94C233.695 633.811 234.95 635.053 235.847 636.666C236.769 638.279 237.23 640.162 237.23 642.313ZM230.507 640.584C230.507 639.458 230.123 638.561 229.355 637.895C228.586 637.229 227.626 636.897 226.473 636.897C225.372 636.897 224.437 637.217 223.669 637.857C222.926 638.497 222.465 639.406 222.286 640.584L230.507 640.584ZM271.465 631.941L265.665 653.377L258.404 653.377L255.024 639.47L251.528 653.377L244.306 653.377L238.467 631.941L245.036 631.941L248.071 647.269L251.682 631.941L258.635 631.941L262.284 647.192L265.281 631.941L271.465 631.941ZM272.664 642.62C272.664 640.418 273.074 638.484 273.894 636.82C274.739 635.155 275.878 633.875 277.313 632.978C278.747 632.082 280.347 631.634 282.114 631.634C283.625 631.634 284.944 631.941 286.071 632.556C287.224 633.17 288.107 633.977 288.722 634.976L288.722 631.941L295.291 631.941L295.291 653.377L288.722 653.377L288.722 650.342C288.082 651.341 287.185 652.147 286.033 652.762C284.906 653.377 283.587 653.684 282.076 653.684C280.335 653.684 278.747 653.236 277.313 652.339C275.878 651.417 274.739 650.124 273.894 648.459C273.074 646.769 272.664 644.823 272.664 642.62ZM288.722 642.659C288.722 641.02 288.261 639.726 287.339 638.779C286.442 637.831 285.341 637.358 284.035 637.358C282.729 637.358 281.615 637.831 280.693 638.779C279.797 639.701 279.349 640.981 279.349 642.62C279.349 644.259 279.797 645.565 280.693 646.539C281.615 647.486 282.729 647.96 284.035 647.96C285.341 647.96 286.442 647.486 287.339 646.539C288.261 645.591 288.722 644.298 288.722 642.659ZM306.612 635.514C307.38 634.336 308.341 633.414 309.493 632.748C310.646 632.056 311.926 631.711 313.335 631.711L313.335 638.664L311.529 638.664C309.89 638.664 308.661 639.022 307.841 639.739C307.022 640.431 306.612 641.66 306.612 643.427L306.612 653.377L300.043 653.377L300.043 631.941L306.612 631.941L306.612 635.514ZM315.168 642.62C315.168 640.418 315.578 638.484 316.398 636.82C317.243 635.155 318.382 633.875 319.817 632.978C321.251 632.082 322.851 631.634 324.618 631.634C326.027 631.634 327.307 631.928 328.46 632.517C329.638 633.106 330.56 633.9 331.226 634.899L331.226 624.95L337.795 624.95L337.795 653.377L331.226 653.377L331.226 650.303C330.611 651.328 329.728 652.147 328.575 652.762C327.448 653.377 326.129 653.684 324.618 653.684C322.851 653.684 321.251 653.236 319.817 652.339C318.382 651.417 317.243 650.124 316.398 648.459C315.578 646.769 315.168 644.823 315.168 642.62ZM331.226 642.659C331.226 641.02 330.765 639.726 329.843 638.779C328.946 637.831 327.845 637.358 326.539 637.358C325.233 637.358 324.119 637.831 323.197 638.779C322.301 639.701 321.852 640.981 321.852 642.62C321.852 644.259 322.301 645.565 323.197 646.539C324.119 647.486 325.233 647.96 326.539 647.96C327.845 647.96 328.946 647.486 329.843 646.539C330.765 645.591 331.226 644.298 331.226 642.659ZM351.267 653.684C349.398 653.684 347.733 653.364 346.273 652.723C344.813 652.083 343.661 651.212 342.816 650.111C341.971 648.984 341.497 647.73 341.395 646.347L347.887 646.347C347.964 647.089 348.309 647.691 348.924 648.152C349.539 648.613 350.294 648.844 351.19 648.844C352.01 648.844 352.637 648.69 353.073 648.383C353.534 648.05 353.764 647.627 353.764 647.115C353.764 646.5 353.444 646.052 352.804 645.77C352.164 645.463 351.126 645.13 349.692 644.772C348.156 644.413 346.875 644.042 345.851 643.658C344.826 643.248 343.943 642.62 343.2 641.775C342.457 640.904 342.086 639.739 342.086 638.279C342.086 637.05 342.419 635.936 343.085 634.937C343.776 633.913 344.775 633.106 346.081 632.517C347.413 631.928 348.988 631.634 350.806 631.634C353.495 631.634 355.608 632.3 357.145 633.631C358.707 634.963 359.603 636.73 359.834 638.933L353.764 638.933C353.662 638.19 353.329 637.601 352.765 637.165C352.228 636.73 351.51 636.512 350.614 636.512C349.846 636.512 349.257 636.666 348.847 636.973C348.437 637.255 348.232 637.652 348.232 638.164C348.232 638.779 348.553 639.24 349.193 639.547C349.859 639.854 350.883 640.162 352.266 640.469C353.854 640.879 355.147 641.289 356.146 641.698C357.145 642.083 358.015 642.723 358.758 643.619C359.526 644.49 359.923 645.668 359.949 647.153C359.949 648.408 359.59 649.535 358.873 650.534C358.182 651.507 357.17 652.275 355.839 652.839C354.532 653.402 353.009 653.684 351.267 653.684Z" fill="white"/>
<path d="M220.525 574.006L220.525 568.705L232.664 551.341L240.001 551.341L240.001 568.321L243.151 568.321L243.151 574.006L240.001 574.006L240.001 579L233.432 579L233.432 574.006L220.525 574.006ZM233.893 558.563L227.439 568.321L233.893 568.321L233.893 558.563ZM250.095 579.307C248.942 579.307 247.995 578.974 247.252 578.309C246.535 577.617 246.177 576.772 246.177 575.773C246.177 574.749 246.535 573.891 247.252 573.199C247.995 572.508 248.942 572.162 250.095 572.162C251.222 572.162 252.144 572.508 252.861 573.199C253.603 573.891 253.975 574.749 253.975 575.773C253.975 576.772 253.603 577.617 252.861 578.309C252.144 578.974 251.222 579.307 250.095 579.307Z" fill="#FCC000"/>
<rect x="80.2657" y="520.266" width="313.593" height="211.182" rx="29.3913" stroke="#FCC000" stroke-width="6.53139"/>
<path d="M802.766 471.788C805.609 471.788 808.093 472.351 810.218 473.478C812.344 474.605 813.983 476.193 815.136 478.241C816.314 480.265 816.903 482.608 816.903 485.271C816.903 487.909 816.314 490.252 815.136 492.301C813.983 494.35 812.331 495.938 810.18 497.065C808.054 498.192 805.583 498.755 802.766 498.755H792.663V471.788H802.766ZM802.343 493.07C804.828 493.07 806.761 492.391 808.144 491.034C809.527 489.676 810.218 487.755 810.218 485.271C810.218 482.787 809.527 480.854 808.144 479.471C806.761 478.088 804.828 477.396 802.343 477.396H799.232V493.07H802.343ZM827.143 480.892C827.911 479.714 828.871 478.792 830.024 478.126C831.176 477.435 832.457 477.089 833.865 477.089V484.042H832.06C830.421 484.042 829.191 484.401 828.372 485.118C827.552 485.809 827.143 487.038 827.143 488.805V498.755H820.574V477.319H827.143V480.892ZM835.699 487.999C835.699 485.796 836.109 483.863 836.928 482.198C837.773 480.533 838.913 479.253 840.347 478.357C841.781 477.46 843.382 477.012 845.149 477.012C846.66 477.012 847.979 477.319 849.106 477.934C850.258 478.549 851.142 479.355 851.756 480.354V477.319H858.325V498.755H851.756V495.72C851.116 496.719 850.22 497.526 849.067 498.14C847.94 498.755 846.622 499.062 845.111 499.062C843.369 499.062 841.781 498.614 840.347 497.718C838.913 496.796 837.773 495.502 836.928 493.838C836.109 492.148 835.699 490.201 835.699 487.999ZM851.756 488.037C851.756 486.398 851.295 485.105 850.373 484.157C849.477 483.21 848.376 482.736 847.07 482.736C845.764 482.736 844.65 483.21 843.728 484.157C842.831 485.079 842.383 486.36 842.383 487.999C842.383 489.638 842.831 490.944 843.728 491.917C844.65 492.865 845.764 493.338 847.07 493.338C848.376 493.338 849.477 492.865 850.373 491.917C851.295 490.97 851.756 489.676 851.756 488.037ZM873.834 482.774H870.3V498.755H863.731V482.774H861.349V477.319H863.731V476.705C863.731 474.067 864.486 472.069 865.997 470.712C867.508 469.329 869.723 468.638 872.643 468.638C873.129 468.638 873.488 468.65 873.719 468.676V474.246C872.464 474.169 871.58 474.349 871.068 474.784C870.556 475.219 870.3 476.001 870.3 477.127V477.319H873.834V482.774ZM888.867 493.185V498.755H885.525C883.144 498.755 881.287 498.179 879.955 497.026C878.624 495.848 877.958 493.94 877.958 491.302V482.774H875.345V477.319H877.958V472.095H884.527V477.319H888.829V482.774H884.527V491.379C884.527 492.02 884.68 492.481 884.988 492.762C885.295 493.044 885.807 493.185 886.524 493.185H888.867ZM922.564 477.319L909.118 508.935H902.05L906.967 498.025L898.247 477.319H905.584L910.54 490.726L915.457 477.319H922.564ZM934.696 499.062C932.596 499.062 930.701 498.614 929.011 497.718C927.346 496.821 926.027 495.541 925.054 493.876C924.107 492.212 923.633 490.265 923.633 488.037C923.633 485.835 924.12 483.901 925.093 482.237C926.066 480.546 927.398 479.253 929.088 478.357C930.778 477.46 932.673 477.012 934.773 477.012C936.873 477.012 938.768 477.46 940.459 478.357C942.149 479.253 943.481 480.546 944.454 482.237C945.427 483.901 945.914 485.835 945.914 488.037C945.914 490.24 945.414 492.186 944.415 493.876C943.442 495.541 942.098 496.821 940.382 497.718C938.692 498.614 936.796 499.062 934.696 499.062ZM934.696 493.377C935.951 493.377 937.014 492.916 937.885 491.994C938.781 491.072 939.229 489.753 939.229 488.037C939.229 486.321 938.794 485.002 937.923 484.08C937.078 483.158 936.028 482.698 934.773 482.698C933.493 482.698 932.43 483.158 931.585 484.08C930.74 484.977 930.317 486.296 930.317 488.037C930.317 489.753 930.727 491.072 931.546 491.994C932.392 492.916 933.442 493.377 934.696 493.377ZM970.565 477.319V498.755H963.996V495.835C963.33 496.783 962.421 497.551 961.269 498.14C960.142 498.704 958.887 498.985 957.504 498.985C955.865 498.985 954.418 498.627 953.163 497.91C951.908 497.167 950.935 496.104 950.244 494.721C949.552 493.338 949.206 491.712 949.206 489.843V477.319H955.737V488.959C955.737 490.393 956.108 491.507 956.851 492.301C957.594 493.095 958.593 493.492 959.847 493.492C961.128 493.492 962.139 493.095 962.882 492.301C963.625 491.507 963.996 490.393 963.996 488.959V477.319H970.565ZM981.853 480.892C982.621 479.714 983.581 478.792 984.734 478.126C985.886 477.435 987.167 477.089 988.575 477.089V484.042H986.77C985.131 484.042 983.901 484.401 983.082 485.118C982.262 485.809 981.853 487.038 981.853 488.805V498.755H975.284V477.319H981.853V480.892ZM838.078 557.024C836.106 557.024 834.339 556.704 832.776 556.063C831.214 555.423 829.959 554.476 829.012 553.221C828.09 551.966 827.603 550.455 827.552 548.688H834.544C834.646 549.687 834.992 550.455 835.581 550.993C836.17 551.505 836.938 551.761 837.886 551.761C838.859 551.761 839.627 551.543 840.191 551.108C840.754 550.647 841.036 550.02 841.036 549.226C841.036 548.56 840.805 548.009 840.344 547.574C839.909 547.138 839.358 546.78 838.692 546.498C838.052 546.216 837.13 545.896 835.927 545.538C834.185 545 832.764 544.462 831.662 543.924C830.561 543.387 829.614 542.593 828.82 541.543C828.026 540.493 827.629 539.123 827.629 537.432C827.629 534.922 828.538 532.963 830.356 531.555C832.175 530.121 834.544 529.404 837.463 529.404C840.434 529.404 842.828 530.121 844.647 531.555C846.465 532.963 847.438 534.935 847.566 537.471H840.459C840.408 536.6 840.088 535.921 839.499 535.435C838.91 534.922 838.155 534.666 837.233 534.666C836.439 534.666 835.798 534.884 835.312 535.319C834.825 535.729 834.582 536.331 834.582 537.125C834.582 537.996 834.992 538.674 835.811 539.161C836.631 539.648 837.911 540.173 839.653 540.736C841.394 541.325 842.803 541.888 843.878 542.426C844.98 542.964 845.927 543.745 846.721 544.769C847.515 545.794 847.912 547.113 847.912 548.726C847.912 550.263 847.515 551.659 846.721 552.913C845.953 554.168 844.826 555.167 843.341 555.91C841.855 556.653 840.101 557.024 838.078 557.024ZM850.648 546.076C850.648 543.95 851.084 542.055 851.955 540.39C852.851 538.726 854.042 537.432 855.527 536.51C857.038 535.563 858.677 535.089 860.444 535.089C861.802 535.089 863.018 535.332 864.094 535.819C865.169 536.28 866.04 536.933 866.706 537.778V535.319H873.275V566.973H866.706V554.066C865.963 554.962 865.054 555.679 863.978 556.217C862.928 556.755 861.725 557.024 860.367 557.024C858.626 557.024 857.012 556.563 855.527 555.641C854.042 554.719 852.851 553.426 851.955 551.761C851.084 550.096 850.648 548.201 850.648 546.076ZM866.706 546.037C866.706 544.885 866.475 543.924 866.014 543.156C865.579 542.362 865.003 541.773 864.286 541.389C863.569 540.979 862.813 540.774 862.019 540.774C861.251 540.774 860.508 540.979 859.791 541.389C859.074 541.773 858.485 542.362 858.024 543.156C857.563 543.95 857.333 544.923 857.333 546.076C857.333 547.228 857.563 548.201 858.024 548.995C858.485 549.763 859.074 550.352 859.791 550.762C860.508 551.146 861.251 551.338 862.019 551.338C862.788 551.338 863.53 551.146 864.247 550.762C864.99 550.352 865.579 549.751 866.014 548.957C866.475 548.163 866.706 547.19 866.706 546.037ZM899.194 535.319V556.755H892.625V553.835C891.959 554.783 891.05 555.551 889.897 556.14C888.771 556.704 887.516 556.985 886.133 556.985C884.494 556.985 883.047 556.627 881.792 555.91C880.537 555.167 879.564 554.104 878.872 552.721C878.181 551.338 877.835 549.712 877.835 547.843V535.319H884.366V546.959C884.366 548.393 884.737 549.507 885.48 550.301C886.222 551.095 887.221 551.492 888.476 551.492C889.756 551.492 890.768 551.095 891.511 550.301C892.253 549.507 892.625 548.393 892.625 546.959V535.319H899.194ZM902.606 545.999C902.606 543.796 903.016 541.863 903.835 540.198C904.68 538.533 905.82 537.253 907.254 536.357C908.688 535.46 910.289 535.012 912.056 535.012C913.567 535.012 914.886 535.319 916.013 535.934C917.165 536.549 918.049 537.355 918.663 538.354V535.319H925.232V556.755H918.663V553.72C918.023 554.719 917.127 555.526 915.974 556.14C914.848 556.755 913.529 557.062 912.018 557.062C910.276 557.062 908.688 556.614 907.254 555.718C905.82 554.796 904.68 553.502 903.835 551.838C903.016 550.148 902.606 548.201 902.606 545.999ZM918.663 546.037C918.663 544.398 918.203 543.105 917.281 542.157C916.384 541.21 915.283 540.736 913.977 540.736C912.671 540.736 911.557 541.21 910.635 542.157C909.738 543.079 909.29 544.36 909.29 545.999C909.29 547.638 909.738 548.944 910.635 549.917C911.557 550.865 912.671 551.338 913.977 551.338C915.283 551.338 916.384 550.865 917.281 549.917C918.203 548.97 918.663 547.676 918.663 546.037ZM928.679 545.999C928.679 543.796 929.088 541.863 929.908 540.198C930.753 538.533 931.893 537.253 933.327 536.357C934.761 535.46 936.362 535.012 938.129 535.012C939.537 535.012 940.818 535.307 941.97 535.896C943.148 536.485 944.07 537.279 944.736 538.277V528.328H951.305V556.755H944.736V553.682C944.121 554.706 943.238 555.526 942.085 556.14C940.959 556.755 939.64 557.062 938.129 557.062C936.362 557.062 934.761 556.614 933.327 555.718C931.893 554.796 930.753 553.502 929.908 551.838C929.088 550.148 928.679 548.201 928.679 545.999ZM944.736 546.037C944.736 544.398 944.275 543.105 943.353 542.157C942.457 541.21 941.356 540.736 940.049 540.736C938.743 540.736 937.629 541.21 936.707 542.157C935.811 543.079 935.363 544.36 935.363 545.999C935.363 547.638 935.811 548.944 936.707 549.917C937.629 550.865 938.743 551.338 940.049 551.338C941.356 551.338 942.457 550.865 943.353 549.917C944.275 548.97 944.736 547.676 944.736 546.037Z" fill="white"/>
<path d="M874.869 435.737C875.739 435.046 876.136 434.726 876.059 434.777C878.569 432.702 880.541 430.999 881.975 429.668C883.435 428.336 884.664 426.94 885.663 425.48C886.662 424.021 887.161 422.599 887.161 421.216C887.161 420.166 886.918 419.347 886.431 418.758C885.945 418.169 885.215 417.874 884.242 417.874C883.269 417.874 882.5 418.246 881.937 418.988C881.399 419.705 881.13 420.73 881.13 422.061H874.792C874.843 419.885 875.304 418.066 876.175 416.607C877.071 415.147 878.236 414.071 879.67 413.38C881.13 412.688 882.744 412.342 884.511 412.342C887.558 412.342 889.85 413.124 891.387 414.686C892.949 416.248 893.73 418.284 893.73 420.794C893.73 423.534 892.795 426.082 890.926 428.438C889.056 430.769 886.675 433.048 883.781 435.276H894.153V440.616H874.869V435.737ZM900.771 441.307C899.619 441.307 898.671 440.974 897.929 440.309C897.211 439.617 896.853 438.772 896.853 437.773C896.853 436.749 897.211 435.891 897.929 435.199C898.671 434.508 899.619 434.162 900.771 434.162C901.898 434.162 902.82 434.508 903.537 435.199C904.28 435.891 904.651 436.749 904.651 437.773C904.651 438.772 904.28 439.617 903.537 440.309C902.82 440.974 901.898 441.307 900.771 441.307Z" fill="#FCC000"/>
<rect x="733.054" y="382.266" width="313.507" height="211.182" rx="29.3913" stroke="#FCC000" stroke-width="6.53139"/>
<path d="M491.74 859.555C491.74 856.891 492.317 854.523 493.469 852.448C494.621 850.348 496.222 848.722 498.271 847.569C500.345 846.391 502.689 845.802 505.301 845.802C508.502 845.802 511.242 846.647 513.522 848.338C515.801 850.028 517.325 852.333 518.093 855.252H510.871C510.333 854.126 509.565 853.268 508.566 852.679C507.593 852.09 506.479 851.795 505.224 851.795C503.201 851.795 501.562 852.499 500.307 853.908C499.052 855.316 498.425 857.199 498.425 859.555C498.425 861.911 499.052 863.793 500.307 865.202C501.562 866.61 503.201 867.315 505.224 867.315C506.479 867.315 507.593 867.02 508.566 866.431C509.565 865.842 510.333 864.984 510.871 863.857H518.093C517.325 866.777 515.801 869.082 513.522 870.772C511.242 872.437 508.502 873.269 505.301 873.269C502.689 873.269 500.345 872.693 498.271 871.54C496.222 870.362 494.621 868.736 493.469 866.662C492.317 864.587 491.74 862.218 491.74 859.555ZM535.292 851.411C537.751 851.411 539.723 852.23 541.208 853.869C542.693 855.483 543.436 857.711 543.436 860.554V873.077H536.905V861.437C536.905 860.003 536.534 858.889 535.791 858.095C535.049 857.301 534.05 856.904 532.795 856.904C531.54 856.904 530.541 857.301 529.799 858.095C529.056 858.889 528.685 860.003 528.685 861.437V873.077H522.116V844.65H528.685V854.523C529.351 853.575 530.26 852.819 531.412 852.256C532.565 851.693 533.858 851.411 535.292 851.411ZM546.695 862.321C546.695 860.118 547.104 858.185 547.924 856.52C548.769 854.855 549.909 853.575 551.343 852.679C552.777 851.782 554.378 851.334 556.145 851.334C557.656 851.334 558.975 851.641 560.101 852.256C561.254 852.871 562.137 853.677 562.752 854.676V851.641H569.321V873.077H562.752V870.042C562.112 871.041 561.215 871.848 560.063 872.462C558.936 873.077 557.617 873.384 556.106 873.384C554.365 873.384 552.777 872.936 551.343 872.04C549.909 871.118 548.769 869.824 547.924 868.16C547.104 866.47 546.695 864.523 546.695 862.321ZM562.752 862.359C562.752 860.72 562.291 859.427 561.369 858.479C560.473 857.532 559.372 857.058 558.065 857.058C556.759 857.058 555.645 857.532 554.723 858.479C553.827 859.401 553.379 860.682 553.379 862.321C553.379 863.96 553.827 865.266 554.723 866.239C555.645 867.187 556.759 867.66 558.065 867.66C559.372 867.66 560.473 867.187 561.369 866.239C562.291 865.291 562.752 863.998 562.752 862.359ZM580.642 844.65V873.077H574.073V844.65H580.642ZM591.972 844.65V873.077H585.403V844.65H591.972ZM616.938 862.013C616.938 862.628 616.9 863.268 616.823 863.934H601.957C602.059 865.266 602.482 866.29 603.224 867.007C603.993 867.699 604.927 868.045 606.029 868.045C607.668 868.045 608.807 867.353 609.447 865.97H616.439C616.08 867.379 615.427 868.646 614.48 869.773C613.558 870.9 612.393 871.784 610.984 872.424C609.576 873.064 608 873.384 606.259 873.384C604.159 873.384 602.289 872.936 600.65 872.04C599.011 871.143 597.731 869.863 596.809 868.198C595.887 866.534 595.426 864.587 595.426 862.359C595.426 860.131 595.874 858.185 596.771 856.52C597.692 854.855 598.973 853.575 600.612 852.679C602.251 851.782 604.133 851.334 606.259 851.334C608.333 851.334 610.177 851.769 611.791 852.64C613.404 853.511 614.659 854.753 615.555 856.366C616.477 857.98 616.938 859.862 616.938 862.013ZM610.216 860.285C610.216 859.158 609.832 858.262 609.063 857.596C608.295 856.93 607.335 856.597 606.182 856.597C605.081 856.597 604.146 856.917 603.378 857.557C602.635 858.198 602.174 859.107 601.995 860.285H610.216ZM633.465 851.411C635.975 851.411 637.972 852.23 639.458 853.869C640.969 855.483 641.724 857.711 641.724 860.554V873.077H635.194V861.437C635.194 860.003 634.822 858.889 634.08 858.095C633.337 857.301 632.338 856.904 631.083 856.904C629.828 856.904 628.829 857.301 628.087 858.095C627.344 858.889 626.973 860.003 626.973 861.437V873.077H620.404V851.641H626.973V854.484C627.639 853.537 628.535 852.794 629.662 852.256C630.789 851.693 632.056 851.411 633.465 851.411ZM654.433 851.334C655.944 851.334 657.263 851.641 658.39 852.256C659.542 852.871 660.426 853.677 661.04 854.676V851.641H667.609V873.038C667.609 875.01 667.212 876.79 666.418 878.378C665.65 879.992 664.459 881.272 662.846 882.22C661.258 883.167 659.273 883.641 656.891 883.641C653.716 883.641 651.142 882.886 649.17 881.375C647.198 879.889 646.071 877.866 645.789 875.305H652.282C652.486 876.124 652.973 876.765 653.741 877.226C654.51 877.712 655.457 877.956 656.584 877.956C657.941 877.956 659.017 877.559 659.811 876.765C660.63 875.996 661.04 874.754 661.04 873.038V870.004C660.4 871.003 659.516 871.822 658.39 872.462C657.263 873.077 655.944 873.384 654.433 873.384C652.666 873.384 651.065 872.936 649.631 872.04C648.197 871.118 647.057 869.824 646.212 868.16C645.392 866.47 644.983 864.523 644.983 862.321C644.983 860.118 645.392 858.185 646.212 856.52C647.057 854.855 648.197 853.575 649.631 852.679C651.065 851.782 652.666 851.334 654.433 851.334ZM661.04 862.359C661.04 860.72 660.579 859.427 659.657 858.479C658.761 857.532 657.66 857.058 656.354 857.058C655.047 857.058 653.933 857.532 653.011 858.479C652.115 859.401 651.667 860.682 651.667 862.321C651.667 863.96 652.115 865.266 653.011 866.239C653.933 867.187 655.047 867.66 656.354 867.66C657.66 867.66 658.761 867.187 659.657 866.239C660.579 865.291 661.04 863.998 661.04 862.359ZM692.568 862.013C692.568 862.628 692.529 863.268 692.452 863.934H677.586C677.688 865.266 678.111 866.29 678.854 867.007C679.622 867.699 680.557 868.045 681.658 868.045C683.297 868.045 684.437 867.353 685.077 865.97H692.068C691.71 867.379 691.057 868.646 690.109 869.773C689.187 870.9 688.022 871.784 686.613 872.424C685.205 873.064 683.63 873.384 681.888 873.384C679.788 873.384 677.919 872.936 676.28 872.04C674.641 871.143 673.36 869.863 672.438 868.198C671.516 866.534 671.055 864.587 671.055 862.359C671.055 860.131 671.504 858.185 672.4 856.52C673.322 854.855 674.602 853.575 676.241 852.679C677.88 851.782 679.763 851.334 681.888 851.334C683.963 851.334 685.807 851.769 687.42 852.64C689.034 853.511 690.288 854.753 691.185 856.366C692.107 857.98 692.568 859.862 692.568 862.013ZM685.845 860.285C685.845 859.158 685.461 858.262 684.693 857.596C683.924 856.93 682.964 856.597 681.812 856.597C680.71 856.597 679.776 856.917 679.007 857.557C678.265 858.198 677.804 859.107 677.624 860.285H685.845ZM456.338 931.384C454.238 931.384 452.342 930.936 450.652 930.04C448.988 929.143 447.669 927.863 446.695 926.198C445.748 924.534 445.274 922.587 445.274 920.359C445.274 918.157 445.761 916.223 446.734 914.559C447.707 912.868 449.039 911.575 450.729 910.679C452.419 909.782 454.314 909.334 456.414 909.334C458.514 909.334 460.41 909.782 462.1 910.679C463.79 911.575 465.122 912.868 466.095 914.559C467.068 916.223 467.555 918.157 467.555 920.359C467.555 922.562 467.055 924.508 466.057 926.198C465.083 927.863 463.739 929.143 462.023 930.04C460.333 930.936 458.438 931.384 456.338 931.384ZM456.338 925.699C457.592 925.699 458.655 925.238 459.526 924.316C460.422 923.394 460.871 922.075 460.871 920.359C460.871 918.643 460.435 917.324 459.564 916.402C458.719 915.48 457.669 915.019 456.414 915.019C455.134 915.019 454.071 915.48 453.226 916.402C452.381 917.299 451.958 918.618 451.958 920.359C451.958 922.075 452.368 923.394 453.188 924.316C454.033 925.238 455.083 925.699 456.338 925.699ZM482.987 925.507V931.077H479.645C477.263 931.077 475.406 930.501 474.074 929.348C472.743 928.17 472.077 926.262 472.077 923.624V915.096H469.465V909.641H472.077V904.417H478.646V909.641H482.948V915.096H478.646V923.701C478.646 924.341 478.799 924.802 479.107 925.084C479.414 925.366 479.926 925.507 480.643 925.507H482.987ZM499.822 909.411C502.281 909.411 504.253 910.23 505.738 911.869C507.223 913.483 507.966 915.711 507.966 918.554V931.077H501.435V919.437C501.435 918.003 501.064 916.889 500.321 916.095C499.579 915.301 498.58 914.904 497.325 914.904C496.07 914.904 495.071 915.301 494.329 916.095C493.586 916.889 493.215 918.003 493.215 919.437V931.077H486.646V902.65H493.215V912.523C493.881 911.575 494.79 910.819 495.942 910.256C497.095 909.693 498.388 909.411 499.822 909.411ZM532.737 920.013C532.737 920.628 532.699 921.268 532.622 921.934H517.755C517.858 923.266 518.28 924.29 519.023 925.007C519.791 925.699 520.726 926.045 521.827 926.045C523.466 926.045 524.606 925.353 525.246 923.97H532.238C531.879 925.379 531.226 926.646 530.278 927.773C529.356 928.9 528.191 929.784 526.783 930.424C525.374 931.064 523.799 931.384 522.058 931.384C519.958 931.384 518.088 930.936 516.449 930.04C514.81 929.143 513.53 927.863 512.608 926.198C511.686 924.534 511.225 922.587 511.225 920.359C511.225 918.131 511.673 916.185 512.569 914.52C513.491 912.855 514.772 911.575 516.411 910.679C518.05 909.782 519.932 909.334 522.058 909.334C524.132 909.334 525.976 909.769 527.589 910.64C529.203 911.511 530.458 912.753 531.354 914.366C532.276 915.98 532.737 917.862 532.737 920.013ZM526.014 918.285C526.014 917.158 525.63 916.262 524.862 915.596C524.094 914.93 523.133 914.597 521.981 914.597C520.88 914.597 519.945 914.917 519.177 915.557C518.434 916.198 517.973 917.107 517.794 918.285H526.014ZM542.771 913.214C543.54 912.036 544.5 911.114 545.652 910.448C546.805 909.757 548.085 909.411 549.494 909.411V916.364H547.688C546.049 916.364 544.82 916.723 544.001 917.44C543.181 918.131 542.771 919.36 542.771 921.127V931.077H536.202V909.641H542.771V913.214ZM567.343 926.006H575.948V931.077H560.774V904.11H567.343V926.006ZM599.288 920.013C599.288 920.628 599.249 921.268 599.173 921.934H584.306C584.408 923.266 584.831 924.29 585.574 925.007C586.342 925.699 587.277 926.045 588.378 926.045C590.017 926.045 591.157 925.353 591.797 923.97H598.788C598.43 925.379 597.777 926.646 596.829 927.773C595.907 928.9 594.742 929.784 593.333 930.424C591.925 931.064 590.35 931.384 588.608 931.384C586.508 931.384 584.639 930.936 583 930.04C581.361 929.143 580.08 927.863 579.158 926.198C578.236 924.534 577.775 922.587 577.775 920.359C577.775 918.131 578.224 916.185 579.12 914.52C580.042 912.855 581.322 911.575 582.961 910.679C584.6 909.782 586.483 909.334 588.608 909.334C590.683 909.334 592.527 909.769 594.14 910.64C595.754 911.511 597.008 912.753 597.905 914.366C598.827 915.98 599.288 917.862 599.288 920.013ZM592.565 918.285C592.565 917.158 592.181 916.262 591.413 915.596C590.644 914.93 589.684 914.597 588.532 914.597C587.43 914.597 586.496 914.917 585.727 915.557C584.985 916.198 584.524 917.107 584.344 918.285H592.565ZM601.447 920.321C601.447 918.118 601.857 916.185 602.676 914.52C603.522 912.855 604.661 911.575 606.095 910.679C607.529 909.782 609.13 909.334 610.897 909.334C612.408 909.334 613.727 909.641 614.854 910.256C616.006 910.871 616.89 911.677 617.505 912.676V909.641H624.073V931.077H617.505V928.042C616.864 929.041 615.968 929.848 614.815 930.462C613.689 931.077 612.37 931.384 610.859 931.384C609.117 931.384 607.529 930.936 606.095 930.04C604.661 929.118 603.522 927.824 602.676 926.16C601.857 924.47 601.447 922.523 601.447 920.321ZM617.505 920.359C617.505 918.72 617.044 917.427 616.122 916.479C615.225 915.532 614.124 915.058 612.818 915.058C611.512 915.058 610.398 915.532 609.476 916.479C608.579 917.401 608.131 918.682 608.131 920.321C608.131 921.96 608.579 923.266 609.476 924.239C610.398 925.187 611.512 925.66 612.818 925.66C614.124 925.66 615.225 925.187 616.122 924.239C617.044 923.291 617.505 921.998 617.505 920.359ZM636.97 909.334C638.481 909.334 639.8 909.641 640.927 910.256C642.079 910.871 642.962 911.677 643.577 912.676V909.641H650.146V931.038C650.146 933.01 649.749 934.79 648.955 936.378C648.187 937.992 646.996 939.272 645.383 940.22C643.795 941.167 641.81 941.641 639.428 941.641C636.253 941.641 633.679 940.886 631.707 939.375C629.735 937.889 628.608 935.866 628.326 933.305H634.819C635.023 934.124 635.51 934.765 636.278 935.226C637.047 935.712 637.994 935.956 639.121 935.956C640.478 935.956 641.554 935.559 642.348 934.765C643.167 933.996 643.577 932.754 643.577 931.038V928.004C642.937 929.003 642.053 929.822 640.927 930.462C639.8 931.077 638.481 931.384 636.97 931.384C635.203 931.384 633.602 930.936 632.168 930.04C630.734 929.118 629.594 927.824 628.749 926.16C627.929 924.47 627.52 922.523 627.52 920.321C627.52 918.118 627.929 916.185 628.749 914.52C629.594 912.855 630.734 911.575 632.168 910.679C633.602 909.782 635.203 909.334 636.97 909.334ZM643.577 920.359C643.577 918.72 643.116 917.427 642.194 916.479C641.298 915.532 640.197 915.058 638.891 915.058C637.584 915.058 636.47 915.532 635.548 916.479C634.652 917.401 634.204 918.682 634.204 920.321C634.204 921.96 634.652 923.266 635.548 924.239C636.47 925.187 637.584 925.66 638.891 925.66C640.197 925.66 641.298 925.187 642.194 924.239C643.116 923.291 643.577 921.998 643.577 920.359ZM676.065 909.641V931.077H669.496V928.157C668.83 929.105 667.921 929.873 666.769 930.462C665.642 931.026 664.387 931.307 663.004 931.307C661.365 931.307 659.918 930.949 658.663 930.232C657.408 929.489 656.435 928.426 655.744 927.043C655.052 925.66 654.706 924.034 654.706 922.165V909.641H661.237V921.281C661.237 922.715 661.608 923.829 662.351 924.623C663.094 925.417 664.092 925.814 665.347 925.814C666.628 925.814 667.639 925.417 668.382 924.623C669.125 923.829 669.496 922.715 669.496 921.281V909.641H676.065ZM700.99 920.013C700.99 920.628 700.951 921.268 700.874 921.934H686.008C686.11 923.266 686.533 924.29 687.276 925.007C688.044 925.699 688.979 926.045 690.08 926.045C691.719 926.045 692.859 925.353 693.499 923.97H700.49C700.132 925.379 699.479 926.646 698.531 927.773C697.609 928.9 696.444 929.784 695.035 930.424C693.627 931.064 692.052 931.384 690.31 931.384C688.21 931.384 686.341 930.936 684.702 930.04C683.063 929.143 681.782 927.863 680.86 926.198C679.938 924.534 679.477 922.587 679.477 920.359C679.477 918.131 679.926 916.185 680.822 914.52C681.744 912.855 683.024 911.575 684.663 910.679C686.302 909.782 688.185 909.334 690.31 909.334C692.385 909.334 694.229 909.769 695.842 910.64C697.456 911.511 698.71 912.753 699.607 914.366C700.529 915.98 700.99 917.862 700.99 920.013ZM694.267 918.285C694.267 917.158 693.883 916.262 693.115 915.596C692.346 914.93 691.386 914.597 690.234 914.597C689.132 914.597 688.198 914.917 687.429 915.557C686.687 916.198 686.226 917.107 686.046 918.285H694.267ZM711.024 913.214C711.792 912.036 712.753 911.114 713.905 910.448C715.058 909.757 716.338 909.411 717.747 909.411V916.364H715.941C714.302 916.364 713.073 916.723 712.253 917.44C711.434 918.131 711.024 919.36 711.024 921.127V931.077H704.455V909.641H711.024V913.214ZM729.607 931.384C727.737 931.384 726.072 931.064 724.613 930.424C723.153 929.784 722.001 928.913 721.155 927.812C720.31 926.685 719.836 925.43 719.734 924.047H726.226C726.303 924.79 726.649 925.392 727.263 925.852C727.878 926.313 728.633 926.544 729.53 926.544C730.349 926.544 730.977 926.39 731.412 926.083C731.873 925.75 732.104 925.327 732.104 924.815C732.104 924.201 731.784 923.752 731.143 923.471C730.503 923.163 729.466 922.831 728.032 922.472C726.495 922.113 725.215 921.742 724.19 921.358C723.166 920.948 722.282 920.321 721.54 919.476C720.797 918.605 720.426 917.44 720.426 915.98C720.426 914.751 720.758 913.637 721.424 912.638C722.116 911.613 723.115 910.807 724.421 910.218C725.752 909.629 727.327 909.334 729.146 909.334C731.835 909.334 733.948 910 735.484 911.332C737.046 912.663 737.943 914.43 738.173 916.633H732.104C732.001 915.89 731.668 915.301 731.105 914.866C730.567 914.43 729.85 914.213 728.954 914.213C728.185 914.213 727.596 914.366 727.187 914.674C726.777 914.955 726.572 915.352 726.572 915.865C726.572 916.479 726.892 916.94 727.532 917.248C728.198 917.555 729.223 917.862 730.605 918.17C732.193 918.579 733.487 918.989 734.485 919.399C735.484 919.783 736.355 920.423 737.098 921.32C737.866 922.19 738.263 923.368 738.288 924.854C738.288 926.109 737.93 927.235 737.213 928.234C736.521 929.207 735.51 929.976 734.178 930.539C732.872 931.103 731.348 931.384 729.607 931.384Z" fill="white"/>
<path d="M576.971 796.871C577.073 794.13 577.97 792.018 579.66 790.532C581.35 789.047 583.642 788.304 586.536 788.304C588.457 788.304 590.096 788.637 591.453 789.303C592.836 789.969 593.873 790.878 594.565 792.03C595.282 793.183 595.64 794.476 595.64 795.91C595.64 797.6 595.218 798.983 594.373 800.059C593.528 801.109 592.542 801.826 591.415 802.21V802.364C592.875 802.851 594.027 803.657 594.872 804.784C595.717 805.911 596.14 807.358 596.14 809.125C596.14 810.713 595.769 812.121 595.026 813.351C594.309 814.554 593.246 815.502 591.837 816.193C590.454 816.885 588.803 817.23 586.882 817.23C583.809 817.23 581.35 816.475 579.506 814.964C577.688 813.453 576.728 811.174 576.625 808.126H583.002C583.028 809.253 583.348 810.149 583.962 810.815C584.577 811.455 585.473 811.776 586.651 811.776C587.65 811.776 588.418 811.494 588.956 810.93C589.52 810.341 589.801 809.573 589.801 808.626C589.801 807.396 589.404 806.513 588.611 805.975C587.842 805.412 586.6 805.13 584.884 805.13H583.655V799.79H584.884C586.19 799.79 587.24 799.572 588.034 799.137C588.854 798.676 589.264 797.869 589.264 796.717C589.264 795.795 589.007 795.078 588.495 794.566C587.983 794.054 587.279 793.797 586.382 793.797C585.409 793.797 584.679 794.092 584.193 794.681C583.732 795.27 583.463 796 583.386 796.871H576.971ZM603.726 817.307C602.573 817.307 601.626 816.974 600.883 816.309C600.166 815.617 599.807 814.772 599.807 813.773C599.807 812.749 600.166 811.891 600.883 811.199C601.626 810.508 602.573 810.162 603.726 810.162C604.852 810.162 605.774 810.508 606.491 811.199C607.234 811.891 607.606 812.749 607.606 813.773C607.606 814.772 607.234 815.617 606.491 816.309C605.774 816.974 604.852 817.307 603.726 817.307Z" fill="#FCC000"/>
<rect x="435.266" y="757.266" width="313.593" height="211.182" rx="29.3913" stroke="#FCC000" stroke-width="6.53139"/>
<path d="M456.536 208.925C458.098 209.258 459.353 210.04 460.301 211.269C461.248 212.472 461.722 213.855 461.722 215.418C461.722 217.671 460.928 219.464 459.34 220.796C457.778 222.102 455.588 222.755 452.771 222.755H440.21V195.788H452.349C455.089 195.788 457.227 196.415 458.764 197.67C460.326 198.925 461.107 200.628 461.107 202.779C461.107 204.367 460.685 205.686 459.84 206.736C459.02 207.786 457.919 208.516 456.536 208.925ZM446.778 206.697H451.081C452.157 206.697 452.976 206.467 453.539 206.006C454.129 205.519 454.423 204.815 454.423 203.893C454.423 202.971 454.129 202.267 453.539 201.78C452.976 201.294 452.157 201.05 451.081 201.05H446.778V206.697ZM451.619 217.454C452.72 217.454 453.565 217.21 454.154 216.724C454.769 216.212 455.076 215.482 455.076 214.534C455.076 213.586 454.756 212.844 454.116 212.306C453.501 211.768 452.643 211.499 451.542 211.499H446.778V217.454H451.619ZM486.698 201.319V222.755H480.129V219.835C479.464 220.783 478.554 221.551 477.402 222.14C476.275 222.704 475.02 222.985 473.637 222.985C471.998 222.985 470.551 222.627 469.296 221.91C468.042 221.167 467.068 220.104 466.377 218.721C465.685 217.338 465.34 215.712 465.34 213.843V201.319H471.87V212.959C471.87 214.393 472.242 215.507 472.984 216.301C473.727 217.095 474.726 217.492 475.981 217.492C477.261 217.492 478.273 217.095 479.015 216.301C479.758 215.507 480.129 214.393 480.129 212.959V201.319H486.698ZM494.721 199.091C493.568 199.091 492.621 198.758 491.878 198.092C491.161 197.401 490.802 196.556 490.802 195.557C490.802 194.533 491.161 193.688 491.878 193.022C492.621 192.33 493.568 191.985 494.721 191.985C495.847 191.985 496.769 192.33 497.486 193.022C498.229 193.688 498.6 194.533 498.6 195.557C498.6 196.556 498.229 197.401 497.486 198.092C496.769 198.758 495.847 199.091 494.721 199.091ZM497.986 201.319V222.755H491.417V201.319H497.986ZM509.315 194.328V222.755H502.746V194.328H509.315ZM512.77 211.999C512.77 209.796 513.179 207.863 513.999 206.198C514.844 204.533 515.984 203.253 517.418 202.357C518.852 201.46 520.453 201.012 522.22 201.012C523.628 201.012 524.909 201.307 526.061 201.896C527.239 202.485 528.161 203.279 528.827 204.277V194.328H535.396V222.755H528.827V219.682C528.212 220.706 527.329 221.526 526.176 222.14C525.05 222.755 523.731 223.062 522.22 223.062C520.453 223.062 518.852 222.614 517.418 221.718C515.984 220.796 514.844 219.502 513.999 217.838C513.179 216.147 512.77 214.201 512.77 211.999ZM528.827 212.037C528.827 210.398 528.366 209.105 527.444 208.157C526.548 207.21 525.446 206.736 524.14 206.736C522.834 206.736 521.72 207.21 520.798 208.157C519.902 209.079 519.454 210.36 519.454 211.999C519.454 213.638 519.902 214.944 520.798 215.917C521.72 216.865 522.834 217.338 524.14 217.338C525.446 217.338 526.548 216.865 527.444 215.917C528.366 214.969 528.827 213.676 528.827 212.037ZM570.185 201.319L556.74 232.935H549.672L554.589 222.025L545.869 201.319H553.206L558.162 214.726L563.079 201.319H570.185ZM582.318 223.062C580.218 223.062 578.323 222.614 576.633 221.718C574.968 220.821 573.649 219.541 572.676 217.876C571.728 216.212 571.255 214.265 571.255 212.037C571.255 209.835 571.741 207.901 572.714 206.236C573.688 204.546 575.019 203.253 576.71 202.357C578.4 201.46 580.295 201.012 582.395 201.012C584.495 201.012 586.39 201.46 588.08 202.357C589.771 203.253 591.102 204.546 592.076 206.236C593.049 207.901 593.535 209.835 593.535 212.037C593.535 214.24 593.036 216.186 592.037 217.876C591.064 219.541 589.719 220.821 588.004 221.718C586.313 222.614 584.418 223.062 582.318 223.062ZM582.318 217.377C583.573 217.377 584.636 216.916 585.507 215.994C586.403 215.072 586.851 213.753 586.851 212.037C586.851 210.321 586.416 209.002 585.545 208.08C584.7 207.158 583.65 206.697 582.395 206.697C581.115 206.697 580.052 207.158 579.207 208.08C578.361 208.977 577.939 210.296 577.939 212.037C577.939 213.753 578.349 215.072 579.168 215.994C580.013 216.916 581.063 217.377 582.318 217.377ZM618.187 201.319V222.755H611.618V219.835C610.952 220.783 610.043 221.551 608.89 222.14C607.764 222.704 606.509 222.985 605.126 222.985C603.487 222.985 602.04 222.627 600.785 221.91C599.53 221.167 598.557 220.104 597.865 218.721C597.174 217.338 596.828 215.712 596.828 213.843V201.319H603.359V212.959C603.359 214.393 603.73 215.507 604.473 216.301C605.215 217.095 606.214 217.492 607.469 217.492C608.75 217.492 609.761 217.095 610.504 216.301C611.247 215.507 611.618 214.393 611.618 212.959V201.319H618.187ZM629.474 204.892C630.243 203.714 631.203 202.792 632.355 202.126C633.508 201.435 634.788 201.089 636.197 201.089V208.042H634.391C632.752 208.042 631.523 208.4 630.704 209.118C629.884 209.809 629.474 211.038 629.474 212.805V222.755H622.905V201.319H629.474V204.892ZM454.356 281.062C452.256 281.062 450.361 280.614 448.671 279.718C447.006 278.821 445.687 277.541 444.714 275.876C443.766 274.212 443.293 272.265 443.293 270.037C443.293 267.835 443.779 265.901 444.752 264.236C445.726 262.546 447.057 261.253 448.748 260.357C450.438 259.46 452.333 259.012 454.433 259.012C456.533 259.012 458.428 259.46 460.118 260.357C461.809 261.253 463.14 262.546 464.113 264.236C465.087 265.901 465.573 267.835 465.573 270.037C465.573 272.24 465.074 274.186 464.075 275.876C463.102 277.541 461.757 278.821 460.042 279.718C458.351 280.614 456.456 281.062 454.356 281.062ZM454.356 275.377C455.611 275.377 456.674 274.916 457.545 273.994C458.441 273.072 458.889 271.753 458.889 270.037C458.889 268.321 458.454 267.002 457.583 266.08C456.738 265.158 455.688 264.697 454.433 264.697C453.152 264.697 452.09 265.158 451.245 266.08C450.399 266.977 449.977 268.296 449.977 270.037C449.977 271.753 450.387 273.072 451.206 273.994C452.051 274.916 453.101 275.377 454.356 275.377ZM499.829 259.319L494.028 280.755H486.767L483.387 266.849L479.891 280.755H472.669L466.83 259.319H473.399L476.434 274.647L480.045 259.319H486.998L490.647 274.57L493.644 259.319H499.829ZM515.395 259.089C517.904 259.089 519.902 259.908 521.387 261.547C522.898 263.161 523.654 265.389 523.654 268.232V280.755H517.123V269.115C517.123 267.681 516.752 266.567 516.009 265.773C515.267 264.979 514.268 264.582 513.013 264.582C511.758 264.582 510.759 264.979 510.017 265.773C509.274 266.567 508.903 267.681 508.903 269.115V280.755H502.334V259.319H508.903V262.162C509.568 261.214 510.465 260.472 511.592 259.934C512.718 259.371 513.986 259.089 515.395 259.089ZM546.462 253.788C549.305 253.788 551.789 254.351 553.915 255.478C556.041 256.605 557.68 258.193 558.832 260.241C560.01 262.264 560.599 264.608 560.599 267.271C560.599 269.909 560.01 272.252 558.832 274.301C557.68 276.35 556.028 277.938 553.876 279.065C551.751 280.191 549.28 280.755 546.462 280.755H536.359V253.788H546.462ZM546.04 275.069C548.524 275.069 550.458 274.391 551.84 273.033C553.223 271.676 553.915 269.755 553.915 267.271C553.915 264.787 553.223 262.854 551.84 261.471C550.458 260.088 548.524 259.396 546.04 259.396H542.928V275.069H546.04ZM584.476 269.691C584.476 270.306 584.438 270.946 584.361 271.612H569.495C569.597 272.944 570.02 273.968 570.762 274.685C571.531 275.377 572.465 275.723 573.566 275.723C575.206 275.723 576.345 275.031 576.985 273.648H583.977C583.618 275.057 582.965 276.324 582.018 277.451C581.096 278.578 579.931 279.462 578.522 280.102C577.113 280.742 575.538 281.062 573.797 281.062C571.697 281.062 569.827 280.614 568.188 279.718C566.549 278.821 565.269 277.541 564.347 275.876C563.425 274.212 562.964 272.265 562.964 270.037C562.964 267.809 563.412 265.863 564.309 264.198C565.23 262.533 566.511 261.253 568.15 260.357C569.789 259.46 571.671 259.012 573.797 259.012C575.871 259.012 577.715 259.447 579.329 260.318C580.942 261.189 582.197 262.431 583.093 264.044C584.015 265.658 584.476 267.54 584.476 269.691ZM577.754 267.963C577.754 266.836 577.37 265.94 576.601 265.274C575.833 264.608 574.873 264.275 573.72 264.275C572.619 264.275 571.684 264.595 570.916 265.235C570.173 265.875 569.712 266.785 569.533 267.963H577.754ZM586.636 270.037C586.636 267.809 587.084 265.863 587.98 264.198C588.902 262.533 590.17 261.253 591.783 260.357C593.422 259.46 595.292 259.012 597.392 259.012C600.081 259.012 602.322 259.716 604.114 261.125C605.933 262.533 607.124 264.518 607.687 267.079H600.696C600.106 265.44 598.967 264.621 597.277 264.621C596.073 264.621 595.113 265.094 594.395 266.042C593.678 266.964 593.32 268.296 593.32 270.037C593.32 271.779 593.678 273.123 594.395 274.071C595.113 274.993 596.073 275.454 597.277 275.454C598.967 275.454 600.106 274.634 600.696 272.995H607.687C607.124 275.505 605.933 277.477 604.114 278.911C602.296 280.345 600.055 281.062 597.392 281.062C595.292 281.062 593.422 280.614 591.783 279.718C590.17 278.821 588.902 277.541 587.98 275.876C587.084 274.212 586.636 272.265 586.636 270.037ZM624.3 280.755L617.77 271.766V280.755H611.201V252.328H617.77V268.04L624.262 259.319H632.367L623.455 270.076L632.444 280.755H624.3Z" fill="white"/>
<path d="M524.698 143.065V136.957H535.338V165H528.501V143.065H524.698ZM543.558 165.307C542.406 165.307 541.458 164.974 540.716 164.309C539.999 163.617 539.64 162.772 539.64 161.773C539.64 160.749 539.999 159.891 540.716 159.199C541.458 158.508 542.406 158.162 543.558 158.162C544.685 158.162 545.607 158.508 546.324 159.199C547.067 159.891 547.438 160.749 547.438 161.773C547.438 162.772 547.067 163.617 546.324 164.309C545.607 164.974 544.685 165.307 543.558 165.307Z" fill="#FCC000"/>
<rect x="379.549" y="106.266" width="313.593" height="211.182" rx="29.3913" stroke="#FCC000" stroke-width="6.53139"/>
<defs>
<filter id="filter0_f_3744_98608" x="484" y="456" width="160.665" height="161.831" filterUnits="userSpaceOnUse" color-interpolation-filters="sRGB">
<feFlood flood-opacity="0" result="BackgroundImageFix"/>
<feBlend mode="normal" in="SourceGraphic" in2="BackgroundImageFix" result="shape"/>
<feGaussianBlur stdDeviation="12.5" result="effect1_foregroundBlur_3744_98608"/>
</filter>
<linearGradient id="paint0_linear_3744_98608" x1="532.309" y1="323.011" x2="452.339" y2="415.79" gradientUnits="userSpaceOnUse">
<stop stop-color="#ED713C"/>
<stop offset="1" stop-color="#FFC000"/>
</linearGradient>
<linearGradient id="paint1_linear_3744_98608" x1="573.296" y1="321.813" x2="478.43" y2="399.296" gradientUnits="userSpaceOnUse">
<stop stop-color="#ED713C"/>
<stop offset="1" stop-color="#FFC000"/>
</linearGradient>
<linearGradient id="paint2_linear_3744_98608" x1="615.264" y1="326.49" x2="508.385" y2="386.323" gradientUnits="userSpaceOnUse">
<stop stop-color="#ED713C"/>
<stop offset="1" stop-color="#FFC000"/>
</linearGradient>
<linearGradient id="paint3_linear_3744_98608" x1="547.947" y1="528.605" x2="452.563" y2="605.449" gradientUnits="userSpaceOnUse">
<stop stop-color="#ED713C"/>
<stop offset="1" stop-color="#FFC000"/>
</linearGradient>
<linearGradient id="paint4_linear_3744_98608" x1="573.131" y1="528.605" x2="477.747" y2="605.449" gradientUnits="userSpaceOnUse">
<stop stop-color="#ED713C"/>
<stop offset="1" stop-color="#FFC000"/>
</linearGradient>
<linearGradient id="paint5_linear_3744_98608" x1="598.316" y1="529.864" x2="502.932" y2="606.708" gradientUnits="userSpaceOnUse">
<stop stop-color="#ED713C"/>
<stop offset="1" stop-color="#FFC000"/>
</linearGradient>
<clipPath id="clip0_3744_98608">
<rect width="799.013" height="799.013" fill="white" transform="translate(518.079) rotate(40.4209)"/>
</clipPath>
</defs>
</svg>
