<?xml version="1.0" encoding="utf-8"?>
<!-- Generator: Adobe Illustrator 19.0.0, SVG Export Plug-In . SVG Version: 6.00 Build 0)  -->
<svg version="1.1" id="Layer_1" xmlns="http://www.w3.org/2000/svg" xmlns:xlink="http://www.w3.org/1999/xlink" x="0px" y="0px"
	 viewBox="-66 67 32 32" style="enable-background:new -66 67 32 32;" xml:space="preserve">
<style type="text/css">
	.st0{fill:#666666;}
</style>
<g>
	<path class="st0" d="M-50,68c8.3,0,15,6.7,15,15s-6.7,15-15,15s-15-6.7-15-15S-58.3,68-50,68 M-50,67c-8.8,0-16,7.2-16,16
		s7.2,16,16,16s16-7.2,16-16S-41.2,67-50,67L-50,67z"/>
</g>
<path class="st0" d="M-40.8,86.1c0,0.3,0,0.6,0,0.9c-0.9,1.4-2.2,2-3.7,2.4c-0.3,0.1-0.7,0.2-1,0.2c-0.2,0-0.4,0-0.5,0
	c-0.3-0.4-0.6-0.7-0.9-1.2c0.2-0.1,0.4-0.1,0.5-0.2c0.8-0.4,1.6-0.8,2.4-1.2c0.3-0.1,0.4-0.4,0.2-0.6c-0.2-0.3-0.4-0.2-0.7,0
	c-0.4,0.3-0.8,0.5-1.2,0.7c-1.8,0.8-3.6,0.9-5.5,0.7c-1.5-0.2-2.8-0.6-4.1-1.4c-0.2-0.2-0.5-0.3-0.7,0c-0.2,0.3,0,0.5,0.2,0.7
	c0.8,0.4,1.6,0.8,2.4,1.1c0.1,0.1,0.3,0.1,0.5,0.2c-0.3,0.4-0.6,0.8-0.9,1.1c-0.2,0-0.4,0-0.5,0c-0.1,0-0.1-0.1-0.2-0.1
	c-1.8-0.3-3.4-1-4.5-2.6c0-0.3,0-0.6,0-0.9c0.1-0.8,0.2-1.5,0.3-2.3c0.3-1.8,0.8-3.6,1.6-5.2c0.3-0.7,0.8-1.1,1.4-1.5
	c1-0.5,2.1-0.8,3.2-1c0.4-0.1,0.5,0,0.7,0.5c0,0-0.1,0-0.1,0.1c-0.1,0-0.2,0-0.3,0.1c-1,0.2-2,0.6-3,1.1c-0.2,0.1-0.4,0.3-0.3,0.6
	c0.2,0.3,0.4,0.2,0.7,0.1c3.2-1.7,6.5-1.7,9.7,0c0.3,0.1,0.5,0.2,0.7-0.1c0.2-0.3,0-0.5-0.3-0.6c-0.7-0.3-1.4-0.6-2.1-0.9
	c-0.4-0.1-0.8-0.2-1.2-0.3c0.1-0.5,0.2-0.6,0.7-0.5c1.1,0.1,2.2,0.4,3.2,0.9c0.7,0.3,1.1,0.8,1.5,1.5c0.8,1.7,1.3,3.4,1.6,5.2
	C-41,84.6-40.9,85.4-40.8,86.1z M-52.6,82.1c-1,0-1.6,1.1-1.3,2.1c0.2,0.6,0.7,1.1,1.3,1.1c0.6,0,1.1-0.4,1.3-1.1
	C-50.9,83.2-51.6,82.1-52.6,82.1z M-46,83.7c0-1-0.8-1.8-1.7-1.5c-0.6,0.2-1.1,0.8-1.1,1.6c0,0.7,0.5,1.4,1.1,1.5
	C-46.8,85.5-46,84.8-46,83.7z"/>
</svg>
