<?xml version="1.0" encoding="utf-8"?>
<!-- Generator: Adobe Illustrator 19.0.0, SVG Export Plug-In . SVG Version: 6.00 Build 0)  -->
<svg version="1.1" id="Layer_1" xmlns="http://www.w3.org/2000/svg" xmlns:xlink="http://www.w3.org/1999/xlink" x="0px" y="0px"
	 viewBox="-66 67 32 32" style="enable-background:new -66 67 32 32;" xml:space="preserve">
<style type="text/css">
	.st0{fill:#666666;}
</style>
<g>
	<g>
		<path class="st0" d="M-50,68c8.3,0,15,6.7,15,15s-6.7,15-15,15s-15-6.7-15-15S-58.3,68-50,68 M-50,67c-8.8,0-16,7.2-16,16
			s7.2,16,16,16s16-7.2,16-16S-41.2,67-50,67L-50,67z"/>
	</g>
</g>
<path class="st0" d="M-46,78h-2.1c-0.6,0-0.9,0.5-0.9,1.1V80h2.9l-0.5,3h-2.5v8h-3v-8h-2v-3h2v-1.5l0,0c0.1-1.7,0.7-3.4,3.6-3.5l0,0
	h2.4L-46,78L-46,78z"/>
</svg>
