<?xml version="1.0" encoding="utf-8"?>
<!-- Generator: Adobe Illustrator 19.0.0, SVG Export Plug-In . SVG Version: 6.00 Build 0)  -->
<svg version="1.1" id="Layer_1" xmlns="http://www.w3.org/2000/svg" xmlns:xlink="http://www.w3.org/1999/xlink" x="0px" y="0px"
	 viewBox="-66 67 32 32" style="enable-background:new -66 67 32 32;" xml:space="preserve">
<style type="text/css">
	.st0{fill:#666666;}
</style>
<g>
	<path class="st0" d="M-50,68c8.3,0,15,6.7,15,15s-6.7,15-15,15s-15-6.7-15-15S-58.3,68-50,68 M-50,67c-8.8,0-16,7.2-16,16
		s7.2,16,16,16s16-7.2,16-16S-41.2,67-50,67L-50,67z"/>
</g>
<g>
	<path class="st0" d="M-50,79.2c-2.1,0-3.8,1.7-3.8,3.8s1.7,3.8,3.8,3.8s3.8-1.7,3.8-3.8S-47.9,79.2-50,79.2z M-50,85.4
		c-1.3,0-2.4-1.1-2.4-2.4c0-1.3,1.1-2.4,2.4-2.4s2.4,1.1,2.4,2.4C-47.6,84.3-48.7,85.4-50,85.4z"/>
	<circle class="st0" cx="-46.1" cy="79.1" r="0.9"/>
	<path class="st0" d="M-43.8,76.9c-0.8-0.8-1.9-1.2-3.1-1.2H-53c-2.6,0-4.3,1.7-4.3,4.3V86c0,1.3,0.4,2.4,1.2,3.2
		c0.8,0.8,1.9,1.2,3.1,1.2h6c1.3,0,2.3-0.4,3.1-1.2c0.8-0.8,1.2-1.9,1.2-3.1V80C-42.7,78.7-43.1,77.6-43.8,76.9z M-44,86
		c0,0.9-0.3,1.7-0.8,2.2c-0.5,0.5-1.3,0.8-2.2,0.8h-6c-0.9,0-1.6-0.3-2.1-0.8c-0.5-0.5-0.8-1.3-0.8-2.2V80c0-0.9,0.3-1.6,0.8-2.2
		c0.5-0.5,1.3-0.8,2.2-0.8h6.1c0.9,0,1.6,0.3,2.2,0.8c0.5,0.5,0.8,1.3,0.8,2.1V86z"/>
</g>
</svg>
