<?xml version="1.0" encoding="utf-8"?>
<!-- Generator: Adobe Illustrator 19.0.0, SVG Export Plug-In . SVG Version: 6.00 Build 0)  -->
<svg version="1.1" id="Layer_1" xmlns="http://www.w3.org/2000/svg" xmlns:xlink="http://www.w3.org/1999/xlink" x="0px" y="0px"
	 viewBox="-66 67 32 32" style="enable-background:new -66 67 32 32;" xml:space="preserve">
<style type="text/css">
	.st0{fill:#666666;}
</style>
<g>
	<g>
		<path class="st0" d="M-50,68c8.3,0,15,6.7,15,15s-6.7,15-15,15s-15-6.7-15-15S-58.3,68-50,68 M-50,67c-8.8,0-16,7.2-16,16
			s7.2,16,16,16s16-7.2,16-16S-41.2,67-50,67L-50,67z"/>
	</g>
</g>
<path class="st0" d="M-55.5,75c0.8,0,1.5,0.7,1.5,1.5s-0.7,1.5-1.5,1.5s-1.5-0.7-1.5-1.5S-56.3,75-55.5,75z"/>
<rect x="-57" y="79" class="st0" width="3" height="10"/>
<path class="st0" d="M-42,89h-3v-5.4c0-1.1-0.3-2.2-1.6-2.2c-1.3,0-2.4,1.1-2.4,2.3v5.4h-3v-10h3v1.4c0.9-1.2,2.2-1.7,3.7-1.7
	s3.3,0.7,3.3,4.7V89z"/>
</svg>
