<?xml version="1.0" encoding="utf-8"?>
<!-- Generator: Adobe Illustrator 19.0.0, SVG Export Plug-In . SVG Version: 6.00 Build 0)  -->
<svg version="1.1" id="Layer_1" xmlns="http://www.w3.org/2000/svg" xmlns:xlink="http://www.w3.org/1999/xlink" x="0px" y="0px"
	 viewBox="-66 67 32 32" style="enable-background:new -66 67 32 32;" xml:space="preserve">
<style type="text/css">
	.st0{fill:#666666;}
</style>
<g>
	<g>
		<path class="st0" d="M-50,68c8.3,0,15,6.7,15,15s-6.7,15-15,15s-15-6.7-15-15S-58.3,68-50,68 M-50,67c-8.8,0-16,7.2-16,16
			s7.2,16,16,16s16-7.2,16-16S-41.2,67-50,67L-50,67z"/>
	</g>
	<path class="st0" d="M-42,78.9h-0.6c-0.2,0-0.4,0.8-0.4,1.1v8c0,0.2,0.1,0.1,0.4,0.1h0.6V90h-5v-2h1l-0.5-8.4h-0.1L-49.4,90h-2.2
		l-2.8-10.4h-0.1l-0.6,8.4h1v2h-4v-1.9h0.6c0.3,0,0.4,0.1,0.4-0.1v-9c0-0.2-0.1-0.1-0.4-0.1h-0.6V77h6l2,7.5h0.1l2-7.5h6V78.9
		L-42,78.9z"/>
</g>
</svg>
