<?xml version="1.0" encoding="utf-8"?>
<!-- Generator: Adobe Illustrator 19.0.0, SVG Export Plug-In . SVG Version: 6.00 Build 0)  -->
<svg version="1.1" id="Layer_1" xmlns="http://www.w3.org/2000/svg" xmlns:xlink="http://www.w3.org/1999/xlink" x="0px" y="0px"
	 viewBox="-66 67 32 32" style="enable-background:new -66 67 32 32;" xml:space="preserve">
<style type="text/css">
	.st0{fill:#666666;}
</style>
<g>
	<g>
		<path class="st0" d="M-50,68c8.3,0,15,6.7,15,15s-6.7,15-15,15s-15-6.7-15-15S-58.3,68-50,68 M-50,67c-8.8,0-16,7.2-16,16
			s7.2,16,16,16s16-7.2,16-16S-41.2,67-50,67L-50,67z"/>
	</g>
</g>
<g>
	<g>
		<path class="st0" d="M-41.4,82.6c0-1.1-0.9-2-2-2c-0.5,0-0.9,0.2-1.3,0.5c-1.3-0.8-3.1-1.4-5-1.4l1.2-4.1l2.9,0.5c0,0,0,0,0,0.1
			c0,0.7,0.6,1.2,1.3,1.2c0.7,0,1.2-0.6,1.2-1.3c0-0.7-0.6-1.2-1.3-1.2c-0.4,0-0.8,0.3-1,0.6c0,0,0,0,0,0l-3.5-0.7l-1.4,4.8
			c-1.9,0.1-3.7,0.6-5,1.4c-0.4-0.3-0.8-0.5-1.3-0.5c-1.1,0-2,0.9-2,2c0,0.7,0.3,1.3,0.9,1.7c0,0.2-0.1,0.4-0.1,0.6
			c0,2.9,3.5,5.2,7.8,5.2s7.8-2.3,7.8-5.2c0-0.2,0-0.4-0.1-0.6C-41.7,84-41.4,83.3-41.4,82.6z M-53.7,84c0-0.7,0.5-1.2,1.2-1.2
			c0.7,0,1.2,0.5,1.2,1.2c0,0.7-0.5,1.2-1.2,1.2C-53.2,85.2-53.7,84.7-53.7,84z M-47.1,87.3c0,0-0.9,0.9-2.9,0.9
			c-2,0-2.8-0.9-2.8-0.9c-0.1-0.1-0.1-0.3,0-0.4c0.1-0.1,0.3-0.1,0.4,0c0,0,0.7,0.7,2.4,0.7c1.7,0,2.4-0.7,2.5-0.7
			c0.1-0.1,0.3-0.1,0.4,0C-47,87-47,87.2-47.1,87.3z M-47.4,85.2c-0.7,0-1.2-0.5-1.2-1.2c0-0.7,0.5-1.2,1.2-1.2
			c0.7,0,1.2,0.5,1.2,1.2C-46.1,84.7-46.7,85.2-47.4,85.2z"/>
	</g>
</g>
</svg>
