<?xml version="1.0" encoding="utf-8"?>
<!-- Generator: Adobe Illustrator 19.0.0, SVG Export Plug-In . SVG Version: 6.00 Build 0)  -->
<svg version="1.1" xmlns="http://www.w3.org/2000/svg" xmlns:xlink="http://www.w3.org/1999/xlink" x="0px" y="0px"
	 viewBox="-66 67 32 32" style="enable-background:new -66 67 32 32;" xml:space="preserve">
<style type="text/css">
	.st0{fill:#666666;}
</style>
<g id="Layer_1">
	<g>
		<g>
			<path class="st0" d="M-50,68c8.3,0,15,6.7,15,15s-6.7,15-15,15s-15-6.7-15-15S-58.3,68-50,68 M-50,67c-8.8,0-16,7.2-16,16
				s7.2,16,16,16s16-7.2,16-16S-41.2,67-50,67L-50,67z"/>
		</g>
	</g>
</g>
<g id="Calque_2">
</g>
<g id="Calque_3">
	<g>
		<path class="st0" d="M-43,75.4l-16.4,6.3c-0.4,0.2-0.4,0.7,0,0.9l4,1.5l1.5,5c0.1,0.3,0.4,0.4,0.7,0.2l2.2-1.8
			c0.2-0.2,0.6-0.2,0.8,0l4,2.9c0.2,0.2,0.6,0,0.7-0.3l3.1-14.2C-42.3,75.6-42.7,75.3-43,75.4z M-46.3,78.9l-6.4,6
			c-0.2,0.2-0.4,0.5-0.4,0.8l-0.2,1.6c0,0.2-0.3,0.2-0.4,0l-0.8-3c-0.1-0.4,0-0.7,0.3-0.9l7.8-4.8C-46.3,78.5-46.1,78.7-46.3,78.9z"
			/>
	</g>
</g>
</svg>
