<?xml version="1.0" encoding="utf-8"?>
<!-- Generator: Adobe Illustrator 19.0.0, SVG Export Plug-In . SVG Version: 6.00 Build 0)  -->
<svg version="1.1" xmlns="http://www.w3.org/2000/svg" xmlns:xlink="http://www.w3.org/1999/xlink" x="0px" y="0px"
	 viewBox="-66 67 32 32" style="enable-background:new -66 67 32 32;" xml:space="preserve">
<style type="text/css">
	.st0{fill:#666666;}
</style>
<g id="Layer_1">
	<g>
		<g>
			<path class="st0" d="M-50,68.1c8.2,0,14.9,6.7,14.9,14.9c0,8.2-6.7,14.9-14.9,14.9S-64.9,91.2-64.9,83S-58.2,68.1-50,68.1
				 M-50,67.1c-8.8,0-15.9,7.1-15.9,15.9c0,8.8,7.1,15.9,15.9,15.9s15.9-7.1,15.9-15.9C-34.1,74.2-41.2,67.1-50,67.1L-50,67.1z"/>
		</g>
	</g>
</g>
<g id="Calque_2">
	<path class="st0" d="M-47.4,75h1.1v4.2c0,0.1,0,0.2,0.1,0.3c0,0.1,0.1,0.1,0.2,0.1c0.1,0,0.2,0,0.3-0.1s0.2-0.2,0.3-0.3v-4.1h1.1
		v5.4h-1.1v-0.6c-0.2,0.2-0.4,0.4-0.6,0.5s-0.4,0.2-0.6,0.2c-0.3,0-0.4-0.1-0.6-0.2c-0.1-0.2-0.2-0.4-0.2-0.7
		C-47.4,79.5-47.4,75-47.4,75z"/>
	<polygon class="st0" points="-54.6,73 -53.8,75.9 -53.7,75.9 -52.9,73 -51.6,73 -53.1,77.4 -53.1,80.5 -54.4,80.5 -54.4,77.6 
		-55.9,73.2 -54.6,73.2 	"/>
</g>
<g id="Calque_3">
	<g>
		<path class="st0" d="M-48.8,75.2c-0.3-0.3-0.6-0.4-1.1-0.4s-0.9,0.2-1.2,0.4c-0.3,0.2-0.4,0.6-0.4,1l-0.1,2.8
			c0,0.5,0.1,0.8,0.4,1.1c0.3,0.3,0.7,0.4,1.2,0.4s0.9-0.1,1.2-0.4c0.3-0.3,0.4-0.6,0.4-1.1v-2.8C-48.4,75.8-48.5,75.5-48.8,75.2z
			 M-49.4,79.2c0,0.1,0,0.2-0.1,0.3c-0.1,0.1-0.2,0.1-0.4,0.1c-0.2,0-0.3,0-0.3-0.1c-0.1,0-0.1-0.2-0.1-0.3v-3c0-0.1,0-0.2,0.1-0.3
			c0.1-0.1,0.2-0.1,0.3-0.1c0.2,0,0.3,0,0.4,0.1c0.1,0.1,0.1,0.2,0.1,0.3V79.2z"/>
	</g>
	<g>
		<path class="st0" d="M-47.9,85.7c-0.1,0-0.1,0-0.2,0c-0.1,0.1-0.1,0.1-0.2,0.2V89c0,0.1,0.1,0.2,0.2,0.2c0,0.1,0.1,0.1,0.2,0.1
			c0.2,0,0.2,0,0.3-0.1c0.1,0,0.1-0.1,0.1-0.3v-2.7c0-0.2,0-0.3-0.1-0.4C-47.7,85.7-47.8,85.7-47.9,85.7z"/>
		<path class="st0" d="M-44.3,86.1c0-0.1-0.2-0.1-0.3-0.1c-0.1,0-0.2,0-0.3,0.1c-0.1,0-0.1,0.2-0.1,0.4V87h0.9l-0.1-0.5
			C-44.2,86.3-44.2,86.2-44.3,86.1z"/>
		<path class="st0" d="M-43.6,82.1H-56c-2,0-3.6,1.6-3.6,3.6v2.8c0,2,1.6,3.6,3.6,3.6h12.4c2,0,3.6-1.6,3.6-3.6v-2.8
			C-40,83.7-41.6,82.1-43.6,82.1z M-53.4,84.4h-1.1v5.7h-1.1v-5.7h-1.2v-1h3.4V84.4z M-50.1,89.9h-1v-0.5c-0.2,0.2-0.4,0.4-0.6,0.5
			c-0.2,0.1-0.4,0.2-0.6,0.2s-0.4-0.1-0.5-0.2c-0.1-0.2-0.2-0.4-0.2-0.7v-4.1h1v3.8c0,0.2,0.1,0.2,0.1,0.3c0,0.1,0.1,0.1,0.2,0.1
			c0.1,0,0.2,0,0.3-0.1c0.1-0.1,0.2-0.2,0.3-0.3V85h1V89.9z M-46.6,89c0,0.3,0,0.6-0.2,0.8c-0.2,0.2-0.4,0.3-0.7,0.3
			c-0.2,0-0.4,0-0.5-0.1c-0.1,0-0.3-0.1-0.4-0.3V90h-1v-6.7h1v2.2c0.1-0.1,0.3-0.2,0.4-0.3c0.2-0.1,0.3-0.1,0.5-0.1
			c0.3,0,0.6,0.1,0.7,0.3c0.1,0.2,0.2,0.5,0.2,0.9V89z M-43.1,87.7h-1.8v0.9c0,0.2,0,0.4,0.1,0.5c0,0.1,0.1,0.1,0.3,0.1
			c0.1,0,0.2,0,0.3-0.1c0.1-0.1,0.1-0.3,0.1-0.6v-0.2h1v0.3c0,0.5-0.2,0.8-0.4,1.1s-0.6,0.4-1.1,0.4c-0.4,0-0.7-0.1-1-0.4
			c-0.3-0.3-0.4-0.6-0.4-1.1v-2.2c0-0.4,0.1-0.7,0.4-1c0.3-0.3,0.7-0.4,1.1-0.4s0.8,0.1,1,0.3c0.3,0.3,0.4,0.6,0.4,1.1V87.7z"/>
	</g>
</g>
</svg>
